<svg width="1279" height="311" viewBox="0 0 1279 311" fill="none" xmlns="http://www.w3.org/2000/svg">
<g clip-path="url(#clip0_1179_2332)">
<path d="M83.5 44.9995L-4 111V183H1294V67.9995L1237 130.5L1111 75.9995L1060.5 130.5L990.5 90.9995L976.5 44.9995L827.5 99.9995L741 67.9995V111L650 130.5L597.5 83.4995L479 143.5L449.5 99.9995L442 50.4995L330.5 75.9995L299.5 130.5L255 111L222 75.9995L153.5 111L83.5 44.9995Z" fill="url(#paint0_linear_1179_2332)"/>
<path opacity="0.72" d="M1294 183V67.9995L1237 130.5L1111 75.9995L1060.5 130.5L990.5 90.9995L976.5 44.9995L827.5 99.9995L741 67.9995V111L650 130.5L597.5 83.4995L479 143.5L449.5 99.9995L442 50.4995L330.5 75.9995L299.5 130.5L255 111L222 75.9995L153.5 111L83.5 44.9995L-4 111V183" stroke="url(#paint1_radial_1179_2332)" stroke-width="3.42"/>
<g opacity="0.1">
<path d="M170.307 250.863L79.697 247.439L79.697 167.704L7.54421 194.363C31.5951 151.969 79.697 63.7547 79.697 50.0579L79.697 167.704L157.003 110.687L221.503 79.1866L256.779 110.687L466.004 202.687L485.465 238.633L334.003 202.687L173.829 325.217L170.307 250.863Z" fill="url(#paint2_linear_1179_2332)" fill-opacity="0.11"/>
<path d="M221.503 79.1866L157.003 110.687M221.503 79.1866L256.779 110.687M221.503 79.1866L200.503 145.187M187.804 427.698L173.829 325.217M170.307 250.863L79.697 247.439M170.307 250.863L157.003 110.687M170.307 250.863L334.003 202.687M170.307 250.863L173.829 325.217M79.697 247.439L7.54419 427.698M79.697 247.439L79.697 167.704M79.697 50.0579L-85.3984 182.868L-238.998 247.439M79.697 50.0579L-172.716 306.139M79.697 50.0579C79.697 63.7547 31.5951 151.969 7.54421 194.363L79.697 167.704M79.697 50.0579L79.697 167.704M79.697 167.704L157.003 110.687M157.003 110.687L200.503 145.187M256.779 110.687L200.503 145.187M256.779 110.687L466.004 202.687M200.503 145.187L334.003 202.687M334.003 202.687L173.829 325.217M334.003 202.687L299.004 351.687M334.003 202.687L485.465 238.633L466.004 202.687M330.504 79.1866L466.004 202.687M466.004 202.687L451 102.687M466.004 202.687L481.5 142.187" stroke="url(#paint3_radial_1179_2332)" stroke-width="3.4242"/>
</g>
<g opacity="0.1">
<path d="M830.499 101.187L978.498 44.1865L1006.33 168.687L1063.5 130.187L1028.05 271.261L864.913 314.876L862.865 225.052L732.995 321.339L721.906 265.316L763.757 229.363L802.002 146.863L830.499 101.187Z" fill="url(#paint4_linear_1179_2332)" fill-opacity="0.11"/>
<path d="M699.933 222.538L802.002 146.863M978.498 44.1865L830.499 101.187L802.002 146.863M978.498 44.1865L862.865 225.052M978.498 44.1865L763.757 229.363M978.498 44.1865L1006.33 168.687M862.865 225.052L732.995 321.339L721.906 265.316L763.757 229.363M862.865 225.052L763.757 229.363M862.865 225.052L864.913 314.876M802.002 146.863L763.757 229.363M864.913 314.876L1028.05 271.261M864.913 314.876L833.579 372.818M1028.05 271.261L1007 171.686L1006.33 168.687M1028.05 271.261L1063.5 130.187L1006.33 168.687" stroke="url(#paint5_radial_1179_2332)" stroke-width="3.4242"/>
</g>
<g opacity="0.1">
<path d="M526.001 146.686L601.245 89.1864L629.745 216.686L650.797 130.186L705.001 223.186L629.745 216.686L485.612 270.052L503.001 205.187L467.001 199.187L526.001 146.686Z" fill="url(#paint6_linear_1179_2332)" fill-opacity="0.11"/>
<path d="M601.245 89.1864L526.001 146.686L467.001 199.187L503.001 205.187M601.245 89.1864L485.612 270.052M601.245 89.1864L503.001 205.187M601.245 89.1864L629.745 216.686M485.612 270.052L503.001 205.187M485.612 270.052L629.745 216.686M629.745 216.686L705.001 223.186L650.797 130.186L629.745 216.686ZM629.745 216.686L622.5 339.186" stroke="url(#paint7_radial_1179_2332)" stroke-width="3.4242"/>
</g>
<path opacity="0.1" d="M1120.26 157.818L1028.5 272.686L1039.5 353.186M1120.26 157.818L1240.5 131.686M1120.26 157.818L1229.62 197.501M1120.26 157.818L1113.5 74.6864M1120.26 157.818L1162.06 255.502M1240.5 131.686L1203.87 353.186M1240.5 131.686L1285 197.501L1261 325.186M1203.87 353.186L1162.06 255.502M1203.87 353.186L1261 325.186M1261 325.186L1285 343.186M1261 325.186L1229.62 450.686M1162.06 255.502L1039.5 353.186M1039.5 353.186L1008.5 474.686" stroke="url(#paint8_radial_1179_2332)" stroke-width="3.4242"/>
</g>
<defs>
<linearGradient id="paint0_linear_1179_2332" x1="-4" y1="114" x2="1294" y2="114" gradientUnits="userSpaceOnUse">
<stop stop-color="#2E0050"/>
<stop offset="1" stop-color="#450079"/>
</linearGradient>
<radialGradient id="paint1_radial_1179_2332" cx="0" cy="0" r="1" gradientUnits="userSpaceOnUse" gradientTransform="translate(445.5 44.9995) scale(817 410.014)">
<stop stop-color="#825096"/>
<stop offset="1" stop-color="#969696" stop-opacity="0"/>
</radialGradient>
<linearGradient id="paint2_linear_1179_2332" x1="333.084" y1="376.58" x2="211.77" y2="87.4795" gradientUnits="userSpaceOnUse">
<stop stop-color="#787878"/>
<stop offset="1" stop-color="#FF00FF"/>
</linearGradient>
<radialGradient id="paint3_radial_1179_2332" cx="0" cy="0" r="1" gradientUnits="userSpaceOnUse" gradientTransform="translate(201 2.6865) rotate(82.7597) scale(430.893 458.873)">
<stop stop-color="white"/>
<stop offset="1" stop-color="#999999" stop-opacity="0"/>
</radialGradient>
<linearGradient id="paint4_linear_1179_2332" x1="601.65" y1="-165.874" x2="871.283" y2="-5.89173" gradientUnits="userSpaceOnUse">
<stop stop-color="#787878"/>
<stop offset="1" stop-color="#FF00FF"/>
</linearGradient>
<radialGradient id="paint5_radial_1179_2332" cx="0" cy="0" r="1" gradientUnits="userSpaceOnUse" gradientTransform="translate(985.183 17.1411) rotate(-142.344) scale(445.826 474.776)">
<stop stop-color="white"/>
<stop offset="1" stop-color="#999999" stop-opacity="0"/>
</radialGradient>
<linearGradient id="paint6_linear_1179_2332" x1="224.396" y1="-120.874" x2="494.029" y2="39.1083" gradientUnits="userSpaceOnUse">
<stop stop-color="#787878"/>
<stop offset="1" stop-color="#FF00FF"/>
</linearGradient>
<radialGradient id="paint7_radial_1179_2332" cx="0" cy="0" r="1" gradientUnits="userSpaceOnUse" gradientTransform="translate(572 66.6864) rotate(113.692) scale(236.426 251.778)">
<stop stop-color="white"/>
<stop offset="1" stop-color="#999999" stop-opacity="0"/>
</radialGradient>
<radialGradient id="paint8_radial_1179_2332" cx="0" cy="0" r="1" gradientUnits="userSpaceOnUse" gradientTransform="translate(907.517 30.8358) rotate(-115.393) scale(445.826 474.776)">
<stop stop-color="white"/>
<stop offset="1" stop-color="#999999" stop-opacity="0"/>
</radialGradient>
<clipPath id="clip0_1179_2332">
<rect width="1279" height="311" fill="white"/>
</clipPath>
</defs>
</svg>
