<svg width="467" height="412" viewBox="0 0 467 412" fill="none" xmlns="http://www.w3.org/2000/svg">
<g clip-path="url(#clip0_1179_2334)">
<g opacity="0.25" filter="url(#filter0_d_1179_2334)">
<path d="M86.6775 143.782L117.636 106.418L153.305 135.971L174.044 88.7404C184.095 115.213 205.729 169.426 211.856 174.503L153.305 135.971L146.226 180.816L176.426 199.598L129.965 271.264L0.00964454 320.99L-28.8195 291.199L-25.4132 282.894L-122.298 302.689L-101.809 195.112L20.7848 170.264L47.9527 119.699L86.6775 143.782Z" fill="url(#paint0_linear_1179_2334)" fill-opacity="0.11" shape-rendering="crispEdges"/>
<path d="M169.422 263.729L205.282 242.051L284.279 307.503L349.469 197.197L360.053 278.852L284.279 307.503L267.098 359.419L181.107 406.637L167.502 356.245L112.186 372.414L122.328 320.57L169.422 263.729Z" fill="url(#paint1_linear_1179_2334)" fill-opacity="0.11" shape-rendering="crispEdges"/>
<path d="M176.426 199.598L146.226 180.816M176.426 199.598L110.49 255.128M176.426 199.598L135.618 202.876M176.426 199.598L129.965 271.264L0.009649 320.99M-3.07139 87.967L47.9527 119.699M86.6775 143.782L117.636 106.418M86.6775 143.782L146.226 180.816M86.6775 143.782L20.7848 170.264M86.6775 143.782L47.9527 119.699M117.636 106.418L63.7402 7.32876M117.636 106.418L153.305 135.971M153.305 135.971L211.856 174.503C205.729 169.426 184.095 115.213 174.044 88.7404L153.305 135.971ZM153.305 135.971L146.226 180.816M146.226 180.816L135.618 202.876M110.49 255.128L135.618 202.876M110.49 255.128L-122.298 302.689L-101.809 195.112L20.7848 170.264M110.49 255.128L0.009649 320.99M135.618 202.876L20.7848 170.264M20.7848 170.264L47.9527 119.699M20.7848 170.264L-28.8195 291.199L0.009649 320.99M205.282 242.051L169.422 263.729L122.328 320.57L112.186 372.414M205.282 242.051L167.502 356.245M205.282 242.051L112.186 372.414M205.282 242.051L284.279 307.503M167.502 356.245L112.186 372.414M167.502 356.245L181.107 406.637M181.107 406.637L267.098 359.419M181.107 406.637L171.461 443.668M267.098 359.419L284.279 307.503M267.098 359.419L291.023 404.706M284.279 307.503L360.053 278.852M284.279 307.503L349.47 197.197M360.053 278.852L349.47 197.197M360.053 278.852L411.043 296.373M349.47 197.197L390.082 148.179M349.47 197.197L401.315 182.95" stroke="url(#paint2_radial_1179_2334)" stroke-width="1.98926" shape-rendering="crispEdges"/>
</g>
<g opacity="0.2" filter="url(#filter1_d_1179_2334)">
<path d="M238.922 68.5372L195.982 91.1348L217.554 132.126L262.896 134.437L275.054 167.859L354.753 137.156L430.182 20.23L406.968 -14.1174L398.14 -12.4947L437.467 -103.224L327.976 -105.334L278.409 9.51236L223.332 25.6821L238.922 68.5372Z" fill="url(#paint3_linear_1179_2334)" fill-opacity="0.11" shape-rendering="crispEdges"/>
<path d="M339.253 174.215L310.653 204.84L358.428 295.625L412.771 289.507L476.689 215.086L430.18 191.392L513.295 147.653L486.759 127.739L457.397 140.594L404.575 139.839L339.253 174.215Z" fill="url(#paint4_linear_1179_2334)" fill-opacity="0.11" shape-rendering="crispEdges"/>
<path d="M275.054 167.859L262.896 134.437M275.054 167.859L342.975 114.774M275.054 167.859L286.667 128.6M275.054 167.859L354.753 137.156L430.182 20.23M202.791 -30.7842L223.332 25.6821M238.922 68.5372L195.982 91.1348M238.922 68.5372L262.896 134.437M238.922 68.5372L278.409 9.51236M238.922 68.5372L223.332 25.6821M195.982 91.1348L110.12 17.9843M195.982 91.1348L217.554 132.126M243.199 197.359L217.554 132.126M217.554 132.126L262.896 134.437M262.896 134.437L286.667 128.6M342.975 114.774L286.667 128.6M342.975 114.774L437.467 -103.224L327.976 -105.334L278.409 9.51236M342.975 114.774L430.182 20.23M286.667 128.6L278.409 9.51236M278.409 9.51236L223.332 25.6821M278.409 9.51236L406.968 -14.1174L430.182 20.23M469.898 105.462L404.575 139.839M310.653 204.84L339.253 174.215L404.575 139.839M310.653 204.84L430.18 191.392M310.653 204.84L457.397 140.594M310.653 204.84L358.428 295.625L412.771 289.507M430.18 191.392L513.295 147.653L486.759 127.739L457.397 140.594M430.18 191.392L457.397 140.594M430.18 191.392L476.689 215.086M404.575 139.839L457.397 140.594M476.689 215.086L412.771 289.507M476.689 215.086L514.913 213.275M412.771 289.507L452.158 322.247" stroke="url(#paint5_radial_1179_2334)" stroke-width="1.98926" shape-rendering="crispEdges"/>
</g>
</g>
<defs>
<filter id="filter0_d_1179_2334" x="-127.551" y="6.85352" width="542.918" height="445.066" filterUnits="userSpaceOnUse" color-interpolation-filters="sRGB">
<feFlood flood-opacity="0" result="BackgroundImageFix"/>
<feColorMatrix in="SourceAlpha" type="matrix" values="0 0 0 0 0 0 0 0 0 0 0 0 0 0 0 0 0 0 127 0" result="hardAlpha"/>
<feOffset dy="4"/>
<feGaussianBlur stdDeviation="2"/>
<feComposite in2="hardAlpha" operator="out"/>
<feColorMatrix type="matrix" values="0 0 0 0 0 0 0 0 0 0 0 0 0 0 0 0 0 0 0.25 0"/>
<feBlend mode="normal" in2="BackgroundImageFix" result="effect1_dropShadow_1179_2334"/>
<feBlend mode="normal" in="SourceGraphic" in2="effect1_dropShadow_1179_2334" result="shape"/>
</filter>
<filter id="filter1_d_1179_2334" x="105.477" y="-106.341" width="413.672" height="437.353" filterUnits="userSpaceOnUse" color-interpolation-filters="sRGB">
<feFlood flood-opacity="0" result="BackgroundImageFix"/>
<feColorMatrix in="SourceAlpha" type="matrix" values="0 0 0 0 0 0 0 0 0 0 0 0 0 0 0 0 0 0 127 0" result="hardAlpha"/>
<feOffset dy="4"/>
<feGaussianBlur stdDeviation="2"/>
<feComposite in2="hardAlpha" operator="out"/>
<feColorMatrix type="matrix" values="0 0 0 0 0 0 0 0 0 0 0 0 0 0 0 0 0 0 0.25 0"/>
<feBlend mode="normal" in2="BackgroundImageFix" result="effect1_dropShadow_1179_2334"/>
<feBlend mode="normal" in="SourceGraphic" in2="effect1_dropShadow_1179_2334" result="shape"/>
</filter>
<linearGradient id="paint0_linear_1179_2334" x1="-34.052" y1="171.906" x2="140.24" y2="224.789" gradientUnits="userSpaceOnUse">
<stop stop-color="#787878"/>
<stop offset="1" stop-color="#FF00FF"/>
</linearGradient>
<linearGradient id="paint1_linear_1179_2334" x1="-34.052" y1="171.906" x2="140.24" y2="224.789" gradientUnits="userSpaceOnUse">
<stop stop-color="#787878"/>
<stop offset="1" stop-color="#FF00FF"/>
</linearGradient>
<radialGradient id="paint2_radial_1179_2334" cx="0" cy="0" r="1" gradientUnits="userSpaceOnUse" gradientTransform="translate(221.883 266.795) rotate(-149.222) scale(292.227 311.202)">
<stop stop-color="white"/>
<stop offset="1" stop-color="#999999" stop-opacity="0"/>
</radialGradient>
<linearGradient id="paint3_linear_1179_2334" x1="291.311" y1="-43.8104" x2="307.158" y2="137.637" gradientUnits="userSpaceOnUse">
<stop stop-color="#787878"/>
<stop offset="1" stop-color="#FF00FF"/>
</linearGradient>
<linearGradient id="paint4_linear_1179_2334" x1="291.311" y1="-43.8104" x2="307.158" y2="137.637" gradientUnits="userSpaceOnUse">
<stop stop-color="#787878"/>
<stop offset="1" stop-color="#FF00FF"/>
</linearGradient>
<radialGradient id="paint5_radial_1179_2334" cx="0" cy="0" r="1" gradientUnits="userSpaceOnUse" gradientTransform="translate(331.446 226.181) rotate(-74.6194) scale(247.37 263.433)">
<stop stop-color="white"/>
<stop offset="1" stop-color="#999999" stop-opacity="0"/>
</radialGradient>
<clipPath id="clip0_1179_2334">
<rect width="467" height="412" fill="white"/>
</clipPath>
</defs>
</svg>
