<svg width="375" height="328" viewBox="0 0 375 328" fill="none" xmlns="http://www.w3.org/2000/svg">
<g filter="url(#filter0_d_1696_2603)">
<path d="M69.7752 160.614L66.2645 147.529L76.9658 144.071L72.0166 136.419L82.8487 129.413L73.2661 114.597L90.1873 117.161L64.7578 60.703L94.0088 105.443L92.8242 87.207L105.493 121.644L109.567 95.506L120.522 124.847L163.274 100.138L181.519 147.567L230.953 155.079L215.208 208.56L205.927 222.183L217.052 221.569L203.084 230.603L229.356 272.687L198.661 242.89L177.959 224.48C175.817 221.17 178.033 232.077 178.033 232.077L190.38 264.458L161.972 221.363L147.272 248.071L145.902 232.461L127.976 250.498C125.939 253.845 124.202 226.32 124.826 218.066L76.4464 204.214L65.0488 203.158L83.0787 191.496L59.7982 167.067L69.7752 160.614Z" fill="black"/>
<path d="M65.3029 60.3469L93.1973 103.013L92.1741 87.249L91.8828 82.762L93.4355 86.9821L105.236 119.063L108.924 95.405L109.307 92.9476L110.177 95.2783L120.862 123.898L162.948 99.5747L163.608 99.193L163.882 99.9048L181.99 146.98L231.051 154.436L231.789 154.547L231.578 155.263L215.833 208.744L215.804 208.842L215.746 208.927L207.206 221.46L217.016 220.919L219.466 220.783L203.976 230.802L229.909 272.342L232.742 276.882L228.902 273.155L198.218 243.368L177.68 225.104C177.682 225.195 177.686 225.292 177.691 225.395C177.716 225.852 177.768 226.387 177.839 226.957C177.98 228.097 178.188 229.344 178.361 230.31C178.448 230.792 178.526 231.202 178.582 231.492C178.61 231.636 178.632 231.75 178.647 231.828C178.652 231.855 178.657 231.878 178.66 231.896L190.989 264.226L193.104 269.773L189.837 264.817L162.021 222.623L147.843 248.385L146.811 250.26L146.624 248.128L145.375 233.915L128.483 250.91C128.32 251.152 127.998 251.499 127.496 251.419C127.248 251.38 127.065 251.243 126.947 251.123C126.827 251.001 126.733 250.855 126.656 250.713C126.363 250.168 126.117 249.244 125.898 248.128C125.451 245.852 125.06 242.438 124.754 238.686C124.167 231.487 123.886 222.922 124.144 218.547L76.3267 204.857L64.9889 203.806L63.1158 203.632L82.0648 191.376L59.3273 167.516L58.7848 166.947L69.0231 160.325L65.6358 147.698L65.4753 147.099L66.0641 146.909L75.9578 143.712L71.116 136.226L81.948 129.22L71.934 113.737L73.3637 113.954L89.1021 116.338L64.1642 60.9706L60.7391 53.3664L65.3029 60.3469Z" stroke="url(#paint0_linear_1696_2603)" stroke-width="1.30235" stroke-miterlimit="16"/>
</g>
<g filter="url(#filter1_d_1696_2603)">
<g filter="url(#filter2_d_1696_2603)">
<path d="M208.646 116.688C219.162 119.404 229.17 124.684 235.622 134.255C242.289 144.143 243.059 155.433 240.299 166.112C239.094 170.776 237.187 175.403 234.268 179.56C236.768 186.786 235.939 194.139 234.414 200.041C231.499 211.323 224.945 221.056 213.928 226.622C205.719 230.769 196.879 231.663 188.166 230.544L186.085 235.312L184.83 238.183L182.352 240.1L174.859 230.41L181.412 238.891C182.306 240.05 182.343 240.103 182.342 240.107C182.341 240.109 182.334 240.113 182.331 240.116C182.324 240.121 182.317 240.126 182.31 240.131C182.296 240.142 182.282 240.154 182.267 240.165C182.236 240.189 182.203 240.213 182.168 240.239C182.099 240.292 182.02 240.349 181.933 240.412C181.76 240.537 181.551 240.681 181.31 240.842C180.828 241.163 180.208 241.55 179.455 241.968C177.952 242.802 175.891 243.774 173.318 244.584C168.101 246.226 160.927 247.146 152.41 245.07L106.115 233.784C89.8306 229.814 78.2666 216.523 75.709 200.965L64.0458 199.593C55.6853 198.61 48.8007 192.534 46.8036 184.336L30.0196 115.432C26.7448 101.989 37.6587 89.3632 51.387 90.5736L72.0247 92.3932L72.7654 92.4716C80.1453 93.397 86.4323 98.3181 89.0935 105.277L89.3472 105.98L94.6083 121.422L102.81 122.862L104.441 114.77C106.51 104.508 116.074 97.5594 126.444 98.7135L146.155 100.909C150.339 101.374 154.061 103.082 157.016 105.609C159.863 104.979 162.887 104.958 165.902 105.656L166.407 105.779L208.646 116.688ZM94.8747 199.786C92.8916 200.808 90.7167 201.507 88.417 201.818C91.0349 211.426 98.6563 219.358 109.015 221.884L155.311 233.169C167.459 236.131 174.859 230.41 174.859 230.41L176.086 227.599L137.065 214.098C134.588 213.241 132.378 211.944 130.496 210.321C128.604 210.48 126.659 210.374 124.708 209.97L105.773 206.043C101.399 205.136 97.6502 202.874 94.8747 199.786ZM64.5674 181.975C64.6279 182.021 64.6903 182.065 64.7542 182.106C64.6267 182.023 64.5057 181.931 64.3922 181.831L64.5674 181.975ZM128.339 193.216C128.289 193.208 128.238 193.199 128.187 193.188L128.188 193.188C128.239 193.199 128.289 193.208 128.34 193.216C128.391 193.224 128.441 193.23 128.492 193.236C128.441 193.23 128.39 193.224 128.339 193.216ZM140.63 195.149C140.631 195.165 140.633 195.18 140.634 195.196C140.632 195.157 140.631 195.118 140.63 195.079C140.631 195.103 140.629 195.126 140.63 195.149ZM217.976 184.902L217.977 184.902L217.976 184.902ZM215.183 180.072C215.26 180.198 215.342 180.321 215.434 180.438C215.388 180.379 215.345 180.318 215.302 180.257C215.261 180.196 215.221 180.135 215.183 180.072ZM214.882 179.464C214.828 179.328 214.781 179.189 214.741 179.048C214.781 179.189 214.828 179.328 214.882 179.464ZM49.881 107.646C49.8087 107.639 49.737 107.636 49.6658 107.635C49.7373 107.636 49.8094 107.64 49.882 107.646L70.5187 109.465L49.881 107.646ZM144.259 117.941L124.548 115.747L144.258 117.942C144.314 117.948 144.37 117.955 144.424 117.964L144.259 117.941ZM145.063 118.144C145.158 118.182 145.25 118.225 145.34 118.272L145.198 118.202C145.154 118.181 145.109 118.162 145.063 118.144ZM162.121 122.372L162.122 122.374L204.359 133.283C204.696 133.37 205.028 133.46 205.356 133.552C205.272 133.528 205.189 133.504 205.105 133.481C204.859 133.413 204.611 133.347 204.36 133.282L162.121 122.372ZM215.08 179.892C215.11 179.947 215.141 180.002 215.173 180.056C215.141 180.002 215.11 179.947 215.08 179.892Z" fill="#D9D9D9"/>
</g>
<path d="M82.2822 186.258C86.7828 167.796 105.397 156.478 123.859 160.979L170.154 172.265C175.746 173.628 181.014 176.759 185.293 180.472C189.574 184.187 193.254 188.821 195.411 193.633L196.518 196.105L195.434 198.588L180.467 232.861L179.84 234.296L178.601 235.255L174.855 230.41L178.596 235.259C178.595 235.26 178.592 235.261 178.59 235.263C178.587 235.265 178.583 235.268 178.579 235.271C178.572 235.277 178.564 235.284 178.555 235.29C178.538 235.303 178.519 235.317 178.498 235.333C178.456 235.364 178.406 235.401 178.348 235.442C178.233 235.525 178.086 235.628 177.909 235.747C177.555 235.982 177.077 236.282 176.48 236.613C175.286 237.275 173.603 238.073 171.475 238.743C167.182 240.094 161.151 240.899 153.856 239.12L107.561 227.835C89.0997 223.334 77.7818 204.719 82.2822 186.258Z" stroke="#6C00AB" stroke-width="12.2488"/>
<path d="M142.666 197.901C141.177 197.386 140.331 195.819 140.718 194.294L158.421 124.558C158.834 122.933 160.491 121.953 162.117 122.373L204.355 133.282C212.377 135.354 218.061 138.872 221.407 143.834C224.753 148.797 225.517 154.794 223.701 161.824C222.666 165.83 221.052 169.032 218.861 171.431C218.052 172.358 217.193 173.183 216.283 173.905C214.413 175.39 213.96 178.554 215.43 180.437C216.387 181.665 217.16 182.971 217.748 184.355C219.018 187.212 219.041 191.011 217.816 195.752C215.894 203.191 212.02 208.382 206.195 211.325C200.37 214.268 193.201 214.64 184.688 212.441L142.666 197.901ZM176.991 156.05C176.573 157.669 177.548 159.321 179.169 159.74L189.249 162.343C193.997 163.57 196.92 162.057 198.018 157.807C198.546 155.763 198.334 154.051 197.38 152.671C196.53 151.231 194.795 150.172 192.176 149.496L182.464 146.987C180.843 146.568 179.19 147.541 178.771 149.16L176.991 156.05ZM169.229 186.093C168.81 187.712 169.785 189.364 171.407 189.782L181.978 192.513C186.971 193.802 190.059 192.158 191.242 187.581C192.34 183.33 190.311 180.538 185.154 179.206L174.828 176.539C173.207 176.12 171.554 177.093 171.136 178.712L169.229 186.093Z" fill="black"/>
<path d="M142.666 197.901C141.177 197.386 140.331 195.819 140.718 194.294L158.421 124.558C158.834 122.933 160.491 121.953 162.117 122.373L204.355 133.282C212.377 135.354 218.061 138.872 221.407 143.834C224.753 148.797 225.517 154.794 223.701 161.824C222.666 165.83 221.052 169.032 218.861 171.431C218.052 172.358 217.193 173.183 216.283 173.905C214.413 175.39 213.96 178.554 215.43 180.437C216.387 181.665 217.16 182.971 217.748 184.355C219.018 187.212 219.041 191.011 217.816 195.752C215.894 203.191 212.02 208.382 206.195 211.325C200.37 214.268 193.201 214.64 184.688 212.441L142.666 197.901ZM176.991 156.05C176.573 157.669 177.548 159.321 179.169 159.74L189.249 162.343C193.997 163.57 196.92 162.057 198.018 157.807C198.546 155.763 198.334 154.051 197.38 152.671C196.53 151.231 194.795 150.172 192.176 149.496L182.464 146.987C180.843 146.568 179.19 147.541 178.771 149.16L176.991 156.05ZM169.229 186.093C168.81 187.712 169.785 189.364 171.407 189.782L181.978 192.513C186.971 193.802 190.059 192.158 191.242 187.581C192.34 183.33 190.311 180.538 185.154 179.206L174.828 176.539C173.207 176.12 171.554 177.093 171.136 178.712L169.229 186.093Z" fill="#FFF7E5"/>
<path d="M179.169 159.74L189.249 162.343C193.997 163.57 196.92 162.057 198.018 157.807C198.546 155.763 198.334 154.051 197.38 152.671C196.53 151.231 194.795 150.172 192.176 149.496L182.464 146.987C180.843 146.568 179.19 147.541 178.771 149.16L176.991 156.05C176.573 157.669 177.548 159.321 179.169 159.74Z" fill="black"/>
<path d="M179.169 159.74L189.249 162.343C193.997 163.57 196.92 162.057 198.018 157.807C198.546 155.763 198.334 154.051 197.38 152.671C196.53 151.231 194.795 150.172 192.176 149.496L182.464 146.987C180.843 146.568 179.19 147.541 178.771 149.16L176.991 156.05C176.573 157.669 177.548 159.321 179.169 159.74Z" fill="#6C00AB"/>
<path d="M171.407 189.782L181.978 192.513C186.971 193.802 190.059 192.158 191.242 187.581C192.34 183.33 190.311 180.538 185.154 179.206L174.828 176.539C173.207 176.12 171.554 177.093 171.136 178.712L169.229 186.093C168.81 187.712 169.785 189.364 171.407 189.782Z" fill="black"/>
<path d="M171.407 189.782L181.978 192.513C186.971 193.802 190.059 192.158 191.242 187.581C192.34 183.33 190.311 180.538 185.154 179.206L174.828 176.539C173.207 176.12 171.554 177.093 171.136 178.712L169.229 186.093C168.81 187.712 169.785 189.364 171.407 189.782Z" fill="#6C00AB"/>
<path d="M128.183 193.187C129.81 193.525 131.405 192.491 131.759 190.869L146.882 121.597C147.265 119.841 146.042 118.14 144.254 117.941L124.544 115.746C122.982 115.573 121.547 116.619 121.237 118.157L116.887 139.74C116.562 141.35 115.012 142.407 113.392 142.122L83.4197 136.859C82.3294 136.668 81.4299 135.898 81.0732 134.851L73.1192 111.507C72.7322 110.371 71.7106 109.57 70.5143 109.465L49.8772 107.645C47.8102 107.463 46.176 109.361 46.6666 111.375L63.4515 180.279C63.7511 181.509 64.7853 182.423 66.0441 182.571L85.3113 184.838C87.3817 185.082 89.0736 183.214 88.6248 181.181L85.0425 164.951C84.5937 162.918 86.2856 161.05 88.356 161.294L108.318 163.643C110.098 163.852 111.31 165.551 110.926 167.299L106.901 185.647C106.54 187.293 107.595 188.918 109.248 189.261L128.183 193.187Z" fill="black"/>
<path d="M128.183 193.187C129.81 193.525 131.405 192.491 131.759 190.869L146.882 121.597C147.265 119.841 146.042 118.14 144.254 117.941L124.544 115.746C122.982 115.573 121.547 116.619 121.237 118.157L116.887 139.74C116.562 141.35 115.012 142.407 113.392 142.122L83.4197 136.859C82.3294 136.668 81.4299 135.898 81.0732 134.851L73.1192 111.507C72.7322 110.371 71.7106 109.57 70.5143 109.465L49.8772 107.645C47.8102 107.463 46.176 109.361 46.6666 111.375L63.4515 180.279C63.7511 181.509 64.7853 182.423 66.0441 182.571L85.3113 184.838C87.3817 185.082 89.0736 183.214 88.6248 181.181L85.0425 164.951C84.5937 162.918 86.2856 161.05 88.356 161.294L108.318 163.643C110.098 163.852 111.31 165.551 110.926 167.299L106.901 185.647C106.54 187.293 107.595 188.918 109.248 189.261L128.183 193.187Z" fill="#FFF7E5"/>
<path d="M145.202 109.424C149.382 109.89 152.762 112.508 154.418 116.014C157.065 114.04 160.525 113.208 163.969 114.005L164.26 114.075L206.498 124.985C215.768 127.379 223.614 131.777 228.513 139.044C233.519 146.469 234.286 155.113 231.998 163.968C230.723 168.901 228.602 173.413 225.319 177.063C224.972 177.462 224.613 177.849 224.246 178.226C224.739 179.081 225.184 179.962 225.577 180.872L225.579 180.873C225.589 180.896 225.598 180.92 225.608 180.943C225.617 180.963 225.627 180.982 225.635 181.002L225.634 181.002C227.963 186.35 227.553 192.323 226.113 197.896C223.694 207.257 218.481 214.719 210.06 218.974C201.816 223.138 192.366 223.275 182.544 220.738L182.211 220.652L181.885 220.539L139.863 205.999C137.112 205.047 134.934 203.151 133.584 200.786C131.421 201.767 128.94 202.096 126.443 201.578L107.508 197.652C101.194 196.343 97.1454 190.128 98.5312 183.811L101.245 171.438L95.0901 170.714L96.9931 179.334C98.7157 187.138 92.2197 194.28 84.3099 193.349L65.0427 191.082C60.233 190.516 56.2741 187.021 55.1257 182.307L38.3404 113.403C36.4578 105.675 42.7327 98.4126 50.6304 99.1091L71.2667 100.929C75.838 101.332 79.748 104.392 81.2305 108.743L88.1274 128.984L109.554 132.748L112.837 116.464C114.027 110.563 119.526 106.565 125.491 107.229L145.202 109.424Z" stroke="#6C00AB" stroke-width="17.1388"/>
<rect x="101.086" y="171.329" width="76.2963" height="39.5176" transform="rotate(13.3961 101.086 171.329)" fill="#6C00AB"/>
<g filter="url(#filter3_d_1696_2603)">
<path d="M90.7729 187.659C94.6673 173.206 109.541 164.647 123.993 168.542L168.084 180.422C176.491 182.688 184.774 190.627 187.902 198.079L173.256 231.011C171.57 230.935 165.551 235.878 153.981 232.76L109.89 220.879C95.4375 216.985 86.8785 202.112 90.7729 187.659ZM160.462 189.534C157.006 188.515 153.974 188.252 151.367 188.745C148.769 189.21 146.489 190.351 144.527 192.169C142.566 193.987 140.772 196.389 139.146 199.375C138.279 200.997 137.63 202.538 137.2 203.997C136.242 207.245 136.431 210.005 137.768 212.278C139.135 214.56 141.666 216.247 145.36 217.337C148.846 218.365 151.874 218.643 154.442 218.17C157.049 217.676 159.333 216.52 161.295 214.702C163.286 212.893 165.08 210.491 166.676 207.496C167.101 206.715 167.453 205.961 167.732 205.234C168.05 204.485 168.315 203.753 168.526 203.038C169.457 199.881 169.298 197.129 168.047 194.784C166.834 192.418 164.305 190.668 160.462 189.534ZM126.373 204.69C126.175 204.632 125.964 204.721 125.867 204.902L123.254 209.783C123.125 210.026 123.251 210.327 123.515 210.405L129.277 212.105C129.475 212.163 129.686 212.075 129.784 211.894L132.396 207.013C132.526 206.77 132.4 206.468 132.136 206.39L126.373 204.69ZM151.797 196.839C153.218 195.866 154.897 195.665 156.833 196.237C158.322 196.676 159.268 197.312 159.671 198.143C160.082 198.944 160.099 199.986 159.721 201.267C159.562 201.803 159.346 202.371 159.072 202.97C158.798 203.569 158.473 204.234 158.095 204.965C156.812 207.339 155.456 209.028 154.026 210.032C152.605 211.005 150.927 211.206 148.99 210.634C147.471 210.186 146.501 209.575 146.081 208.804C145.67 208.002 145.639 207.006 145.991 205.814C146.316 204.712 146.895 203.409 147.728 201.905C149.02 199.502 150.376 197.813 151.797 196.839ZM126.534 180.01C126.424 179.977 126.306 179.99 126.205 180.045L103.192 192.459C103.118 192.499 103.056 192.561 103.016 192.636L100.549 197.204C100.418 197.447 100.544 197.749 100.809 197.827L112.876 201.388C113.141 201.466 113.267 201.767 113.138 202.01L110.927 206.146C110.798 206.388 110.924 206.689 111.188 206.767L118.738 208.996C118.936 209.054 119.147 208.965 119.244 208.783L121.623 204.33C121.721 204.149 121.932 204.06 122.13 204.118L124.046 204.684C124.242 204.741 124.452 204.655 124.55 204.475L127.603 198.898C127.736 198.655 127.61 198.351 127.345 198.272L125.783 197.812C125.518 197.734 125.393 197.431 125.524 197.188L133.393 182.58C133.524 182.337 133.398 182.035 133.133 181.957L126.534 180.01ZM122.622 188.333C123.012 188.163 123.39 188.596 123.167 188.959L119.399 195.095C119.302 195.253 119.114 195.333 118.933 195.291L112.197 193.754C111.788 193.661 111.735 193.101 112.119 192.932L122.622 188.333Z" fill="url(#paint1_linear_1696_2603)"/>
<path d="M90.7729 187.659C94.6673 173.206 109.541 164.647 123.993 168.542L168.084 180.422C176.491 182.688 184.774 190.627 187.902 198.079L173.256 231.011C171.57 230.935 165.551 235.878 153.981 232.76L109.89 220.879C95.4375 216.985 86.8785 202.112 90.7729 187.659ZM160.462 189.534C157.006 188.515 153.974 188.252 151.367 188.745C148.769 189.21 146.489 190.351 144.527 192.169C142.566 193.987 140.772 196.389 139.146 199.375C138.279 200.997 137.63 202.538 137.2 203.997C136.242 207.245 136.431 210.005 137.768 212.278C139.135 214.56 141.666 216.247 145.36 217.337C148.846 218.365 151.874 218.643 154.442 218.17C157.049 217.676 159.333 216.52 161.295 214.702C163.286 212.893 165.08 210.491 166.676 207.496C167.101 206.715 167.453 205.961 167.732 205.234C168.05 204.485 168.315 203.753 168.526 203.038C169.457 199.881 169.298 197.129 168.047 194.784C166.834 192.418 164.305 190.668 160.462 189.534ZM126.373 204.69C126.175 204.632 125.964 204.721 125.867 204.902L123.254 209.783C123.125 210.026 123.251 210.327 123.515 210.405L129.277 212.105C129.475 212.163 129.686 212.075 129.784 211.894L132.396 207.013C132.526 206.77 132.4 206.468 132.136 206.39L126.373 204.69ZM151.797 196.839C153.218 195.866 154.897 195.665 156.833 196.237C158.322 196.676 159.268 197.312 159.671 198.143C160.082 198.944 160.099 199.986 159.721 201.267C159.562 201.803 159.346 202.371 159.072 202.97C158.798 203.569 158.473 204.234 158.095 204.965C156.812 207.339 155.456 209.028 154.026 210.032C152.605 211.005 150.927 211.206 148.99 210.634C147.471 210.186 146.501 209.575 146.081 208.804C145.67 208.002 145.639 207.006 145.991 205.814C146.316 204.712 146.895 203.409 147.728 201.905C149.02 199.502 150.376 197.813 151.797 196.839ZM126.534 180.01C126.424 179.977 126.306 179.99 126.205 180.045L103.192 192.459C103.118 192.499 103.056 192.561 103.016 192.636L100.549 197.204C100.418 197.447 100.544 197.749 100.809 197.827L112.876 201.388C113.141 201.466 113.267 201.767 113.138 202.01L110.927 206.146C110.798 206.388 110.924 206.689 111.188 206.767L118.738 208.996C118.936 209.054 119.147 208.965 119.244 208.783L121.623 204.33C121.721 204.149 121.932 204.06 122.13 204.118L124.046 204.684C124.242 204.741 124.452 204.655 124.55 204.475L127.603 198.898C127.736 198.655 127.61 198.351 127.345 198.272L125.783 197.812C125.518 197.734 125.393 197.431 125.524 197.188L133.393 182.58C133.524 182.337 133.398 182.035 133.133 181.957L126.534 180.01ZM122.622 188.333C123.012 188.163 123.39 188.596 123.167 188.959L119.399 195.095C119.302 195.253 119.114 195.333 118.933 195.291L112.197 193.754C111.788 193.661 111.735 193.101 112.119 192.932L122.622 188.333Z" fill="#FFEE00"/>
</g>
<path d="M160.559 189.143C164.456 190.293 167.113 192.093 168.404 194.605C169.721 197.073 169.873 199.947 168.917 203.187C168.701 203.919 168.43 204.667 168.107 205.429L168.106 205.428C167.82 206.17 167.462 206.936 167.033 207.725L167.034 207.726C165.421 210.752 163.599 213.195 161.564 215.045L161.565 215.046C159.544 216.919 157.185 218.113 154.497 218.622L154.495 218.623C151.839 219.112 148.739 218.819 145.212 217.778C141.46 216.671 138.814 214.937 137.37 212.527L137.368 212.524C135.953 210.12 135.775 207.228 136.757 203.9C137.197 202.407 137.859 200.838 138.738 199.194L138.739 199.191C140.381 196.175 142.203 193.733 144.207 191.875C146.228 190.002 148.584 188.823 151.265 188.344C153.959 187.834 157.062 188.111 160.559 189.143ZM133.23 181.565C133.76 181.722 134.012 182.325 133.75 182.811L125.881 197.42L127.441 197.88C127.973 198.037 128.225 198.646 127.958 199.132L124.906 204.709C124.709 205.068 124.289 205.241 123.897 205.126L121.981 204.56L119.602 209.013C119.407 209.377 118.984 209.554 118.589 209.437L111.039 207.21C110.511 207.054 110.259 206.453 110.518 205.967L112.728 201.83L100.66 198.269C100.13 198.113 99.8787 197.509 100.141 197.023L102.608 192.454C102.688 192.305 102.811 192.183 102.96 192.103L125.973 179.687C126.175 179.578 126.412 179.554 126.632 179.618L133.23 181.565ZM132.233 205.999C132.762 206.155 133.014 206.757 132.754 207.243L130.141 212.124C129.946 212.487 129.524 212.664 129.129 212.547L123.367 210.847C122.838 210.691 122.586 210.089 122.846 209.603L125.458 204.722C125.653 204.358 126.075 204.182 126.471 204.299L132.233 205.999ZM156.684 196.679C154.849 196.138 153.311 196.338 152.017 197.224C150.677 198.142 149.361 199.762 148.084 202.137L148.082 202.142C147.258 203.629 146.695 204.901 146.382 205.962C146.051 207.086 146.098 207.957 146.439 208.626C146.775 209.239 147.601 209.804 149.087 210.243C150.921 210.784 152.458 210.585 153.751 209.7C155.103 208.751 156.42 207.127 157.687 204.783C158.06 204.06 158.382 203.404 158.651 202.815C158.918 202.231 159.127 201.682 159.279 201.169C159.64 199.944 159.598 199.03 159.258 198.367L159.254 198.358C158.932 197.692 158.133 197.106 156.684 196.679ZM112.101 193.343L119.003 194.893L122.778 188.745L112.101 193.343Z" fill="#7709B8" stroke="#FFD000" stroke-width="0.869479"/>
<g filter="url(#filter4_dn_1696_2603)">
<path d="M91.6715 187.893C95.4308 173.943 109.788 165.681 123.738 169.44L167.828 181.321C171.852 182.405 175.897 184.865 179.329 187.992C182.644 191.011 185.33 194.604 186.862 198.067L172.596 230.144C172.421 230.187 172.252 230.239 172.098 230.293C171.719 230.426 171.27 230.614 170.792 230.81C169.817 231.211 168.592 231.705 167.074 232.106C164.055 232.905 159.826 233.353 154.216 231.841L110.125 219.96C96.1742 216.2 87.9124 201.844 91.6715 187.893Z" stroke="url(#paint2_linear_1696_2603)" stroke-width="1.88266" shape-rendering="crispEdges"/>
</g>
<mask id="mask0_1696_2603" style="mask-type:alpha" maskUnits="userSpaceOnUse" x="89" y="167" width="99" height="67">
<path d="M90.7377 187.665C94.6322 173.213 109.506 164.654 123.958 168.548L168.049 180.429C176.456 182.694 184.739 190.634 187.866 198.086L173.221 231.018C171.535 230.942 165.516 235.884 153.946 232.767L109.855 220.886C95.4024 216.992 86.8434 202.118 90.7377 187.665ZM160.427 189.541C156.971 188.521 153.939 188.258 151.332 188.752C148.734 189.216 146.454 190.358 144.492 192.176C142.531 193.993 140.737 196.395 139.111 199.38C138.244 201.003 137.595 202.544 137.165 204.004C136.206 207.251 136.396 210.012 137.733 212.285C139.1 214.567 141.631 216.252 145.325 217.342C148.811 218.371 151.839 218.649 154.407 218.176C157.014 217.682 159.298 216.526 161.26 214.709C163.251 212.899 165.045 210.498 166.641 207.503C167.065 206.722 167.418 205.967 167.697 205.24C168.015 204.492 168.279 203.76 168.49 203.045C169.422 199.887 169.263 197.135 168.011 194.791C166.799 192.425 164.27 190.675 160.427 189.541ZM126.338 204.696C126.14 204.638 125.929 204.726 125.831 204.908L123.219 209.789C123.089 210.032 123.215 210.333 123.479 210.411L129.242 212.111C129.44 212.17 129.651 212.081 129.749 211.899L132.361 207.018C132.491 206.775 132.365 206.474 132.101 206.396L126.338 204.696ZM151.762 196.846C153.183 195.873 154.861 195.672 156.798 196.243C158.287 196.683 159.233 197.318 159.636 198.149C160.047 198.951 160.063 199.992 159.685 201.274C159.527 201.81 159.311 202.378 159.037 202.977C158.763 203.576 158.438 204.241 158.06 204.971C156.777 207.345 155.42 209.034 153.991 210.037C152.57 211.011 150.891 211.212 148.955 210.641C147.436 210.193 146.465 209.582 146.045 208.81C145.634 208.009 145.604 207.012 145.956 205.821C146.281 204.719 146.86 203.415 147.693 201.912C148.985 199.508 150.341 197.819 151.762 196.846ZM126.499 180.016C126.389 179.984 126.271 179.997 126.17 180.051L103.157 192.466C103.083 192.506 103.021 192.568 102.981 192.642L100.514 197.21C100.383 197.453 100.509 197.755 100.773 197.833L112.841 201.394C113.105 201.472 113.232 201.773 113.103 202.015L110.892 206.152C110.763 206.395 110.888 206.696 111.153 206.774L118.703 209.001C118.901 209.06 119.112 208.972 119.209 208.79L121.588 204.336C121.686 204.154 121.897 204.066 122.095 204.125L124.011 204.689C124.207 204.747 124.417 204.661 124.515 204.482L127.568 198.904C127.701 198.661 127.575 198.357 127.309 198.279L125.748 197.818C125.483 197.739 125.358 197.438 125.489 197.195L133.358 182.587C133.489 182.344 133.363 182.041 133.098 181.963L126.499 180.016ZM122.483 188.423C122.879 188.239 123.268 188.688 123.03 189.054L119.102 195.089C119.001 195.244 118.813 195.318 118.633 195.274L112.738 193.81C112.34 193.711 112.287 193.166 112.659 192.993L122.483 188.423Z" fill="url(#paint3_linear_1696_2603)"/>
</mask>
<g mask="url(#mask0_1696_2603)">
<rect x="127.195" y="156.961" width="22.8716" height="78.7382" transform="rotate(23.9438 127.195 156.961)" fill="#FFFCC7" fill-opacity="0.45"/>
<rect x="159.883" y="162.319" width="7.9559" height="78.7382" transform="rotate(23.41 159.883 162.319)" fill="#FFFCC7" fill-opacity="0.45"/>
<rect x="175.395" y="167.892" width="3.38756" height="78.7382" transform="rotate(23.41 175.395 167.892)" fill="#FFFCC7" fill-opacity="0.45"/>
</g>
<g filter="url(#filter5_d_1696_2603)">
<path d="M173.282 231.008C167.262 226.207 167.232 201 187.706 198.254C184.487 206.046 178.928 219.657 173.282 231.008Z" fill="url(#paint4_linear_1696_2603)"/>
<path d="M173.282 231.008C167.262 226.207 167.232 201 187.706 198.254C184.487 206.046 178.928 219.657 173.282 231.008Z" fill="black" fill-opacity="0.24"/>
<path d="M173.282 231.008C167.262 226.207 167.232 201 187.706 198.254C184.487 206.046 178.928 219.657 173.282 231.008Z" stroke="url(#paint5_linear_1696_2603)" stroke-width="0.21737"/>
</g>
</g>
<g clip-path="url(#clip0_1696_2603)">
<g filter="url(#filter6_d_1696_2603)">
<mask id="path-16-outside-1_1696_2603" maskUnits="userSpaceOnUse" x="249.411" y="143.326" width="90.3785" height="70.2728" fill="black">
<rect fill="white" x="249.411" y="143.326" width="90.3785" height="70.2728"/>
<path d="M279.143 169.18L280.92 169.018C283.414 168.79 285.556 169.097 287.346 169.94C289.143 170.844 290.945 172.094 292.753 173.689C294.486 175.165 295.996 176.63 297.286 178.084C298.575 179.537 299.897 180.705 301.25 181.588C302.604 182.47 304.123 182.834 305.806 182.68C308.237 182.459 309.858 181.431 310.669 179.597C311.548 177.819 311.774 174.939 311.346 170.955C311.065 168.341 310.445 165.789 309.485 163.3C308.588 160.805 307.543 158.7 306.352 156.986L318.977 155.834C320.346 158.035 321.541 160.66 322.561 163.709C323.587 166.821 324.301 170.245 324.702 173.979C325.478 181.2 324.479 186.853 321.707 190.94C318.998 195.022 314.9 197.313 309.414 197.813C305.923 198.132 303.009 197.675 300.673 196.442C298.4 195.204 295.994 193.318 293.456 190.784C291.276 188.657 289.385 186.881 287.784 185.456C286.246 184.025 284.292 183.418 281.923 183.634L280.707 183.745L279.143 169.18ZM262.521 170.036L273.369 169.047L275.063 184.826L264.215 185.815L262.521 170.036Z"/>
</mask>
<path d="M279.143 169.18L280.92 169.018C283.414 168.79 285.556 169.097 287.346 169.94C289.143 170.844 290.945 172.094 292.753 173.689C294.486 175.165 295.996 176.63 297.286 178.084C298.575 179.537 299.897 180.705 301.25 181.588C302.604 182.47 304.123 182.834 305.806 182.68C308.237 182.459 309.858 181.431 310.669 179.597C311.548 177.819 311.774 174.939 311.346 170.955C311.065 168.341 310.445 165.789 309.485 163.3C308.588 160.805 307.543 158.7 306.352 156.986L318.977 155.834C320.346 158.035 321.541 160.66 322.561 163.709C323.587 166.821 324.301 170.245 324.702 173.979C325.478 181.2 324.479 186.853 321.707 190.94C318.998 195.022 314.9 197.313 309.414 197.813C305.923 198.132 303.009 197.675 300.673 196.442C298.4 195.204 295.994 193.318 293.456 190.784C291.276 188.657 289.385 186.881 287.784 185.456C286.246 184.025 284.292 183.418 281.923 183.634L280.707 183.745L279.143 169.18ZM262.521 170.036L273.369 169.047L275.063 184.826L264.215 185.815L262.521 170.036Z" fill="#8A00DA"/>
<path d="M279.143 169.18L278.004 158.57C272.135 159.105 267.887 164.29 268.516 170.149L279.143 169.18ZM287.346 169.94L292.044 160.445C291.958 160.401 291.871 160.359 291.783 160.318L287.346 169.94ZM292.753 173.689L285.741 181.619C285.788 181.66 285.835 181.701 285.883 181.742L292.753 173.689ZM297.286 178.084L305.244 171.097L305.244 171.097L297.286 178.084ZM301.25 181.588L306.999 172.697L306.999 172.697L301.25 181.588ZM310.669 179.597L301.069 174.764C301.002 174.9 300.938 175.036 300.877 175.175L310.669 179.597ZM309.485 163.3L299.431 166.756C299.459 166.833 299.487 166.909 299.517 166.986L309.485 163.3ZM306.352 156.986L305.213 146.376C301.453 146.719 298.186 149.02 296.622 152.427C295.058 155.834 295.429 159.839 297.598 162.96L306.352 156.986ZM318.977 155.834L328.034 150.321C325.863 146.832 321.904 144.853 317.837 145.224L318.977 155.834ZM322.561 163.709L332.708 160.525C332.704 160.511 332.699 160.497 332.694 160.483L322.561 163.709ZM321.707 190.94L312.824 184.879C312.805 184.907 312.786 184.936 312.767 184.964L321.707 190.94ZM300.673 196.442L295.663 205.774C295.705 205.797 295.747 205.819 295.79 205.842L300.673 196.442ZM293.456 190.784L300.959 183.315C300.929 183.286 300.9 183.256 300.87 183.227L293.456 190.784ZM287.784 185.456L280.559 193.193C280.617 193.247 280.676 193.301 280.735 193.353L287.784 185.456ZM280.707 183.745L270.08 184.714C270.71 190.574 275.977 194.89 281.846 194.355L280.707 183.745ZM262.521 170.036L261.382 159.427C255.513 159.962 251.265 165.146 251.894 171.006L262.521 170.036ZM273.369 169.047L283.995 168.077C283.366 162.217 278.098 157.901 272.229 158.437L273.369 169.047ZM275.063 184.826L276.202 195.435C282.071 194.9 286.319 189.716 285.69 183.856L275.063 184.826ZM264.215 185.815L253.588 186.785C254.218 192.645 259.485 196.961 265.354 196.425L264.215 185.815ZM279.143 169.18L280.282 179.789L282.059 179.627L280.92 169.018L279.781 158.408L278.004 158.57L279.143 169.18ZM280.92 169.018L282.059 179.627C283.162 179.527 283.28 179.736 282.908 179.562L287.346 169.94L291.783 160.318C287.831 158.458 283.666 158.053 279.781 158.408L280.92 169.018ZM287.346 169.94L282.648 179.435C283.465 179.846 284.501 180.525 285.741 181.619L292.753 173.689L299.765 165.759C297.389 163.663 294.821 161.842 292.044 160.445L287.346 169.94ZM292.753 173.689L285.883 181.742C287.292 182.942 288.427 184.054 289.327 185.07L297.286 178.084L305.244 171.097C303.566 169.206 301.68 167.388 299.624 165.636L292.753 173.689ZM297.286 178.084L289.327 185.07C291.138 187.112 293.184 188.968 295.502 190.478L301.25 181.588L306.999 172.697C306.609 172.443 306.012 171.963 305.244 171.097L297.286 178.084ZM301.25 181.588L295.502 190.478C299.017 192.769 302.99 193.651 306.945 193.29L305.806 182.68L304.667 172.07C304.888 172.05 305.271 172.051 305.751 172.166C306.238 172.283 306.666 172.48 306.999 172.697L301.25 181.588ZM305.806 182.68L306.945 193.29C312.248 192.806 317.768 190.113 320.46 184.019L310.669 179.597L300.877 175.175C301.267 174.292 301.993 173.372 303.009 172.728C303.933 172.142 304.638 172.073 304.667 172.07L305.806 182.68ZM310.669 179.597L320.268 184.429C322.556 179.807 322.438 174.318 321.973 169.986L311.346 170.955L300.719 171.925C300.888 173.491 300.889 174.516 300.842 175.108C300.791 175.762 300.713 175.484 301.069 174.764L310.669 179.597ZM311.346 170.955L321.973 169.986C321.591 166.433 320.747 162.969 319.454 159.614L309.485 163.3L299.517 166.986C300.143 168.61 300.539 170.249 300.719 171.925L311.346 170.955ZM309.485 163.3L319.539 159.844C318.404 156.688 316.964 153.685 315.106 151.012L306.352 156.986L297.598 162.96C298.123 163.715 298.771 164.921 299.431 166.756L309.485 163.3ZM306.352 156.986L307.491 167.596L320.116 166.444L318.977 155.834L317.837 145.224L305.213 146.376L306.352 156.986ZM318.977 155.834L309.919 161.347C310.748 162.68 311.613 164.501 312.427 166.936L322.561 163.709L332.694 160.483C331.469 156.818 329.944 153.389 328.034 150.321L318.977 155.834ZM322.561 163.709L312.413 166.894C313.17 169.188 313.744 171.857 314.076 174.949L324.702 173.979L335.329 173.01C334.859 168.633 334.005 164.455 332.708 160.525L322.561 163.709ZM324.702 173.979L314.076 174.949C314.703 180.793 313.686 183.608 312.824 184.879L321.707 190.94L330.591 197.002C335.273 190.099 336.252 181.606 335.329 173.01L324.702 173.979ZM321.707 190.94L312.767 184.964C312.029 186.076 310.994 186.955 308.275 187.203L309.414 197.813L310.553 208.423C318.807 207.67 325.967 203.968 330.648 196.916L321.707 190.94ZM309.414 197.813L308.275 187.203C307.244 187.298 306.543 187.253 306.11 187.186C305.897 187.152 305.756 187.114 305.673 187.087C305.631 187.074 305.602 187.063 305.584 187.055C305.566 187.048 305.558 187.044 305.557 187.043L300.673 196.442L295.79 205.842C300.51 208.332 305.672 208.869 310.553 208.423L309.414 197.813ZM300.673 196.442L305.684 187.111C304.602 186.522 303.021 185.374 300.959 183.315L293.456 190.784L285.953 198.253C288.967 201.263 292.198 203.887 295.663 205.774L300.673 196.442ZM293.456 190.784L300.87 183.227C298.616 181.028 296.598 179.13 294.834 177.559L287.784 185.456L280.735 193.353C282.173 194.633 283.936 196.287 286.042 198.341L293.456 190.784ZM287.784 185.456L295.009 177.719C290.876 173.875 285.728 172.573 280.784 173.024L281.923 183.634L283.062 194.244C283.078 194.242 282.714 194.276 282.129 194.094C281.508 193.901 280.957 193.563 280.559 193.193L287.784 185.456ZM281.923 183.634L280.784 173.024L279.568 173.135L280.707 183.745L281.846 194.355L283.062 194.244L281.923 183.634ZM280.707 183.745L291.334 182.775L289.77 168.21L279.143 169.18L268.516 170.149L270.08 184.714L280.707 183.745ZM262.521 170.036L263.66 180.646L274.508 179.656L273.369 169.047L272.229 158.437L261.382 159.427L262.521 170.036ZM273.369 169.047L262.742 170.016L264.436 185.795L275.063 184.826L285.69 183.856L283.995 168.077L273.369 169.047ZM275.063 184.826L273.924 174.216L263.076 175.205L264.215 185.815L265.354 196.425L276.202 195.435L275.063 184.826ZM264.215 185.815L274.842 184.846L273.148 169.067L262.521 170.036L251.894 171.006L253.588 186.785L264.215 185.815Z" fill="white" mask="url(#path-16-outside-1_1696_2603)"/>
</g>
<g filter="url(#filter7_d_1696_2603)">
<mask id="path-18-outside-2_1696_2603" maskUnits="userSpaceOnUse" x="227.043" y="62.7352" width="122.846" height="112.348" fill="black">
<rect fill="white" x="227.043" y="62.7352" width="122.846" height="112.348"/>
<path d="M267.611 116.332L269.416 115.296C271.951 113.843 274.372 113.128 276.68 113.152C279.026 113.238 281.545 113.687 284.238 114.5C286.792 115.224 289.107 116.044 291.181 116.959C293.255 117.874 295.224 118.471 297.089 118.748C298.953 119.026 300.741 118.674 302.452 117.693C304.923 116.277 306.142 114.399 306.111 112.06C306.18 109.747 305.019 106.582 302.629 102.565C301.061 99.9285 299.163 97.5234 296.935 95.3494C294.771 93.1391 292.64 91.4144 290.544 90.1753L303.374 82.8181C305.896 84.4867 308.439 86.6904 311.003 89.4293C313.604 92.231 316.025 95.515 318.265 99.2813C322.597 106.563 324.286 113.045 323.332 118.726C322.442 124.372 319.209 128.794 313.633 131.991C310.085 134.025 306.773 134.957 303.696 134.785C300.683 134.576 297.215 133.745 293.291 132.291C289.945 131.095 287.077 130.13 284.686 129.396C282.359 128.626 279.991 128.931 277.583 130.312L276.348 131.02L267.611 116.332ZM250.396 125.319L261.421 118.997L270.887 134.91L259.862 141.232L250.396 125.319Z"/>
</mask>
<path d="M267.611 116.332L269.416 115.296C271.951 113.843 274.372 113.128 276.68 113.152C279.026 113.238 281.545 113.687 284.238 114.5C286.792 115.224 289.107 116.044 291.181 116.959C293.255 117.874 295.224 118.471 297.089 118.748C298.953 119.026 300.741 118.674 302.452 117.693C304.923 116.277 306.142 114.399 306.111 112.06C306.18 109.747 305.019 106.582 302.629 102.565C301.061 99.9285 299.163 97.5234 296.935 95.3494C294.771 93.1391 292.64 91.4144 290.544 90.1753L303.374 82.8181C305.896 84.4867 308.439 86.6904 311.003 89.4293C313.604 92.231 316.025 95.515 318.265 99.2813C322.597 106.563 324.286 113.045 323.332 118.726C322.442 124.372 319.209 128.794 313.633 131.991C310.085 134.025 306.773 134.957 303.696 134.785C300.683 134.576 297.215 133.745 293.291 132.291C289.945 131.095 287.077 130.13 284.686 129.396C282.359 128.626 279.991 128.931 277.583 130.312L276.348 131.02L267.611 116.332ZM250.396 125.319L261.421 118.997L270.887 134.91L259.862 141.232L250.396 125.319Z" fill="#8A00DA"/>
<path d="M267.611 116.332L261.246 105.632C255.281 109.053 253.295 116.616 256.811 122.525L267.611 116.332ZM276.68 113.152L277.048 100.798C276.936 100.793 276.823 100.791 276.71 100.79L276.68 113.152ZM284.238 114.5L280.654 126.319C280.724 126.34 280.794 126.361 280.864 126.38L284.238 114.5ZM291.181 116.959L296.226 105.681L296.226 105.681L291.181 116.959ZM297.089 118.748L298.865 106.525L298.865 106.525L297.089 118.748ZM306.111 112.06L293.58 111.599C293.575 111.776 293.573 111.952 293.576 112.128L306.111 112.06ZM296.935 95.3494L287.951 103.901C288.018 103.969 288.085 104.037 288.153 104.103L296.935 95.3494ZM290.544 90.1753L284.179 79.4757C280.358 81.6667 278.011 85.6949 278.008 90.0686C278.004 94.4423 280.345 98.5105 284.162 100.767L290.544 90.1753ZM303.374 82.8181L310.301 72.5684C306.303 69.9232 301.142 69.7485 297.009 72.1184L303.374 82.8181ZM311.003 89.4293L320.218 81.1197C320.207 81.1071 320.195 81.0946 320.183 81.0821L311.003 89.4293ZM323.332 118.726L310.964 116.615C310.957 116.654 310.951 116.694 310.945 116.733L323.332 118.726ZM303.696 134.785L302.917 147.117C302.972 147.121 303.028 147.124 303.084 147.127L303.696 134.785ZM293.291 132.291L297.619 120.722C297.573 120.705 297.528 120.689 297.482 120.672L293.291 132.291ZM284.686 129.396L280.783 141.114C280.871 141.143 280.959 141.171 281.047 141.198L284.686 129.396ZM276.348 131.02L265.548 137.213C269.063 143.123 276.748 145.14 282.713 141.72L276.348 131.02ZM250.396 125.319L244.032 114.619C238.067 118.04 236.081 125.603 239.597 131.512L250.396 125.319ZM261.421 118.997L272.221 112.804C268.706 106.895 261.021 104.877 255.056 108.298L261.421 118.997ZM270.887 134.91L277.251 145.609C283.216 142.189 285.202 134.626 281.687 128.717L270.887 134.91ZM259.862 141.232L249.062 147.424C252.577 153.334 260.262 155.351 266.227 151.931L259.862 141.232ZM267.611 116.332L273.975 127.032L275.781 125.996L269.416 115.296L263.052 104.597L261.246 105.632L267.611 116.332ZM269.416 115.296L275.781 125.996C276.901 125.354 277.129 125.518 276.65 125.514L276.68 113.152L276.71 100.79C271.615 100.738 267 102.333 263.052 104.597L269.416 115.296ZM276.68 113.152L276.312 125.506C277.378 125.545 278.807 125.761 280.654 126.319L284.238 114.5L287.821 102.682C284.282 101.613 280.673 100.931 277.048 100.798L276.68 113.152ZM284.238 114.5L280.864 126.38C282.942 126.969 284.686 127.597 286.135 128.237L291.181 116.959L296.226 105.681C293.528 104.49 290.643 103.479 287.611 102.62L284.238 114.5ZM291.181 116.959L286.135 128.237C289.048 129.522 292.12 130.497 295.312 130.972L297.089 118.748L298.865 106.525C298.328 106.445 297.462 106.226 296.226 105.681L291.181 116.959ZM297.089 118.748L295.312 130.972C300.154 131.693 304.796 130.698 308.816 128.393L302.452 117.693L296.087 106.994C296.312 106.865 296.719 106.679 297.283 106.568C297.856 106.456 298.407 106.456 298.865 106.525L297.089 118.748ZM302.452 117.693L308.816 128.393C314.206 125.303 318.751 119.763 318.645 111.991L306.111 112.06L293.576 112.128C293.561 111.002 293.883 109.674 294.648 108.497C295.344 107.426 296.057 107.011 296.087 106.994L302.452 117.693ZM306.111 112.06L318.641 112.52C318.82 106.505 316.028 100.741 313.429 96.372L302.629 102.565L291.829 108.758C292.769 110.338 293.268 111.423 293.507 112.074C293.77 112.793 293.552 112.536 293.58 111.599L306.111 112.06ZM302.629 102.565L313.429 96.372C311.298 92.7893 308.719 89.5249 305.717 86.5954L296.935 95.3494L288.153 104.103C289.607 105.522 290.824 107.068 291.829 108.758L302.629 102.565ZM296.935 95.3494L305.92 86.7975C303.182 84.0021 300.195 81.5166 296.925 79.5842L290.544 90.1753L284.162 100.767C285.085 101.312 286.359 102.276 287.951 103.901L296.935 95.3494ZM290.544 90.1753L296.908 100.875L309.739 93.5178L303.374 82.8181L297.009 72.1184L284.179 79.4757L290.544 90.1753ZM303.374 82.8181L296.447 93.0678C297.974 94.0781 299.776 95.5899 301.823 97.7766L311.003 89.4293L320.183 81.0821C317.102 77.791 313.818 74.8953 310.301 72.5684L303.374 82.8181ZM311.003 89.4293L301.788 97.739C303.705 99.8038 305.61 102.356 307.465 105.474L318.265 99.2813L329.065 93.0883C326.44 88.6741 323.504 84.6583 320.218 81.1197L311.003 89.4293ZM318.265 99.2813L307.465 105.474C310.971 111.368 311.26 114.848 310.964 116.615L323.332 118.726L335.7 120.838C337.311 111.241 334.222 101.757 329.065 93.0883L318.265 99.2813ZM323.332 118.726L310.945 116.733C310.702 118.27 310.032 119.707 307.268 121.291L313.633 131.991L319.998 142.69C328.386 137.881 334.181 130.474 335.719 120.72L323.332 118.726ZM313.633 131.991L307.268 121.291C306.221 121.892 305.456 122.186 304.963 122.324C304.722 122.392 304.554 122.421 304.452 122.433C304.401 122.439 304.365 122.441 304.342 122.442C304.32 122.442 304.309 122.442 304.308 122.442L303.696 134.785L303.084 147.127C309.301 147.475 315.036 145.535 319.998 142.69L313.633 131.991ZM303.696 134.785L304.476 122.452C303.041 122.353 300.807 121.903 297.619 120.722L293.291 132.291L288.962 143.859C293.623 145.586 298.325 146.799 302.917 147.117L303.696 134.785ZM293.291 132.291L297.482 120.672C294.022 119.435 290.96 118.403 288.325 117.594L284.686 129.396L281.047 141.198C283.194 141.857 285.868 142.754 289.1 143.909L293.291 132.291ZM284.686 129.396L288.589 117.678C282.336 115.61 276.244 116.731 271.219 119.612L277.583 130.312L283.948 141.012C283.964 141.002 283.595 141.215 282.886 141.306C282.134 141.403 281.385 141.313 280.783 141.114L284.686 129.396ZM277.583 130.312L271.219 119.612L269.983 120.321L276.348 131.02L282.713 141.72L283.948 141.012L277.583 130.312ZM276.348 131.02L287.148 124.827L278.411 110.139L267.611 116.332L256.811 122.525L265.548 137.213L276.348 131.02ZM250.396 125.319L256.761 136.019L267.786 129.697L261.421 118.997L255.056 108.298L244.032 114.619L250.396 125.319ZM261.421 118.997L250.621 125.19L260.087 141.103L270.887 134.91L281.687 128.717L272.221 112.804L261.421 118.997ZM270.887 134.91L264.522 124.21L253.497 130.532L259.862 141.232L266.227 151.931L277.251 145.609L270.887 134.91ZM259.862 141.232L270.662 135.039L261.196 119.126L250.396 125.319L239.597 131.512L249.062 147.424L259.862 141.232Z" fill="white" mask="url(#path-18-outside-2_1696_2603)"/>
</g>
<g filter="url(#filter8_d_1696_2603)">
<mask id="path-20-outside-3_1696_2603" maskUnits="userSpaceOnUse" x="180.054" y="-7.18101" width="135.303" height="142.407" fill="black">
<rect fill="white" x="180.054" y="-7.18101" width="135.303" height="142.407"/>
<path d="M224.527 72.9077L225.827 70.8138C227.653 67.8749 229.775 65.7693 232.194 64.4968C234.687 63.2687 237.565 62.3219 240.829 61.6563C243.899 60.9752 246.772 60.5291 249.448 60.3179C252.124 60.1067 254.512 59.622 256.612 58.8638C258.711 58.1056 260.377 56.7346 261.609 54.7509C263.389 51.8855 263.605 49.2428 262.258 46.8226C261.03 44.3734 258.042 41.7264 253.294 38.8816C250.178 37.0146 246.848 35.574 243.305 34.5597C239.806 33.4719 236.617 32.8712 233.735 32.7577L242.975 17.8798C246.542 18.202 250.43 19.0703 254.642 20.4847C258.928 21.9435 263.296 24.0065 267.747 26.6735C276.354 31.8298 281.756 37.6373 283.954 44.0958C286.198 50.4808 285.313 56.9061 281.297 63.3715C278.742 67.4859 275.813 70.3176 272.509 71.8667C269.251 73.3424 265.169 74.4248 260.262 75.1139C256.102 75.7468 252.57 76.3525 249.666 76.9311C246.807 77.4361 244.511 79.0846 242.777 81.8765L241.887 83.3092L224.527 72.9077ZM211.633 91.9475L219.573 79.1635L238.38 90.4319L230.44 103.216L211.633 91.9475Z"/>
</mask>
<path d="M224.527 72.9077L225.827 70.8138C227.653 67.8749 229.775 65.7693 232.194 64.4968C234.687 63.2687 237.565 62.3219 240.829 61.6563C243.899 60.9752 246.772 60.5291 249.448 60.3179C252.124 60.1067 254.512 59.622 256.612 58.8638C258.711 58.1056 260.377 56.7346 261.609 54.7509C263.389 51.8855 263.605 49.2428 262.258 46.8226C261.03 44.3734 258.042 41.7264 253.294 38.8816C250.178 37.0146 246.848 35.574 243.305 34.5597C239.806 33.4719 236.617 32.8712 233.735 32.7577L242.975 17.8798C246.542 18.202 250.43 19.0703 254.642 20.4847C258.928 21.9435 263.296 24.0065 267.747 26.6735C276.354 31.8298 281.756 37.6373 283.954 44.0958C286.198 50.4808 285.313 56.9061 281.297 63.3715C278.742 67.4859 275.813 70.3176 272.509 71.8667C269.251 73.3424 265.169 74.4248 260.262 75.1139C256.102 75.7468 252.57 76.3525 249.666 76.9311C246.807 77.4361 244.511 79.0846 242.777 81.8765L241.887 83.3092L224.527 72.9077ZM211.633 91.9475L219.573 79.1635L238.38 90.4319L230.44 103.216L211.633 91.9475Z" fill="#8A00DA"/>
<path d="M224.527 72.9077L211.881 65.3308C207.585 72.2473 209.765 81.2465 216.749 85.4311L224.527 72.9077ZM232.194 64.4968L225.636 51.4123C225.517 51.4713 225.398 51.5318 225.28 51.594L232.194 64.4968ZM240.829 61.6563L243.735 75.9891C243.819 75.9718 243.904 75.9539 243.988 75.9352L240.829 61.6563ZM249.448 60.3179L248.371 45.7275L248.371 45.7275L249.448 60.3179ZM256.612 58.8638L251.595 45.1239L251.595 45.1239L256.612 58.8638ZM262.258 46.8226L248.938 53.3833C249.031 53.5699 249.129 53.7544 249.23 53.9368L262.258 46.8226ZM243.305 34.5597L238.745 48.5218C238.853 48.5554 238.961 48.5877 239.069 48.6188L243.305 34.5597ZM233.735 32.7577L221.089 25.1808C218.337 29.6116 218.154 35.129 220.608 39.6899C223.062 44.2509 227.787 47.1764 233.034 47.3832L233.735 32.7577ZM242.975 17.8798L244.437 3.30368C238.783 2.79286 233.306 5.51035 230.329 10.303L242.975 17.8798ZM254.642 20.4847L259.579 6.64527C259.559 6.63873 259.54 6.63223 259.521 6.62577L254.642 20.4847ZM283.954 44.0958L269.876 48.8437C269.891 48.8886 269.907 48.9334 269.922 48.9781L283.954 44.0958ZM272.509 71.8667L278.626 85.1595C278.686 85.1322 278.746 85.1045 278.806 85.0764L272.509 71.8667ZM260.262 75.1139L258.274 60.6233C258.216 60.6313 258.159 60.6397 258.102 60.6484L260.262 75.1139ZM249.666 76.9311L252.181 91.3381C252.289 91.319 252.397 91.2988 252.504 91.2774L249.666 76.9311ZM241.887 83.3092L234.11 95.8327C241.094 100.017 250.238 97.8026 254.533 90.8861L241.887 83.3092ZM211.633 91.9475L198.987 84.3706C194.691 91.2871 196.871 100.286 203.855 104.471L211.633 91.9475ZM219.573 79.1635L227.351 66.6401C220.366 62.4555 211.222 64.6701 206.927 71.5867L219.573 79.1635ZM238.38 90.4319L251.026 98.0087C255.322 91.0922 253.142 82.093 246.158 77.9084L238.38 90.4319ZM230.44 103.216L222.662 115.739C229.647 119.924 238.791 117.709 243.086 110.793L230.44 103.216ZM224.527 72.9077L237.173 80.4846L238.473 78.3906L225.827 70.8138L213.181 63.2369L211.881 65.3308L224.527 72.9077ZM225.827 70.8138L238.473 78.3906C239.28 77.0915 239.61 77.1355 239.108 77.3996L232.194 64.4968L225.28 51.594C219.94 54.403 216.025 58.6583 213.181 63.2369L225.827 70.8138ZM232.194 64.4968L238.751 77.5812C239.885 77.0229 241.496 76.4456 243.735 75.9891L240.829 61.6563L237.924 47.3235C233.635 48.1981 229.489 49.5145 225.636 51.4123L232.194 64.4968ZM240.829 61.6563L243.988 75.9352C246.484 75.3813 248.655 75.0559 250.525 74.9083L249.448 60.3179L248.371 45.7275C244.888 46.0023 241.314 46.5691 237.671 47.3773L240.829 61.6563ZM249.448 60.3179L250.525 74.9083C254.283 74.6117 258.033 73.9017 261.628 72.6037L256.612 58.8638L251.595 45.1239C250.991 45.3422 249.965 45.6017 248.371 45.7275L249.448 60.3179ZM256.612 58.8638L261.628 72.6037C267.081 70.6346 271.36 66.9894 274.255 62.3278L261.609 54.7509L248.963 47.174C249.125 46.9132 249.445 46.4914 249.971 46.0584C250.505 45.6189 251.079 45.3104 251.595 45.1239L256.612 58.8638ZM261.609 54.7509L274.255 62.3278C278.136 56.0784 279.762 47.7505 275.285 39.7084L262.258 46.8226L249.23 53.9368C248.582 52.7715 248.172 51.2061 248.307 49.5493C248.431 48.0418 248.942 47.2084 248.963 47.174L261.609 54.7509ZM262.258 46.8226L275.577 40.2619C272.385 33.8916 266.236 29.4521 261.072 26.3581L253.294 38.8816L245.516 51.405C247.383 52.5237 248.514 53.3751 249.128 53.9196C249.807 54.5206 249.435 54.3748 248.938 53.3833L262.258 46.8226ZM253.294 38.8816L261.072 26.3581C256.838 23.8211 252.315 21.8674 247.54 20.5006L243.305 34.5597L239.069 48.6188C241.381 49.2805 243.519 50.2082 245.516 51.405L253.294 38.8816ZM243.305 34.5597L247.864 20.5975C243.44 19.2218 238.93 18.3093 234.436 18.1322L233.735 32.7577L233.034 47.3832C234.303 47.4332 236.173 47.722 238.745 48.5218L243.305 34.5597ZM233.735 32.7577L246.381 40.3346L255.621 25.4567L242.975 17.8798L230.329 10.303L221.089 25.1808L233.735 32.7577ZM242.975 17.8798L241.513 32.456C243.673 32.6511 246.4 33.2144 249.763 34.3436L254.642 20.4847L259.521 6.62577C254.46 4.92625 249.41 3.753 244.437 3.30368L242.975 17.8798ZM254.642 20.4847L249.705 34.3241C252.864 35.3993 256.284 36.9887 259.97 39.197L267.747 26.6735L275.525 14.1501C270.308 11.0242 264.992 8.48779 259.579 6.64527L254.642 20.4847ZM267.747 26.6735L259.97 39.197C266.936 43.3707 269.192 46.8354 269.876 48.8437L283.954 44.0958L298.033 39.3479C294.32 28.4391 285.771 20.289 275.525 14.1501L267.747 26.6735ZM283.954 44.0958L269.922 48.9781C270.533 50.7164 270.641 52.5903 268.651 55.7946L281.297 63.3715L293.943 70.9484C299.984 61.2218 301.864 50.2453 297.986 39.2134L283.954 44.0958ZM281.297 63.3715L268.651 55.7946C267.897 57.0096 267.265 57.7452 266.829 58.1665C266.616 58.3729 266.456 58.4973 266.357 58.5669C266.307 58.6019 266.271 58.6245 266.248 58.6378C266.225 58.6511 266.213 58.6566 266.212 58.6571L272.509 71.8667L278.806 85.0764C285.482 81.9457 290.37 76.7014 293.943 70.9484L281.297 63.3715ZM272.509 71.8667L266.393 58.5739C264.842 59.2765 262.26 60.0635 258.274 60.6233L260.262 75.1139L262.25 89.6044C268.078 88.786 273.661 87.4083 278.626 85.1595L272.509 71.8667ZM260.262 75.1139L258.102 60.6484C253.801 61.3028 250.029 61.947 246.828 62.5847L249.666 76.9311L252.504 91.2774C255.112 90.758 258.403 90.1908 262.421 89.5794L260.262 75.1139ZM249.666 76.9311L247.151 62.524C239.471 63.881 233.75 68.4724 230.131 74.2997L242.777 81.8765L255.423 89.4534C255.435 89.4349 255.169 89.8635 254.482 90.357C253.752 90.881 252.921 91.2074 252.181 91.3381L249.666 76.9311ZM242.777 81.8765L230.131 74.2997L229.241 75.7323L241.887 83.3092L254.533 90.8861L255.423 89.4534L242.777 81.8765ZM241.887 83.3092L249.665 70.7858L232.305 60.3842L224.527 72.9077L216.749 85.4311L234.11 95.8327L241.887 83.3092ZM211.633 91.9475L224.279 99.5243L232.219 86.7404L219.573 79.1635L206.927 71.5867L198.987 84.3706L211.633 91.9475ZM219.573 79.1635L211.795 91.687L230.602 102.955L238.38 90.4319L246.158 77.9084L227.351 66.6401L219.573 79.1635ZM238.38 90.4319L225.734 82.855L217.794 95.6389L230.44 103.216L243.086 110.793L251.026 98.0087L238.38 90.4319ZM230.44 103.216L238.218 90.6923L219.411 79.424L211.633 91.9475L203.855 104.471L222.662 115.739L230.44 103.216Z" fill="white" mask="url(#path-20-outside-3_1696_2603)"/>
</g>
</g>
<defs>
<filter id="filter0_d_1696_2603" x="52.7188" y="46.03" width="187.41" height="243.047" filterUnits="userSpaceOnUse" color-interpolation-filters="sRGB">
<feFlood flood-opacity="0" result="BackgroundImageFix"/>
<feColorMatrix in="SourceAlpha" type="matrix" values="0 0 0 0 0 0 0 0 0 0 0 0 0 0 0 0 0 0 127 0" result="hardAlpha"/>
<feOffset dy="4"/>
<feGaussianBlur stdDeviation="2"/>
<feComposite in2="hardAlpha" operator="out"/>
<feColorMatrix type="matrix" values="0 0 0 0 0 0 0 0 0 0 0 0 0 0 0 0 0 0 0.25 0"/>
<feBlend mode="normal" in2="BackgroundImageFix" result="effect1_dropShadow_1696_2603"/>
<feBlend mode="normal" in="SourceGraphic" in2="effect1_dropShadow_1696_2603" result="shape"/>
</filter>
<filter id="filter1_d_1696_2603" x="25.4297" y="90.4917" width="220.367" height="163.778" filterUnits="userSpaceOnUse" color-interpolation-filters="sRGB">
<feFlood flood-opacity="0" result="BackgroundImageFix"/>
<feColorMatrix in="SourceAlpha" type="matrix" values="0 0 0 0 0 0 0 0 0 0 0 0 0 0 0 0 0 0 127 0" result="hardAlpha"/>
<feOffset dy="4"/>
<feGaussianBlur stdDeviation="2"/>
<feComposite in2="hardAlpha" operator="out"/>
<feColorMatrix type="matrix" values="0 0 0 0 0 0 0 0 0 0 0 0 0 0 0 0 0 0 0.25 0"/>
<feBlend mode="normal" in2="BackgroundImageFix" result="effect1_dropShadow_1696_2603"/>
<feBlend mode="normal" in="SourceGraphic" in2="effect1_dropShadow_1696_2603" result="shape"/>
</filter>
<filter id="filter2_d_1696_2603" x="29.4336" y="90.493" width="212.363" height="161.171" filterUnits="userSpaceOnUse" color-interpolation-filters="sRGB">
<feFlood flood-opacity="0" result="BackgroundImageFix"/>
<feColorMatrix in="SourceAlpha" type="matrix" values="0 0 0 0 0 0 0 0 0 0 0 0 0 0 0 0 0 0 127 0" result="hardAlpha"/>
<feOffset dy="5.395"/>
<feComposite in2="hardAlpha" operator="out"/>
<feColorMatrix type="matrix" values="0 0 0 0 0 0 0 0 0 0 0 0 0 0 0 0 0 0 0.25 0"/>
<feBlend mode="normal" in2="BackgroundImageFix" result="effect1_dropShadow_1696_2603"/>
<feBlend mode="normal" in="SourceGraphic" in2="effect1_dropShadow_1696_2603" result="shape"/>
</filter>
<filter id="filter3_d_1696_2603" x="89.832" y="167.602" width="98.0703" height="69.9565" filterUnits="userSpaceOnUse" color-interpolation-filters="sRGB">
<feFlood flood-opacity="0" result="BackgroundImageFix"/>
<feColorMatrix in="SourceAlpha" type="matrix" values="0 0 0 0 0 0 0 0 0 0 0 0 0 0 0 0 0 0 127 0" result="hardAlpha"/>
<feOffset dy="3.76531"/>
<feComposite in2="hardAlpha" operator="out"/>
<feColorMatrix type="matrix" values="0 0 0 0 0 0 0 0 0 0 0 0 0 0 0 0 0 0 0.27 0"/>
<feBlend mode="normal" in2="BackgroundImageFix" result="effect1_dropShadow_1696_2603"/>
<feBlend mode="normal" in="SourceGraphic" in2="effect1_dropShadow_1696_2603" result="shape"/>
</filter>
<filter id="filter4_dn_1696_2603" x="88.0853" y="167.591" width="101.544" height="69.6693" filterUnits="userSpaceOnUse" color-interpolation-filters="sRGB">
<feFlood flood-opacity="0" result="BackgroundImageFix"/>
<feColorMatrix in="SourceAlpha" type="matrix" values="0 0 0 0 0 0 0 0 0 0 0 0 0 0 0 0 0 0 127 0" result="hardAlpha"/>
<feOffset dy="1.73896"/>
<feGaussianBlur stdDeviation="0.869478"/>
<feComposite in2="hardAlpha" operator="out"/>
<feColorMatrix type="matrix" values="0 0 0 0 0 0 0 0 0 0 0 0 0 0 0 0 0 0 0.25 0"/>
<feBlend mode="normal" in2="BackgroundImageFix" result="effect1_dropShadow_1696_2603"/>
<feBlend mode="normal" in="SourceGraphic" in2="BackgroundImageFix" result="shape"/>
<feTurbulence type="fractalNoise" baseFrequency="0.19660091400146484 0.19660091400146484" stitchTiles="stitch" numOctaves="3" result="noise" seed="6754" />
<feColorMatrix in="noise" type="luminanceToAlpha" result="alphaNoise" />
<feComponentTransfer in="alphaNoise" result="coloredNoise1">
<feFuncA type="discrete" tableValues="0 0 0 0 0 0 0 0 0 0 0 0 0 0 0 0 0 1 1 1 1 1 1 1 1 1 1 1 1 1 1 1 0 0 0 0 0 0 0 0 0 0 0 0 0 0 0 0 0 0 0 0 0 0 0 0 0 0 0 0 0 0 0 0 0 0 0 0 0 0 0 0 0 0 0 0 0 0 0 0 0 0 0 0 0 0 0 0 0 0 0 0 0 0 0 0 0 0 0 0 "/>
</feComponentTransfer>
<feComposite operator="in" in2="shape" in="coloredNoise1" result="noise1Clipped" />
<feComponentTransfer in="alphaNoise" result="coloredNoise2">
<feFuncA type="discrete" tableValues="0 0 0 0 0 0 0 0 0 0 0 0 0 0 0 0 0 0 0 0 0 0 0 0 0 0 0 0 0 0 0 0 0 0 0 0 0 0 0 0 0 0 0 0 0 0 0 0 0 0 0 0 0 0 0 0 0 0 0 0 0 0 0 0 0 0 0 0 1 1 1 1 1 1 1 1 1 1 1 1 1 1 1 0 0 0 0 0 0 0 0 0 0 0 0 0 0 0 0 0 "/>
</feComponentTransfer>
<feComposite operator="in" in2="shape" in="coloredNoise2" result="noise2Clipped" />
<feFlood flood-color="rgba(255, 196, 0, 0.72)" result="color1Flood" />
<feComposite operator="in" in2="noise1Clipped" in="color1Flood" result="color1" />
<feFlood flood-color="rgba(255, 255, 255, 0.44)" result="color2Flood" />
<feComposite operator="in" in2="noise2Clipped" in="color2Flood" result="color2" />
<feMerge result="effect2_noise_1696_2603">
<feMergeNode in="shape" />
<feMergeNode in="color1" />
<feMergeNode in="color2" />
</feMerge>
<feBlend mode="normal" in="effect2_noise_1696_2603" in2="effect1_dropShadow_1696_2603" result="effect2_noise_1696_2603"/>
</filter>
<filter id="filter5_d_1696_2603" x="168.937" y="197.817" width="21.4202" height="36.272" filterUnits="userSpaceOnUse" color-interpolation-filters="sRGB">
<feFlood flood-opacity="0" result="BackgroundImageFix"/>
<feColorMatrix in="SourceAlpha" type="matrix" values="0 0 0 0 0 0 0 0 0 0 0 0 0 0 0 0 0 0 127 0" result="hardAlpha"/>
<feOffset dx="0.869478" dy="1.30422"/>
<feGaussianBlur stdDeviation="0.804267"/>
<feComposite in2="hardAlpha" operator="out"/>
<feColorMatrix type="matrix" values="0 0 0 0 0 0 0 0 0 0 0 0 0 0 0 0 0 0 0.48 0"/>
<feBlend mode="normal" in2="BackgroundImageFix" result="effect1_dropShadow_1696_2603"/>
<feBlend mode="normal" in="SourceGraphic" in2="effect1_dropShadow_1696_2603" result="shape"/>
</filter>
<filter id="filter6_d_1696_2603" x="251.832" y="145.18" width="83.8125" height="66.8792" filterUnits="userSpaceOnUse" color-interpolation-filters="sRGB">
<feFlood flood-opacity="0" result="BackgroundImageFix"/>
<feColorMatrix in="SourceAlpha" type="matrix" values="0 0 0 0 0 0 0 0 0 0 0 0 0 0 0 0 0 0 127 0" result="hardAlpha"/>
<feOffset dy="3.49404"/>
<feComposite in2="hardAlpha" operator="out"/>
<feColorMatrix type="matrix" values="0 0 0 0 0 0 0 0 0 0 0 0 0 0 0 0 0 0 0.25 0"/>
<feBlend mode="normal" in2="BackgroundImageFix" result="effect1_dropShadow_1696_2603"/>
<feBlend mode="normal" in="SourceGraphic" in2="effect1_dropShadow_1696_2603" result="shape"/>
</filter>
<filter id="filter7_d_1696_2603" x="237.859" y="70.4554" width="98.2695" height="87.2172" filterUnits="userSpaceOnUse" color-interpolation-filters="sRGB">
<feFlood flood-opacity="0" result="BackgroundImageFix"/>
<feColorMatrix in="SourceAlpha" type="matrix" values="0 0 0 0 0 0 0 0 0 0 0 0 0 0 0 0 0 0 127 0" result="hardAlpha"/>
<feOffset dy="4.07646"/>
<feComposite in2="hardAlpha" operator="out"/>
<feColorMatrix type="matrix" values="0 0 0 0 0 0 0 0 0 0 0 0 0 0 0 0 0 0 0.25 0"/>
<feBlend mode="normal" in2="BackgroundImageFix" result="effect1_dropShadow_1696_2603"/>
<feBlend mode="normal" in="SourceGraphic" in2="effect1_dropShadow_1696_2603" result="shape"/>
</filter>
<filter id="filter8_d_1696_2603" x="196.785" y="3.24243" width="103.227" height="119.44" filterUnits="userSpaceOnUse" color-interpolation-filters="sRGB">
<feFlood flood-opacity="0" result="BackgroundImageFix"/>
<feColorMatrix in="SourceAlpha" type="matrix" values="0 0 0 0 0 0 0 0 0 0 0 0 0 0 0 0 0 0 127 0" result="hardAlpha"/>
<feOffset dy="4.82716"/>
<feComposite in2="hardAlpha" operator="out"/>
<feColorMatrix type="matrix" values="0 0 0 0 0 0 0 0 0 0 0 0 0 0 0 0 0 0 0.25 0"/>
<feBlend mode="normal" in2="BackgroundImageFix" result="effect1_dropShadow_1696_2603"/>
<feBlend mode="normal" in="SourceGraphic" in2="effect1_dropShadow_1696_2603" result="shape"/>
</filter>
<linearGradient id="paint0_linear_1696_2603" x1="69.4471" y1="57.6699" x2="214.667" y2="282.188" gradientUnits="userSpaceOnUse">
<stop stop-color="#5A1985"/>
<stop offset="1" stop-color="#8300A1"/>
</linearGradient>
<linearGradient id="paint1_linear_1696_2603" x1="101.451" y1="189.124" x2="200.691" y2="230.184" gradientUnits="userSpaceOnUse">
<stop stop-color="#FFE030"/>
<stop offset="0.261174" stop-color="#FFFDEB"/>
<stop offset="0.360249" stop-color="#FFE610"/>
<stop offset="0.439479" stop-color="#FFF9C4"/>
<stop offset="0.614238" stop-color="#FFE514"/>
<stop offset="1" stop-color="#FFE41A"/>
</linearGradient>
<linearGradient id="paint2_linear_1696_2603" x1="103.98" y1="174.404" x2="137.943" y2="232.753" gradientUnits="userSpaceOnUse">
<stop stop-color="#FFF459"/>
<stop offset="1" stop-color="#E9B334"/>
</linearGradient>
<linearGradient id="paint3_linear_1696_2603" x1="111.563" y1="191.648" x2="200.656" y2="230.19" gradientUnits="userSpaceOnUse">
<stop stop-color="#FFEC1A"/>
<stop offset="0.380812" stop-color="#FFE60B"/>
<stop offset="1" stop-color="#FFE41A"/>
</linearGradient>
<linearGradient id="paint4_linear_1696_2603" x1="170.878" y1="209.315" x2="181.034" y2="214.083" gradientUnits="userSpaceOnUse">
<stop stop-color="#D1D1D1"/>
<stop offset="0.3423" stop-color="#FAFAFA"/>
<stop offset="0.573639" stop-color="white"/>
<stop offset="1" stop-color="#666666"/>
</linearGradient>
<linearGradient id="paint5_linear_1696_2603" x1="172.656" y1="206.016" x2="187.082" y2="211.973" gradientUnits="userSpaceOnUse">
<stop stop-color="white"/>
<stop offset="1" stop-color="#0B0B0B"/>
</linearGradient>
<clipPath id="clip0_1696_2603">
<rect width="188" height="219" fill="white" transform="translate(186.738)"/>
</clipPath>
</defs>
</svg>
