<svg width="1298" height="471" viewBox="0 0 1298 471" fill="none" xmlns="http://www.w3.org/2000/svg">
<g clip-path="url(#clip0_2_1130)">
<path d="M87.498 3L-0.00195312 69V141H1298V26L1241 88.5L1115 34L1064.5 88.5L994.498 49L980.498 3L831.498 58L744.998 26V69L653.998 88.5L601.498 41.5L482.998 101.5L453.498 58L445.998 8.5L334.498 34L303.498 88.5L258.998 69L225.998 34L157.498 69L87.498 3Z" fill="url(#paint0_linear_2_1130)"/>
<path opacity="0.72" d="M1298 141V26L1241 88.5L1115 34L1064.5 88.5L994.498 49L980.498 3L831.498 58L744.998 26V69L653.998 88.5L601.498 41.5L482.998 101.5L453.498 58L445.998 8.5L334.498 34L303.498 88.5L258.998 69L225.998 34L157.498 69L87.498 3L-0.00195312 69V141" stroke="url(#paint1_radial_2_1130)" stroke-width="3.42"/>
<g opacity="0.25" filter="url(#filter0_d_2_1130)">
<path d="M862.676 181.782L893.634 144.418L929.303 173.971L950.042 126.74C960.093 153.213 981.727 207.426 987.854 212.503L929.303 173.971L922.224 218.816L952.424 237.598L905.963 309.264L776.008 358.99L747.179 329.199L750.585 320.894L653.7 340.689L674.189 233.112L796.783 208.264L823.951 157.699L862.676 181.782Z" fill="url(#paint2_linear_2_1130)" fill-opacity="0.11" shape-rendering="crispEdges"/>
<path d="M945.42 301.729L981.28 280.051L1060.28 345.503L1125.47 235.197L1136.05 316.852L1060.28 345.503L1043.1 397.419L957.105 444.637L943.5 394.245L888.184 410.414L898.326 358.57L945.42 301.729Z" fill="url(#paint3_linear_2_1130)" fill-opacity="0.11" shape-rendering="crispEdges"/>
<path d="M952.424 237.598L922.224 218.816M952.424 237.598L886.488 293.128M952.424 237.598L911.616 240.876M952.424 237.598L905.963 309.264L776.008 358.99M772.927 125.967L823.951 157.699M862.676 181.782L893.634 144.418M862.676 181.782L922.224 218.816M862.676 181.782L796.783 208.264M862.676 181.782L823.951 157.699M893.634 144.418L839.738 45.3288M893.634 144.418L929.303 173.971M929.303 173.971L987.854 212.503C981.727 207.426 960.093 153.213 950.042 126.74L929.303 173.971ZM929.303 173.971L922.224 218.816M922.224 218.816L911.616 240.876M886.488 293.128L911.616 240.876M886.488 293.128L653.7 340.689L674.189 233.112L796.783 208.264M886.488 293.128L776.008 358.99M911.616 240.876L796.783 208.264M796.783 208.264L823.951 157.699M796.783 208.264L747.179 329.199L776.008 358.99M981.28 280.051L945.42 301.729L898.326 358.57L888.184 410.414M981.28 280.051L943.5 394.245M981.28 280.051L888.184 410.414M981.28 280.051L1060.28 345.503M943.5 394.245L888.184 410.414M943.5 394.245L957.105 444.637M957.105 444.637L1043.1 397.419M957.105 444.637L947.459 481.668M1043.1 397.419L1060.28 345.503M1043.1 397.419L1067.02 442.706M1060.28 345.503L1136.05 316.852M1060.28 345.503L1125.47 235.197M1136.05 316.852L1125.47 235.197M1136.05 316.852L1187.04 334.373M1125.47 235.197L1166.08 186.179M1125.47 235.197L1177.31 220.95" stroke="url(#paint4_radial_2_1130)" stroke-width="1.98926" shape-rendering="crispEdges"/>
</g>
<g opacity="0.2" filter="url(#filter1_d_2_1130)">
<path d="M1014.92 106.537L971.98 129.135L993.552 170.126L1038.89 172.437L1051.05 205.859L1130.75 175.156L1206.18 58.23L1182.97 23.8826L1174.14 25.5053L1213.47 -65.2243L1103.97 -67.3341L1054.41 47.5124L999.33 63.6821L1014.92 106.537Z" fill="url(#paint5_linear_2_1130)" fill-opacity="0.11" shape-rendering="crispEdges"/>
<path d="M1115.25 212.215L1086.65 242.84L1134.43 333.625L1188.77 327.507L1252.69 253.086L1206.18 229.392L1289.29 185.653L1262.76 165.739L1233.39 178.594L1180.57 177.839L1115.25 212.215Z" fill="url(#paint6_linear_2_1130)" fill-opacity="0.11" shape-rendering="crispEdges"/>
<path d="M1051.05 205.859L1038.89 172.437M1051.05 205.859L1118.97 152.774M1051.05 205.859L1062.67 166.6M1051.05 205.859L1130.75 175.156L1206.18 58.23M978.789 7.21576L999.33 63.6821M1014.92 106.537L971.98 129.135M1014.92 106.537L1038.89 172.437M1014.92 106.537L1054.41 47.5124M1014.92 106.537L999.33 63.6821M971.98 129.135L886.118 55.9843M971.98 129.135L993.552 170.126M1019.2 235.359L993.552 170.126M993.552 170.126L1038.89 172.437M1038.89 172.437L1062.67 166.6M1118.97 152.774L1062.67 166.6M1118.97 152.774L1213.47 -65.2243L1103.97 -67.3341L1054.41 47.5124M1118.97 152.774L1206.18 58.23M1062.67 166.6L1054.41 47.5124M1054.41 47.5124L999.33 63.6821M1054.41 47.5124L1182.97 23.8826L1206.18 58.23M1245.9 143.462L1180.57 177.839M1086.65 242.84L1115.25 212.215L1180.57 177.839M1086.65 242.84L1206.18 229.392M1086.65 242.84L1233.39 178.594M1086.65 242.84L1134.43 333.625L1188.77 327.507M1206.18 229.392L1289.29 185.653L1262.76 165.739L1233.39 178.594M1206.18 229.392L1233.39 178.594M1206.18 229.392L1252.69 253.086M1180.57 177.839L1233.39 178.594M1252.69 253.086L1188.77 327.507M1252.69 253.086L1290.91 251.275M1188.77 327.507L1228.16 360.247" stroke="url(#paint7_radial_2_1130)" stroke-width="1.98926" shape-rendering="crispEdges"/>
</g>
<g opacity="0.1">
<path d="M174.305 208.863L83.695 205.439L83.695 125.704L11.5423 152.364C35.5932 109.969 83.695 21.7552 83.695 8.05841L83.695 125.704L161.001 68.687L225.501 37.187L260.777 68.6871L470.002 160.687L489.463 196.634L338.002 160.687L177.827 283.217L174.305 208.863Z" fill="url(#paint8_linear_2_1130)" fill-opacity="0.11"/>
<path d="M225.501 37.187L161.001 68.687M225.501 37.187L260.777 68.6871M225.501 37.187L204.501 103.187M191.802 385.699L177.827 283.217M174.305 208.863L83.695 205.439M174.305 208.863L161.001 68.687M174.305 208.863L338.002 160.687M174.305 208.863L177.827 283.217M83.695 205.439L11.5422 385.699M83.695 205.439L83.695 125.704M83.695 8.05841L-81.4004 140.868L-235 205.439M83.695 8.05841L-168.717 264.14M83.695 8.05841C83.695 21.7552 35.5932 109.969 11.5423 152.364L83.695 125.704M83.695 8.05841L83.695 125.704M83.695 125.704L161.001 68.687M161.001 68.687L204.501 103.187M260.777 68.6871L204.501 103.187M260.777 68.6871L470.002 160.687M204.501 103.187L338.002 160.687M338.002 160.687L177.827 283.217M338.002 160.687L303.002 309.687M338.002 160.687L489.463 196.634L470.002 160.687M334.502 37.1871L470.002 160.687M470.002 160.687L454.998 60.687M470.002 160.687L485.498 100.187" stroke="url(#paint9_radial_2_1130)" stroke-width="3.4242"/>
</g>
<g opacity="0.1">
<path d="M834.497 59.1872L982.497 2.187L1010.33 126.687L1067.5 88.187L1032.05 229.262L868.911 272.877L866.863 183.052L736.993 279.34L725.904 223.316L767.755 187.363L806 104.864L834.497 59.1872Z" fill="url(#paint10_linear_2_1130)" fill-opacity="0.11"/>
<path d="M703.931 180.539L806 104.864M982.497 2.187L834.497 59.1872L806 104.864M982.497 2.187L866.863 183.052M982.497 2.187L767.755 187.363M982.497 2.187L1010.33 126.687M866.863 183.052L736.993 279.34L725.904 223.316L767.755 187.363M866.863 183.052L767.755 187.363M866.863 183.052L868.911 272.877M806 104.864L767.755 187.363M868.911 272.877L1032.05 229.262M868.911 272.877L837.577 330.818M1032.05 229.262L1011 129.687L1010.33 126.687M1032.05 229.262L1067.5 88.187L1010.33 126.687" stroke="url(#paint11_radial_2_1130)" stroke-width="3.4242"/>
</g>
<g opacity="0.1">
<path d="M529.999 104.687L605.243 47.1869L633.743 174.687L654.795 88.1869L708.999 181.187L633.743 174.687L489.61 228.052L506.999 163.187L470.999 157.187L529.999 104.687Z" fill="url(#paint12_linear_2_1130)" fill-opacity="0.11"/>
<path d="M605.243 47.1869L529.999 104.687L470.999 157.187L506.999 163.187M605.243 47.1869L489.61 228.052M605.243 47.1869L506.999 163.187M605.243 47.1869L633.743 174.687M489.61 228.052L506.999 163.187M489.61 228.052L633.743 174.687M633.743 174.687L708.999 181.187L654.795 88.1869L633.743 174.687ZM633.743 174.687L626.498 297.187" stroke="url(#paint13_radial_2_1130)" stroke-width="3.4242"/>
</g>
<path opacity="0.1" d="M1124.26 115.819L1032.5 230.687L1043.5 311.187M1124.26 115.819L1244.5 89.6869M1124.26 115.819L1233.62 155.502M1124.26 115.819L1117.5 32.6869M1124.26 115.819L1166.06 213.503M1244.5 89.6869L1207.87 311.187M1244.5 89.6869L1289 155.502L1265 283.187M1207.87 311.187L1166.06 213.503M1207.87 311.187L1265 283.187M1265 283.187L1289 301.187M1265 283.187L1233.62 408.687M1166.06 213.503L1043.5 311.187M1043.5 311.187L1012.5 432.687" stroke="url(#paint14_radial_2_1130)" stroke-width="3.4242"/>
</g>
<defs>
<filter id="filter0_d_2_1130" x="648.445" y="44.8535" width="542.918" height="445.066" filterUnits="userSpaceOnUse" color-interpolation-filters="sRGB">
<feFlood flood-opacity="0" result="BackgroundImageFix"/>
<feColorMatrix in="SourceAlpha" type="matrix" values="0 0 0 0 0 0 0 0 0 0 0 0 0 0 0 0 0 0 127 0" result="hardAlpha"/>
<feOffset dy="4"/>
<feGaussianBlur stdDeviation="2"/>
<feComposite in2="hardAlpha" operator="out"/>
<feColorMatrix type="matrix" values="0 0 0 0 0 0 0 0 0 0 0 0 0 0 0 0 0 0 0.25 0"/>
<feBlend mode="normal" in2="BackgroundImageFix" result="effect1_dropShadow_2_1130"/>
<feBlend mode="normal" in="SourceGraphic" in2="effect1_dropShadow_2_1130" result="shape"/>
</filter>
<filter id="filter1_d_2_1130" x="881.473" y="-68.3414" width="413.675" height="437.353" filterUnits="userSpaceOnUse" color-interpolation-filters="sRGB">
<feFlood flood-opacity="0" result="BackgroundImageFix"/>
<feColorMatrix in="SourceAlpha" type="matrix" values="0 0 0 0 0 0 0 0 0 0 0 0 0 0 0 0 0 0 127 0" result="hardAlpha"/>
<feOffset dy="4"/>
<feGaussianBlur stdDeviation="2"/>
<feComposite in2="hardAlpha" operator="out"/>
<feColorMatrix type="matrix" values="0 0 0 0 0 0 0 0 0 0 0 0 0 0 0 0 0 0 0.25 0"/>
<feBlend mode="normal" in2="BackgroundImageFix" result="effect1_dropShadow_2_1130"/>
<feBlend mode="normal" in="SourceGraphic" in2="effect1_dropShadow_2_1130" result="shape"/>
</filter>
<linearGradient id="paint0_linear_2_1130" x1="-0.00195312" y1="72" x2="1298" y2="72" gradientUnits="userSpaceOnUse">
<stop stop-color="#2E0050"/>
<stop offset="1" stop-color="#450079"/>
</linearGradient>
<radialGradient id="paint1_radial_2_1130" cx="0" cy="0" r="1" gradientUnits="userSpaceOnUse" gradientTransform="translate(449.498 3.00001) scale(817 410.014)">
<stop stop-color="#825096"/>
<stop offset="1" stop-color="#969696" stop-opacity="0"/>
</radialGradient>
<linearGradient id="paint2_linear_2_1130" x1="741.946" y1="209.906" x2="916.238" y2="262.789" gradientUnits="userSpaceOnUse">
<stop stop-color="#787878"/>
<stop offset="1" stop-color="#FF00FF"/>
</linearGradient>
<linearGradient id="paint3_linear_2_1130" x1="741.946" y1="209.906" x2="916.238" y2="262.789" gradientUnits="userSpaceOnUse">
<stop stop-color="#787878"/>
<stop offset="1" stop-color="#FF00FF"/>
</linearGradient>
<radialGradient id="paint4_radial_2_1130" cx="0" cy="0" r="1" gradientUnits="userSpaceOnUse" gradientTransform="translate(997.881 304.795) rotate(-149.222) scale(292.227 311.202)">
<stop stop-color="white"/>
<stop offset="1" stop-color="#999999" stop-opacity="0"/>
</radialGradient>
<linearGradient id="paint5_linear_2_1130" x1="1067.31" y1="-5.81038" x2="1083.16" y2="175.637" gradientUnits="userSpaceOnUse">
<stop stop-color="#787878"/>
<stop offset="1" stop-color="#FF00FF"/>
</linearGradient>
<linearGradient id="paint6_linear_2_1130" x1="1067.31" y1="-5.81038" x2="1083.16" y2="175.637" gradientUnits="userSpaceOnUse">
<stop stop-color="#787878"/>
<stop offset="1" stop-color="#FF00FF"/>
</linearGradient>
<radialGradient id="paint7_radial_2_1130" cx="0" cy="0" r="1" gradientUnits="userSpaceOnUse" gradientTransform="translate(1107.44 264.181) rotate(-74.6194) scale(247.37 263.433)">
<stop stop-color="white"/>
<stop offset="1" stop-color="#999999" stop-opacity="0"/>
</radialGradient>
<linearGradient id="paint8_linear_2_1130" x1="337.082" y1="334.58" x2="215.768" y2="45.48" gradientUnits="userSpaceOnUse">
<stop stop-color="#787878"/>
<stop offset="1" stop-color="#FF00FF"/>
</linearGradient>
<radialGradient id="paint9_radial_2_1130" cx="0" cy="0" r="1" gradientUnits="userSpaceOnUse" gradientTransform="translate(204.998 -39.313) rotate(82.7597) scale(430.893 458.873)">
<stop stop-color="white"/>
<stop offset="1" stop-color="#999999" stop-opacity="0"/>
</radialGradient>
<linearGradient id="paint10_linear_2_1130" x1="605.648" y1="-207.873" x2="875.281" y2="-47.8912" gradientUnits="userSpaceOnUse">
<stop stop-color="#787878"/>
<stop offset="1" stop-color="#FF00FF"/>
</linearGradient>
<radialGradient id="paint11_radial_2_1130" cx="0" cy="0" r="1" gradientUnits="userSpaceOnUse" gradientTransform="translate(989.181 -24.8584) rotate(-142.344) scale(445.826 474.776)">
<stop stop-color="white"/>
<stop offset="1" stop-color="#999999" stop-opacity="0"/>
</radialGradient>
<linearGradient id="paint12_linear_2_1130" x1="228.394" y1="-162.873" x2="498.027" y2="-2.89118" gradientUnits="userSpaceOnUse">
<stop stop-color="#787878"/>
<stop offset="1" stop-color="#FF00FF"/>
</linearGradient>
<radialGradient id="paint13_radial_2_1130" cx="0" cy="0" r="1" gradientUnits="userSpaceOnUse" gradientTransform="translate(575.998 24.6869) rotate(113.692) scale(236.426 251.778)">
<stop stop-color="white"/>
<stop offset="1" stop-color="#999999" stop-opacity="0"/>
</radialGradient>
<radialGradient id="paint14_radial_2_1130" cx="0" cy="0" r="1" gradientUnits="userSpaceOnUse" gradientTransform="translate(911.515 -11.1637) rotate(-115.393) scale(445.826 474.776)">
<stop stop-color="white"/>
<stop offset="1" stop-color="#999999" stop-opacity="0"/>
</radialGradient>
<clipPath id="clip0_2_1130">
<rect width="1298" height="471" fill="white"/>
</clipPath>
</defs>
</svg>
