<svg width="303" height="223" viewBox="0 0 303 223" fill="none" xmlns="http://www.w3.org/2000/svg">
<g filter="url(#filter0_d_1841_3205)">
<path d="M0.273438 36.6102C0.273438 31.2174 4.64514 26.8457 10.0379 26.8457H252.263C257.656 26.8457 262.027 31.2174 262.027 36.6102V74.9857C262.027 78.047 260.592 80.9311 258.149 82.7765L248.55 90.0289C246.855 91.3096 244.789 92.0025 242.664 92.0025H10.0379C4.64515 92.0025 0.273438 87.6308 0.273438 82.238V36.6102Z" fill="#8A00DA"/>
<path d="M10.0381 28.8428H252.263C256.552 28.8428 260.03 32.3206 260.03 36.6104V74.9854C260.03 77.4204 258.888 79.7147 256.945 81.1826L247.347 88.4355C245.998 89.4543 244.354 90.0049 242.664 90.0049H10.0381C5.74847 90.0049 2.27065 86.5279 2.27051 82.2383V36.6104C2.27051 32.3206 5.74838 28.8428 10.0381 28.8428Z" stroke="white" stroke-width="3.99456"/>
</g>
<path d="M262.043 79.4263C262.785 79.4263 263.101 80.3668 262.513 80.8159L247.928 91.9438C247.435 92.3197 246.722 91.9939 246.685 91.3755L246.264 84.4136C246.098 83.5737 246.192 82.3291 247.015 81.2866C247.851 80.2268 249.399 79.4263 252.044 79.4263H262.043Z" fill="white" stroke="#C7C7C7" stroke-width="0.51628"/>
<path d="M229.6 91.9345L219.462 91.0648L219.89 82.1185L211.66 84.7231C214.583 80.0953 220.448 70.4555 220.521 68.9187L219.89 82.1185L228.413 78.4278L227.036 71.1556L243.494 70.0171L266.247 84.3348L243.26 74.9018L232.275 77.0842L242.12 98.7493L229.596 100.296L229.6 91.9345Z" fill="url(#paint0_linear_1841_3205)" fill-opacity="0.11"/>
<path d="M237.754 64.7917L230.246 61.7648L231.194 41.9513L206.595 44.681L217.98 33.5631L231.194 41.9513L241.205 38.5793L258.472 46.3911L252.266 54.346L270.387 55.2123L267.369 60.8716L261.179 61.0205L251.995 65.4726L237.754 64.7917Z" fill="url(#paint1_linear_1841_3205)" fill-opacity="0.11"/>
<path d="M227.036 71.1556L228.413 78.4278M227.036 71.1556L243.26 74.9018M227.036 71.1556L232.275 77.0842M227.036 71.1556L243.494 70.0171L266.247 84.3348M230.612 111.869L229.596 100.296M229.6 91.9345L219.462 91.0648M229.6 91.9345L228.413 78.4278M229.6 91.9345L242.12 98.7493M229.6 91.9345L229.596 100.296M219.462 91.0648L210.408 110.903M219.462 91.0648L219.89 82.1185M220.521 68.9187L201.304 82.9353L183.742 89.357M220.521 68.9187L190.856 96.2983M220.521 68.9187C220.448 70.4555 214.583 80.0953 211.66 84.7231L219.89 82.1185M220.521 68.9187L219.89 82.1185M219.89 82.1185L228.413 78.4278M228.413 78.4278L232.275 77.0842M243.26 74.9018L232.275 77.0842M243.26 74.9018L266.247 84.3348M232.275 77.0842L242.12 98.7493M242.12 98.7493L229.596 100.296M266.247 84.3348L264.989 92.2512M266.237 66.1535L251.995 65.4726M230.246 61.7648L237.754 64.7917L251.995 65.4726M230.246 61.7648L252.266 54.346M230.246 61.7648L261.179 61.0205M230.246 61.7648L231.194 41.9513M252.266 54.346L270.387 55.2123L267.369 60.8716L261.179 61.0205M252.266 54.346L261.179 61.0205M252.266 54.346L258.472 46.3911M251.995 65.4726L261.179 61.0205M258.472 46.3911L241.205 38.5793M258.472 46.3911L265.31 43.5825M241.205 38.5793L231.194 41.9513M241.205 38.5793L245.425 29.6218M231.194 41.9513L217.98 33.5632M231.194 41.9513L206.595 44.681M217.98 33.5632L206.595 44.681M217.98 33.5632L214.772 23.6455M206.595 44.681L194.314 44.0939M206.595 44.681L198.382 38.3197" stroke="url(#paint2_radial_1841_3205)" stroke-opacity="0.75" stroke-width="1.49899"/>
<g opacity="0.46">
<path d="M224.531 30.827L232.175 33.4104L229.709 40.7077L238.277 41.1174C234.765 44.2534 227.634 50.8389 227.21 52.0924L229.709 40.7077L222.324 42.2774L221.205 48.0845L207.312 45.1352L191.857 27.9155L208.659 41.1508L197.509 20.9416L210.369 26.9956L210.244 7.55305L216.498 22.1715L225.966 23.3808L224.531 30.827Z" fill="url(#paint3_linear_1841_3205)" fill-opacity="0.29"/>
<path d="M210.83 50.8135L216.331 55.0916L210.869 71.253L201.785 71.6748L189.336 61.1325L196.351 56.021L181.555 51.0206L185.389 47.054L190.548 48.3941L199.202 46.8835L210.83 50.8135Z" fill="url(#paint4_linear_1841_3205)" fill-opacity="0.29"/>
<path d="M221.205 48.0845L222.324 42.2774M221.205 48.0845L208.659 41.1508M221.205 48.0845L218.268 41.9429M221.205 48.0845L207.312 45.1352L191.857 27.9155M227.857 13.5696L225.966 23.3808M224.531 30.827L232.175 33.4104M224.531 30.827L222.324 42.2774M224.531 30.827L216.498 22.1715M224.531 30.827L225.966 23.3808M232.175 33.4104L244.354 19.1449M232.175 33.4104L229.709 40.7077M229.709 40.7077L227.21 52.0924C227.634 50.8389 234.765 44.2534 238.277 41.1174L229.709 40.7077ZM229.709 40.7077L222.324 42.2774M222.324 42.2774L218.268 41.9429M208.659 41.1508L218.268 41.9429M208.659 41.1508L197.509 20.9416L210.369 26.9956L210.244 7.55305L216.498 22.1715M208.659 41.1508L191.857 27.9155M218.268 41.9429L216.498 22.1715M216.498 22.1715L225.966 23.3808M191.857 27.9155L194.767 21.6661M187.573 42.9535L199.202 46.8835M216.331 55.0916L210.83 50.8135L199.202 46.8835M216.331 55.0916L196.351 56.021M216.331 55.0916L190.548 48.3941M216.331 55.0916L210.869 71.253L201.785 71.6748M196.351 56.021L181.555 51.0206L185.389 47.054L190.548 48.3941M196.351 56.021L190.548 48.3941M196.351 56.021L189.336 61.1325M199.202 46.8835L190.548 48.3941M189.336 61.1325L201.785 71.6748M189.336 61.1325L183.011 61.8385M201.785 71.6748L196.177 78.0848" stroke="url(#paint5_radial_1841_3205)" stroke-width="1.49899"/>
</g>
<circle cx="226.787" cy="57.5598" r="1.01397" transform="rotate(-10.2395 226.787 57.5598)" fill="black"/>
<circle cx="217.827" cy="52.3596" r="1.01397" transform="rotate(-10.2395 217.827 52.3596)" fill="black"/>
<g filter="url(#filter1_d_1841_3205)">
<path d="M217.852 52.3647L226.808 57.5563" stroke="url(#paint6_linear_1841_3205)" stroke-width="6.6384" stroke-linecap="round"/>
</g>
<g style="mix-blend-mode:color-dodge">
<path d="M236.428 79.3574L234.128 82.6631L230.764 80.9271L230.105 83.5101L225.861 82.4276L224.585 87.4287L221.189 83.1382L214.125 98.1966L215.186 85.4922L210.253 89.2898L214.641 80.4729L207.982 79.7695L214.706 74.3904L199.794 70.0132L206.824 56.7926L197.433 43.1861L215.235 43.7832L218.902 36.9575L216.118 34.5793L221.591 35.9752L225.439 21.9819L227.587 31.5263L226.079 42.7917C225.794 43.9092 228.35 37.2146 228.35 37.2146L232.706 32.3115L229.122 46.9789L238.934 43.9988L234.783 47.4471L244.153 49.0014C245.436 48.8145 239.259 54.5005 237.135 55.9489L245.284 69.4707L247.732 72.2316L240.668 70.4297L240.337 80.3545L236.428 79.3574Z" fill="url(#paint7_radial_1841_3205)"/>
</g>
<path d="M221.349 73.4443L221.135 75.2297C221.149 75.1981 221.43 74.3418 221.61 73.6731C221.706 72.9924 222.604 73.0831 222.802 73.1741L223.576 73.2468C223.436 73.1864 222.794 73.0964 222.529 72.9309C221.932 72.8213 221.821 72.4283 221.873 72.1636L222.159 70.5657C222.129 70.6459 221.845 71.6391 221.739 72.1018C221.575 72.8138 220.826 72.4452 220.642 72.4588L219.809 72.2984C219.809 72.2984 220.239 72.4695 220.606 72.5948C221.247 72.8136 221.372 73.079 221.349 73.4443Z" fill="white"/>
<path d="M236.052 56.0431L235.839 57.8286C235.852 57.797 236.133 56.9407 236.313 56.272C236.409 55.5913 237.307 55.682 237.506 55.773L238.279 55.8457C238.139 55.7852 237.497 55.6952 237.232 55.5298C236.635 55.4201 236.524 55.0272 236.577 54.7625L236.862 53.1646C236.832 53.2447 236.549 54.238 236.442 54.7007C236.278 55.4127 235.529 55.0441 235.345 55.0577L234.512 54.8972C234.512 54.8972 234.942 55.0684 235.309 55.1937C235.95 55.4125 236.075 55.6779 236.052 56.0431Z" fill="white"/>
<path d="M211.166 63.1409L210.92 65.1943C210.936 65.1579 211.259 64.1731 211.467 63.404C211.576 62.6212 212.61 62.7255 212.838 62.8301L213.727 62.9138C213.567 62.8443 212.828 62.7408 212.523 62.5505C211.836 62.4244 211.709 61.9724 211.769 61.668L212.098 59.8303C212.063 59.9225 211.737 61.0648 211.614 61.5969C211.426 62.4158 210.564 61.9919 210.353 62.0076L209.395 61.823C209.395 61.823 209.89 62.0199 210.312 62.164C211.048 62.4156 211.192 62.7208 211.166 63.1409Z" fill="white"/>
<path d="M232.774 62.1559C233.531 61.8711 237.658 60.9274 240.13 59.7894C242.06 58.8996 243.861 55.4696 242.223 52.9422C240.091 49.6589 236.475 51.1063 236.475 51.1063C236.475 51.1063 236.694 49.6647 235.266 48.2864C233.467 46.55 230.881 45.2483 228.375 44.4277C225.946 43.6308 223.619 43.1623 221.31 43.4569C219.243 43.7214 218.714 44.9235 218.714 44.9235C218.714 44.9235 217.149 41.9109 213.687 42.7404C210.227 43.5736 209.808 47.4668 210.659 49.4519C211.767 52.0384 213.565 53.7775 214.289 54.838C215.01 55.8976 215.703 56.909 215.49 57.5335C215.276 58.1581 214.953 58.2019 214.858 58.131C214.766 58.0611 214.791 57.3898 214.226 57.4877C213.455 57.625 213.158 59.138 214.464 59.7383C215.728 60.3214 216.45 59.0221 216.45 59.0221L217.12 57.7401L218.761 59.9656L220.454 62.7137L219.817 64.3538C219.817 64.3538 219.275 65.6021 218.271 66.4996C217.267 67.3972 215.883 68.1623 215.883 68.1623L215.508 69.156L224.32 71.9347L224.375 70.8702C224.375 70.8702 223.671 69.2468 223.448 67.6864C223.289 66.5697 223.54 65.584 223.54 65.584L224.334 63.1901L229.82 61.9599C229.82 61.9599 230.176 62.5087 230.059 62.6233C229.943 62.7379 229.443 64.149 230.353 65.0475C231.252 65.9361 232.343 65.5729 232.548 64.6339C232.752 63.6975 232.091 63.8188 231.871 63.8979C231.651 63.9771 231.256 63.8809 231.33 63.3246C231.4 62.7727 232.018 62.4407 232.774 62.1559ZM212.118 49.6208L212.159 46.1032L213.978 44.8875L215.527 44.9567C215.527 44.9567 216.868 46.9135 216.895 47.0443C216.921 47.175 217.244 49.7752 217.244 49.7752L216.905 55.4409L212.118 49.6208ZM231.124 60.7581C231.182 60.6564 234.361 55.67 234.361 55.67C234.383 55.6062 235.461 55.4907 235.491 55.403C235.521 55.3153 238.151 53.142 238.151 53.142L240.931 54.2133L240.561 57.2063L238.361 59.0426C238.363 59.0462 231.066 60.8572 231.124 60.7581Z" fill="#FFEE00"/>
<path d="M241.44 56.5986C242.079 54.0508 239.831 52.6211 238.701 52.6358C237.572 52.6505 236.688 53.0996 236.138 53.9801C235.693 54.6918 235.336 55.1456 235.102 55.1545C234.844 55.1615 234.646 55.0552 234.646 55.0552C234.646 55.0552 235.181 53.3682 235.422 52.6967C235.924 51.3132 236.471 51.1023 236.471 51.1023C236.471 51.1023 236.541 50.601 236.45 50.2788C236.357 49.9593 236.137 49.51 236.137 49.51C236.137 49.51 235.985 50.2061 235.596 50.2485C235.208 50.2909 234.926 49.9336 234.926 49.9336L234.786 51.4406C234.786 51.4406 231.872 58.1973 231.769 58.3342C231.666 58.4711 228.42 61.3096 228.42 61.3096C228.42 61.3096 226.852 62.0147 226.198 62.0791C225.541 62.1426 224.823 62.6479 222.622 61.9229C220.42 61.2004 219.127 58.8266 219.127 58.8266L217.86 56.3756L217.869 51.7964L219.09 47.545L219.697 46.0548L219.975 45.4405L219.986 45.0853C219.986 45.0853 219.744 45.2043 219.435 45.0128C219.127 44.8213 219.146 44.3383 219.146 44.3383C219.146 44.3383 218.945 44.5011 218.886 44.5966C218.824 44.6912 218.716 44.9213 218.716 44.9213C218.716 44.9213 218.947 45.4248 218.839 45.9933C218.731 46.5618 217.86 48.7722 217.493 48.5874C217.122 48.4044 217.894 46.5636 216.671 45.3387C215.612 44.2766 213.647 43.8161 212.334 45.1244C211.023 46.4336 210.954 48.4847 212.79 51.0437C214.625 53.6028 216.712 55.939 216.647 57.4662C216.573 59.2837 215.129 59.8858 215.129 59.8858C215.129 59.8858 215.973 60.0492 216.664 59.3208C216.887 59.0853 217.074 58.695 217.175 58.4595C217.683 59.9687 218.557 61.398 220.006 62.439C220.545 62.8578 221.198 63.1992 222.154 63.5261C222.292 63.5733 222.43 63.6142 222.567 63.6552C223.7 63.9976 224.728 64.1145 225.813 63.9715C227.263 63.8198 228.535 63.2661 229.628 62.5175C229.525 62.7495 229.467 63.3947 229.586 63.9605C229.792 64.9541 230.602 65.2869 230.602 65.2869C230.602 65.2869 229.696 64.2295 230.473 62.7085C231.251 61.1876 232.503 60.9802 234.455 60.4955C236.414 60.01 240.799 59.1455 241.44 56.5986ZM214.023 51.1533C213.476 50.3996 212.445 49.2906 212.277 48.0789C212.055 46.4625 213.187 44.9886 214.576 45.2343C217.46 45.7389 216.349 49.1553 216.389 49.629C216.429 50.1027 216.936 50.3054 216.936 50.3054C216.936 50.3054 216.876 50.5403 216.8 51.0069C216.798 51.0211 216.797 51.0326 216.793 51.0459L216.787 51.0885C216.735 51.4061 216.679 51.8053 216.634 52.2677L216.631 52.3023C216.604 52.5633 216.584 52.8118 216.574 53.0426C216.545 53.5256 216.532 54.0522 216.548 54.6038C216.344 54.3323 215.181 52.757 214.023 51.1533ZM239.475 57.7138C238.587 58.4435 237.196 58.7369 236.145 59.0248C234.79 59.3958 232.769 59.9581 232.2 60.1137C232.402 59.8683 232.591 59.6211 232.769 59.3764C233.031 59.0621 233.328 58.6709 233.591 58.2296C234.284 57.0713 234.702 55.9944 234.702 55.9944C234.702 55.9944 235.192 56.3338 235.65 56.0867C236.108 55.8397 236.616 54.7608 237.111 54.339C237.882 53.6795 239.153 53.1641 240.273 54.6982C240.919 55.5867 240.524 56.8494 239.475 57.7138ZM221.235 64.1409L222.743 64.6353C222.743 64.6353 222.223 66.2887 222.042 67.5921C221.86 68.8981 221.711 70.3668 221.711 70.3668C221.711 70.3668 218.301 70.3478 218.698 69.2485C219.094 68.1493 220.284 66.1518 220.284 66.1518C220.284 66.1518 221.436 63.6815 221.235 64.1409Z" fill="#EDB000"/>
<path d="M224.539 46.2383C224.539 46.2383 226.276 46.6206 227.822 47.1757C229.369 47.7307 230.864 48.5829 230.864 48.5829C230.864 48.5829 228.994 53.7549 227.711 56.5786C226.432 59.4032 224.579 61.2128 224.073 61.7313C223.583 62.2348 223.266 62.4855 223.266 62.4855L221.827 61.7981L221.013 55.7091L224.539 46.2383Z" fill="#EDB000"/>
<path d="M222.278 46.3328C222.278 46.3328 222.829 46.257 223.6 46.2325C224.299 46.2102 224.882 46.3291 224.882 46.3291C224.882 46.3291 223.719 49.7842 222.935 52.2643C222.266 54.3776 221.868 58.0791 221.932 59.1276C221.995 60.1761 222.196 61.8118 222.196 61.8118C222.196 61.8118 220.894 61.1476 220.417 59.7914C220.165 59.0763 219.579 54.0086 220.488 51.1111C221.398 48.2136 222.371 46.2847 222.278 46.3328Z" fill="black"/>
<path d="M222.278 46.3328C222.278 46.3328 222.829 46.257 223.6 46.2325C224.299 46.2102 224.882 46.3291 224.882 46.3291C224.882 46.3291 223.719 49.7842 222.935 52.2643C222.266 54.3776 221.868 58.0791 221.932 59.1276C221.995 60.1761 222.196 61.8118 222.196 61.8118C222.196 61.8118 220.894 61.1476 220.417 59.7914C220.165 59.0763 219.579 54.0086 220.488 51.1111C221.398 48.2136 222.371 46.2847 222.278 46.3328Z" fill="#FFF7E5"/>
<path d="M221.374 46.4685C221.278 46.593 219.89 49.4337 219.536 52.3877C219.183 55.3417 219.409 57.5229 219.728 58.4659C220.012 59.3019 220.237 59.729 220.426 59.7935C220.614 59.858 220.429 57.2454 220.592 55.3007C220.757 53.3595 221.253 51.134 221.566 50.0598C221.881 48.9831 222.769 46.2355 222.769 46.2355C222.769 46.2355 222.17 46.295 222.029 46.3242C221.888 46.356 221.374 46.4685 221.374 46.4685Z" fill="#FFFCFD"/>
<path d="M217.526 68.7214C217.526 68.7214 219.102 67.4195 219.741 66.243C220.38 65.0665 220.875 64.0008 220.875 64.0008L221.493 64.2417C221.493 64.2417 220.814 66.0307 220.324 67.2314C219.833 68.4321 219.213 69.5616 219.213 69.5616L217.526 68.7214Z" fill="black"/>
<path d="M217.526 68.7214C217.526 68.7214 219.102 67.4195 219.741 66.243C220.38 65.0665 220.875 64.0008 220.875 64.0008L221.493 64.2417C221.493 64.2417 220.814 66.0307 220.324 67.2314C219.833 68.4321 219.213 69.5616 219.213 69.5616L217.526 68.7214Z" fill="#FFF7E5"/>
<path d="M220.471 62.7179C220.471 62.7179 221.098 62.4188 222.393 62.8609C223.687 63.3031 224.073 63.9898 224.073 63.9898L223.562 65.5989C223.562 65.5989 222.792 65.0363 221.75 64.6653C220.882 64.3569 219.833 64.3607 219.833 64.3607L220.471 62.7179ZM220.237 44.923C220.524 44.7954 223.149 43.941 228.109 45.588C233.446 47.3577 234.916 49.581 235.011 49.7087C235.121 49.8499 235.14 50.3314 235.007 50.4965C234.87 50.6607 234.706 50.6817 234.363 50.3807C234.018 50.0788 232.534 47.9602 227.726 46.484C223.109 45.0642 220.697 45.7923 220.452 45.8393C220.256 45.8761 219.942 45.7956 219.866 45.5588C219.786 45.3237 220.051 45.0077 220.237 44.923ZM234.79 51.1317C234.162 50.9707 232.903 56.0371 230.556 58.678C228.042 61.5023 225.95 61.8384 225.958 62.0517C225.965 62.2649 227.877 62.3332 229.498 61.1569C231.001 60.0677 232.047 59.0034 232.911 57.405C233.769 55.8047 235.488 51.3109 234.79 51.1317ZM219.536 46.5502C219.384 46.4895 218.702 48.9988 218.084 49.9925C217.847 50.3744 217.584 50.3796 217.528 50.4644C217.472 50.5493 216.93 53.8927 217.357 55.5878C217.77 57.2277 218.918 59.4868 219.296 59.3013C219.674 59.1159 218.466 57.6494 218.132 55.2472C217.938 53.8691 217.937 51.8921 218.604 49.8587C219.046 48.5138 219.859 46.6813 219.536 46.5502Z" fill="#9E7402"/>
<path d="M225.186 75.3994C225.186 75.3994 227.924 72.2107 226.48 71.6006C222.101 69.7498 219.164 68.6799 214.289 67.4362C212.803 67.057 213.242 70.5271 212.99 71.2482C212.99 71.2482 211.488 69.9796 211.257 70.6563C210.902 71.6964 210.318 73.407 210.318 73.407L225.799 78.6954C225.799 78.6954 226.383 76.9848 226.739 75.9447C226.946 75.3364 225.186 75.3994 225.186 75.3994Z" fill="#261032"/>
<path d="M19.9183 51.1384V41.8289H25.4404C26.3945 41.8289 27.1317 42.0553 27.6521 42.5083C28.1822 42.9612 28.4472 43.6118 28.4472 44.4598C28.4472 44.9224 28.3653 45.3175 28.2015 45.6452C28.0473 45.9729 27.8401 46.2331 27.5799 46.4258C27.9461 46.5993 28.2352 46.8258 28.4472 47.1052C28.6592 47.3751 28.7652 47.7799 28.7652 48.3195C28.7652 49.1965 28.4761 49.8856 27.8979 50.3867C27.3293 50.8879 26.5294 51.1384 25.4982 51.1384H19.9183ZM23.1997 45.3995H24.5008C24.9633 45.3995 25.1946 45.1923 25.1946 44.7779C25.1946 44.3924 24.9633 44.1996 24.5008 44.1996H23.1997V45.3995ZM23.1997 48.7677H24.5008C24.9633 48.7677 25.1946 48.5605 25.1946 48.1461C25.1946 47.7606 24.9633 47.5678 24.5008 47.5678H23.1997V48.7677ZM33.3944 51.283C32.5849 51.283 31.8572 51.1481 31.2115 50.8782C30.5755 50.6084 30.0695 50.2133 29.6937 49.6928C29.3178 49.1628 29.1299 48.5123 29.1299 47.7413C29.1299 46.6523 29.4528 45.7801 30.0984 45.1248C30.7538 44.4695 31.7271 44.1418 33.0185 44.1418C34.1943 44.1418 35.1339 44.4309 35.8374 45.0091C36.5409 45.5874 36.8927 46.4114 36.8927 47.4811V48.652H32.3246C32.4692 48.8351 32.7053 48.9797 33.033 49.0857C33.3703 49.1821 33.804 49.2303 34.334 49.2303C34.7677 49.2303 35.1869 49.1965 35.5917 49.1291C35.9964 49.052 36.3145 48.9701 36.5458 48.8833V50.7626C35.823 51.1095 34.7725 51.283 33.3944 51.283ZM32.3246 46.9029H33.9003V46.7728C33.9003 46.6378 33.8473 46.5126 33.7413 46.3969C33.6353 46.2716 33.4329 46.209 33.1342 46.209C32.8451 46.209 32.6379 46.2764 32.5126 46.4114C32.3873 46.5463 32.3246 46.7101 32.3246 46.9029ZM40.4994 51.283C39.8441 51.283 39.2273 51.2348 38.6491 51.1384C38.0708 51.0421 37.6275 50.9264 37.3191 50.7915V48.5797C37.5504 48.6954 37.8203 48.7966 38.1287 48.8833C38.4371 48.9701 38.7406 49.0375 39.0394 49.0857C39.3478 49.1339 39.6032 49.158 39.8055 49.158C40.0272 49.158 40.2103 49.1532 40.3549 49.1435C40.5091 49.1339 40.5862 49.0857 40.5862 48.999C40.5862 48.9219 40.5091 48.8592 40.3549 48.811C40.2007 48.7629 40.0031 48.7098 39.7622 48.652C39.5309 48.5942 39.29 48.5219 39.0394 48.4352C38.413 48.2039 37.96 47.9437 37.6805 47.6546C37.4011 47.3558 37.2613 46.9318 37.2613 46.3825C37.2613 45.65 37.5649 45.0959 38.172 44.72C38.7792 44.3345 39.7092 44.1418 40.962 44.1418C41.2704 44.1418 41.6077 44.1611 41.9739 44.1996C42.3401 44.2285 42.6823 44.2671 43.0003 44.3153C43.328 44.3635 43.5882 44.4213 43.7809 44.4887V46.686C43.4725 46.5511 43.14 46.4499 42.7835 46.3825C42.4269 46.3054 42.1137 46.2668 41.8438 46.2668C41.7089 46.2668 41.5595 46.2716 41.3957 46.2813C41.2415 46.2813 41.1066 46.2957 40.9909 46.3246C40.8849 46.3439 40.8319 46.3873 40.8319 46.4547C40.8319 46.5511 40.9765 46.6282 41.2656 46.686C41.5643 46.7342 41.892 46.8113 42.2486 46.9173C42.7497 47.0619 43.1352 47.2257 43.4051 47.4088C43.6845 47.5823 43.8773 47.7991 43.9833 48.0593C44.0989 48.3099 44.1568 48.6231 44.1568 48.999C44.1568 49.7025 43.8484 50.2614 43.2316 50.6758C42.6148 51.0806 41.7041 51.283 40.4994 51.283ZM47.9035 51.283C46.8531 51.283 46.1014 51.0276 45.6484 50.5168C45.2051 50.0061 44.9835 49.317 44.9835 48.4496V46.8017H44.1595V44.2864H44.9835V42.942L48.4818 42.2336V44.2864H49.884L49.8117 46.8017H48.4818V48.2617C48.4818 48.6665 48.7082 48.8689 49.1612 48.8689C49.4599 48.8689 49.7491 48.8207 50.0285 48.7243V50.8927C49.7298 51.018 49.4118 51.1143 49.0745 51.1818C48.7372 51.2493 48.3468 51.283 47.9035 51.283ZM58.4933 51.283C56.7394 51.283 55.395 50.8782 54.4602 50.0687C53.535 49.2592 53.0724 48.0642 53.0724 46.4836C53.0724 44.9031 53.5591 43.7081 54.5324 42.8986C55.5058 42.0891 56.908 41.6843 58.7391 41.6843C59.3366 41.6843 59.8715 41.718 60.3437 41.7855C60.8256 41.8433 61.2881 41.9493 61.7315 42.1035V45.0814C61.2881 44.908 60.8352 44.7923 60.3726 44.7345C59.9197 44.667 59.4522 44.6333 58.9704 44.6333C58.2958 44.6333 57.7368 44.7682 57.2935 45.0381C56.8598 45.2983 56.643 45.7801 56.643 46.4836C56.643 47.1872 56.7972 47.6738 57.1056 47.9437C57.4236 48.2039 57.8766 48.334 58.4644 48.334C58.7728 48.334 59.0619 48.3003 59.3318 48.2328V47.669H57.785V45.5585H62.223V50.3723C61.8278 50.6132 61.3219 50.8252 60.7051 51.0083C60.0883 51.1914 59.3511 51.283 58.4933 51.283ZM63.3679 43.7226V41.3085H67.112V43.7226H63.3679ZM63.6137 51.1384V46.8017H62.6596L62.9487 44.2864H67.112V51.1384H63.6137ZM68.1279 51.1384V44.2864H71.554L71.6263 44.6767C71.8768 44.5417 72.2045 44.4213 72.6093 44.3153C73.0237 44.1996 73.4525 44.1418 73.8958 44.1418V46.7149C73.5392 46.7149 73.1393 46.739 72.696 46.7872C72.2527 46.8354 71.8961 46.9077 71.6263 47.0041V51.1384H68.1279ZM77.2978 51.283C76.2859 51.283 75.5727 51.0806 75.1583 50.6758C74.7536 50.2711 74.5512 49.6447 74.5512 48.7966V41.3952H78.0495V48.334C78.0495 48.5171 78.0832 48.652 78.1507 48.7388C78.2278 48.8255 78.3627 48.8689 78.5555 48.8689C78.8253 48.8689 79.0662 48.8255 79.2783 48.7388V50.9071C78.9795 51.0324 78.6952 51.124 78.4254 51.1818C78.1555 51.2493 77.7797 51.283 77.2978 51.283ZM82.8082 51.283C82.1529 51.283 81.5361 51.2348 80.9578 51.1384C80.3796 51.0421 79.9363 50.9264 79.6279 50.7915V48.5797C79.8592 48.6954 80.129 48.7966 80.4374 48.8833C80.7458 48.9701 81.0494 49.0375 81.3481 49.0857C81.6565 49.1339 81.9119 49.158 82.1143 49.158C82.336 49.158 82.5191 49.1532 82.6636 49.1435C82.8178 49.1339 82.8949 49.0857 82.8949 48.999C82.8949 48.9219 82.8178 48.8592 82.6636 48.811C82.5094 48.7629 82.3119 48.7098 82.0709 48.652C81.8396 48.5942 81.5987 48.5219 81.3481 48.4352C80.7217 48.2039 80.2688 47.9437 79.9893 47.6546C79.7098 47.3558 79.5701 46.9318 79.5701 46.3825C79.5701 45.65 79.8737 45.0959 80.4808 44.72C81.0879 44.3345 82.0179 44.1418 83.2708 44.1418C83.5792 44.1418 83.9165 44.1611 84.2827 44.1996C84.6489 44.2285 84.991 44.2671 85.309 44.3153C85.6367 44.3635 85.8969 44.4213 86.0897 44.4887V46.686C85.7813 46.5511 85.4488 46.4499 85.0922 46.3825C84.7356 46.3054 84.4224 46.2668 84.1526 46.2668C84.0177 46.2668 83.8683 46.2716 83.7045 46.2813C83.5503 46.2813 83.4153 46.2957 83.2997 46.3246C83.1937 46.3439 83.1407 46.3873 83.1407 46.4547C83.1407 46.5511 83.2852 46.6282 83.5743 46.686C83.8731 46.7342 84.2008 46.8113 84.5573 46.9173C85.0585 47.0619 85.444 47.2257 85.7138 47.4088C85.9933 47.5823 86.186 47.7991 86.292 48.0593C86.4077 48.3099 86.4655 48.6231 86.4655 48.999C86.4655 49.7025 86.1571 50.2614 85.5403 50.6758C84.9236 51.0806 84.0128 51.283 82.8082 51.283ZM91.8741 51.1384V44.3442H89.5034V41.8289H97.7432V44.3442H95.3725V51.1384H91.8741ZM101.438 51.283C100.629 51.283 99.9014 51.1481 99.2557 50.8782C98.6196 50.6084 98.1137 50.2133 97.7378 49.6928C97.3619 49.1628 97.174 48.5123 97.174 47.7413C97.174 46.6523 97.4969 45.7801 98.1426 45.1248C98.7979 44.4695 99.7713 44.1418 101.063 44.1418C102.238 44.1418 103.178 44.4309 103.882 45.0091C104.585 45.5874 104.937 46.4114 104.937 47.4811V48.652H100.369C100.513 48.8351 100.749 48.9797 101.077 49.0857C101.414 49.1821 101.848 49.2303 102.378 49.2303C102.812 49.2303 103.231 49.1965 103.636 49.1291C104.041 49.052 104.359 48.9701 104.59 48.8833V50.7626C103.867 51.1095 102.817 51.283 101.438 51.283ZM100.369 46.9029H101.944V46.7728C101.944 46.6378 101.891 46.5126 101.785 46.3969C101.679 46.2716 101.477 46.209 101.178 46.209C100.889 46.209 100.682 46.2764 100.557 46.4114C100.431 46.5463 100.369 46.7101 100.369 46.9029ZM107.79 51.283C107.356 51.283 106.957 51.2059 106.59 51.0517C106.224 50.8975 105.93 50.6517 105.709 50.3144C105.487 49.9771 105.376 49.5386 105.376 48.999C105.376 48.228 105.617 47.6449 106.099 47.2498C106.59 46.8547 107.342 46.6571 108.354 46.6571H109.886V46.5848C109.886 46.4788 109.785 46.3873 109.583 46.3102C109.38 46.2234 109.072 46.1801 108.657 46.1801C108.291 46.1801 107.891 46.2138 107.458 46.2813C107.034 46.3391 106.629 46.4258 106.243 46.5415V44.6622C106.619 44.4984 107.096 44.3731 107.674 44.2864C108.262 44.19 108.821 44.1418 109.351 44.1418C110.113 44.1418 110.783 44.2478 111.361 44.4598C111.939 44.6622 112.392 44.9802 112.72 45.4139C113.047 45.838 113.211 46.3825 113.211 47.0474V51.1384H110.146L110.002 50.6469C109.771 50.83 109.472 50.9842 109.106 51.1095C108.749 51.2252 108.311 51.283 107.79 51.283ZM109.106 49.3748C109.289 49.3748 109.438 49.3459 109.554 49.2881C109.679 49.2303 109.79 49.1532 109.886 49.0568V48.4207H109.25C108.817 48.4207 108.6 48.5797 108.6 48.8978C108.6 49.2158 108.768 49.3748 109.106 49.3748ZM114.149 51.1384V44.2864H117.388L117.46 44.7056C117.73 44.5514 118.038 44.4213 118.385 44.3153C118.732 44.1996 119.127 44.1418 119.57 44.1418C119.975 44.1418 120.293 44.1948 120.525 44.3008C120.765 44.4068 120.963 44.5658 121.117 44.7779C121.426 44.5851 121.763 44.4309 122.129 44.3153C122.505 44.1996 122.943 44.1418 123.445 44.1418C124.264 44.1418 124.856 44.3586 125.223 44.7923C125.589 45.2163 125.772 45.862 125.772 46.7294V51.1384H122.346V47.1486C122.346 46.9944 122.317 46.8836 122.259 46.8161C122.211 46.7487 122.105 46.7149 121.941 46.7149C121.787 46.7149 121.652 46.7776 121.536 46.9029V51.1384H118.313V47.0619C118.313 46.8306 118.207 46.7149 117.995 46.7149C117.812 46.7149 117.648 46.8017 117.503 46.9751V51.1384H114.149Z" fill="white"/>
<path d="M23.529 61.407C23.8759 61.4689 24.1702 61.6517 24.4118 61.9553C24.6534 62.2589 24.7743 62.6027 24.7743 62.9868C24.7743 63.3152 24.6875 63.6125 24.5141 63.8789C24.3468 64.1391 24.1021 64.3467 23.7799 64.5016C23.4577 64.6503 23.0829 64.7246 22.6554 64.7246H20.072V58.2659H22.5346C22.9745 58.2659 23.3524 58.3403 23.6684 58.489C23.9843 58.6377 24.2229 58.839 24.384 59.093C24.545 59.3408 24.6256 59.6196 24.6256 59.9294C24.6256 60.3011 24.5264 60.6109 24.3282 60.8587C24.1299 61.1065 23.8635 61.2893 23.529 61.407ZM21.1314 60.9795H22.4417C22.7886 60.9795 23.0581 60.9021 23.2502 60.7472C23.4485 60.5861 23.5476 60.3569 23.5476 60.0595C23.5476 59.7683 23.4485 59.5422 23.2502 59.3811C23.0581 59.2138 22.7886 59.1302 22.4417 59.1302H21.1314V60.9795ZM22.5625 63.8604C22.9218 63.8604 23.2037 63.7736 23.4082 63.6002C23.6126 63.4267 23.7149 63.1851 23.7149 62.8753C23.7149 62.5593 23.6064 62.3084 23.3896 62.1226C23.1728 61.9367 22.8847 61.8438 22.5253 61.8438H21.1314V63.8604H22.5625ZM30.5256 62.0389C30.5256 62.231 30.5132 62.4044 30.4884 62.5593H26.576C26.607 62.9682 26.7588 63.2966 27.0314 63.5444C27.304 63.7922 27.6385 63.9161 28.035 63.9161C28.605 63.9161 29.0077 63.6776 29.2431 63.2006H30.3862C30.2313 63.6714 29.9494 64.0586 29.5405 64.3622C29.1378 64.6596 28.636 64.8082 28.035 64.8082C27.5456 64.8082 27.1057 64.6998 26.7154 64.483C26.3313 64.26 26.0277 63.9502 25.8047 63.5537C25.5879 63.151 25.4794 62.6863 25.4794 62.1597C25.4794 61.6331 25.5848 61.1716 25.7954 60.7751C26.0122 60.3724 26.3127 60.0626 26.6968 59.8458C27.0871 59.6289 27.5332 59.5205 28.035 59.5205C28.5183 59.5205 28.9488 59.6258 29.3268 59.8365C29.7047 60.0471 29.999 60.3445 30.2096 60.7286C30.4202 61.1065 30.5256 61.5433 30.5256 62.0389ZM29.4197 61.7044C29.4135 61.3141 29.2741 61.0012 29.0015 60.7658C28.7289 60.5303 28.3913 60.4126 27.9886 60.4126C27.623 60.4126 27.3102 60.5303 27.05 60.7658C26.7898 60.995 26.6349 61.3079 26.5853 61.7044H29.4197ZM33.3338 64.8082C32.9311 64.8082 32.5687 64.737 32.2465 64.5945C31.9306 64.4458 31.6796 64.2476 31.4938 63.9998C31.3079 63.7457 31.2088 63.4639 31.1964 63.1541H32.293C32.3116 63.3709 32.4138 63.5537 32.5997 63.7024C32.7917 63.8449 33.0302 63.9161 33.3152 63.9161C33.6126 63.9161 33.8418 63.8604 34.0029 63.7488C34.1702 63.6311 34.2538 63.4824 34.2538 63.3028C34.2538 63.1107 34.1609 62.9682 33.975 62.8753C33.7954 62.7824 33.5073 62.6801 33.1108 62.5686C32.7267 62.4633 32.4138 62.3611 32.1722 62.262C31.9306 62.1628 31.7199 62.011 31.5402 61.8066C31.3668 61.6021 31.28 61.3326 31.28 60.9981C31.28 60.7255 31.3606 60.4777 31.5217 60.2547C31.6827 60.0254 31.912 59.8458 32.2093 59.7157C32.5129 59.5856 32.8599 59.5205 33.2502 59.5205C33.8325 59.5205 34.3003 59.6692 34.6534 59.9666C35.0127 60.2578 35.2048 60.6574 35.2296 61.1654H34.1702C34.1516 60.9361 34.0587 60.7534 33.8914 60.6171C33.7241 60.4808 33.498 60.4126 33.213 60.4126C32.9342 60.4126 32.7205 60.4653 32.5718 60.5706C32.4231 60.6759 32.3487 60.8153 32.3487 60.9888C32.3487 61.1251 32.3983 61.2397 32.4974 61.3326C32.5966 61.4256 32.7174 61.4999 32.8599 61.5557C33.0024 61.6052 33.213 61.6703 33.4918 61.7508C33.8635 61.85 34.1671 61.9522 34.4025 62.0575C34.6441 62.1566 34.8517 62.3053 35.0251 62.5036C35.1986 62.7018 35.2884 62.9651 35.2946 63.2935C35.2946 63.5847 35.2141 63.8449 35.053 64.0741C34.8919 64.3033 34.6627 64.483 34.3653 64.6131C34.0742 64.7432 33.7303 64.8082 33.3338 64.8082ZM37.5824 60.4684V63.3028C37.5824 63.4948 37.6258 63.6342 37.7125 63.721C37.8054 63.8015 37.9603 63.8418 38.1771 63.8418H38.8277V64.7246H37.9913C37.5142 64.7246 37.1487 64.6131 36.8947 64.3901C36.6407 64.167 36.5137 63.8046 36.5137 63.3028V60.4684H35.9096V59.6041H36.5137V58.331H37.5824V59.6041H38.8277V60.4684H37.5824ZM43.0916 60.3569C43.2713 60.1215 43.516 59.9232 43.8258 59.7621C44.1356 59.601 44.4856 59.5205 44.8759 59.5205C45.322 59.5205 45.7278 59.632 46.0933 59.8551C46.465 60.0719 46.7562 60.3786 46.9668 60.7751C47.1775 61.1716 47.2828 61.6269 47.2828 62.1411C47.2828 62.6554 47.1775 63.1169 46.9668 63.5258C46.7562 63.9285 46.465 64.2445 46.0933 64.4737C45.7278 64.6967 45.322 64.8082 44.8759 64.8082C44.4856 64.8082 44.1387 64.7308 43.8351 64.5759C43.5315 64.4148 43.2837 64.2166 43.0916 63.9812V67.1594H42.0322V59.6041H43.0916V60.3569ZM46.2048 62.1411C46.2048 61.788 46.1305 61.4844 45.9818 61.2304C45.8393 60.9702 45.6472 60.7751 45.4056 60.645C45.1702 60.5087 44.9162 60.4405 44.6436 60.4405C44.3772 60.4405 44.1232 60.5087 43.8816 60.645C43.6461 60.7813 43.4541 60.9795 43.3054 61.2397C43.1629 61.4999 43.0916 61.8066 43.0916 62.1597C43.0916 62.5129 43.1629 62.8226 43.3054 63.089C43.4541 63.3492 43.6461 63.5475 43.8816 63.6838C44.1232 63.8201 44.3772 63.8882 44.6436 63.8882C44.9162 63.8882 45.1702 63.8201 45.4056 63.6838C45.6472 63.5413 45.8393 63.3368 45.9818 63.0704C46.1305 62.804 46.2048 62.4943 46.2048 62.1411ZM52.9305 62.0389C52.9305 62.231 52.9181 62.4044 52.8933 62.5593H48.981C49.0119 62.9682 49.1637 63.2966 49.4363 63.5444C49.7089 63.7922 50.0435 63.9161 50.44 63.9161C51.0099 63.9161 51.4126 63.6776 51.6481 63.2006H52.7911C52.6362 63.6714 52.3543 64.0586 51.9454 64.3622C51.5427 64.6596 51.0409 64.8082 50.44 64.8082C49.9505 64.8082 49.5107 64.6998 49.1204 64.483C48.7362 64.26 48.4327 63.9502 48.2096 63.5537C47.9928 63.151 47.8844 62.6863 47.8844 62.1597C47.8844 61.6331 47.9897 61.1716 48.2004 60.7751C48.4172 60.3724 48.7177 60.0626 49.1018 59.8458C49.4921 59.6289 49.9381 59.5205 50.44 59.5205C50.9232 59.5205 51.3538 59.6258 51.7317 59.8365C52.1096 60.0471 52.4039 60.3445 52.6145 60.7286C52.8252 61.1065 52.9305 61.5433 52.9305 62.0389ZM51.8246 61.7044C51.8184 61.3141 51.679 61.0012 51.4065 60.7658C51.1339 60.5303 50.7962 60.4126 50.3935 60.4126C50.028 60.4126 49.7151 60.5303 49.4549 60.7658C49.1947 60.995 49.0398 61.3079 48.9903 61.7044H51.8246ZM54.9395 60.3476C55.0944 60.0874 55.2989 59.886 55.5529 59.7435C55.8131 59.5948 56.1198 59.5205 56.4729 59.5205V60.6171H56.2034C55.7883 60.6171 55.4723 60.7224 55.2555 60.933C55.0449 61.1437 54.9395 61.5092 54.9395 62.0296V64.7246H53.8801V59.6041H54.9395V60.3476ZM59.5005 60.4684H58.5526V64.7246H57.4839V60.4684H56.8798V59.6041H57.4839V59.2417C57.4839 58.6532 57.6388 58.2257 57.9485 57.9593C58.2645 57.6867 58.757 57.5504 59.4261 57.5504V58.4332C59.104 58.4332 58.8778 58.4952 58.7477 58.6191C58.6176 58.7368 58.5526 58.9443 58.5526 59.2417V59.6041H59.5005V60.4684ZM62.5675 64.8082C62.0842 64.8082 61.6475 64.6998 61.2571 64.483C60.8668 64.26 60.5602 63.9502 60.3371 63.5537C60.1141 63.151 60.0026 62.6863 60.0026 62.1597C60.0026 61.6393 60.1172 61.1778 60.3464 60.7751C60.5757 60.3724 60.8885 60.0626 61.285 59.8458C61.6815 59.6289 62.1245 59.5205 62.6139 59.5205C63.1034 59.5205 63.5463 59.6289 63.9428 59.8458C64.3393 60.0626 64.6522 60.3724 64.8814 60.7751C65.1107 61.1778 65.2253 61.6393 65.2253 62.1597C65.2253 62.6801 65.1076 63.1417 64.8721 63.5444C64.6367 63.9471 64.3146 64.26 63.9057 64.483C63.503 64.6998 63.0569 64.8082 62.5675 64.8082ZM62.5675 63.8882C62.8401 63.8882 63.0941 63.8232 63.3295 63.6931C63.5711 63.563 63.7663 63.3678 63.915 63.1076C64.0636 62.8474 64.138 62.5315 64.138 62.1597C64.138 61.788 64.0667 61.4751 63.9243 61.2211C63.7818 60.9609 63.5928 60.7658 63.3574 60.6357C63.122 60.5056 62.8679 60.4405 62.5953 60.4405C62.3228 60.4405 62.0687 60.5056 61.8333 60.6357C61.6041 60.7658 61.4213 60.9609 61.285 61.2211C61.1487 61.4751 61.0806 61.788 61.0806 62.1597C61.0806 62.7111 61.22 63.1386 61.4988 63.4422C61.7838 63.7395 62.14 63.8882 62.5675 63.8882ZM67.239 60.3476C67.3939 60.0874 67.5984 59.886 67.8524 59.7435C68.1126 59.5948 68.4193 59.5205 68.7724 59.5205V60.6171H68.5029C68.0878 60.6171 67.7718 60.7224 67.555 60.933C67.3444 61.1437 67.239 61.5092 67.239 62.0296V64.7246H66.1796V59.6041H67.239V60.3476ZM75.8517 59.5205C76.2544 59.5205 76.6138 59.6041 76.9297 59.7714C77.2519 59.9387 77.5028 60.1865 77.6825 60.5149C77.8683 60.8432 77.9612 61.2397 77.9612 61.7044V64.7246H76.9111V61.8624C76.9111 61.4039 76.7965 61.0539 76.5673 60.8122C76.3381 60.5644 76.0252 60.4405 75.6287 60.4405C75.2322 60.4405 74.9162 60.5644 74.6808 60.8122C74.4516 61.0539 74.337 61.4039 74.337 61.8624V64.7246H73.2868V61.8624C73.2868 61.4039 73.1722 61.0539 72.943 60.8122C72.7138 60.5644 72.4009 60.4405 72.0044 60.4405C71.6079 60.4405 71.2919 60.5644 71.0565 60.8122C70.8273 61.0539 70.7127 61.4039 70.7127 61.8624V64.7246H69.6533V59.6041H70.7127V60.1896C70.8861 59.979 71.1061 59.8148 71.3725 59.6971C71.6389 59.5794 71.9239 59.5205 72.2274 59.5205C72.6363 59.5205 73.0019 59.6072 73.324 59.7807C73.6462 59.9542 73.894 60.2051 74.0675 60.5334C74.2223 60.2237 74.464 59.979 74.7923 59.7993C75.1207 59.6134 75.4738 59.5205 75.8517 59.5205ZM79.7554 58.9258C79.5633 58.9258 79.4022 58.8607 79.2721 58.7306C79.142 58.6005 79.077 58.4394 79.077 58.2474C79.077 58.0553 79.142 57.8942 79.2721 57.7641C79.4022 57.634 79.5633 57.569 79.7554 57.569C79.9412 57.569 80.0992 57.634 80.2293 57.7641C80.3594 57.8942 80.4245 58.0553 80.4245 58.2474C80.4245 58.4394 80.3594 58.6005 80.2293 58.7306C80.0992 58.8607 79.9412 58.9258 79.7554 58.9258ZM80.2758 59.6041V64.7246H79.2164V59.6041H80.2758ZM84.1572 59.5205C84.5599 59.5205 84.9193 59.6041 85.2352 59.7714C85.5574 59.9387 85.8083 60.1865 85.988 60.5149C86.1676 60.8432 86.2575 61.2397 86.2575 61.7044V64.7246H85.2074V61.8624C85.2074 61.4039 85.0927 61.0539 84.8635 60.8122C84.6343 60.5644 84.3214 60.4405 83.9249 60.4405C83.5284 60.4405 83.2124 60.5644 82.977 60.8122C82.7478 61.0539 82.6332 61.4039 82.6332 61.8624V64.7246H81.5738V59.6041H82.6332V60.1896C82.8066 59.979 83.0266 59.8148 83.293 59.6971C83.5656 59.5794 83.8537 59.5205 84.1572 59.5205ZM89.5789 59.5205C89.9754 59.5205 90.3255 59.601 90.629 59.7621C90.9388 59.917 91.1804 60.1122 91.3539 60.3476V59.6041H92.4226V64.8082C92.4226 65.2791 92.3235 65.6973 92.1252 66.0628C91.927 66.4345 91.6389 66.7257 91.261 66.9364C90.8892 67.147 90.4432 67.2523 89.9228 67.2523C89.2289 67.2523 88.6527 67.0881 88.1943 66.7598C87.7358 66.4376 87.4756 65.9978 87.4136 65.4402H88.4638C88.5443 65.7066 88.7147 65.9203 88.9749 66.0814C89.2413 66.2487 89.5572 66.3323 89.9228 66.3323C90.3503 66.3323 90.6941 66.2022 90.9543 65.942C91.2207 65.6818 91.3539 65.3039 91.3539 64.8082V63.9533C91.1742 64.1949 90.9295 64.3994 90.6197 64.5666C90.3162 64.7277 89.9692 64.8082 89.5789 64.8082C89.1329 64.8082 88.724 64.6967 88.3522 64.4737C87.9867 64.2445 87.6955 63.9285 87.4787 63.5258C87.2681 63.1169 87.1627 62.6554 87.1627 62.1411C87.1627 61.6269 87.2681 61.1716 87.4787 60.7751C87.6955 60.3786 87.9867 60.0719 88.3522 59.8551C88.724 59.632 89.1329 59.5205 89.5789 59.5205ZM91.3539 62.1597C91.3539 61.8066 91.2796 61.4999 91.1309 61.2397C90.9884 60.9795 90.7994 60.7813 90.564 60.645C90.3286 60.5087 90.0746 60.4405 89.802 60.4405C89.5294 60.4405 89.2754 60.5087 89.0399 60.645C88.8045 60.7751 88.6125 60.9702 88.4638 61.2304C88.3213 61.4844 88.25 61.788 88.25 62.1411C88.25 62.4943 88.3213 62.804 88.4638 63.0704C88.6125 63.3368 88.8045 63.5413 89.0399 63.6838C89.2816 63.8201 89.5356 63.8882 89.802 63.8882C90.0746 63.8882 90.3286 63.8201 90.564 63.6838C90.7994 63.5475 90.9884 63.3492 91.1309 63.089C91.2796 62.8226 91.3539 62.5129 91.3539 62.1597ZM99.936 63.405H97.2317L96.7671 64.7246H95.6612L97.9752 58.2567H99.2019L101.516 64.7246H100.401L99.936 63.405ZM99.6386 62.5407L98.5885 59.5391L97.5291 62.5407H99.6386ZM103.488 57.8478V64.7246H102.429V57.8478H103.488ZM105.846 57.8478V64.7246H104.786V57.8478H105.846ZM111.075 60.9145V61.8066H107.255V60.9145H111.075ZM117.161 60.1246C116.994 59.8024 116.762 59.5608 116.464 59.3997C116.167 59.2324 115.823 59.1488 115.433 59.1488C115.005 59.1488 114.624 59.2448 114.29 59.4369C113.955 59.6289 113.692 59.9015 113.5 60.2547C113.314 60.6078 113.221 61.0167 113.221 61.4813C113.221 61.946 113.314 62.358 113.5 62.7173C113.692 63.0704 113.955 63.343 114.29 63.5351C114.624 63.7272 115.005 63.8232 115.433 63.8232C116.009 63.8232 116.477 63.6621 116.836 63.3399C117.195 63.0178 117.415 62.581 117.496 62.0296H115.07V61.184H118.63V62.011C118.561 62.5129 118.382 62.9744 118.091 63.3957C117.806 63.817 117.431 64.1546 116.966 64.4086C116.508 64.6565 115.997 64.7804 115.433 64.7804C114.826 64.7804 114.271 64.641 113.769 64.3622C113.268 64.0772 112.868 63.6838 112.571 63.182C112.279 62.6801 112.134 62.1133 112.134 61.4813C112.134 60.8494 112.279 60.2825 112.571 59.7807C112.868 59.2789 113.268 58.8886 113.769 58.6098C114.277 58.3248 114.832 58.1823 115.433 58.1823C116.121 58.1823 116.731 58.3527 117.264 58.6934C117.803 59.028 118.193 59.505 118.434 60.1246H117.161ZM120.121 58.9258C119.929 58.9258 119.767 58.8607 119.637 58.7306C119.507 58.6005 119.442 58.4394 119.442 58.2474C119.442 58.0553 119.507 57.8942 119.637 57.7641C119.767 57.634 119.929 57.569 120.121 57.569C120.306 57.569 120.464 57.634 120.595 57.7641C120.725 57.8942 120.79 58.0553 120.79 58.2474C120.79 58.4394 120.725 58.6005 120.595 58.7306C120.464 58.8607 120.306 58.9258 120.121 58.9258ZM120.641 59.6041V64.7246H119.582V59.6041H120.641ZM122.998 60.3476C123.153 60.0874 123.358 59.886 123.612 59.7435C123.872 59.5948 124.179 59.5205 124.532 59.5205V60.6171H124.262C123.847 60.6171 123.531 60.7224 123.314 60.933C123.104 61.1437 122.998 61.5092 122.998 62.0296V64.7246H121.939V59.6041H122.998V60.3476ZM126.472 57.8478V64.7246H125.413V57.8478H126.472ZM129.629 64.8082C129.226 64.8082 128.863 64.737 128.541 64.5945C128.225 64.4458 127.974 64.2476 127.789 63.9998C127.603 63.7457 127.504 63.4639 127.491 63.1541H128.588C128.606 63.3709 128.709 63.5537 128.894 63.7024C129.087 63.8449 129.325 63.9161 129.61 63.9161C129.907 63.9161 130.137 63.8604 130.298 63.7488C130.465 63.6311 130.549 63.4824 130.549 63.3028C130.549 63.1107 130.456 62.9682 130.27 62.8753C130.09 62.7824 129.802 62.6801 129.406 62.5686C129.021 62.4633 128.709 62.3611 128.467 62.262C128.225 62.1628 128.015 62.011 127.835 61.8066C127.662 61.6021 127.575 61.3326 127.575 60.9981C127.575 60.7255 127.655 60.4777 127.816 60.2547C127.978 60.0254 128.207 59.8458 128.504 59.7157C128.808 59.5856 129.155 59.5205 129.545 59.5205C130.127 59.5205 130.595 59.6692 130.948 59.9666C131.308 60.2578 131.5 60.6574 131.524 61.1654H130.465C130.446 60.9361 130.353 60.7534 130.186 60.6171C130.019 60.4808 129.793 60.4126 129.508 60.4126C129.229 60.4126 129.015 60.4653 128.867 60.5706C128.718 60.6759 128.644 60.8153 128.644 60.9888C128.644 61.1251 128.693 61.2397 128.792 61.3326C128.891 61.4256 129.012 61.4999 129.155 61.5557C129.297 61.6052 129.508 61.6703 129.787 61.7508C130.158 61.85 130.462 61.9522 130.697 62.0575C130.939 62.1566 131.146 62.3053 131.32 62.5036C131.493 62.7018 131.583 62.9651 131.589 63.2935C131.589 63.5847 131.509 63.8449 131.348 64.0741C131.187 64.3033 130.958 64.483 130.66 64.6131C130.369 64.7432 130.025 64.8082 129.629 64.8082ZM136.198 60.4684V63.3028C136.198 63.4948 136.242 63.6342 136.328 63.721C136.421 63.8015 136.576 63.8418 136.793 63.8418H137.444V64.7246H136.607C136.13 64.7246 135.765 64.6131 135.511 64.3901C135.257 64.167 135.13 63.8046 135.13 63.3028V60.4684H134.526V59.6041H135.13V58.331H136.198V59.6041H137.444V60.4684H136.198ZM143.02 62.0389C143.02 62.231 143.008 62.4044 142.983 62.5593H139.07C139.101 62.9682 139.253 63.2966 139.526 63.5444C139.798 63.7922 140.133 63.9161 140.529 63.9161C141.099 63.9161 141.502 63.6776 141.738 63.2006H142.881C142.726 63.6714 142.444 64.0586 142.035 64.3622C141.632 64.6596 141.13 64.8082 140.529 64.8082C140.04 64.8082 139.6 64.6998 139.21 64.483C138.826 64.26 138.522 63.9502 138.299 63.5537C138.082 63.151 137.974 62.6863 137.974 62.1597C137.974 61.6331 138.079 61.1716 138.29 60.7751C138.507 60.3724 138.807 60.0626 139.191 59.8458C139.582 59.6289 140.028 59.5205 140.529 59.5205C141.013 59.5205 141.443 59.6258 141.821 59.8365C142.199 60.0471 142.493 60.3445 142.704 60.7286C142.915 61.1065 143.02 61.5433 143.02 62.0389ZM141.914 61.7044C141.908 61.3141 141.769 61.0012 141.496 60.7658C141.223 60.5303 140.886 60.4126 140.483 60.4126C140.118 60.4126 139.805 60.5303 139.544 60.7658C139.284 60.995 139.129 61.3079 139.08 61.7044H141.914ZM143.617 62.1411C143.617 61.6269 143.722 61.1716 143.932 60.7751C144.149 60.3786 144.441 60.0719 144.806 59.8551C145.178 59.632 145.587 59.5205 146.033 59.5205C146.435 59.5205 146.785 59.601 147.083 59.7621C147.386 59.917 147.628 60.1122 147.808 60.3476V59.6041H148.876V64.7246H147.808V63.9626C147.628 64.2042 147.383 64.4055 147.074 64.5666C146.764 64.7277 146.411 64.8082 146.014 64.8082C145.574 64.8082 145.172 64.6967 144.806 64.4737C144.441 64.2445 144.149 63.9285 143.932 63.5258C143.722 63.1169 143.617 62.6554 143.617 62.1411ZM147.808 62.1597C147.808 61.8066 147.733 61.4999 147.585 61.2397C147.442 60.9795 147.253 60.7813 147.018 60.645C146.782 60.5087 146.528 60.4405 146.256 60.4405C145.983 60.4405 145.729 60.5087 145.494 60.645C145.258 60.7751 145.066 60.9702 144.918 61.2304C144.775 61.4844 144.704 61.788 144.704 62.1411C144.704 62.4943 144.775 62.804 144.918 63.0704C145.066 63.3368 145.258 63.5413 145.494 63.6838C145.735 63.8201 145.989 63.8882 146.256 63.8882C146.528 63.8882 146.782 63.8201 147.018 63.6838C147.253 63.5475 147.442 63.3492 147.585 63.089C147.733 62.8226 147.808 62.5129 147.808 62.1597ZM156.373 59.5205C156.776 59.5205 157.135 59.6041 157.451 59.7714C157.774 59.9387 158.024 60.1865 158.204 60.5149C158.39 60.8432 158.483 61.2397 158.483 61.7044V64.7246H157.433V61.8624C157.433 61.4039 157.318 61.0539 157.089 60.8122C156.86 60.5644 156.547 60.4405 156.15 60.4405C155.754 60.4405 155.438 60.5644 155.202 60.8122C154.973 61.0539 154.859 61.4039 154.859 61.8624V64.7246H153.809V61.8624C153.809 61.4039 153.694 61.0539 153.465 60.8122C153.235 60.5644 152.923 60.4405 152.526 60.4405C152.13 60.4405 151.814 60.5644 151.578 60.8122C151.349 61.0539 151.234 61.4039 151.234 61.8624V64.7246H150.175V59.6041H151.234V60.1896C151.408 59.979 151.628 59.8148 151.894 59.6971C152.161 59.5794 152.446 59.5205 152.749 59.5205C153.158 59.5205 153.524 59.6072 153.846 59.7807C154.168 59.9542 154.416 60.2051 154.589 60.5334C154.744 60.2237 154.986 59.979 155.314 59.7993C155.642 59.6134 155.995 59.5205 156.373 59.5205ZM161.706 62.1411C161.706 61.6269 161.811 61.1716 162.022 60.7751C162.239 60.3786 162.53 60.0719 162.896 59.8551C163.267 59.632 163.676 59.5205 164.122 59.5205C164.525 59.5205 164.875 59.601 165.172 59.7621C165.476 59.917 165.718 60.1122 165.897 60.3476V59.6041H166.966V64.7246H165.897V63.9626C165.718 64.2042 165.473 64.4055 165.163 64.5666C164.853 64.7277 164.5 64.8082 164.104 64.8082C163.664 64.8082 163.261 64.6967 162.896 64.4737C162.53 64.2445 162.239 63.9285 162.022 63.5258C161.811 63.1169 161.706 62.6554 161.706 62.1411ZM165.897 62.1597C165.897 61.8066 165.823 61.4999 165.674 61.2397C165.532 60.9795 165.343 60.7813 165.107 60.645C164.872 60.5087 164.618 60.4405 164.345 60.4405C164.073 60.4405 163.819 60.5087 163.583 60.645C163.348 60.7751 163.156 60.9702 163.007 61.2304C162.865 61.4844 162.793 61.788 162.793 62.1411C162.793 62.4943 162.865 62.804 163.007 63.0704C163.156 63.3368 163.348 63.5413 163.583 63.6838C163.825 63.8201 164.079 63.8882 164.345 63.8882C164.618 63.8882 164.872 63.8201 165.107 63.6838C165.343 63.5475 165.532 63.3492 165.674 63.089C165.823 62.8226 165.897 62.5129 165.897 62.1597ZM169.5 60.4684V63.3028C169.5 63.4948 169.544 63.6342 169.631 63.721C169.723 63.8015 169.878 63.8418 170.095 63.8418H170.746V64.7246H169.909C169.432 64.7246 169.067 64.6131 168.813 64.3901C168.559 64.167 168.432 63.8046 168.432 63.3028V60.4684H167.828V59.6041H168.432V58.331H169.5V59.6041H170.746V60.4684H169.5ZM25.2296 71.2659V77.7246H24.1702V74.8995H21.1314V77.7246H20.072V71.2659H21.1314V74.0353H24.1702V71.2659H25.2296ZM26.1782 75.1411C26.1782 74.6269 26.2836 74.1716 26.4942 73.7751C26.711 73.3786 27.0022 73.0719 27.3677 72.8551C27.7395 72.632 28.1484 72.5205 28.5944 72.5205C28.9971 72.5205 29.3472 72.601 29.6445 72.7621C29.9481 72.917 30.1897 73.1122 30.3694 73.3476V72.6041H31.4381V77.7246H30.3694V76.9626C30.1897 77.2042 29.945 77.4055 29.6352 77.5666C29.3255 77.7277 28.9723 77.8082 28.5758 77.8082C28.136 77.8082 27.7333 77.6967 27.3677 77.4737C27.0022 77.2445 26.711 76.9285 26.4942 76.5258C26.2836 76.1169 26.1782 75.6554 26.1782 75.1411ZM30.3694 75.1597C30.3694 74.8066 30.2951 74.4999 30.1464 74.2397C30.0039 73.9795 29.8149 73.7813 29.5795 73.645C29.3441 73.5087 29.0901 73.4405 28.8175 73.4405C28.5449 73.4405 28.2909 73.5087 28.0554 73.645C27.82 73.7751 27.6279 73.9702 27.4793 74.2304C27.3368 74.4844 27.2655 74.788 27.2655 75.1411C27.2655 75.4943 27.3368 75.804 27.4793 76.0704C27.6279 76.3368 27.82 76.5413 28.0554 76.6838C28.297 76.8201 28.5511 76.8882 28.8175 76.8882C29.0901 76.8882 29.3441 76.8201 29.5795 76.6838C29.8149 76.5475 30.0039 76.3492 30.1464 76.089C30.2951 75.8226 30.3694 75.5129 30.3694 75.1597ZM32.3835 75.1597C32.3835 74.6331 32.4888 74.1716 32.6995 73.7751C32.9163 73.3724 33.2137 73.0626 33.5916 72.8458C33.9695 72.6289 34.4032 72.5205 34.8926 72.5205C35.5122 72.5205 36.0233 72.6692 36.426 72.9666C36.8349 73.2578 37.1106 73.6759 37.2531 74.2211H36.11C36.0171 73.9671 35.8684 73.7689 35.664 73.6264C35.4595 73.4839 35.2024 73.4126 34.8926 73.4126C34.459 73.4126 34.112 73.5675 33.8518 73.8773C33.5978 74.1809 33.4708 74.6083 33.4708 75.1597C33.4708 75.7111 33.5978 76.1417 33.8518 76.4515C34.112 76.7612 34.459 76.9161 34.8926 76.9161C35.506 76.9161 35.9118 76.6466 36.11 76.1076H37.2531C37.1044 76.628 36.8256 77.0431 36.4167 77.3529C36.0078 77.6565 35.4998 77.8082 34.8926 77.8082C34.4032 77.8082 33.9695 77.6998 33.5916 77.483C33.2137 77.26 32.9163 76.9502 32.6995 76.5537C32.4888 76.151 32.3835 75.6863 32.3835 75.1597ZM40.2418 75.169L42.6022 77.7246H41.1711L39.2753 75.5222V77.7246H38.2159V70.8478H39.2753V74.8438L41.1339 72.6041H42.6022L40.2418 75.169ZM46.7257 74.407C47.0726 74.4689 47.3669 74.6517 47.6085 74.9553C47.8501 75.2589 47.9709 75.6027 47.9709 75.9868C47.9709 76.3152 47.8842 76.6125 47.7107 76.8789C47.5434 77.1391 47.2987 77.3467 46.9766 77.5016C46.6544 77.6503 46.2796 77.7246 45.8521 77.7246H43.2686V71.2659H45.7313C46.1712 71.2659 46.5491 71.3403 46.8651 71.489C47.181 71.6377 47.4195 71.839 47.5806 72.093C47.7417 72.3408 47.8222 72.6196 47.8222 72.9294C47.8222 73.3011 47.7231 73.6109 47.5249 73.8587C47.3266 74.1065 47.0602 74.2893 46.7257 74.407ZM44.3281 73.9795H45.6384C45.9853 73.9795 46.2548 73.9021 46.4469 73.7472C46.6451 73.5861 46.7442 73.3569 46.7442 73.0595C46.7442 72.7683 46.6451 72.5422 46.4469 72.3811C46.2548 72.2138 45.9853 72.1302 45.6384 72.1302H44.3281V73.9795ZM45.7592 76.8604C46.1185 76.8604 46.4004 76.7736 46.6049 76.6002C46.8093 76.4267 46.9115 76.1851 46.9115 75.8753C46.9115 75.5593 46.8031 75.3084 46.5863 75.1226C46.3694 74.9367 46.0813 74.8438 45.722 74.8438H44.3281V76.8604H45.7592ZM53.6386 72.6041L50.4975 80.1315H49.401L50.4418 77.641L48.4252 72.6041H49.6054L51.0458 76.5072L52.542 72.6041H53.6386ZM55.5811 73.4684V76.3028C55.5811 76.4948 55.6245 76.6342 55.7112 76.721C55.8042 76.8015 55.959 76.8418 56.1759 76.8418H56.8264V77.7246H55.99C55.513 77.7246 55.1475 77.6131 54.8934 77.3901C54.6394 77.167 54.5124 76.8046 54.5124 76.3028V73.4684H53.9084V72.6041H54.5124V71.331H55.5811V72.6041H56.8264V73.4684H55.5811ZM62.4029 75.0389C62.4029 75.231 62.3905 75.4044 62.3657 75.5593H58.4533C58.4843 75.9682 58.6361 76.2966 58.9087 76.5444C59.1813 76.7922 59.5158 76.9161 59.9123 76.9161C60.4823 76.9161 60.885 76.6776 61.1204 76.2006H62.2635C62.1086 76.6714 61.8267 77.0586 61.4178 77.3622C61.0151 77.6596 60.5133 77.8082 59.9123 77.8082C59.4229 77.8082 58.983 77.6998 58.5927 77.483C58.2086 77.26 57.905 76.9502 57.682 76.5537C57.4652 76.151 57.3568 75.6863 57.3568 75.1597C57.3568 74.6331 57.4621 74.1716 57.6727 73.7751C57.8896 73.3724 58.19 73.0626 58.5741 72.8458C58.9645 72.6289 59.4105 72.5205 59.9123 72.5205C60.3956 72.5205 60.8262 72.6258 61.2041 72.8365C61.582 73.0471 61.8763 73.3445 62.0869 73.7286C62.2976 74.1065 62.4029 74.5433 62.4029 75.0389ZM61.297 74.7044C61.2908 74.3141 61.1514 74.0012 60.8788 73.7658C60.6062 73.5303 60.2686 73.4126 59.8659 73.4126C59.5004 73.4126 59.1875 73.5303 58.9273 73.7658C58.6671 73.995 58.5122 74.3079 58.4626 74.7044H61.297ZM63.78 77.7897C63.5879 77.7897 63.4269 77.7246 63.2968 77.5945C63.1667 77.4644 63.1016 77.3033 63.1016 77.1113C63.1016 76.9192 63.1667 76.7581 63.2968 76.628C63.4269 76.4979 63.5879 76.4329 63.78 76.4329C63.9659 76.4329 64.1238 76.4979 64.2539 76.628C64.384 76.7581 64.4491 76.9192 64.4491 77.1113C64.4491 77.3033 64.384 77.4644 64.2539 77.5945C64.1238 77.7246 63.9659 77.7897 63.78 77.7897Z" fill="white"/>
<g filter="url(#filter2_d_1841_3205)">
<path d="M0 124.644C0 119.251 4.37171 114.879 9.76448 114.879H251.99C257.382 114.879 261.754 119.251 261.754 124.644V163.019C261.754 166.08 260.318 168.965 257.876 170.81L248.277 178.062C246.582 179.343 244.515 180.036 242.391 180.036H9.76449C4.37171 180.036 0 175.664 0 170.271V124.644Z" fill="#8A00DA"/>
<path d="M9.76465 116.876H251.989C256.279 116.876 259.757 120.354 259.757 124.644V163.019C259.757 165.454 258.615 167.748 256.672 169.216L247.073 176.469C245.725 177.488 244.081 178.038 242.391 178.038H9.76465C5.47503 178.038 1.99721 174.561 1.99707 170.272V124.644C1.99707 120.354 5.47494 116.876 9.76465 116.876Z" stroke="white" stroke-width="3.99456"/>
</g>
<path d="M260.824 166.25C261.566 166.25 261.882 167.19 261.294 167.639L246.709 178.767C246.216 179.143 245.503 178.817 245.466 178.199L245.045 171.237C244.879 170.397 244.974 169.152 245.796 168.11C246.632 167.05 248.18 166.25 250.825 166.25H260.824Z" fill="white" stroke="#C7C7C7" stroke-width="0.51628"/>
<path d="M237.553 178.935L227.415 178.065L227.843 169.119L219.613 171.723C222.536 167.095 228.401 157.455 228.474 155.919L227.843 169.119L236.367 165.428L234.989 158.156L251.447 157.017L274.2 171.335L251.214 161.902L240.229 164.084L250.073 185.749L237.549 187.296L237.553 178.935Z" fill="url(#paint8_linear_1841_3205)" fill-opacity="0.11"/>
<path d="M245.707 151.792L238.2 148.765L239.147 128.951L214.548 131.681L225.933 120.563L239.147 128.951L249.158 125.579L266.425 133.391L260.22 141.346L278.34 142.212L275.322 147.872L269.133 148.02L259.949 152.473L245.707 151.792Z" fill="url(#paint9_linear_1841_3205)" fill-opacity="0.11"/>
<path d="M234.989 158.156L236.367 165.428M234.989 158.156L251.214 161.902M234.989 158.156L240.229 164.084M234.989 158.156L251.447 157.017L274.2 171.335M238.565 198.869L237.549 187.296M237.553 178.935L227.415 178.065M237.553 178.935L236.367 165.428M237.553 178.935L250.073 185.749M237.553 178.935L237.549 187.296M227.415 178.065L218.361 197.903M227.415 178.065L227.843 169.119M228.474 155.919L209.257 169.935L191.695 176.357M228.474 155.919L198.809 183.298M228.474 155.919C228.401 157.455 222.536 167.095 219.613 171.723L227.843 169.119M228.474 155.919L227.843 169.119M227.843 169.119L236.367 165.428M236.367 165.428L240.229 164.084M251.214 161.902L240.229 164.084M251.214 161.902L274.2 171.335M240.229 164.084L250.073 185.749M250.073 185.749L237.549 187.296M274.2 171.335L272.942 179.251M274.19 153.153L259.949 152.473M238.2 148.765L245.707 151.792L259.949 152.473M238.2 148.765L260.22 141.346M238.2 148.765L269.133 148.021M238.2 148.765L239.147 128.951M260.22 141.346L278.34 142.212L275.322 147.872L269.133 148.021M260.22 141.346L269.133 148.021M260.22 141.346L266.425 133.391M259.949 152.473L269.133 148.021M266.425 133.391L249.158 125.579M266.425 133.391L273.263 130.582M249.158 125.579L239.147 128.951M249.158 125.579L253.378 116.622M239.147 128.951L225.933 120.563M239.147 128.951L214.548 131.681M225.933 120.563L214.548 131.681M225.933 120.563L222.726 110.645M214.548 131.681L202.267 131.094M214.548 131.681L206.335 125.32" stroke="url(#paint10_radial_1841_3205)" stroke-opacity="0.75" stroke-width="1.49899"/>
<g opacity="0.46">
<path d="M232.492 117.827L240.136 120.411L237.67 127.708L246.238 128.118C242.725 131.254 235.595 137.839 235.171 139.093L237.67 127.708L230.285 129.278L229.166 135.085L215.273 132.135L199.818 114.916L216.62 128.151L205.47 107.942L218.33 113.996L218.205 94.5533L224.458 109.172L233.927 110.381L232.492 117.827Z" fill="url(#paint11_linear_1841_3205)" fill-opacity="0.29"/>
<path d="M218.791 137.814L224.291 142.092L218.83 158.253L209.746 158.675L197.297 148.133L204.311 143.021L189.515 138.021L193.35 134.054L198.509 135.394L207.163 133.884L218.791 137.814Z" fill="url(#paint12_linear_1841_3205)" fill-opacity="0.29"/>
<path d="M229.166 135.085L230.285 129.278M229.166 135.085L216.62 128.151M229.166 135.085L226.229 128.943M229.166 135.085L215.273 132.135L199.818 114.916M235.818 100.57L233.927 110.381M232.492 117.827L240.136 120.411M232.492 117.827L230.285 129.278M232.492 117.827L224.458 109.172M232.492 117.827L233.927 110.381M240.136 120.411L252.315 106.145M240.136 120.411L237.67 127.708M237.67 127.708L235.171 139.093C235.595 137.839 242.725 131.254 246.238 128.118L237.67 127.708ZM237.67 127.708L230.285 129.278M230.285 129.278L226.229 128.943M216.62 128.151L226.229 128.943M216.62 128.151L205.47 107.942L218.33 113.996L218.205 94.5533L224.458 109.172M216.62 128.151L199.818 114.916M226.229 128.943L224.458 109.172M224.458 109.172L233.927 110.381M199.818 114.916L202.728 108.666M195.534 129.954L207.163 133.884M224.291 142.092L218.791 137.814L207.163 133.884M224.291 142.092L204.311 143.021M224.291 142.092L198.509 135.394M224.291 142.092L218.83 158.253L209.746 158.675M204.311 143.021L189.515 138.021L193.35 134.054L198.509 135.394M204.311 143.021L198.509 135.394M204.311 143.021L197.297 148.133M207.163 133.884L198.509 135.394M197.297 148.133L209.746 158.675M197.297 148.133L190.972 148.839M209.746 158.675L204.138 165.085" stroke="url(#paint13_radial_1841_3205)" stroke-width="1.49899"/>
</g>
<circle cx="234.717" cy="144.561" r="1.01397" transform="rotate(-10.2395 234.717 144.561)" fill="black"/>
<circle cx="225.787" cy="139.36" r="1.01397" transform="rotate(-10.2395 225.787 139.36)" fill="black"/>
<g filter="url(#filter3_d_1841_3205)">
<path d="M225.797 139.366L234.754 144.557" stroke="url(#paint14_linear_1841_3205)" stroke-width="6.6384" stroke-linecap="round"/>
</g>
<g style="mix-blend-mode:color-dodge">
<path d="M244.389 166.357L242.089 169.663L238.725 167.927L238.066 170.51L233.822 169.428L232.546 174.429L229.15 170.138L222.085 185.197L223.147 172.492L218.214 176.29L222.602 167.473L215.943 166.769L222.667 161.39L207.755 157.013L214.785 143.793L205.394 130.186L223.196 130.783L226.863 123.958L224.079 121.579L229.552 122.975L233.4 108.982L235.548 118.526L234.04 129.792C233.755 130.909 236.311 124.215 236.311 124.215L240.667 119.312L237.083 133.979L246.895 130.999L242.744 134.447L252.113 136.001C253.397 135.814 247.22 141.501 245.096 142.949L253.245 156.471L255.693 159.232L248.629 157.43L248.298 167.355L244.389 166.357Z" fill="url(#paint15_radial_1841_3205)"/>
</g>
<path d="M229.325 160.444L229.112 162.229C229.125 162.198 229.407 161.342 229.587 160.673C229.682 159.992 230.581 160.083 230.779 160.174L231.552 160.247C231.413 160.186 230.771 160.096 230.506 159.931C229.908 159.821 229.798 159.428 229.85 159.163L230.136 157.565C230.105 157.646 229.822 158.639 229.715 159.102C229.551 159.814 228.802 159.445 228.619 159.459L227.785 159.298C227.785 159.298 228.216 159.469 228.583 159.595C229.223 159.813 229.348 160.079 229.325 160.444Z" fill="white"/>
<path d="M244.028 143.043L243.815 144.829C243.828 144.797 244.11 143.941 244.29 143.272C244.385 142.591 245.284 142.682 245.482 142.773L246.255 142.846C246.116 142.785 245.474 142.695 245.209 142.53C244.611 142.42 244.501 142.027 244.553 141.762L244.839 140.165C244.808 140.245 244.525 141.238 244.419 141.701C244.255 142.413 243.505 142.044 243.322 142.058L242.488 141.897C242.488 141.897 242.919 142.068 243.286 142.194C243.926 142.413 244.051 142.678 244.028 143.043Z" fill="white"/>
<path d="M219.119 150.141L218.873 152.194C218.889 152.158 219.212 151.173 219.42 150.404C219.529 149.621 220.563 149.725 220.791 149.83L221.68 149.914C221.52 149.844 220.781 149.741 220.477 149.55C219.789 149.424 219.662 148.972 219.722 148.668L220.051 146.83C220.016 146.922 219.69 148.065 219.567 148.597C219.379 149.416 218.517 148.992 218.306 149.008L217.348 148.823C217.348 148.823 217.843 149.02 218.265 149.164C219.001 149.416 219.145 149.721 219.119 150.141Z" fill="white"/>
<path d="M240.759 149.157C241.515 148.872 245.642 147.928 248.114 146.79C250.045 145.9 251.845 142.47 250.207 139.943C248.076 136.66 244.459 138.107 244.459 138.107C244.459 138.107 244.679 136.665 243.25 135.287C241.451 133.551 238.865 132.249 236.359 131.428C233.931 130.632 231.603 130.163 229.295 130.458C227.228 130.722 226.698 131.924 226.698 131.924C226.698 131.924 225.134 128.912 221.672 129.741C218.212 130.574 217.793 134.468 218.643 136.453C219.751 139.039 221.549 140.778 222.273 141.839C222.994 142.898 223.687 143.91 223.474 144.534C223.261 145.159 222.937 145.203 222.843 145.132C222.751 145.062 222.775 144.391 222.211 144.488C221.44 144.626 221.142 146.139 222.448 146.739C223.712 147.322 224.435 146.023 224.435 146.023L225.104 144.741L226.745 146.966L228.439 149.714L227.801 151.355C227.801 151.355 227.259 152.603 226.255 153.5C225.251 154.398 223.868 155.163 223.868 155.163L223.493 156.157L232.305 158.935L232.36 157.871C232.36 157.871 231.656 156.248 231.432 154.687C231.273 153.57 231.524 152.585 231.524 152.585L232.318 150.191L237.804 148.961C237.804 148.961 238.16 149.509 238.044 149.624C237.927 149.739 237.428 151.15 238.338 152.048C239.236 152.937 240.328 152.574 240.533 151.635C240.737 150.698 240.075 150.819 239.855 150.899C239.635 150.978 239.241 150.882 239.315 150.325C239.385 149.773 240.003 149.441 240.759 149.157ZM220.102 136.622L220.143 133.104L221.962 131.888L223.512 131.957C223.512 131.957 224.852 133.914 224.879 134.045C224.905 134.176 225.228 136.776 225.228 136.776L224.889 142.442L220.102 136.622ZM239.108 147.759C239.167 147.657 242.345 142.671 242.345 142.671C242.367 142.607 243.445 142.491 243.475 142.404C243.505 142.316 246.135 140.143 246.135 140.143L248.915 141.214L248.545 144.207L246.345 146.043C246.347 146.047 239.051 147.858 239.108 147.759Z" fill="#FFEE00"/>
<path d="M249.433 143.599C250.071 141.052 247.823 139.622 246.694 139.637C245.564 139.651 244.68 140.1 244.13 140.981C243.685 141.692 243.328 142.146 243.094 142.155C242.836 142.162 242.638 142.056 242.638 142.056C242.638 142.056 243.173 140.369 243.414 139.697C243.916 138.314 244.463 138.103 244.463 138.103C244.463 138.103 244.534 137.602 244.442 137.28C244.349 136.96 244.129 136.511 244.129 136.511C244.129 136.511 243.977 137.207 243.589 137.249C243.2 137.292 242.919 136.934 242.919 136.934L242.778 138.441C242.778 138.441 239.864 145.198 239.761 145.335C239.658 145.472 236.412 148.31 236.412 148.31C236.412 148.31 234.844 149.015 234.19 149.08C233.533 149.143 232.815 149.649 230.614 148.924C228.412 148.201 227.119 145.827 227.119 145.827L225.852 143.376L225.861 138.797L227.082 134.546L227.689 133.055L227.967 132.441L227.979 132.086C227.979 132.086 227.736 132.205 227.428 132.014C227.119 131.822 227.139 131.339 227.139 131.339C227.139 131.339 226.938 131.502 226.878 131.597C226.816 131.692 226.708 131.922 226.708 131.922C226.708 131.922 226.94 132.426 226.831 132.994C226.723 133.563 225.853 135.773 225.485 135.588C225.115 135.405 225.886 133.564 224.663 132.339C223.604 131.277 221.64 130.817 220.326 132.125C219.015 133.434 218.947 135.485 220.782 138.044C222.618 140.604 224.704 142.94 224.64 144.467C224.565 146.284 223.122 146.887 223.122 146.887C223.122 146.887 223.965 147.05 224.656 146.321C224.879 146.086 225.066 145.696 225.167 145.46C225.675 146.969 226.549 148.399 227.998 149.44C228.538 149.858 229.19 150.2 230.146 150.527C230.285 150.574 230.422 150.615 230.559 150.656C231.692 150.998 232.72 151.115 233.805 150.972C235.255 150.82 236.527 150.267 237.62 149.518C237.517 149.75 237.46 150.395 237.578 150.961C237.785 151.955 238.594 152.288 238.594 152.288C238.594 152.288 237.688 151.23 238.466 149.709C239.243 148.188 240.495 147.981 242.448 147.496C244.406 147.011 248.791 146.146 249.433 143.599ZM222.015 138.154C221.468 137.4 220.437 136.291 220.269 135.08C220.047 133.463 221.18 131.989 222.568 132.235C225.452 132.74 224.342 136.156 224.382 136.63C224.422 137.103 224.928 137.306 224.928 137.306C224.928 137.306 224.869 137.541 224.792 138.008C224.79 138.022 224.79 138.033 224.785 138.047L224.779 138.089C224.727 138.407 224.671 138.806 224.626 139.268L224.623 139.303C224.596 139.564 224.576 139.813 224.566 140.043C224.537 140.526 224.524 141.053 224.54 141.605C224.336 141.333 223.174 139.758 222.015 138.154ZM247.467 144.715C246.579 145.444 245.188 145.738 244.137 146.026C242.782 146.397 240.761 146.959 240.192 147.114C240.394 146.869 240.583 146.622 240.761 146.377C241.023 146.063 241.32 145.672 241.583 145.23C242.276 144.072 242.694 142.995 242.694 142.995C242.694 142.995 243.184 143.335 243.642 143.087C244.1 142.84 244.608 141.762 245.103 141.34C245.874 140.68 247.145 140.165 248.265 141.699C248.912 142.587 248.516 143.85 247.467 144.715ZM229.227 151.142L230.735 151.636C230.735 151.636 230.215 153.289 230.034 154.593C229.852 155.899 229.703 157.368 229.703 157.368C229.703 157.368 226.294 157.348 226.69 156.249C227.086 155.15 228.276 153.152 228.276 153.152C228.276 153.152 229.429 150.682 229.227 151.142Z" fill="#EDB000"/>
<path d="M232.532 133.239C232.532 133.239 234.268 133.621 235.814 134.176C237.361 134.731 238.856 135.584 238.856 135.584C238.856 135.584 236.986 140.756 235.704 143.579C234.424 146.404 232.571 148.214 232.065 148.732C231.575 149.235 231.258 149.486 231.258 149.486L229.819 148.799L229.005 142.71L232.532 133.239Z" fill="#EDB000"/>
<path d="M230.27 133.333C230.27 133.333 230.821 133.257 231.592 133.233C232.291 133.211 232.874 133.33 232.874 133.33C232.874 133.33 231.712 136.785 230.927 139.265C230.258 141.378 229.86 145.08 229.924 146.128C229.987 147.177 230.188 148.812 230.188 148.812C230.188 148.812 228.886 148.148 228.409 146.792C228.158 146.077 227.571 141.009 228.48 138.112C229.39 135.214 230.364 133.285 230.27 133.333Z" fill="black"/>
<path d="M230.27 133.333C230.27 133.333 230.821 133.257 231.592 133.233C232.291 133.211 232.874 133.33 232.874 133.33C232.874 133.33 231.712 136.785 230.927 139.265C230.258 141.378 229.86 145.08 229.924 146.128C229.987 147.177 230.188 148.812 230.188 148.812C230.188 148.812 228.886 148.148 228.409 146.792C228.158 146.077 227.571 141.009 228.48 138.112C229.39 135.214 230.364 133.285 230.27 133.333Z" fill="#FFF7E5"/>
<path d="M229.374 133.468C229.278 133.593 227.89 136.433 227.536 139.387C227.183 142.342 227.409 144.523 227.728 145.466C228.012 146.302 228.237 146.729 228.426 146.793C228.614 146.858 228.429 144.245 228.592 142.3C228.757 140.359 229.253 138.134 229.566 137.06C229.881 135.983 230.769 133.235 230.769 133.235C230.769 133.235 230.17 133.295 230.029 133.324C229.888 133.356 229.374 133.468 229.374 133.468Z" fill="#FFFCFD"/>
<path d="M225.519 155.722C225.519 155.722 227.094 154.42 227.733 153.243C228.373 152.067 228.867 151.001 228.867 151.001L229.485 151.242C229.485 151.242 228.806 153.031 228.316 154.232C227.825 155.432 227.205 156.562 227.205 156.562L225.519 155.722Z" fill="black"/>
<path d="M225.519 155.722C225.519 155.722 227.094 154.42 227.733 153.243C228.373 152.067 228.867 151.001 228.867 151.001L229.485 151.242C229.485 151.242 228.806 153.031 228.316 154.232C227.825 155.432 227.205 156.562 227.205 156.562L225.519 155.722Z" fill="#FFF7E5"/>
<path d="M228.447 149.719C228.447 149.719 229.075 149.42 230.369 149.862C231.664 150.304 232.049 150.991 232.049 150.991L231.538 152.6C231.538 152.6 230.769 152.037 229.726 151.666C228.858 151.358 227.809 151.361 227.809 151.361L228.447 149.719ZM228.214 131.924C228.501 131.796 231.125 130.942 236.086 132.589C241.423 134.358 242.892 136.582 242.988 136.709C243.097 136.851 243.117 137.332 242.983 137.497C242.847 137.661 242.682 137.682 242.34 137.381C241.995 137.08 240.511 134.961 235.702 133.485C231.086 132.065 228.673 132.793 228.429 132.84C228.232 132.877 227.919 132.796 227.842 132.56C227.762 132.324 228.027 132.008 228.214 131.924ZM242.766 138.132C242.138 137.971 240.88 143.038 238.532 145.679C236.018 148.503 233.927 148.839 233.934 149.052C233.941 149.266 235.853 149.334 237.475 148.158C238.978 147.068 240.024 146.004 240.887 144.406C241.746 142.805 243.465 138.312 242.766 138.132ZM227.512 133.551C227.361 133.49 226.679 136 226.06 136.993C225.823 137.375 225.56 137.38 225.505 137.465C225.449 137.55 224.906 140.893 225.333 142.589C225.747 144.228 226.895 146.488 227.273 146.302C227.651 146.117 226.442 144.65 226.108 142.248C225.914 140.87 225.913 138.893 226.581 136.859C227.023 135.515 227.836 133.682 227.512 133.551Z" fill="#9E7402"/>
<path d="M233.17 162.4C233.17 162.4 235.908 159.211 234.465 158.601C230.085 156.75 227.149 155.68 222.274 154.436C220.788 154.057 221.227 157.527 220.975 158.248C220.975 158.248 219.473 156.98 219.242 157.657C218.886 158.697 218.302 160.407 218.302 160.407L233.783 165.696C233.783 165.696 234.368 163.985 234.723 162.945C234.931 162.337 233.17 162.4 233.17 162.4Z" fill="#261032"/>
<path d="M20.1231 143.302V133.993H27.5679V136.508H23.6215V137.346H27.0186V139.948H23.6215V143.302H20.1231ZM28.3508 135.886V133.472H32.0948V135.886H28.3508ZM28.5965 143.302V138.965H27.6424L27.9316 136.45H32.0948V143.302H28.5965ZM33.1108 143.302V136.45H36.5369L36.6091 136.84C36.8597 136.706 37.1874 136.585 37.5921 136.479C38.0065 136.363 38.4354 136.306 38.8787 136.306V138.879C38.5221 138.879 38.1222 138.903 37.6789 138.951C37.2356 138.999 36.879 139.072 36.6091 139.168V143.302H33.1108ZM42.4125 143.447C41.7571 143.447 41.1404 143.399 40.5621 143.302C39.9839 143.206 39.5406 143.09 39.2322 142.955V140.744C39.4635 140.859 39.7333 140.96 40.0417 141.047C40.3501 141.134 40.6537 141.201 40.9524 141.25C41.2608 141.298 41.5162 141.322 41.7186 141.322C41.9403 141.322 42.1234 141.317 42.2679 141.307C42.4221 141.298 42.4992 141.25 42.4992 141.163C42.4992 141.086 42.4221 141.023 42.2679 140.975C42.1137 140.927 41.9162 140.874 41.6752 140.816C41.4439 140.758 41.203 140.686 40.9524 140.599C40.326 140.368 39.8731 140.108 39.5936 139.818C39.3141 139.52 39.1744 139.096 39.1744 138.546C39.1744 137.814 39.4779 137.26 40.0851 136.884C40.6922 136.498 41.6222 136.306 42.8751 136.306C43.1835 136.306 43.5208 136.325 43.887 136.363C44.2532 136.392 44.5953 136.431 44.9133 136.479C45.241 136.527 45.5012 136.585 45.694 136.653V138.85C45.3856 138.715 45.0531 138.614 44.6965 138.546C44.3399 138.469 44.0267 138.431 43.7569 138.431C43.6219 138.431 43.4726 138.435 43.3087 138.445C43.1545 138.445 43.0196 138.46 42.904 138.488C42.798 138.508 42.745 138.551 42.745 138.619C42.745 138.715 42.8895 138.792 43.1786 138.85C43.4774 138.898 43.8051 138.975 44.1616 139.081C44.6628 139.226 45.0483 139.39 45.3181 139.573C45.5976 139.746 45.7903 139.963 45.8963 140.223C46.012 140.474 46.0698 140.787 46.0698 141.163C46.0698 141.866 45.7614 142.425 45.1446 142.84C44.5278 143.244 43.6171 143.447 42.4125 143.447ZM49.8166 143.447C48.7661 143.447 48.0144 143.191 47.5615 142.681C47.1182 142.17 46.8965 141.481 46.8965 140.613V138.965H46.0725V136.45H46.8965V135.106L50.3948 134.397V136.45H51.797L51.7248 138.965H50.3948V140.426C50.3948 140.83 50.6213 141.033 51.0742 141.033C51.373 141.033 51.6621 140.984 51.9416 140.888V143.056C51.6428 143.182 51.3248 143.278 50.9875 143.346C50.6502 143.413 50.2599 143.447 49.8166 143.447ZM57.1394 143.302V136.508H54.7686V133.993H63.0084V136.508H60.6377V143.302H57.1394ZM63.7281 135.886V133.472H67.4721V135.886H63.7281ZM63.9738 143.302V138.965H63.0197L63.3089 136.45H67.4721V143.302H63.9738ZM68.4881 143.302V136.45H71.7262L71.7985 136.869C72.0683 136.715 72.3767 136.585 72.7237 136.479C73.0706 136.363 73.4657 136.306 73.9091 136.306C74.3138 136.306 74.6318 136.359 74.8631 136.465C75.1041 136.571 75.3016 136.73 75.4558 136.942C75.7642 136.749 76.1015 136.595 76.4677 136.479C76.8436 136.363 77.2821 136.306 77.7832 136.306C78.6024 136.306 79.1951 136.522 79.5613 136.956C79.9275 137.38 80.1106 138.026 80.1106 138.893V143.302H76.6846V139.312C76.6846 139.158 76.6557 139.047 76.5978 138.98C76.5497 138.912 76.4436 138.879 76.2798 138.879C76.1256 138.879 75.9907 138.941 75.875 139.067V143.302H72.6514V139.226C72.6514 138.994 72.5454 138.879 72.3334 138.879C72.1503 138.879 71.9864 138.965 71.8419 139.139V143.302H68.4881ZM84.8018 143.447C83.9922 143.447 83.2646 143.312 82.6189 143.042C81.9829 142.772 81.4769 142.377 81.1011 141.857C80.7252 141.327 80.5373 140.676 80.5373 139.905C80.5373 138.816 80.8601 137.944 81.5058 137.289C82.1612 136.633 83.1345 136.306 84.4259 136.306C85.6016 136.306 86.5413 136.595 87.2448 137.173C87.9483 137.751 88.3001 138.575 88.3001 139.645V140.816H83.732C83.8766 140.999 84.1127 141.144 84.4404 141.25C84.7777 141.346 85.2113 141.394 85.7414 141.394C86.1751 141.394 86.5943 141.36 86.999 141.293C87.4038 141.216 87.7218 141.134 87.9531 141.047V142.926C87.2303 143.273 86.1799 143.447 84.8018 143.447ZM83.732 139.067H85.3077V138.937C85.3077 138.802 85.2547 138.676 85.1487 138.561C85.0427 138.435 84.8403 138.373 84.5416 138.373C84.2524 138.373 84.0452 138.44 83.92 138.575C83.7947 138.71 83.732 138.874 83.732 139.067ZM91.8518 143.302V133.993H95.3501V137.028H97.6775V133.993H101.176V143.302H97.6775V140.267H95.3501V143.302H91.8518ZM104.31 143.447C103.877 143.447 103.477 143.37 103.111 143.216C102.744 143.061 102.45 142.816 102.229 142.478C102.007 142.141 101.896 141.702 101.896 141.163C101.896 140.392 102.137 139.809 102.619 139.414C103.111 139.018 103.862 138.821 104.874 138.821H106.407V138.749C106.407 138.643 106.305 138.551 106.103 138.474C105.901 138.387 105.592 138.344 105.178 138.344C104.812 138.344 104.412 138.378 103.978 138.445C103.554 138.503 103.149 138.59 102.764 138.705V136.826C103.14 136.662 103.617 136.537 104.195 136.45C104.783 136.354 105.342 136.306 105.872 136.306C106.633 136.306 107.303 136.412 107.881 136.624C108.459 136.826 108.912 137.144 109.24 137.578C109.568 138.002 109.731 138.546 109.731 139.211V143.302H106.667L106.522 142.811C106.291 142.994 105.992 143.148 105.626 143.273C105.269 143.389 104.831 143.447 104.31 143.447ZM105.626 141.539C105.809 141.539 105.958 141.51 106.074 141.452C106.199 141.394 106.31 141.317 106.407 141.221V140.585H105.771C105.337 140.585 105.12 140.744 105.12 141.062C105.12 141.38 105.289 141.539 105.626 141.539ZM114.674 143.447C113.836 143.447 113.094 143.322 112.448 143.071C111.802 142.811 111.296 142.416 110.93 141.886C110.564 141.356 110.381 140.686 110.381 139.876C110.381 139.057 110.559 138.387 110.916 137.867C111.282 137.337 111.783 136.946 112.419 136.696C113.065 136.436 113.807 136.306 114.645 136.306C115.185 136.306 115.681 136.344 116.134 136.421C116.587 136.489 117.021 136.619 117.435 136.812V139.24C117.127 139.086 116.804 138.975 116.467 138.908C116.129 138.84 115.782 138.806 115.426 138.806C114.925 138.806 114.554 138.888 114.313 139.052C114.072 139.206 113.951 139.481 113.951 139.876C113.951 140.262 114.077 140.536 114.327 140.7C114.578 140.864 114.954 140.946 115.455 140.946C115.811 140.946 116.158 140.898 116.496 140.801C116.833 140.695 117.156 140.56 117.464 140.397V142.941C117.05 143.124 116.616 143.254 116.163 143.331C115.71 143.408 115.214 143.447 114.674 143.447ZM118.18 143.302V133.559H121.678V137.823L122.936 136.45H126.868L124.165 139.414L127.013 143.302H123.312L121.996 141.235L121.678 141.596V143.302H118.18ZM130.696 143.447C129.887 143.447 129.159 143.312 128.513 143.042C127.877 142.772 127.371 142.377 126.996 141.857C126.62 141.327 126.432 140.676 126.432 139.905C126.432 138.816 126.755 137.944 127.4 137.289C128.056 136.633 129.029 136.306 130.32 136.306C131.496 136.306 132.436 136.595 133.139 137.173C133.843 137.751 134.195 138.575 134.195 139.645V140.816H129.627C129.771 140.999 130.007 141.144 130.335 141.25C130.672 141.346 131.106 141.394 131.636 141.394C132.07 141.394 132.489 141.36 132.894 141.293C133.298 141.216 133.616 141.134 133.848 141.047V142.926C133.125 143.273 132.074 143.447 130.696 143.447ZM129.627 139.067H131.202V138.937C131.202 138.802 131.149 138.676 131.043 138.561C130.937 138.435 130.735 138.373 130.436 138.373C130.147 138.373 129.94 138.44 129.814 138.575C129.689 138.71 129.627 138.874 129.627 139.067ZM134.923 143.302V136.45H138.349L138.421 136.84C138.672 136.706 138.999 136.585 139.404 136.479C139.819 136.363 140.247 136.306 140.691 136.306V138.879C140.334 138.879 139.934 138.903 139.491 138.951C139.048 138.999 138.691 139.072 138.421 139.168V143.302H134.923ZM144.225 143.447C143.569 143.447 142.952 143.399 142.374 143.302C141.796 143.206 141.353 143.09 141.044 142.955V140.744C141.276 140.859 141.545 140.96 141.854 141.047C142.162 141.134 142.466 141.201 142.765 141.25C143.073 141.298 143.328 141.322 143.531 141.322C143.752 141.322 143.935 141.317 144.08 141.307C144.234 141.298 144.311 141.25 144.311 141.163C144.311 141.086 144.234 141.023 144.08 140.975C143.926 140.927 143.728 140.874 143.487 140.816C143.256 140.758 143.015 140.686 142.765 140.599C142.138 140.368 141.685 140.108 141.406 139.818C141.126 139.52 140.986 139.096 140.986 138.546C140.986 137.814 141.29 137.26 141.897 136.884C142.504 136.498 143.434 136.306 144.687 136.306C144.996 136.306 145.333 136.325 145.699 136.363C146.065 136.392 146.407 136.431 146.725 136.479C147.053 136.527 147.313 136.585 147.506 136.653V138.85C147.198 138.715 146.865 138.614 146.509 138.546C146.152 138.469 145.839 138.431 145.569 138.431C145.434 138.431 145.285 138.435 145.121 138.445C144.967 138.445 144.832 138.46 144.716 138.488C144.61 138.508 144.557 138.551 144.557 138.619C144.557 138.715 144.702 138.792 144.991 138.85C145.289 138.898 145.617 138.975 145.974 139.081C146.475 139.226 146.86 139.39 147.13 139.573C147.41 139.746 147.602 139.963 147.708 140.223C147.824 140.474 147.882 140.787 147.882 141.163C147.882 141.866 147.573 142.425 146.957 142.84C146.34 143.244 145.429 143.447 144.225 143.447Z" fill="white"/>
<path d="M24.6148 152.294V153.254H21.5687V155.371H23.9436V156.331H21.5687V159.47H20.3916V152.294H24.6148ZM28.0702 159.563C27.5333 159.563 27.048 159.442 26.6143 159.202C26.1806 158.954 25.8399 158.61 25.5921 158.169C25.3443 157.722 25.2204 157.205 25.2204 156.62C25.2204 156.042 25.3477 155.529 25.6024 155.082C25.8571 154.634 26.2047 154.29 26.6453 154.049C27.0859 153.808 27.578 153.688 28.1219 153.688C28.6657 153.688 29.1579 153.808 29.5984 154.049C30.039 154.29 30.3866 154.634 30.6413 155.082C30.896 155.529 31.0233 156.042 31.0233 156.62C31.0233 157.198 30.8926 157.711 30.631 158.159C30.3694 158.606 30.0114 158.954 29.5571 159.202C29.1097 159.442 28.614 159.563 28.0702 159.563ZM28.0702 158.541C28.3731 158.541 28.6553 158.468 28.9169 158.324C29.1854 158.179 29.4022 157.962 29.5674 157.673C29.7326 157.384 29.8153 157.033 29.8153 156.62C29.8153 156.207 29.7361 155.859 29.5778 155.577C29.4194 155.288 29.2095 155.071 28.9479 154.927C28.6863 154.782 28.4041 154.71 28.1012 154.71C27.7983 154.71 27.5161 154.782 27.2545 154.927C26.9998 155.071 26.7967 155.288 26.6453 155.577C26.4939 155.859 26.4181 156.207 26.4181 156.62C26.4181 157.233 26.573 157.708 26.8828 158.045C27.1994 158.375 27.5952 158.541 28.0702 158.541ZM33.2609 154.607C33.433 154.317 33.6601 154.094 33.9423 153.935C34.2315 153.77 34.5722 153.688 34.9646 153.688V154.906H34.6651C34.2039 154.906 33.8529 155.023 33.6119 155.257C33.3779 155.491 33.2609 155.897 33.2609 156.476V159.47H32.0837V153.781H33.2609V154.607ZM42.7455 152.294V153.254H39.6994V155.371H42.0743V156.331H39.6994V159.47H38.5223V152.294H42.7455ZM44.9102 154.607C45.0823 154.317 45.3095 154.094 45.5917 153.935C45.8808 153.77 46.2216 153.688 46.614 153.688V154.906H46.3145C45.8533 154.906 45.5022 155.023 45.2613 155.257C45.0273 155.491 44.9102 155.897 44.9102 156.476V159.47H43.7331V153.781H44.9102V154.607ZM52.8071 156.486C52.8071 156.699 52.7934 156.892 52.7658 157.064H48.4188C48.4532 157.518 48.6218 157.883 48.9247 158.159C49.2276 158.434 49.5993 158.572 50.0399 158.572C50.6732 158.572 51.1206 158.307 51.3822 157.777H52.6523C52.4802 158.3 52.167 158.73 51.7126 159.067C51.2652 159.398 50.7076 159.563 50.0399 159.563C49.4961 159.563 49.0073 159.442 48.5736 159.202C48.1469 158.954 47.8096 158.61 47.5617 158.169C47.3208 157.722 47.2003 157.205 47.2003 156.62C47.2003 156.035 47.3174 155.522 47.5514 155.082C47.7923 154.634 48.1262 154.29 48.553 154.049C48.9867 153.808 49.4823 153.688 50.0399 153.688C50.5768 153.688 51.0552 153.805 51.4751 154.039C51.8951 154.273 52.222 154.603 52.4561 155.03C52.6901 155.45 52.8071 155.935 52.8071 156.486ZM51.5784 156.114C51.5715 155.68 51.4166 155.333 51.1137 155.071C50.8109 154.81 50.4357 154.679 49.9883 154.679C49.5821 154.679 49.2345 154.81 48.9454 155.071C48.6563 155.326 48.4842 155.674 48.4291 156.114H51.5784ZM55.9274 159.563C55.48 159.563 55.0773 159.484 54.7193 159.325C54.3683 159.16 54.0895 158.94 53.8829 158.665C53.6764 158.382 53.5663 158.069 53.5525 157.725H54.7709C54.7916 157.966 54.9052 158.169 55.1117 158.334C55.3251 158.492 55.5901 158.572 55.9068 158.572C56.2372 158.572 56.4919 158.51 56.6709 158.386C56.8567 158.255 56.9497 158.09 56.9497 157.89C56.9497 157.677 56.8464 157.518 56.6399 157.415C56.4403 157.312 56.1202 157.198 55.6796 157.074C55.2528 156.957 54.9052 156.844 54.6367 156.734C54.3683 156.624 54.1342 156.455 53.9346 156.228C53.7418 156.001 53.6455 155.701 53.6455 155.329C53.6455 155.027 53.7349 154.751 53.9139 154.503C54.0929 154.249 54.3476 154.049 54.678 153.904C55.0153 153.76 55.4008 153.688 55.8345 153.688C56.4816 153.688 57.0013 153.853 57.3937 154.183C57.7929 154.507 58.0063 154.951 58.0338 155.515H56.8567C56.8361 155.261 56.7328 155.057 56.547 154.906C56.3611 154.755 56.1098 154.679 55.7932 154.679C55.4834 154.679 55.2459 154.737 55.0807 154.854C54.9155 154.971 54.8329 155.126 54.8329 155.319C54.8329 155.471 54.888 155.598 54.9981 155.701C55.1083 155.804 55.2425 155.887 55.4008 155.949C55.5591 156.004 55.7932 156.076 56.103 156.166C56.516 156.276 56.8533 156.389 57.1149 156.507C57.3833 156.617 57.6139 156.782 57.8067 157.002C57.9994 157.222 58.0992 157.515 58.1061 157.88C58.1061 158.203 58.0166 158.492 57.8377 158.747C57.6587 159.002 57.404 159.202 57.0736 159.346C56.75 159.491 56.368 159.563 55.9274 159.563ZM62.2176 153.688C62.6512 153.688 63.0367 153.781 63.374 153.966C63.7182 154.152 63.9867 154.428 64.1794 154.792C64.3791 155.157 64.4789 155.598 64.4789 156.114V159.47H63.3121V156.29C63.3121 155.78 63.1847 155.391 62.93 155.123C62.6753 154.848 62.3277 154.71 61.8871 154.71C61.4466 154.71 61.0955 154.848 60.8339 155.123C60.5792 155.391 60.4519 155.78 60.4519 156.29V159.47H59.2748V151.829H60.4519V154.441C60.6515 154.2 60.9028 154.015 61.2057 153.884C61.5154 153.753 61.8527 153.688 62.2176 153.688ZM72.7643 153.688C73.2117 153.688 73.611 153.781 73.962 153.966C74.32 154.152 74.5988 154.428 74.7984 154.792C75.0049 155.157 75.1082 155.598 75.1082 156.114V159.47H73.9414V156.29C73.9414 155.78 73.814 155.391 73.5594 155.123C73.3047 154.848 72.957 154.71 72.5165 154.71C72.0759 154.71 71.7248 154.848 71.4633 155.123C71.2086 155.391 71.0812 155.78 71.0812 156.29V159.47H69.9144V156.29C69.9144 155.78 69.7871 155.391 69.5324 155.123C69.2777 154.848 68.93 154.71 68.4895 154.71C68.0489 154.71 67.6978 154.848 67.4363 155.123C67.1816 155.391 67.0542 155.78 67.0542 156.29V159.47H65.8771V153.781H67.0542V154.431C67.247 154.197 67.4913 154.015 67.7873 153.884C68.0833 153.753 68.4 153.688 68.7373 153.688C69.1916 153.688 69.5978 153.784 69.9557 153.977C70.3137 154.169 70.589 154.448 70.7818 154.813C70.9539 154.469 71.2223 154.197 71.5872 153.997C71.952 153.791 72.3444 153.688 72.7643 153.688ZM81.7172 156.486C81.7172 156.699 81.7035 156.892 81.6759 157.064H77.3288C77.3633 157.518 77.5319 157.883 77.8348 158.159C78.1377 158.434 78.5094 158.572 78.95 158.572C79.5833 158.572 80.0307 158.307 80.2923 157.777H81.5623C81.3902 158.3 81.077 158.73 80.6227 159.067C80.1753 159.398 79.6177 159.563 78.95 159.563C78.4061 159.563 77.9174 159.442 77.4837 159.202C77.0569 158.954 76.7196 158.61 76.4718 158.169C76.2309 157.722 76.1104 157.205 76.1104 156.62C76.1104 156.035 76.2274 155.522 76.4615 155.082C76.7024 154.634 77.0363 154.29 77.4631 154.049C77.8968 153.808 78.3924 153.688 78.95 153.688C79.4869 153.688 79.9653 153.805 80.3852 154.039C80.8051 154.273 81.1321 154.603 81.3662 155.03C81.6002 155.45 81.7172 155.935 81.7172 156.486ZM80.4885 156.114C80.4816 155.68 80.3267 155.333 80.0238 155.071C79.7209 154.81 79.3458 154.679 78.8983 154.679C78.4922 154.679 78.1446 154.81 77.8554 155.071C77.5663 155.326 77.3942 155.674 77.3392 156.114H80.4885ZM85.6429 153.688C86.0903 153.688 86.4896 153.781 86.8407 153.966C87.1986 154.152 87.4774 154.428 87.677 154.792C87.8767 155.157 87.9765 155.598 87.9765 156.114V159.47H86.8097V156.29C86.8097 155.78 86.6823 155.391 86.4276 155.123C86.1729 154.848 85.8253 154.71 85.3847 154.71C84.9442 154.71 84.5931 154.848 84.3315 155.123C84.0768 155.391 83.9495 155.78 83.9495 156.29V159.47H82.7724V153.781H83.9495V154.431C84.1422 154.197 84.3866 154.015 84.6826 153.884C84.9855 153.753 85.3056 153.688 85.6429 153.688ZM91.5613 156.599C91.5613 156.028 91.6783 155.522 91.9124 155.082C92.1533 154.641 92.4769 154.3 92.883 154.059C93.296 153.812 93.7503 153.688 94.246 153.688C94.6934 153.688 95.0823 153.777 95.4128 153.956C95.7501 154.128 96.0185 154.345 96.2182 154.607V153.781H97.4056V159.47H96.2182V158.623C96.0185 158.892 95.7466 159.115 95.4024 159.294C95.0583 159.473 94.6659 159.563 94.2253 159.563C93.7366 159.563 93.2891 159.439 92.883 159.191C92.4769 158.936 92.1533 158.585 91.9124 158.138C91.6783 157.684 91.5613 157.171 91.5613 156.599ZM96.2182 156.62C96.2182 156.228 96.1356 155.887 95.9703 155.598C95.812 155.309 95.6021 155.088 95.3405 154.937C95.0789 154.786 94.7967 154.71 94.4938 154.71C94.1909 154.71 93.9087 154.786 93.6471 154.937C93.3855 155.082 93.1721 155.298 93.0069 155.588C92.8486 155.87 92.7694 156.207 92.7694 156.599C92.7694 156.992 92.8486 157.336 93.0069 157.632C93.1721 157.928 93.3855 158.155 93.6471 158.314C93.9156 158.465 94.1978 158.541 94.4938 158.541C94.7967 158.541 95.0789 158.465 95.3405 158.314C95.6021 158.162 95.812 157.942 95.9703 157.653C96.1356 157.357 96.2182 157.012 96.2182 156.62ZM101.719 153.688C102.166 153.688 102.566 153.781 102.917 153.966C103.275 154.152 103.553 154.428 103.753 154.792C103.953 155.157 104.053 155.598 104.053 156.114V159.47H102.886V156.29C102.886 155.78 102.758 155.391 102.504 155.123C102.249 154.848 101.901 154.71 101.461 154.71C101.02 154.71 100.669 154.848 100.408 155.123C100.153 155.391 100.026 155.78 100.026 156.29V159.47H98.8484V153.781H100.026V154.431C100.218 154.197 100.463 154.015 100.759 153.884C101.062 153.753 101.382 153.688 101.719 153.688ZM105.058 156.599C105.058 156.028 105.175 155.522 105.409 155.082C105.65 154.641 105.974 154.3 106.38 154.059C106.793 153.812 107.251 153.688 107.753 153.688C108.125 153.688 108.49 153.77 108.848 153.935C109.213 154.094 109.502 154.307 109.715 154.576V151.829H110.903V159.47H109.715V158.613C109.523 158.888 109.254 159.115 108.91 159.294C108.573 159.473 108.184 159.563 107.743 159.563C107.247 159.563 106.793 159.439 106.38 159.191C105.974 158.936 105.65 158.585 105.409 158.138C105.175 157.684 105.058 157.171 105.058 156.599ZM109.715 156.62C109.715 156.228 109.633 155.887 109.467 155.598C109.309 155.309 109.099 155.088 108.838 154.937C108.576 154.786 108.294 154.71 107.991 154.71C107.688 154.71 107.406 154.786 107.144 154.937C106.883 155.082 106.669 155.298 106.504 155.588C106.346 155.87 106.267 156.207 106.267 156.599C106.267 156.992 106.346 157.336 106.504 157.632C106.669 157.928 106.883 158.155 107.144 158.314C107.413 158.465 107.695 158.541 107.991 158.541C108.294 158.541 108.576 158.465 108.838 158.314C109.099 158.162 109.309 157.942 109.467 157.653C109.633 157.357 109.715 157.012 109.715 156.62ZM120.82 159.47H119.643L116.102 154.111V159.47H114.925V152.283H116.102L119.643 157.632V152.283H120.82V159.47ZM124.731 159.563C124.194 159.563 123.709 159.442 123.275 159.202C122.841 158.954 122.5 158.61 122.253 158.169C122.005 157.722 121.881 157.205 121.881 156.62C121.881 156.042 122.008 155.529 122.263 155.082C122.518 154.634 122.865 154.29 123.306 154.049C123.746 153.808 124.239 153.688 124.782 153.688C125.326 153.688 125.818 153.808 126.259 154.049C126.7 154.29 127.047 154.634 127.302 155.082C127.557 155.529 127.684 156.042 127.684 156.62C127.684 157.198 127.553 157.711 127.292 158.159C127.03 158.606 126.672 158.954 126.218 159.202C125.77 159.442 125.275 159.563 124.731 159.563ZM124.731 158.541C125.034 158.541 125.316 158.468 125.577 158.324C125.846 158.179 126.063 157.962 126.228 157.673C126.393 157.384 126.476 157.033 126.476 156.62C126.476 156.207 126.397 155.859 126.238 155.577C126.08 155.288 125.87 155.071 125.608 154.927C125.347 154.782 125.065 154.71 124.762 154.71C124.459 154.71 124.177 154.782 123.915 154.927C123.66 155.071 123.457 155.288 123.306 155.577C123.154 155.859 123.079 156.207 123.079 156.62C123.079 157.233 123.234 157.708 123.543 158.045C123.86 158.375 124.256 158.541 124.731 158.541ZM130.944 158.417L132.554 153.781H133.804L131.635 159.47H130.231L128.073 153.781H129.333L130.944 158.417ZM135.189 153.027C134.976 153.027 134.797 152.955 134.652 152.81C134.508 152.665 134.435 152.486 134.435 152.273C134.435 152.06 134.508 151.881 134.652 151.736C134.797 151.592 134.976 151.519 135.189 151.519C135.396 151.519 135.571 151.592 135.716 151.736C135.86 151.881 135.933 152.06 135.933 152.273C135.933 152.486 135.86 152.665 135.716 152.81C135.571 152.955 135.396 153.027 135.189 153.027ZM135.767 153.781V159.47H134.59V153.781H135.767ZM136.817 156.62C136.817 156.035 136.934 155.522 137.168 155.082C137.409 154.634 137.74 154.29 138.16 154.049C138.58 153.808 139.061 153.688 139.605 153.688C140.294 153.688 140.861 153.853 141.309 154.183C141.763 154.507 142.07 154.971 142.228 155.577H140.958C140.855 155.295 140.689 155.075 140.462 154.916C140.235 154.758 139.949 154.679 139.605 154.679C139.123 154.679 138.738 154.851 138.449 155.195C138.167 155.532 138.025 156.007 138.025 156.62C138.025 157.233 138.167 157.711 138.449 158.055C138.738 158.4 139.123 158.572 139.605 158.572C140.287 158.572 140.738 158.272 140.958 157.673H142.228C142.063 158.252 141.753 158.713 141.299 159.057C140.844 159.394 140.28 159.563 139.605 159.563C139.061 159.563 138.58 159.442 138.16 159.202C137.74 158.954 137.409 158.61 137.168 158.169C136.934 157.722 136.817 157.205 136.817 156.62ZM148.512 156.486C148.512 156.699 148.498 156.892 148.471 157.064H144.124C144.158 157.518 144.327 157.883 144.63 158.159C144.933 158.434 145.304 158.572 145.745 158.572C146.378 158.572 146.826 158.307 147.087 157.777H148.357C148.185 158.3 147.872 158.73 147.418 159.067C146.97 159.398 146.413 159.563 145.745 159.563C145.201 159.563 144.712 159.442 144.279 159.202C143.852 158.954 143.515 158.61 143.267 158.169C143.026 157.722 142.905 157.205 142.905 156.62C142.905 156.035 143.022 155.522 143.256 155.082C143.497 154.634 143.831 154.29 144.258 154.049C144.692 153.808 145.187 153.688 145.745 153.688C146.282 153.688 146.76 153.805 147.18 154.039C147.6 154.273 147.927 154.603 148.161 155.03C148.395 155.45 148.512 155.935 148.512 156.486ZM147.283 156.114C147.277 155.68 147.122 155.333 146.819 155.071C146.516 154.81 146.141 154.679 145.693 154.679C145.287 154.679 144.94 154.81 144.65 155.071C144.361 155.326 144.189 155.674 144.134 156.114H147.283ZM150.042 159.542C149.829 159.542 149.65 159.47 149.505 159.325C149.361 159.181 149.289 159.002 149.289 158.788C149.289 158.575 149.361 158.396 149.505 158.252C149.65 158.107 149.829 158.035 150.042 158.035C150.249 158.035 150.424 158.107 150.569 158.252C150.713 158.396 150.786 158.575 150.786 158.788C150.786 159.002 150.713 159.181 150.569 159.325C150.424 159.47 150.249 159.542 150.042 159.542Z" fill="white"/>
<defs>
<filter id="filter0_d_1841_3205" x="0.273438" y="26.8457" width="264.339" height="67.2219" filterUnits="userSpaceOnUse" color-interpolation-filters="sRGB">
<feFlood flood-opacity="0" result="BackgroundImageFix"/>
<feColorMatrix in="SourceAlpha" type="matrix" values="0 0 0 0 0 0 0 0 0 0 0 0 0 0 0 0 0 0 127 0" result="hardAlpha"/>
<feOffset dx="2.5814" dy="2.06512"/>
<feComposite in2="hardAlpha" operator="out"/>
<feColorMatrix type="matrix" values="0 0 0 0 0 0 0 0 0 0 0 0 0 0 0 0 0 0 0.25 0"/>
<feBlend mode="normal" in2="BackgroundImageFix" result="effect1_dropShadow_1841_3205"/>
<feBlend mode="normal" in="SourceGraphic" in2="effect1_dropShadow_1841_3205" result="shape"/>
</filter>
<filter id="filter1_d_1841_3205" x="214.531" y="49.0449" width="15.5938" height="14.4008" filterUnits="userSpaceOnUse" color-interpolation-filters="sRGB">
<feFlood flood-opacity="0" result="BackgroundImageFix"/>
<feColorMatrix in="SourceAlpha" type="matrix" values="0 0 0 0 0 0 0 0 0 0 0 0 0 0 0 0 0 0 127 0" result="hardAlpha"/>
<feOffset dy="2.5697"/>
<feComposite in2="hardAlpha" operator="out"/>
<feColorMatrix type="matrix" values="0 0 0 0 0 0 0 0 0 0 0 0 0 0 0 0 0 0 0.25 0"/>
<feBlend mode="normal" in2="BackgroundImageFix" result="effect1_dropShadow_1841_3205"/>
<feBlend mode="normal" in="SourceGraphic" in2="effect1_dropShadow_1841_3205" result="shape"/>
</filter>
<filter id="filter2_d_1841_3205" x="0" y="114.879" width="264.339" height="67.2221" filterUnits="userSpaceOnUse" color-interpolation-filters="sRGB">
<feFlood flood-opacity="0" result="BackgroundImageFix"/>
<feColorMatrix in="SourceAlpha" type="matrix" values="0 0 0 0 0 0 0 0 0 0 0 0 0 0 0 0 0 0 127 0" result="hardAlpha"/>
<feOffset dx="2.5814" dy="2.06512"/>
<feComposite in2="hardAlpha" operator="out"/>
<feColorMatrix type="matrix" values="0 0 0 0 0 0 0 0 0 0 0 0 0 0 0 0 0 0 0.25 0"/>
<feBlend mode="normal" in2="BackgroundImageFix" result="effect1_dropShadow_1841_3205"/>
<feBlend mode="normal" in="SourceGraphic" in2="effect1_dropShadow_1841_3205" result="shape"/>
</filter>
<filter id="filter3_d_1841_3205" x="222.477" y="136.046" width="15.5938" height="14.4008" filterUnits="userSpaceOnUse" color-interpolation-filters="sRGB">
<feFlood flood-opacity="0" result="BackgroundImageFix"/>
<feColorMatrix in="SourceAlpha" type="matrix" values="0 0 0 0 0 0 0 0 0 0 0 0 0 0 0 0 0 0 127 0" result="hardAlpha"/>
<feOffset dy="2.5697"/>
<feComposite in2="hardAlpha" operator="out"/>
<feColorMatrix type="matrix" values="0 0 0 0 0 0 0 0 0 0 0 0 0 0 0 0 0 0 0.25 0"/>
<feBlend mode="normal" in2="BackgroundImageFix" result="effect1_dropShadow_1841_3205"/>
<feBlend mode="normal" in="SourceGraphic" in2="effect1_dropShadow_1841_3205" result="shape"/>
</filter>
<linearGradient id="paint0_linear_1841_3205" x1="247.17" y1="106.912" x2="235.099" y2="73.8339" gradientUnits="userSpaceOnUse">
<stop stop-color="#787878"/>
<stop offset="1" stop-color="#FF00FF"/>
</linearGradient>
<linearGradient id="paint1_linear_1841_3205" x1="247.17" y1="106.912" x2="235.099" y2="73.8339" gradientUnits="userSpaceOnUse">
<stop stop-color="#787878"/>
<stop offset="1" stop-color="#FF00FF"/>
</linearGradient>
<radialGradient id="paint2_radial_1841_3205" cx="0" cy="0" r="1" gradientTransform="matrix(11.296 48.7841 -51.8994 12.0471 226.869 63.721)" gradientUnits="userSpaceOnUse">
<stop stop-color="white"/>
<stop offset="1" stop-color="#999999" stop-opacity="0"/>
</radialGradient>
<linearGradient id="paint3_linear_1841_3205" x1="212.978" y1="13.754" x2="215.139" y2="43.9644" gradientUnits="userSpaceOnUse">
<stop stop-color="#FF00FF"/>
<stop offset="1" stop-color="#787878"/>
</linearGradient>
<linearGradient id="paint4_linear_1841_3205" x1="212.978" y1="13.754" x2="215.139" y2="43.9644" gradientUnits="userSpaceOnUse">
<stop stop-color="#FF00FF"/>
<stop offset="1" stop-color="#787878"/>
</linearGradient>
<radialGradient id="paint5_radial_1841_3205" cx="0" cy="0" r="1" gradientUnits="userSpaceOnUse" gradientTransform="translate(213.475 59.1414) rotate(-80.192) scale(48.5942 51.7496)">
<stop stop-color="white"/>
<stop offset="1" stop-color="#999999" stop-opacity="0"/>
</radialGradient>
<linearGradient id="paint6_linear_1841_3205" x1="216.541" y1="53.8989" x2="226.567" y2="59.716" gradientUnits="userSpaceOnUse">
<stop stop-color="#997012"/>
<stop offset="0.483963" stop-color="#F6B51D"/>
<stop offset="1" stop-color="#997012"/>
</linearGradient>
<radialGradient id="paint7_radial_1841_3205" cx="0" cy="0" r="1" gradientUnits="userSpaceOnUse" gradientTransform="translate(219.509 58.7084) rotate(-158.955) scale(32.5372 23.3494)">
<stop stop-color="#FFEE00"/>
<stop offset="1" stop-color="#A200FF"/>
</radialGradient>
<linearGradient id="paint8_linear_1841_3205" x1="255.123" y1="193.912" x2="243.052" y2="160.834" gradientUnits="userSpaceOnUse">
<stop stop-color="#787878"/>
<stop offset="1" stop-color="#FF00FF"/>
</linearGradient>
<linearGradient id="paint9_linear_1841_3205" x1="255.123" y1="193.912" x2="243.052" y2="160.834" gradientUnits="userSpaceOnUse">
<stop stop-color="#787878"/>
<stop offset="1" stop-color="#FF00FF"/>
</linearGradient>
<radialGradient id="paint10_radial_1841_3205" cx="0" cy="0" r="1" gradientTransform="matrix(11.296 48.7841 -51.8994 12.0471 234.822 150.721)" gradientUnits="userSpaceOnUse">
<stop stop-color="white"/>
<stop offset="1" stop-color="#999999" stop-opacity="0"/>
</radialGradient>
<linearGradient id="paint11_linear_1841_3205" x1="220.939" y1="100.754" x2="223.1" y2="130.965" gradientUnits="userSpaceOnUse">
<stop stop-color="#FF00FF"/>
<stop offset="1" stop-color="#787878"/>
</linearGradient>
<linearGradient id="paint12_linear_1841_3205" x1="220.939" y1="100.754" x2="223.1" y2="130.965" gradientUnits="userSpaceOnUse">
<stop stop-color="#FF00FF"/>
<stop offset="1" stop-color="#787878"/>
</linearGradient>
<radialGradient id="paint13_radial_1841_3205" cx="0" cy="0" r="1" gradientUnits="userSpaceOnUse" gradientTransform="translate(221.436 146.142) rotate(-80.192) scale(48.5942 51.7496)">
<stop stop-color="white"/>
<stop offset="1" stop-color="#999999" stop-opacity="0"/>
</radialGradient>
<linearGradient id="paint14_linear_1841_3205" x1="224.486" y1="140.9" x2="234.512" y2="146.717" gradientUnits="userSpaceOnUse">
<stop stop-color="#997012"/>
<stop offset="0.483963" stop-color="#F6B51D"/>
<stop offset="1" stop-color="#997012"/>
</linearGradient>
<radialGradient id="paint15_radial_1841_3205" cx="0" cy="0" r="1" gradientUnits="userSpaceOnUse" gradientTransform="translate(227.47 145.708) rotate(-158.955) scale(32.5372 23.3494)">
<stop stop-color="#FFEE00"/>
<stop offset="1" stop-color="#A200FF"/>
</radialGradient>
</defs>
</svg>
