<svg width="1184" height="265" viewBox="0 0 1184 265" fill="none" xmlns="http://www.w3.org/2000/svg">
<g filter="url(#filter0_d_1792_2755)">
<path d="M0 71.9126C0 61.4672 8.4677 52.9995 18.9131 52.9995H488.087C498.532 52.9995 507 61.4672 507 71.9127V146.243C507 152.173 504.219 157.759 499.488 161.334L480.896 175.381C477.612 177.862 473.609 179.204 469.494 179.204H18.9131C8.46769 179.204 0 170.736 0 160.291V71.9126Z" fill="#8A00DA"/>
<path d="M18.9131 56.8677H488.087C496.396 56.8677 503.132 63.6038 503.132 71.9126V146.244C503.132 150.96 500.92 155.404 497.156 158.248L478.563 172.294C475.952 174.268 472.768 175.335 469.494 175.335H18.9131C10.6042 175.335 3.86816 168.599 3.86816 160.291V71.9126C3.86819 63.6038 10.6043 56.8677 18.9131 56.8677Z" stroke="white" stroke-width="7.73719"/>
</g>
<path d="M507.041 154.844C508.477 154.844 509.09 156.667 507.95 157.537L479.699 179.091C478.745 179.819 477.365 179.187 477.293 177.989L476.478 164.508C476.156 162.881 476.337 160.469 477.931 158.449C479.55 156.396 482.549 154.844 487.673 154.844H507.041Z" fill="white" stroke="#C7C7C7"/>
<path d="M444.166 179.071L424.531 177.386L425.359 160.058L409.418 165.103C415.08 156.139 426.439 137.467 426.581 134.491L425.359 160.058L441.868 152.909L439.2 138.823L471.078 136.618L515.149 164.351L470.626 146.08L449.349 150.307L468.418 192.27L444.158 195.266L444.166 179.071Z" fill="url(#paint0_linear_1792_2755)" fill-opacity="0.11"/>
<path d="M459.96 126.497L445.419 120.634L447.253 82.2567L399.608 87.5439L421.66 66.0094L447.253 82.2567L466.645 75.7253L500.089 90.8562L488.07 106.264L523.168 107.942L517.322 118.904L505.334 119.192L487.545 127.816L459.96 126.497Z" fill="url(#paint1_linear_1792_2755)" fill-opacity="0.11"/>
<path d="M439.2 138.823L441.868 152.909M439.2 138.823L470.626 146.08M439.2 138.823L449.349 150.307M439.2 138.823L471.078 136.618L515.149 164.351M446.127 217.683L444.158 195.266M444.166 179.071L424.531 177.386M444.166 179.071L441.868 152.909M444.166 179.071L468.418 192.27M444.166 179.071L444.158 195.266M424.531 177.386L406.993 215.812M424.531 177.386L425.359 160.058M426.581 134.491L389.36 161.64L355.343 174.078M426.581 134.491L369.122 187.523M426.581 134.491C426.439 137.467 415.08 156.139 409.418 165.103L425.359 160.058M426.581 134.491L425.359 160.058M425.359 160.058L441.868 152.909M441.868 152.909L449.349 150.307M470.626 146.08L449.349 150.307M470.626 146.08L515.149 164.351M449.349 150.307L468.418 192.27M468.418 192.27L444.158 195.266M515.149 164.351L512.713 179.684M515.13 129.135L487.545 127.816M445.419 120.634L459.96 126.497L487.545 127.816M445.419 120.634L488.07 106.264M445.419 120.634L505.334 119.192M445.419 120.634L447.253 82.2567M488.07 106.264L523.168 107.942L517.322 118.904L505.334 119.192M488.07 106.264L505.334 119.192M488.07 106.264L500.089 90.8562M487.545 127.816L505.334 119.192M500.089 90.8562L466.645 75.7253M500.089 90.8562L513.335 85.4161M466.645 75.7253L447.253 82.2567M466.645 75.7253L474.819 58.3753M447.253 82.2567L421.66 66.0094M447.253 82.2567L399.608 87.5439M421.66 66.0094L399.608 87.5439M421.66 66.0094L415.446 46.7995M399.608 87.5439L375.82 86.4066M399.608 87.5439L383.699 75.2225" stroke="url(#paint2_radial_1792_2755)" stroke-opacity="0.75" stroke-width="2.90345"/>
<g opacity="0.46">
<path d="M434.345 60.7104L449.151 65.7143L444.374 79.8487L460.97 80.6421C454.167 86.7164 440.355 99.4721 439.535 101.9L444.374 79.8487L430.071 82.889L427.903 94.137L400.993 88.4243L371.058 55.0709L403.602 80.7068L382.005 41.563L406.914 53.2892L406.672 15.6303L418.785 43.9452L437.124 46.2876L434.345 60.7104Z" fill="url(#paint3_linear_1792_2755)" fill-opacity="0.29"/>
<path d="M407.808 99.4229L418.461 107.709L407.882 139.013L390.287 139.83L366.174 119.41L379.761 109.509L351.103 99.824L358.53 92.141L368.522 94.7367L385.284 91.8108L407.808 99.4229Z" fill="url(#paint4_linear_1792_2755)" fill-opacity="0.29"/>
<path d="M427.903 94.137L430.071 82.889M427.903 94.137L403.602 80.7068M427.903 94.137L422.213 82.2412M427.903 94.137L400.993 88.4243L371.058 55.0709M440.787 27.2839L437.124 46.2876M434.345 60.7104L449.151 65.7143M434.345 60.7104L430.071 82.889M434.345 60.7104L418.785 43.9452M434.345 60.7104L437.124 46.2876M449.151 65.7143L472.741 38.0829M449.151 65.7143L444.374 79.8487M444.374 79.8487L439.535 101.9C440.355 99.4721 454.167 86.7164 460.97 80.6421L444.374 79.8487ZM444.374 79.8487L430.071 82.889M430.071 82.889L422.213 82.2412M403.602 80.7068L422.213 82.2412M403.602 80.7068L382.005 41.563L406.914 53.2892L406.672 15.6303L418.785 43.9452M403.602 80.7068L371.058 55.0709M422.213 82.2412L418.785 43.9452M418.785 43.9452L437.124 46.2876M371.058 55.0709L376.695 42.9663M362.76 84.1987L385.284 91.8108M418.461 107.709L407.808 99.4229L385.284 91.8108M418.461 107.709L379.761 109.509M418.461 107.709L368.522 94.7367M418.461 107.709L407.882 139.013L390.287 139.83M379.761 109.509L351.103 99.8241L358.53 92.141L368.522 94.7367M379.761 109.509L368.522 94.7367M379.761 109.509L366.174 119.41M385.284 91.8108L368.522 94.7367M366.174 119.41L390.287 139.83M366.174 119.41L353.925 120.778M390.287 139.83L379.425 152.246" stroke="url(#paint5_radial_1792_2755)" stroke-width="2.90345"/>
</g>
<circle cx="438.696" cy="112.493" r="1.964" transform="rotate(-10.2395 438.696 112.493)" fill="black"/>
<circle cx="421.383" cy="102.42" r="1.964" transform="rotate(-10.2395 421.383 102.42)" fill="black"/>
<g filter="url(#filter1_d_1792_2755)">
<path d="M421.391 102.43L438.739 112.486" stroke="url(#paint6_linear_1792_2755)" stroke-width="12.8581" stroke-linecap="round"/>
</g>
<g style="mix-blend-mode:color-dodge">
<path d="M457.391 154.71L452.935 161.113L446.42 157.75L445.144 162.753L436.923 160.657L434.452 170.343L427.874 162.033L414.191 191.2L416.246 166.593L406.693 173.948L415.192 156.871L402.293 155.508L415.317 145.089L386.434 136.611L400.05 111.003L381.86 84.6486L416.341 85.8052L423.444 72.5842L418.052 67.9778L428.653 70.6816L436.107 43.5775L440.267 62.0642L437.347 83.8846C436.794 86.0491 441.744 73.0821 441.744 73.0821L450.182 63.5852L443.24 91.995L462.245 86.2226L454.205 92.9017L472.353 95.9124C474.84 95.5503 462.875 106.564 458.76 109.369L474.545 135.56L479.287 140.908L465.603 137.418L464.963 156.641L457.391 154.71Z" fill="url(#paint7_radial_1792_2755)"/>
</g>
<path d="M428.2 143.257L427.787 146.716C427.813 146.654 428.358 144.996 428.707 143.7C428.892 142.382 430.632 142.558 431.016 142.734L432.514 142.875C432.244 142.758 431 142.583 430.487 142.263C429.33 142.051 429.115 141.289 429.217 140.777L429.77 137.682C429.711 137.837 429.162 139.761 428.956 140.657C428.638 142.036 427.187 141.322 426.832 141.349L425.218 141.038C425.218 141.038 426.051 141.369 426.762 141.612C428.002 142.036 428.245 142.55 428.2 143.257Z" fill="white"/>
<path d="M456.677 109.552L456.264 113.01C456.29 112.949 456.834 111.29 457.184 109.995C457.368 108.677 459.109 108.852 459.493 109.028L460.991 109.169C460.721 109.052 459.476 108.878 458.964 108.557C457.806 108.345 457.592 107.584 457.693 107.071L458.246 103.976C458.188 104.131 457.639 106.055 457.433 106.951C457.115 108.331 455.664 107.617 455.309 107.643L453.694 107.332C453.694 107.332 454.528 107.664 455.238 107.906C456.479 108.33 456.721 108.844 456.677 109.552Z" fill="white"/>
<path d="M408.463 123.3L407.988 127.277C408.018 127.207 408.644 125.299 409.046 123.81C409.258 122.293 411.26 122.495 411.702 122.698L413.424 122.86C413.114 122.725 411.683 122.525 411.093 122.156C409.762 121.912 409.515 121.037 409.632 120.447L410.268 116.888C410.201 117.066 409.57 119.279 409.332 120.309C408.967 121.896 407.298 121.075 406.889 121.105L405.033 120.747C405.033 120.747 405.992 121.129 406.809 121.408C408.235 121.895 408.514 122.486 408.463 123.3Z" fill="white"/>
<path d="M450.344 121.394C451.808 120.842 459.802 119.014 464.591 116.81C468.329 115.086 471.818 108.443 468.644 103.547C464.516 97.1877 457.511 99.9914 457.511 99.9914C457.511 99.9914 457.936 97.1991 455.169 94.5293C451.684 91.1661 446.676 88.6448 441.822 87.0553C437.118 85.5117 432.61 84.6044 428.139 85.175C424.135 85.6872 423.11 88.0157 423.11 88.0157C423.11 88.0157 420.079 82.1804 413.373 83.7872C406.671 85.401 405.86 92.9419 407.507 96.7869C409.653 101.797 413.135 105.165 414.538 107.219C415.935 109.272 417.278 111.231 416.864 112.44C416.451 113.65 415.824 113.735 415.641 113.598C415.463 113.462 415.511 112.162 414.417 112.352C412.924 112.618 412.348 115.548 414.877 116.711C417.325 117.84 418.725 115.324 418.725 115.324L420.022 112.841L423.2 117.151L426.48 122.474L425.246 125.651C425.246 125.651 424.195 128.069 422.251 129.807C420.306 131.546 417.627 133.028 417.627 133.028L416.9 134.952L433.969 140.335L434.075 138.273C434.075 138.273 432.712 135.128 432.278 132.106C431.971 129.943 432.457 128.034 432.457 128.034L433.995 123.397L444.621 121.014C444.621 121.014 445.31 122.077 445.085 122.299C444.859 122.521 443.891 125.254 445.654 126.994C447.394 128.716 449.508 128.012 449.905 126.193C450.301 124.38 449.019 124.614 448.593 124.768C448.167 124.921 447.403 124.735 447.547 123.657C447.682 122.588 448.879 121.945 450.344 121.394ZM410.333 97.1141L410.412 90.3006L413.936 87.9459L416.937 88.08C416.937 88.08 419.534 91.8701 419.585 92.1234C419.637 92.3767 420.262 97.4131 420.262 97.4131L419.606 108.387L410.333 97.1141ZM447.147 118.686C447.26 118.489 453.416 108.831 453.416 108.831C453.459 108.707 455.547 108.484 455.605 108.314C455.663 108.144 460.757 103.934 460.757 103.934L466.142 106.009L465.426 111.807L461.164 115.363C461.168 115.37 447.035 118.878 447.147 118.686Z" fill="#FFEE00"/>
<path d="M467.144 110.629C468.381 105.694 464.027 102.925 461.839 102.953C459.65 102.982 457.939 103.852 456.874 105.557C456.012 106.936 455.321 107.815 454.866 107.832C454.367 107.846 453.983 107.64 453.983 107.64C453.983 107.64 455.019 104.372 455.487 103.071C456.459 100.392 457.519 99.9831 457.519 99.9831C457.519 99.9831 457.655 99.0122 457.477 98.3881C457.298 97.7692 456.871 96.899 456.871 96.899C456.871 96.899 456.577 98.2472 455.824 98.3294C455.072 98.4115 454.527 97.7194 454.527 97.7194L454.254 100.638C454.254 100.638 448.611 113.726 448.411 113.991C448.211 114.256 441.924 119.754 441.924 119.754C441.924 119.754 438.888 121.12 437.621 121.244C436.348 121.367 434.956 122.346 430.694 120.942C426.429 119.543 423.924 114.945 423.924 114.945L421.47 110.197L421.488 101.328L423.852 93.0929L425.028 90.2064L425.567 89.0165L425.589 88.3286C425.589 88.3286 425.119 88.559 424.522 88.1882C423.924 87.8173 423.962 86.8818 423.962 86.8818C423.962 86.8818 423.573 87.1971 423.458 87.3821C423.338 87.5652 423.128 88.011 423.128 88.011C423.128 88.011 423.577 88.9862 423.367 90.0874C423.158 91.1885 421.471 95.4699 420.76 95.1119C420.041 94.7574 421.535 91.192 419.167 88.8193C417.116 86.7621 413.311 85.8703 410.766 88.4043C408.227 90.9401 408.095 94.913 411.65 99.8697C415.205 104.826 419.247 109.352 419.122 112.31C418.977 115.83 416.181 116.996 416.181 116.996C416.181 116.996 417.815 117.313 419.153 115.902C419.585 115.446 419.947 114.69 420.143 114.234C421.128 117.157 422.82 119.925 425.627 121.942C426.672 122.753 427.935 123.414 429.788 124.047C430.056 124.139 430.322 124.218 430.588 124.297C432.781 124.96 434.774 125.187 436.874 124.91C439.682 124.616 442.147 123.544 444.263 122.094C444.064 122.543 443.953 123.793 444.182 124.888C444.583 126.813 446.15 127.458 446.15 127.458C446.15 127.458 444.395 125.41 445.902 122.464C447.408 119.518 449.833 119.116 453.615 118.177C457.408 117.237 465.901 115.562 467.144 110.629ZM414.038 100.082C412.979 98.622 410.982 96.4741 410.657 94.1269C410.226 90.9962 412.42 88.1413 415.109 88.6172C420.696 89.5945 418.544 96.2119 418.622 97.1294C418.699 98.0469 419.68 98.4395 419.68 98.4395C419.68 98.4395 419.565 98.8946 419.417 99.7983C419.414 99.8258 419.412 99.8482 419.403 99.8739L419.392 99.9564C419.291 100.572 419.182 101.345 419.095 102.24L419.089 102.308C419.037 102.813 418.999 103.294 418.979 103.741C418.924 104.677 418.897 105.697 418.929 106.765C418.534 106.239 416.282 103.188 414.038 100.082ZM463.336 112.789C461.618 114.202 458.923 114.771 456.887 115.329C454.262 116.047 450.349 117.136 449.245 117.438C449.638 116.962 450.002 116.483 450.348 116.009C450.855 115.401 451.43 114.643 451.941 113.788C453.282 111.545 454.092 109.459 454.092 109.459C454.092 109.459 455.04 110.116 455.928 109.638C456.816 109.159 457.8 107.069 458.757 106.252C460.251 104.975 462.714 103.977 464.883 106.948C466.135 108.669 465.368 111.115 463.336 112.789ZM428.007 125.238L430.928 126.196C430.928 126.196 429.92 129.398 429.57 131.923C429.217 134.452 428.929 137.297 428.929 137.297C428.929 137.297 422.325 137.26 423.093 135.131C423.86 133.002 426.165 129.133 426.165 129.133C426.165 129.133 428.397 124.348 428.007 125.238Z" fill="#EDB000"/>
<path d="M434.394 90.5615C434.394 90.5615 437.757 91.3021 440.753 92.3771C443.748 93.4522 446.645 95.1028 446.645 95.1028C446.645 95.1028 443.022 105.121 440.538 110.59C438.06 116.061 434.471 119.566 433.49 120.57C432.542 121.546 431.928 122.031 431.928 122.031L429.14 120.7L427.564 108.906L434.394 90.5615Z" fill="#EDB000"/>
<path d="M430.001 90.7452C430.001 90.7452 431.068 90.5983 432.562 90.5509C433.916 90.5076 435.045 90.7379 435.045 90.7379C435.045 90.7379 432.793 97.4303 431.273 102.234C429.978 106.327 429.207 113.497 429.33 115.528C429.453 117.559 429.842 120.727 429.842 120.727C429.842 120.727 427.321 119.44 426.396 116.814C425.909 115.429 424.773 105.613 426.534 100C428.296 94.3882 430.182 90.652 430.001 90.7452Z" fill="black"/>
<path d="M430.001 90.7452C430.001 90.7452 431.068 90.5983 432.562 90.5509C433.916 90.5076 435.045 90.7379 435.045 90.7379C435.045 90.7379 432.793 97.4303 431.273 102.234C429.978 106.327 429.207 113.497 429.33 115.528C429.453 117.559 429.842 120.727 429.842 120.727C429.842 120.727 427.321 119.44 426.396 116.814C425.909 115.429 424.773 105.613 426.534 100C428.296 94.3882 430.182 90.652 430.001 90.7452Z" fill="#FFF7E5"/>
<path d="M428.245 91.0068C428.059 91.2479 425.369 96.7501 424.684 102.472C424 108.194 424.437 112.418 425.055 114.245C425.605 115.864 426.041 116.692 426.407 116.816C426.772 116.941 426.414 111.881 426.729 108.114C427.048 104.354 428.009 100.043 428.616 97.9629C429.225 95.8773 430.945 90.5555 430.945 90.5555C430.945 90.5555 429.785 90.6707 429.513 90.7272C429.239 90.7888 428.245 91.0068 428.245 91.0068Z" fill="#FFFCFD"/>
<path d="M420.822 134.11C420.822 134.11 423.874 131.588 425.112 129.309C426.35 127.03 427.308 124.966 427.308 124.966L428.506 125.433C428.506 125.433 427.19 128.898 426.24 131.224C425.29 133.549 424.089 135.737 424.089 135.737L420.822 134.11Z" fill="black"/>
<path d="M420.822 134.11C420.822 134.11 423.874 131.588 425.112 129.309C426.35 127.03 427.308 124.966 427.308 124.966L428.506 125.433C428.506 125.433 427.19 128.898 426.24 131.224C425.29 133.549 424.089 135.737 424.089 135.737L420.822 134.11Z" fill="#FFF7E5"/>
<path d="M426.498 122.482C426.498 122.482 427.714 121.902 430.221 122.759C432.727 123.615 433.475 124.945 433.475 124.945L432.485 128.062C432.485 128.062 430.994 126.972 428.975 126.254C427.293 125.656 425.262 125.664 425.262 125.664L426.498 122.482ZM426.045 88.0141C426.601 87.7671 431.685 86.112 441.293 89.3022C451.63 92.7301 454.477 97.0365 454.662 97.2838C454.874 97.5572 454.911 98.4899 454.653 98.8097C454.389 99.1277 454.07 99.1683 453.407 98.5854C452.739 98.0007 449.864 93.8971 440.551 91.0377C431.608 88.2876 426.936 89.698 426.462 89.7891C426.081 89.8602 425.474 89.7043 425.326 89.2456C425.171 88.7903 425.684 88.1783 426.045 88.0141ZM454.232 100.04C453.017 99.7282 450.578 109.542 446.032 114.657C441.162 120.127 437.111 120.778 437.125 121.191C437.139 121.604 440.842 121.737 443.983 119.458C446.894 117.348 448.92 115.287 450.593 112.191C452.256 109.091 455.585 100.387 454.232 100.04ZM424.687 91.1659C424.394 91.0485 423.072 95.9088 421.875 97.8335C421.415 98.5733 420.906 98.5832 420.798 98.7476C420.69 98.9119 419.639 105.388 420.466 108.671C421.267 111.848 423.491 116.223 424.223 115.864C424.955 115.505 422.614 112.664 421.968 108.011C421.592 105.342 421.589 101.513 422.883 97.5744C423.738 94.9693 425.313 91.42 424.687 91.1659Z" fill="#9E7402"/>
<path d="M435.635 147.045C435.635 147.045 440.939 140.869 438.143 139.687C429.66 136.102 423.972 134.03 414.53 131.621C411.651 130.886 412.502 137.608 412.013 139.005C412.013 139.005 409.105 136.547 408.657 137.858C407.969 139.873 406.837 143.186 406.837 143.186L436.823 153.429C436.823 153.429 437.955 150.116 438.643 148.101C439.046 146.923 435.635 147.045 435.635 147.045Z" fill="#261032"/>
<path d="M38.0523 99.9995V81.9675H48.7483C50.5963 81.9675 52.0243 82.4062 53.0323 83.2835C54.0589 84.1608 54.5723 85.4208 54.5723 87.0635C54.5723 87.9595 54.4136 88.7248 54.0963 89.3595C53.7976 89.9942 53.3963 90.4982 52.8923 90.8715C53.6016 91.2075 54.1616 91.6462 54.5723 92.1875C54.9829 92.7102 55.1883 93.4942 55.1883 94.5395C55.1883 96.2382 54.6283 97.5728 53.5083 98.5435C52.4069 99.5142 50.8576 99.9995 48.8603 99.9995H38.0523ZM44.4083 88.8835H46.9283C47.8243 88.8835 48.2723 88.4822 48.2723 87.6795C48.2723 86.9328 47.8243 86.5595 46.9283 86.5595H44.4083V88.8835ZM44.4083 95.4075H46.9283C47.8243 95.4075 48.2723 95.0062 48.2723 94.2035C48.2723 93.4568 47.8243 93.0835 46.9283 93.0835H44.4083V95.4075ZM64.1546 100.28C62.5866 100.28 61.1773 100.018 59.9266 99.4955C58.6946 98.9728 57.7146 98.2075 56.9866 97.1995C56.2586 96.1728 55.8946 94.9128 55.8946 93.4195C55.8946 91.3102 56.5199 89.6208 57.7706 88.3515C59.0399 87.0822 60.9253 86.4475 63.4266 86.4475C65.7039 86.4475 67.5239 87.0075 68.8866 88.1275C70.2493 89.2475 70.9306 90.8435 70.9306 92.9155V95.1835H62.0826C62.3626 95.5382 62.8199 95.8182 63.4546 96.0235C64.1079 96.2102 64.9479 96.3035 65.9746 96.3035C66.8146 96.3035 67.6266 96.2382 68.4106 96.1075C69.1946 95.9582 69.8106 95.7995 70.2586 95.6315V99.2715C68.8586 99.9435 66.8239 100.28 64.1546 100.28ZM62.0826 91.7955H65.1346V91.5435C65.1346 91.2822 65.0319 91.0395 64.8266 90.8155C64.6213 90.5728 64.2293 90.4515 63.6506 90.4515C63.0906 90.4515 62.6893 90.5822 62.4466 90.8435C62.2039 91.1048 62.0826 91.4222 62.0826 91.7955ZM77.9166 100.28C76.6473 100.28 75.4526 100.186 74.3326 99.9995C73.2126 99.8128 72.3539 99.5888 71.7566 99.3275V95.0435C72.2046 95.2675 72.7273 95.4635 73.3246 95.6315C73.9219 95.7995 74.5099 95.9302 75.0886 96.0235C75.6859 96.1168 76.1806 96.1635 76.5726 96.1635C77.0019 96.1635 77.3566 96.1542 77.6366 96.1355C77.9353 96.1168 78.0846 96.0235 78.0846 95.8555C78.0846 95.7062 77.9353 95.5848 77.6366 95.4915C77.3379 95.3982 76.9553 95.2955 76.4886 95.1835C76.0406 95.0715 75.5739 94.9315 75.0886 94.7635C73.8753 94.3155 72.9979 93.8115 72.4566 93.2515C71.9153 92.6728 71.6446 91.8515 71.6446 90.7875C71.6446 89.3688 72.2326 88.2955 73.4086 87.5675C74.5846 86.8208 76.3859 86.4475 78.8126 86.4475C79.4099 86.4475 80.0633 86.4848 80.7726 86.5595C81.4819 86.6155 82.1446 86.6902 82.7606 86.7835C83.3953 86.8768 83.8993 86.9888 84.2726 87.1195V91.3755C83.6753 91.1142 83.0313 90.9182 82.3406 90.7875C81.6499 90.6382 81.0433 90.5635 80.5206 90.5635C80.2593 90.5635 79.9699 90.5728 79.6526 90.5915C79.3539 90.5915 79.0926 90.6195 78.8686 90.6755C78.6633 90.7128 78.5606 90.7968 78.5606 90.9275C78.5606 91.1142 78.8406 91.2635 79.4006 91.3755C79.9793 91.4688 80.6139 91.6182 81.3046 91.8235C82.2753 92.1035 83.0219 92.4208 83.5446 92.7755C84.0859 93.1115 84.4593 93.5315 84.6646 94.0355C84.8886 94.5208 85.0006 95.1275 85.0006 95.8555C85.0006 97.2182 84.4033 98.3008 83.2086 99.1035C82.0139 99.8875 80.2499 100.28 77.9166 100.28ZM92.2579 100.28C90.2232 100.28 88.7672 99.7848 87.8899 98.7955C87.0312 97.8062 86.6019 96.4715 86.6019 94.7915V91.5995H85.0059V86.7275H86.6019V84.1235L93.3779 82.7515V86.7275H96.0939L95.9539 91.5995H93.3779V94.4275C93.3779 95.2115 93.8165 95.6035 94.6939 95.6035C95.2725 95.6035 95.8325 95.5102 96.3739 95.3235V99.5235C95.7952 99.7662 95.1792 99.9528 94.5259 100.084C93.8725 100.214 93.1165 100.28 92.2579 100.28ZM112.77 100.28C109.372 100.28 106.768 99.4955 104.958 97.9275C103.166 96.3595 102.27 94.0448 102.27 90.9835C102.27 87.9222 103.212 85.6075 105.098 84.0395C106.983 82.4715 109.699 81.6875 113.246 81.6875C114.403 81.6875 115.439 81.7528 116.354 81.8835C117.287 81.9955 118.183 82.2008 119.042 82.4995V88.2675C118.183 87.9315 117.306 87.7075 116.41 87.5955C115.532 87.4648 114.627 87.3995 113.694 87.3995C112.387 87.3995 111.304 87.6608 110.446 88.1835C109.606 88.6875 109.186 89.6208 109.186 90.9835C109.186 92.3462 109.484 93.2888 110.082 93.8115C110.698 94.3155 111.575 94.5675 112.714 94.5675C113.311 94.5675 113.871 94.5022 114.394 94.3715V93.2795H111.398V89.1915H119.994V98.5155C119.228 98.9822 118.248 99.3928 117.054 99.7475C115.859 100.102 114.431 100.28 112.77 100.28ZM122.211 85.6355V80.9595H129.463V85.6355H122.211ZM122.687 99.9995V91.5995H120.839L121.399 86.7275H129.463V99.9995H122.687ZM131.431 99.9995V86.7275H138.067L138.207 87.4835C138.693 87.2222 139.327 86.9888 140.111 86.7835C140.914 86.5595 141.745 86.4475 142.603 86.4475V91.4315C141.913 91.4315 141.138 91.4782 140.279 91.5715C139.421 91.6648 138.73 91.8048 138.207 91.9915V99.9995H131.431ZM149.193 100.28C147.233 100.28 145.851 99.8875 145.049 99.1035C144.265 98.3195 143.873 97.1062 143.873 95.4635V81.1275H150.649V94.5675C150.649 94.9222 150.714 95.1835 150.845 95.3515C150.994 95.5195 151.255 95.6035 151.629 95.6035C152.151 95.6035 152.618 95.5195 153.029 95.3515V99.5515C152.45 99.7942 151.899 99.9715 151.377 100.084C150.854 100.214 150.126 100.28 149.193 100.28ZM159.866 100.28C158.596 100.28 157.402 100.186 156.282 99.9995C155.162 99.8128 154.303 99.5888 153.706 99.3275V95.0435C154.154 95.2675 154.676 95.4635 155.274 95.6315C155.871 95.7995 156.459 95.9302 157.038 96.0235C157.635 96.1168 158.13 96.1635 158.522 96.1635C158.951 96.1635 159.306 96.1542 159.586 96.1355C159.884 96.1168 160.034 96.0235 160.034 95.8555C160.034 95.7062 159.884 95.5848 159.586 95.4915C159.287 95.3982 158.904 95.2955 158.438 95.1835C157.99 95.0715 157.523 94.9315 157.038 94.7635C155.824 94.3155 154.947 93.8115 154.406 93.2515C153.864 92.6728 153.594 91.8515 153.594 90.7875C153.594 89.3688 154.182 88.2955 155.358 87.5675C156.534 86.8208 158.335 86.4475 160.762 86.4475C161.359 86.4475 162.012 86.4848 162.722 86.5595C163.431 86.6155 164.094 86.6902 164.71 86.7835C165.344 86.8768 165.848 86.9888 166.222 87.1195V91.3755C165.624 91.1142 164.98 90.9182 164.29 90.7875C163.599 90.6382 162.992 90.5635 162.47 90.5635C162.208 90.5635 161.919 90.5728 161.602 90.5915C161.303 90.5915 161.042 90.6195 160.818 90.6755C160.612 90.7128 160.51 90.7968 160.51 90.9275C160.51 91.1142 160.79 91.2635 161.35 91.3755C161.928 91.4688 162.563 91.6182 163.254 91.8235C164.224 92.1035 164.971 92.4208 165.494 92.7755C166.035 93.1115 166.408 93.5315 166.614 94.0355C166.838 94.5208 166.95 95.1275 166.95 95.8555C166.95 97.2182 166.352 98.3008 165.158 99.1035C163.963 99.8875 162.199 100.28 159.866 100.28ZM177.426 99.9995V86.8395H172.834V81.9675H188.794V86.8395H184.202V99.9995H177.426ZM195.951 100.28C194.383 100.28 192.974 100.018 191.723 99.4955C190.491 98.9728 189.511 98.2075 188.783 97.1995C188.055 96.1728 187.691 94.9128 187.691 93.4195C187.691 91.3102 188.317 89.6208 189.567 88.3515C190.837 87.0822 192.722 86.4475 195.223 86.4475C197.501 86.4475 199.321 87.0075 200.683 88.1275C202.046 89.2475 202.727 90.8435 202.727 92.9155V95.1835H193.879C194.159 95.5382 194.617 95.8182 195.251 96.0235C195.905 96.2102 196.745 96.3035 197.771 96.3035C198.611 96.3035 199.423 96.2382 200.207 96.1075C200.991 95.9582 201.607 95.7995 202.055 95.6315V99.2715C200.655 99.9435 198.621 100.28 195.951 100.28ZM193.879 91.7955H196.931V91.5435C196.931 91.2822 196.829 91.0395 196.623 90.8155C196.418 90.5728 196.026 90.4515 195.447 90.4515C194.887 90.4515 194.486 90.5822 194.243 90.8435C194.001 91.1048 193.879 91.4222 193.879 91.7955ZM208.254 100.28C207.414 100.28 206.64 100.13 205.93 99.8315C205.221 99.5328 204.652 99.0568 204.222 98.4035C203.793 97.7502 203.578 96.9008 203.578 95.8555C203.578 94.3622 204.045 93.2328 204.978 92.4675C205.93 91.7022 207.386 91.3195 209.346 91.3195H212.314V91.1795C212.314 90.9742 212.118 90.7968 211.726 90.6475C211.334 90.4795 210.737 90.3955 209.934 90.3955C209.225 90.3955 208.45 90.4608 207.61 90.5915C206.789 90.7035 206.005 90.8715 205.258 91.0955V87.4555C205.986 87.1382 206.91 86.8955 208.03 86.7275C209.169 86.5408 210.252 86.4475 211.278 86.4475C212.753 86.4475 214.05 86.6528 215.17 87.0635C216.29 87.4555 217.168 88.0715 217.802 88.9115C218.437 89.7328 218.754 90.7875 218.754 92.0755V99.9995H212.818L212.538 99.0475C212.09 99.4022 211.512 99.7008 210.802 99.9435C210.112 100.168 209.262 100.28 208.254 100.28ZM210.802 96.5835C211.157 96.5835 211.446 96.5275 211.67 96.4155C211.913 96.3035 212.128 96.1542 212.314 95.9675V94.7355H211.082C210.242 94.7355 209.822 95.0435 209.822 95.6595C209.822 96.2755 210.149 96.5835 210.802 96.5835ZM220.572 99.9995V86.7275H226.844L226.984 87.5395C227.506 87.2408 228.104 86.9888 228.776 86.7835C229.448 86.5595 230.213 86.4475 231.072 86.4475C231.856 86.4475 232.472 86.5502 232.92 86.7555C233.386 86.9608 233.769 87.2688 234.068 87.6795C234.665 87.3062 235.318 87.0075 236.028 86.7835C236.756 86.5595 237.605 86.4475 238.576 86.4475C240.162 86.4475 241.31 86.8675 242.02 87.7075C242.729 88.5288 243.084 89.7795 243.084 91.4595V99.9995H236.448V92.2715C236.448 91.9728 236.392 91.7582 236.28 91.6275C236.186 91.4968 235.981 91.4315 235.664 91.4315C235.365 91.4315 235.104 91.5528 234.88 91.7955V99.9995H228.636V92.1035C228.636 91.6555 228.43 91.4315 228.02 91.4315C227.665 91.4315 227.348 91.5995 227.068 91.9355V99.9995H220.572Z" fill="white"/>
<path d="M45.046 119.574C45.718 119.694 46.288 120.048 46.756 120.636C47.224 121.224 47.458 121.89 47.458 122.634C47.458 123.27 47.29 123.846 46.954 124.362C46.63 124.866 46.156 125.268 45.532 125.568C44.908 125.856 44.182 126 43.354 126H38.35V113.49H43.12C43.972 113.49 44.704 113.634 45.316 113.922C45.928 114.21 46.39 114.6 46.702 115.092C47.014 115.572 47.17 116.112 47.17 116.712C47.17 117.432 46.978 118.032 46.594 118.512C46.21 118.992 45.694 119.346 45.046 119.574ZM40.402 118.746H42.94C43.612 118.746 44.134 118.596 44.506 118.296C44.89 117.984 45.082 117.54 45.082 116.964C45.082 116.4 44.89 115.962 44.506 115.65C44.134 115.326 43.612 115.164 42.94 115.164H40.402V118.746ZM43.174 124.326C43.87 124.326 44.416 124.158 44.812 123.822C45.208 123.486 45.406 123.018 45.406 122.418C45.406 121.806 45.196 121.32 44.776 120.96C44.356 120.6 43.798 120.42 43.102 120.42H40.402V124.326H43.174ZM58.5979 120.798C58.5979 121.17 58.5739 121.506 58.5259 121.806H50.9479C51.0079 122.598 51.3019 123.234 51.8299 123.714C52.3579 124.194 53.0059 124.434 53.7739 124.434C54.8779 124.434 55.6579 123.972 56.1139 123.048H58.3279C58.0279 123.96 57.4819 124.71 56.6899 125.298C55.9099 125.874 54.9379 126.162 53.7739 126.162C52.8259 126.162 51.9739 125.952 51.2179 125.532C50.4739 125.1 49.8859 124.5 49.4539 123.732C49.0339 122.952 48.8239 122.052 48.8239 121.032C48.8239 120.012 49.0279 119.118 49.4359 118.35C49.8559 117.57 50.4379 116.97 51.1819 116.55C51.9379 116.13 52.8019 115.92 53.7739 115.92C54.7099 115.92 55.5439 116.124 56.2759 116.532C57.0079 116.94 57.5779 117.516 57.9859 118.26C58.3939 118.992 58.5979 119.838 58.5979 120.798ZM56.4559 120.15C56.4439 119.394 56.1739 118.788 55.6459 118.332C55.1179 117.876 54.4639 117.648 53.6839 117.648C52.9759 117.648 52.3699 117.876 51.8659 118.332C51.3619 118.776 51.0619 119.382 50.9659 120.15H56.4559ZM64.0373 126.162C63.2573 126.162 62.5553 126.024 61.9313 125.748C61.3193 125.46 60.8333 125.076 60.4733 124.596C60.1133 124.104 59.9213 123.558 59.8973 122.958H62.0213C62.0573 123.378 62.2553 123.732 62.6153 124.02C62.9873 124.296 63.4493 124.434 64.0013 124.434C64.5773 124.434 65.0213 124.326 65.3333 124.11C65.6573 123.882 65.8193 123.594 65.8193 123.246C65.8193 122.874 65.6393 122.598 65.2793 122.418C64.9313 122.238 64.3733 122.04 63.6053 121.824C62.8613 121.62 62.2553 121.422 61.7873 121.23C61.3193 121.038 60.9113 120.744 60.5633 120.348C60.2273 119.952 60.0593 119.43 60.0593 118.782C60.0593 118.254 60.2153 117.774 60.5273 117.342C60.8393 116.898 61.2833 116.55 61.8593 116.298C62.4473 116.046 63.1193 115.92 63.8753 115.92C65.0033 115.92 65.9093 116.208 66.5933 116.784C67.2893 117.348 67.6613 118.122 67.7093 119.106H65.6573C65.6213 118.662 65.4413 118.308 65.1173 118.044C64.7933 117.78 64.3553 117.648 63.8033 117.648C63.2633 117.648 62.8493 117.75 62.5613 117.954C62.2733 118.158 62.1293 118.428 62.1293 118.764C62.1293 119.028 62.2253 119.25 62.4173 119.43C62.6093 119.61 62.8433 119.754 63.1193 119.862C63.3953 119.958 63.8033 120.084 64.3433 120.24C65.0633 120.432 65.6513 120.63 66.1073 120.834C66.5753 121.026 66.9773 121.314 67.3133 121.698C67.6493 122.082 67.8233 122.592 67.8353 123.228C67.8353 123.792 67.6793 124.296 67.3673 124.74C67.0553 125.184 66.6113 125.532 66.0353 125.784C65.4713 126.036 64.8053 126.162 64.0373 126.162ZM72.2665 117.756V123.246C72.2665 123.618 72.3505 123.888 72.5185 124.056C72.6985 124.212 72.9985 124.29 73.4185 124.29H74.6785V126H73.0585C72.1345 126 71.4265 125.784 70.9345 125.352C70.4425 124.92 70.1965 124.218 70.1965 123.246V117.756H69.0265V116.082H70.1965V113.616H72.2665V116.082H74.6785V117.756H72.2665ZM82.9375 117.54C83.2855 117.084 83.7595 116.7 84.3595 116.388C84.9595 116.076 85.6375 115.92 86.3935 115.92C87.2575 115.92 88.0435 116.136 88.7515 116.568C89.4715 116.988 90.0355 117.582 90.4435 118.35C90.8515 119.118 91.0555 120 91.0555 120.996C91.0555 121.992 90.8515 122.886 90.4435 123.678C90.0355 124.458 89.4715 125.07 88.7515 125.514C88.0435 125.946 87.2575 126.162 86.3935 126.162C85.6375 126.162 84.9655 126.012 84.3775 125.712C83.7895 125.4 83.3095 125.016 82.9375 124.56V130.716H80.8855V116.082H82.9375V117.54ZM88.9675 120.996C88.9675 120.312 88.8235 119.724 88.5355 119.232C88.2595 118.728 87.8875 118.35 87.4195 118.098C86.9635 117.834 86.4715 117.702 85.9435 117.702C85.4275 117.702 84.9355 117.834 84.4675 118.098C84.0115 118.362 83.6395 118.746 83.3515 119.25C83.0755 119.754 82.9375 120.348 82.9375 121.032C82.9375 121.716 83.0755 122.316 83.3515 122.832C83.6395 123.336 84.0115 123.72 84.4675 123.984C84.9355 124.248 85.4275 124.38 85.9435 124.38C86.4715 124.38 86.9635 124.248 87.4195 123.984C87.8875 123.708 88.2595 123.312 88.5355 122.796C88.8235 122.28 88.9675 121.68 88.9675 120.996ZM101.995 120.798C101.995 121.17 101.971 121.506 101.923 121.806H94.3448C94.4048 122.598 94.6988 123.234 95.2268 123.714C95.7548 124.194 96.4028 124.434 97.1708 124.434C98.2748 124.434 99.0548 123.972 99.5108 123.048H101.725C101.425 123.96 100.879 124.71 100.087 125.298C99.3068 125.874 98.3348 126.162 97.1708 126.162C96.2228 126.162 95.3708 125.952 94.6148 125.532C93.8708 125.1 93.2828 124.5 92.8508 123.732C92.4308 122.952 92.2208 122.052 92.2208 121.032C92.2208 120.012 92.4248 119.118 92.8328 118.35C93.2528 117.57 93.8348 116.97 94.5788 116.55C95.3348 116.13 96.1988 115.92 97.1708 115.92C98.1068 115.92 98.9408 116.124 99.6728 116.532C100.405 116.94 100.975 117.516 101.383 118.26C101.791 118.992 101.995 119.838 101.995 120.798ZM99.8528 120.15C99.8408 119.394 99.5708 118.788 99.0428 118.332C98.5148 117.876 97.8608 117.648 97.0808 117.648C96.3728 117.648 95.7668 117.876 95.2628 118.332C94.7588 118.776 94.4588 119.382 94.3628 120.15H99.8528ZM105.886 117.522C106.186 117.018 106.582 116.628 107.074 116.352C107.578 116.064 108.172 115.92 108.856 115.92V118.044H108.334C107.53 118.044 106.918 118.248 106.498 118.656C106.09 119.064 105.886 119.772 105.886 120.78V126H103.834V116.082H105.886V117.522ZM114.72 117.756H112.884V126H110.814V117.756H109.644V116.082H110.814V115.38C110.814 114.24 111.114 113.412 111.714 112.896C112.326 112.368 113.28 112.104 114.576 112.104V113.814C113.952 113.814 113.514 113.934 113.262 114.174C113.01 114.402 112.884 114.804 112.884 115.38V116.082H114.72V117.756ZM120.661 126.162C119.725 126.162 118.879 125.952 118.123 125.532C117.367 125.1 116.773 124.5 116.341 123.732C115.909 122.952 115.693 122.052 115.693 121.032C115.693 120.024 115.915 119.13 116.359 118.35C116.803 117.57 117.409 116.97 118.177 116.55C118.945 116.13 119.803 115.92 120.751 115.92C121.699 115.92 122.557 116.13 123.325 116.55C124.093 116.97 124.699 117.57 125.143 118.35C125.587 119.13 125.809 120.024 125.809 121.032C125.809 122.04 125.581 122.934 125.125 123.714C124.669 124.494 124.045 125.1 123.253 125.532C122.473 125.952 121.609 126.162 120.661 126.162ZM120.661 124.38C121.189 124.38 121.681 124.254 122.137 124.002C122.605 123.75 122.983 123.372 123.271 122.868C123.559 122.364 123.703 121.752 123.703 121.032C123.703 120.312 123.565 119.706 123.289 119.214C123.013 118.71 122.647 118.332 122.191 118.08C121.735 117.828 121.243 117.702 120.715 117.702C120.187 117.702 119.695 117.828 119.239 118.08C118.795 118.332 118.441 118.71 118.177 119.214C117.913 119.706 117.781 120.312 117.781 121.032C117.781 122.1 118.051 122.928 118.591 123.516C119.143 124.092 119.833 124.38 120.661 124.38ZM129.709 117.522C130.009 117.018 130.405 116.628 130.897 116.352C131.401 116.064 131.995 115.92 132.679 115.92V118.044H132.157C131.353 118.044 130.741 118.248 130.321 118.656C129.913 119.064 129.709 119.772 129.709 120.78V126H127.657V116.082H129.709V117.522ZM146.392 115.92C147.172 115.92 147.868 116.082 148.48 116.406C149.104 116.73 149.59 117.21 149.938 117.846C150.298 118.482 150.478 119.25 150.478 120.15V126H148.444V120.456C148.444 119.568 148.222 118.89 147.778 118.422C147.334 117.942 146.728 117.702 145.96 117.702C145.192 117.702 144.58 117.942 144.124 118.422C143.68 118.89 143.458 119.568 143.458 120.456V126H141.424V120.456C141.424 119.568 141.202 118.89 140.758 118.422C140.314 117.942 139.708 117.702 138.94 117.702C138.172 117.702 137.56 117.942 137.104 118.422C136.66 118.89 136.438 119.568 136.438 120.456V126H134.386V116.082H136.438V117.216C136.774 116.808 137.2 116.49 137.716 116.262C138.232 116.034 138.784 115.92 139.372 115.92C140.164 115.92 140.872 116.088 141.496 116.424C142.12 116.76 142.6 117.246 142.936 117.882C143.236 117.282 143.704 116.808 144.34 116.46C144.976 116.1 145.66 115.92 146.392 115.92ZM153.953 114.768C153.581 114.768 153.269 114.642 153.017 114.39C152.765 114.138 152.639 113.826 152.639 113.454C152.639 113.082 152.765 112.77 153.017 112.518C153.269 112.266 153.581 112.14 153.953 112.14C154.313 112.14 154.619 112.266 154.871 112.518C155.123 112.77 155.249 113.082 155.249 113.454C155.249 113.826 155.123 114.138 154.871 114.39C154.619 114.642 154.313 114.768 153.953 114.768ZM154.961 116.082V126H152.909V116.082H154.961ZM162.479 115.92C163.259 115.92 163.955 116.082 164.567 116.406C165.191 116.73 165.677 117.21 166.025 117.846C166.373 118.482 166.547 119.25 166.547 120.15V126H164.513V120.456C164.513 119.568 164.291 118.89 163.847 118.422C163.403 117.942 162.797 117.702 162.029 117.702C161.261 117.702 160.649 117.942 160.193 118.422C159.749 118.89 159.527 119.568 159.527 120.456V126H157.475V116.082H159.527V117.216C159.863 116.808 160.289 116.49 160.805 116.262C161.333 116.034 161.891 115.92 162.479 115.92ZM172.98 115.92C173.748 115.92 174.426 116.076 175.014 116.388C175.614 116.688 176.082 117.066 176.418 117.522V116.082H178.488V126.162C178.488 127.074 178.296 127.884 177.912 128.592C177.528 129.312 176.97 129.876 176.238 130.284C175.518 130.692 174.654 130.896 173.646 130.896C172.302 130.896 171.186 130.578 170.298 129.942C169.41 129.318 168.906 128.466 168.786 127.386H170.82C170.976 127.902 171.306 128.316 171.81 128.628C172.326 128.952 172.938 129.114 173.646 129.114C174.474 129.114 175.14 128.862 175.644 128.358C176.16 127.854 176.418 127.122 176.418 126.162V124.506C176.07 124.974 175.596 125.37 174.996 125.694C174.408 126.006 173.736 126.162 172.98 126.162C172.116 126.162 171.324 125.946 170.604 125.514C169.896 125.07 169.332 124.458 168.912 123.678C168.504 122.886 168.3 121.992 168.3 120.996C168.3 120 168.504 119.118 168.912 118.35C169.332 117.582 169.896 116.988 170.604 116.568C171.324 116.136 172.116 115.92 172.98 115.92ZM176.418 121.032C176.418 120.348 176.274 119.754 175.986 119.25C175.71 118.746 175.344 118.362 174.888 118.098C174.432 117.834 173.94 117.702 173.412 117.702C172.884 117.702 172.392 117.834 171.936 118.098C171.48 118.35 171.108 118.728 170.82 119.232C170.544 119.724 170.406 120.312 170.406 120.996C170.406 121.68 170.544 122.28 170.82 122.796C171.108 123.312 171.48 123.708 171.936 123.984C172.404 124.248 172.896 124.38 173.412 124.38C173.94 124.38 174.432 124.248 174.888 123.984C175.344 123.72 175.71 123.336 175.986 122.832C176.274 122.316 176.418 121.716 176.418 121.032ZM193.041 123.444H187.803L186.903 126H184.761L189.243 113.472H191.619L196.101 126H193.941L193.041 123.444ZM192.465 121.77L190.431 115.956L188.379 121.77H192.465ZM199.922 112.68V126H197.87V112.68H199.922ZM204.488 112.68V126H202.436V112.68H204.488ZM214.616 118.62V120.348H207.218V118.62H214.616ZM226.406 117.09C226.082 116.466 225.632 115.998 225.056 115.686C224.48 115.362 223.814 115.2 223.058 115.2C222.23 115.2 221.492 115.386 220.844 115.758C220.196 116.13 219.686 116.658 219.314 117.342C218.954 118.026 218.774 118.818 218.774 119.718C218.774 120.618 218.954 121.416 219.314 122.112C219.686 122.796 220.196 123.324 220.844 123.696C221.492 124.068 222.23 124.254 223.058 124.254C224.174 124.254 225.08 123.942 225.776 123.318C226.472 122.694 226.898 121.848 227.054 120.78H222.356V119.142H229.25V120.744C229.118 121.716 228.77 122.61 228.206 123.426C227.654 124.242 226.928 124.896 226.028 125.388C225.14 125.868 224.15 126.108 223.058 126.108C221.882 126.108 220.808 125.838 219.836 125.298C218.864 124.746 218.09 123.984 217.514 123.012C216.95 122.04 216.668 120.942 216.668 119.718C216.668 118.494 216.95 117.396 217.514 116.424C218.09 115.452 218.864 114.696 219.836 114.156C220.82 113.604 221.894 113.328 223.058 113.328C224.39 113.328 225.572 113.658 226.604 114.318C227.648 114.966 228.404 115.89 228.872 117.09H226.406ZM232.137 114.768C231.765 114.768 231.453 114.642 231.201 114.39C230.949 114.138 230.823 113.826 230.823 113.454C230.823 113.082 230.949 112.77 231.201 112.518C231.453 112.266 231.765 112.14 232.137 112.14C232.497 112.14 232.803 112.266 233.055 112.518C233.307 112.77 233.433 113.082 233.433 113.454C233.433 113.826 233.307 114.138 233.055 114.39C232.803 114.642 232.497 114.768 232.137 114.768ZM233.145 116.082V126H231.093V116.082H233.145ZM237.712 117.522C238.012 117.018 238.408 116.628 238.9 116.352C239.404 116.064 239.998 115.92 240.682 115.92V118.044H240.16C239.356 118.044 238.744 118.248 238.324 118.656C237.916 119.064 237.712 119.772 237.712 120.78V126H235.66V116.082H237.712V117.522ZM244.44 112.68V126H242.388V112.68H244.44ZM250.554 126.162C249.774 126.162 249.072 126.024 248.448 125.748C247.836 125.46 247.35 125.076 246.99 124.596C246.63 124.104 246.438 123.558 246.414 122.958H248.538C248.574 123.378 248.772 123.732 249.132 124.02C249.504 124.296 249.966 124.434 250.518 124.434C251.094 124.434 251.538 124.326 251.85 124.11C252.174 123.882 252.336 123.594 252.336 123.246C252.336 122.874 252.156 122.598 251.796 122.418C251.448 122.238 250.89 122.04 250.122 121.824C249.378 121.62 248.772 121.422 248.304 121.23C247.836 121.038 247.428 120.744 247.08 120.348C246.744 119.952 246.576 119.43 246.576 118.782C246.576 118.254 246.732 117.774 247.044 117.342C247.356 116.898 247.8 116.55 248.376 116.298C248.964 116.046 249.636 115.92 250.392 115.92C251.52 115.92 252.426 116.208 253.11 116.784C253.806 117.348 254.178 118.122 254.226 119.106H252.174C252.138 118.662 251.958 118.308 251.634 118.044C251.31 117.78 250.872 117.648 250.32 117.648C249.78 117.648 249.366 117.75 249.078 117.954C248.79 118.158 248.646 118.428 248.646 118.764C248.646 119.028 248.742 119.25 248.934 119.43C249.126 119.61 249.36 119.754 249.636 119.862C249.912 119.958 250.32 120.084 250.86 120.24C251.58 120.432 252.168 120.63 252.624 120.834C253.092 121.026 253.494 121.314 253.83 121.698C254.166 122.082 254.34 122.592 254.352 123.228C254.352 123.792 254.196 124.296 253.884 124.74C253.572 125.184 253.128 125.532 252.552 125.784C251.988 126.036 251.322 126.162 250.554 126.162ZM263.279 117.756V123.246C263.279 123.618 263.363 123.888 263.531 124.056C263.711 124.212 264.011 124.29 264.431 124.29H265.691V126H264.071C263.147 126 262.439 125.784 261.947 125.352C261.455 124.92 261.209 124.218 261.209 123.246V117.756H260.039V116.082H261.209V113.616H263.279V116.082H265.691V117.756H263.279ZM276.492 120.798C276.492 121.17 276.468 121.506 276.42 121.806H268.842C268.902 122.598 269.196 123.234 269.724 123.714C270.252 124.194 270.9 124.434 271.668 124.434C272.772 124.434 273.552 123.972 274.008 123.048H276.222C275.922 123.96 275.376 124.71 274.584 125.298C273.804 125.874 272.832 126.162 271.668 126.162C270.72 126.162 269.868 125.952 269.112 125.532C268.368 125.1 267.78 124.5 267.348 123.732C266.928 122.952 266.718 122.052 266.718 121.032C266.718 120.012 266.922 119.118 267.33 118.35C267.75 117.57 268.332 116.97 269.076 116.55C269.832 116.13 270.696 115.92 271.668 115.92C272.604 115.92 273.438 116.124 274.17 116.532C274.902 116.94 275.472 117.516 275.88 118.26C276.288 118.992 276.492 119.838 276.492 120.798ZM274.35 120.15C274.338 119.394 274.068 118.788 273.54 118.332C273.012 117.876 272.358 117.648 271.578 117.648C270.87 117.648 270.264 117.876 269.76 118.332C269.256 118.776 268.956 119.382 268.86 120.15H274.35ZM277.647 120.996C277.647 120 277.851 119.118 278.259 118.35C278.679 117.582 279.243 116.988 279.951 116.568C280.671 116.136 281.463 115.92 282.327 115.92C283.107 115.92 283.785 116.076 284.361 116.388C284.949 116.688 285.417 117.066 285.765 117.522V116.082H287.835V126H285.765V124.524C285.417 124.992 284.943 125.382 284.343 125.694C283.743 126.006 283.059 126.162 282.291 126.162C281.439 126.162 280.659 125.946 279.951 125.514C279.243 125.07 278.679 124.458 278.259 123.678C277.851 122.886 277.647 121.992 277.647 120.996ZM285.765 121.032C285.765 120.348 285.621 119.754 285.333 119.25C285.057 118.746 284.691 118.362 284.235 118.098C283.779 117.834 283.287 117.702 282.759 117.702C282.231 117.702 281.739 117.834 281.283 118.098C280.827 118.35 280.455 118.728 280.167 119.232C279.891 119.724 279.753 120.312 279.753 120.996C279.753 121.68 279.891 122.28 280.167 122.796C280.455 123.312 280.827 123.708 281.283 123.984C281.751 124.248 282.243 124.38 282.759 124.38C283.287 124.38 283.779 124.248 284.235 123.984C284.691 123.72 285.057 123.336 285.333 122.832C285.621 122.316 285.765 121.716 285.765 121.032ZM302.357 115.92C303.137 115.92 303.833 116.082 304.445 116.406C305.069 116.73 305.555 117.21 305.903 117.846C306.263 118.482 306.443 119.25 306.443 120.15V126H304.409V120.456C304.409 119.568 304.187 118.89 303.743 118.422C303.299 117.942 302.693 117.702 301.925 117.702C301.157 117.702 300.545 117.942 300.089 118.422C299.645 118.89 299.423 119.568 299.423 120.456V126H297.389V120.456C297.389 119.568 297.167 118.89 296.723 118.422C296.279 117.942 295.673 117.702 294.905 117.702C294.137 117.702 293.525 117.942 293.069 118.422C292.625 118.89 292.403 119.568 292.403 120.456V126H290.351V116.082H292.403V117.216C292.739 116.808 293.165 116.49 293.681 116.262C294.197 116.034 294.749 115.92 295.337 115.92C296.129 115.92 296.837 116.088 297.461 116.424C298.085 116.76 298.565 117.246 298.901 117.882C299.201 117.282 299.669 116.808 300.305 116.46C300.941 116.1 301.625 115.92 302.357 115.92ZM312.686 120.996C312.686 120 312.89 119.118 313.298 118.35C313.718 117.582 314.282 116.988 314.99 116.568C315.71 116.136 316.502 115.92 317.366 115.92C318.146 115.92 318.824 116.076 319.4 116.388C319.988 116.688 320.456 117.066 320.804 117.522V116.082H322.874V126H320.804V124.524C320.456 124.992 319.982 125.382 319.382 125.694C318.782 126.006 318.098 126.162 317.33 126.162C316.478 126.162 315.698 125.946 314.99 125.514C314.282 125.07 313.718 124.458 313.298 123.678C312.89 122.886 312.686 121.992 312.686 120.996ZM320.804 121.032C320.804 120.348 320.66 119.754 320.372 119.25C320.096 118.746 319.73 118.362 319.274 118.098C318.818 117.834 318.326 117.702 317.798 117.702C317.27 117.702 316.778 117.834 316.322 118.098C315.866 118.35 315.494 118.728 315.206 119.232C314.93 119.724 314.792 120.312 314.792 120.996C314.792 121.68 314.93 122.28 315.206 122.796C315.494 123.312 315.866 123.708 316.322 123.984C316.79 124.248 317.282 124.38 317.798 124.38C318.326 124.38 318.818 124.248 319.274 123.984C319.73 123.72 320.096 123.336 320.372 122.832C320.66 122.316 320.804 121.716 320.804 121.032ZM327.783 117.756V123.246C327.783 123.618 327.867 123.888 328.035 124.056C328.215 124.212 328.515 124.29 328.935 124.29H330.195V126H328.575C327.651 126 326.943 125.784 326.451 125.352C325.959 124.92 325.713 124.218 325.713 123.246V117.756H324.543V116.082H325.713V113.616H327.783V116.082H330.195V117.756H327.783ZM48.34 138.49V151H46.288V145.528H40.402V151H38.35V138.49H40.402V143.854H46.288V138.49H48.34ZM50.1774 145.996C50.1774 145 50.3814 144.118 50.7894 143.35C51.2094 142.582 51.7734 141.988 52.4814 141.568C53.2014 141.136 53.9934 140.92 54.8574 140.92C55.6374 140.92 56.3154 141.076 56.8914 141.388C57.4794 141.688 57.9474 142.066 58.2954 142.522V141.082H60.3654V151H58.2954V149.524C57.9474 149.992 57.4734 150.382 56.8734 150.694C56.2734 151.006 55.5894 151.162 54.8214 151.162C53.9694 151.162 53.1894 150.946 52.4814 150.514C51.7734 150.07 51.2094 149.458 50.7894 148.678C50.3814 147.886 50.1774 146.992 50.1774 145.996ZM58.2954 146.032C58.2954 145.348 58.1514 144.754 57.8634 144.25C57.5874 143.746 57.2214 143.362 56.7654 143.098C56.3094 142.834 55.8174 142.702 55.2894 142.702C54.7614 142.702 54.2694 142.834 53.8134 143.098C53.3574 143.35 52.9854 143.728 52.6974 144.232C52.4214 144.724 52.2834 145.312 52.2834 145.996C52.2834 146.68 52.4214 147.28 52.6974 147.796C52.9854 148.312 53.3574 148.708 53.8134 148.984C54.2814 149.248 54.7734 149.38 55.2894 149.38C55.8174 149.38 56.3094 149.248 56.7654 148.984C57.2214 148.72 57.5874 148.336 57.8634 147.832C58.1514 147.316 58.2954 146.716 58.2954 146.032ZM62.1966 146.032C62.1966 145.012 62.4006 144.118 62.8086 143.35C63.2286 142.57 63.8046 141.97 64.5366 141.55C65.2686 141.13 66.1086 140.92 67.0566 140.92C68.2566 140.92 69.2466 141.208 70.0266 141.784C70.8186 142.348 71.3526 143.158 71.6286 144.214H69.4146C69.2346 143.722 68.9466 143.338 68.5506 143.062C68.1546 142.786 67.6566 142.648 67.0566 142.648C66.2166 142.648 65.5446 142.948 65.0406 143.548C64.5486 144.136 64.3026 144.964 64.3026 146.032C64.3026 147.1 64.5486 147.934 65.0406 148.534C65.5446 149.134 66.2166 149.434 67.0566 149.434C68.2446 149.434 69.0306 148.912 69.4146 147.868H71.6286C71.3406 148.876 70.8006 149.68 70.0086 150.28C69.2166 150.868 68.2326 151.162 67.0566 151.162C66.1086 151.162 65.2686 150.952 64.5366 150.532C63.8046 150.1 63.2286 149.5 62.8086 148.732C62.4006 147.952 62.1966 147.052 62.1966 146.032ZM77.4176 146.05L81.9896 151H79.2176L75.5456 146.734V151H73.4936V137.68H75.5456V145.42L79.1456 141.082H81.9896L77.4176 146.05ZM89.9764 144.574C90.6484 144.694 91.2184 145.048 91.6864 145.636C92.1544 146.224 92.3884 146.89 92.3884 147.634C92.3884 148.27 92.2204 148.846 91.8844 149.362C91.5604 149.866 91.0864 150.268 90.4624 150.568C89.8384 150.856 89.1124 151 88.2844 151H83.2804V138.49H88.0504C88.9024 138.49 89.6344 138.634 90.2464 138.922C90.8584 139.21 91.3204 139.6 91.6324 140.092C91.9444 140.572 92.1004 141.112 92.1004 141.712C92.1004 142.432 91.9084 143.032 91.5244 143.512C91.1404 143.992 90.6244 144.346 89.9764 144.574ZM85.3324 143.746H87.8704C88.5424 143.746 89.0644 143.596 89.4364 143.296C89.8204 142.984 90.0124 142.54 90.0124 141.964C90.0124 141.4 89.8204 140.962 89.4364 140.65C89.0644 140.326 88.5424 140.164 87.8704 140.164H85.3324V143.746ZM88.1044 149.326C88.8004 149.326 89.3464 149.158 89.7424 148.822C90.1384 148.486 90.3364 148.018 90.3364 147.418C90.3364 146.806 90.1264 146.32 89.7064 145.96C89.2864 145.6 88.7284 145.42 88.0324 145.42H85.3324V149.326H88.1044ZM103.366 141.082L97.2823 155.662H95.1583L97.1743 150.838L93.2683 141.082H95.5543L98.3443 148.642L101.242 141.082H103.366ZM107.129 142.756V148.246C107.129 148.618 107.213 148.888 107.381 149.056C107.561 149.212 107.861 149.29 108.281 149.29H109.541V151H107.921C106.997 151 106.289 150.784 105.797 150.352C105.305 149.92 105.059 149.218 105.059 148.246V142.756H103.889V141.082H105.059V138.616H107.129V141.082H109.541V142.756H107.129ZM120.342 145.798C120.342 146.17 120.318 146.506 120.27 146.806H112.692C112.752 147.598 113.046 148.234 113.574 148.714C114.102 149.194 114.75 149.434 115.518 149.434C116.622 149.434 117.402 148.972 117.858 148.048H120.072C119.772 148.96 119.226 149.71 118.434 150.298C117.654 150.874 116.682 151.162 115.518 151.162C114.57 151.162 113.718 150.952 112.962 150.532C112.218 150.1 111.63 149.5 111.198 148.732C110.778 147.952 110.568 147.052 110.568 146.032C110.568 145.012 110.772 144.118 111.18 143.35C111.6 142.57 112.182 141.97 112.926 141.55C113.682 141.13 114.546 140.92 115.518 140.92C116.454 140.92 117.288 141.124 118.02 141.532C118.752 141.94 119.322 142.516 119.73 143.26C120.138 143.992 120.342 144.838 120.342 145.798ZM118.2 145.15C118.188 144.394 117.918 143.788 117.39 143.332C116.862 142.876 116.208 142.648 115.428 142.648C114.72 142.648 114.114 142.876 113.61 143.332C113.106 143.776 112.806 144.382 112.71 145.15H118.2ZM123.009 151.126C122.637 151.126 122.325 151 122.073 150.748C121.821 150.496 121.695 150.184 121.695 149.812C121.695 149.44 121.821 149.128 122.073 148.876C122.325 148.624 122.637 148.498 123.009 148.498C123.369 148.498 123.675 148.624 123.927 148.876C124.179 149.128 124.305 149.44 124.305 149.812C124.305 150.184 124.179 150.496 123.927 150.748C123.675 151 123.369 151.126 123.009 151.126Z" fill="white"/>
<g filter="url(#filter2_d_1792_2755)">
<path d="M597 72.9126C597 62.4672 605.468 53.9995 615.913 53.9995H1085.09C1095.53 53.9995 1104 62.4672 1104 72.9127V147.243C1104 153.173 1101.22 158.759 1096.49 162.334L1077.9 176.381C1074.61 178.862 1070.61 180.204 1066.49 180.204H615.913C605.468 180.204 597 171.736 597 161.291V72.9126Z" fill="#8A00DA"/>
<path d="M615.913 57.8677H1085.09C1093.4 57.8677 1100.13 64.6038 1100.13 72.9126V147.244C1100.13 151.96 1097.92 156.404 1094.16 159.248L1075.56 173.294C1072.95 175.268 1069.77 176.335 1066.49 176.335H615.913C607.604 176.335 600.868 169.599 600.868 161.291V72.9126C600.868 64.6038 607.604 57.8677 615.913 57.8677Z" stroke="white" stroke-width="7.73719"/>
</g>
<path d="M1102.2 153.5C1103.63 153.5 1104.25 155.322 1103.11 156.192L1074.86 177.747C1073.9 178.474 1072.52 177.842 1072.45 176.644L1071.63 163.164C1071.31 161.537 1071.49 159.125 1073.09 157.104C1074.71 155.051 1077.71 153.5 1082.83 153.5H1102.2Z" fill="white" stroke="#C7C7C7"/>
<path d="M1057.16 178.071L1037.52 176.386L1038.35 159.058L1022.41 164.103C1028.07 155.139 1039.43 136.467 1039.57 133.491L1038.35 159.058L1054.86 151.909L1052.19 137.823L1084.07 135.618L1128.14 163.351L1083.62 145.08L1062.34 149.307L1081.41 191.27L1057.15 194.266L1057.16 178.071Z" fill="url(#paint8_linear_1792_2755)" fill-opacity="0.11"/>
<path d="M1072.95 125.497L1058.41 119.634L1060.25 81.2567L1012.6 86.5439L1034.65 65.0094L1060.25 81.2567L1079.64 74.7253L1113.08 89.8562L1101.06 105.264L1136.16 106.942L1130.31 117.904L1118.33 118.192L1100.54 126.816L1072.95 125.497Z" fill="url(#paint9_linear_1792_2755)" fill-opacity="0.11"/>
<path d="M1052.19 137.823L1054.86 151.909M1052.19 137.823L1083.62 145.08M1052.19 137.823L1062.34 149.307M1052.19 137.823L1084.07 135.618L1128.14 163.351M1059.12 216.683L1057.15 194.266M1057.16 178.071L1037.52 176.386M1057.16 178.071L1054.86 151.909M1057.16 178.071L1081.41 191.27M1057.16 178.071L1057.15 194.266M1037.52 176.386L1019.99 214.812M1037.52 176.386L1038.35 159.058M1039.57 133.491L1002.35 160.64L968.335 173.078M1039.57 133.491L982.115 186.523M1039.57 133.491C1039.43 136.467 1028.07 155.139 1022.41 164.103L1038.35 159.058M1039.57 133.491L1038.35 159.058M1038.35 159.058L1054.86 151.909M1054.86 151.909L1062.34 149.307M1083.62 145.08L1062.34 149.307M1083.62 145.08L1128.14 163.351M1062.34 149.307L1081.41 191.27M1081.41 191.27L1057.15 194.266M1128.14 163.351L1125.71 178.684M1128.12 128.135L1100.54 126.816M1058.41 119.634L1072.95 125.497L1100.54 126.816M1058.41 119.634L1101.06 105.264M1058.41 119.634L1118.33 118.192M1058.41 119.634L1060.25 81.2567M1101.06 105.264L1136.16 106.942L1130.31 117.904L1118.33 118.192M1101.06 105.264L1118.33 118.192M1101.06 105.264L1113.08 89.8562M1100.54 126.816L1118.33 118.192M1113.08 89.8562L1079.64 74.7253M1113.08 89.8562L1126.33 84.4161M1079.64 74.7253L1060.25 81.2567M1079.64 74.7253L1087.81 57.3753M1060.25 81.2567L1034.65 65.0094M1060.25 81.2567L1012.6 86.5439M1034.65 65.0094L1012.6 86.5439M1034.65 65.0094L1028.44 45.7995M1012.6 86.5439L988.812 85.4066M1012.6 86.5439L996.691 74.2225" stroke="url(#paint10_radial_1792_2755)" stroke-opacity="0.75" stroke-width="2.90345"/>
<g opacity="0.46">
<path d="M1047.34 59.71L1062.14 64.7139L1057.37 78.8482L1073.96 79.6416C1067.16 85.7159 1053.35 98.4716 1052.53 100.9L1057.37 78.8482L1043.06 81.8885L1040.9 93.1365L1013.99 87.4239L984.05 54.0705L1016.59 79.7063L994.997 40.5626L1019.91 52.2887L1019.66 14.6298L1031.78 42.9447L1050.12 45.2871L1047.34 59.71Z" fill="url(#paint11_linear_1792_2755)" fill-opacity="0.29"/>
<path d="M1020.8 98.4224L1031.45 106.709L1020.87 138.012L1003.28 138.829L979.166 118.41L992.754 108.509L964.095 98.8236L971.522 91.1405L981.514 93.7362L998.276 90.8103L1020.8 98.4224Z" fill="url(#paint12_linear_1792_2755)" fill-opacity="0.29"/>
<path d="M1040.9 93.1365L1043.06 81.8885M1040.9 93.1365L1016.59 79.7063M1040.9 93.1365L1035.21 81.2407M1040.9 93.1365L1013.99 87.4239L984.05 54.0705M1053.78 26.2834L1050.12 45.2871M1047.34 59.71L1062.14 64.7139M1047.34 59.71L1043.06 81.8885M1047.34 59.71L1031.78 42.9447M1047.34 59.71L1050.12 45.2871M1062.14 64.7139L1085.73 37.0824M1062.14 64.7139L1057.37 78.8482M1057.37 78.8482L1052.53 100.9C1053.35 98.4716 1067.16 85.7159 1073.96 79.6416L1057.37 78.8482ZM1057.37 78.8482L1043.06 81.8885M1043.06 81.8885L1035.21 81.2407M1016.59 79.7063L1035.21 81.2407M1016.59 79.7063L994.997 40.5626L1019.91 52.2887L1019.66 14.6298L1031.78 42.9447M1016.59 79.7063L984.05 54.0705M1035.21 81.2407L1031.78 42.9447M1031.78 42.9447L1050.12 45.2871M984.05 54.0705L989.687 41.9659M975.752 83.1982L998.276 90.8103M1031.45 106.709L1020.8 98.4224L998.276 90.8103M1031.45 106.709L992.754 108.509M1031.45 106.709L981.514 93.7362M1031.45 106.709L1020.87 138.012L1003.28 138.829M992.754 108.509L964.095 98.8236L971.522 91.1405L981.514 93.7362M992.754 108.509L981.514 93.7362M992.754 108.509L979.166 118.41M998.276 90.8103L981.514 93.7362M979.166 118.41L1003.28 138.829M979.166 118.41L966.917 119.777M1003.28 138.829L992.417 151.245" stroke="url(#paint13_radial_1792_2755)" stroke-width="2.90345"/>
</g>
<circle cx="1051.68" cy="111.493" r="1.964" transform="rotate(-10.2395 1051.68 111.493)" fill="black"/>
<circle cx="1034.37" cy="101.42" r="1.964" transform="rotate(-10.2395 1034.37 101.42)" fill="black"/>
<g filter="url(#filter3_d_1792_2755)">
<path d="M1034.38 101.43L1051.72 111.486" stroke="url(#paint14_linear_1792_2755)" stroke-width="12.8581" stroke-linecap="round"/>
</g>
<g style="mix-blend-mode:color-dodge">
<path d="M1070.38 153.71L1065.93 160.113L1059.41 156.75L1058.14 161.753L1049.92 159.657L1047.44 169.343L1040.87 161.033L1027.18 190.2L1029.24 165.593L1019.68 172.948L1028.18 155.871L1015.28 154.508L1028.31 144.089L999.426 135.611L1013.04 110.003L994.852 83.6486L1029.33 84.8052L1036.44 71.5842L1031.04 66.9778L1041.64 69.6816L1049.1 42.5775L1053.26 61.0642L1050.34 82.8846C1049.79 85.0491 1054.74 72.0821 1054.74 72.0821L1063.17 62.5852L1056.23 90.995L1075.24 85.2226L1067.2 91.9017L1085.35 94.9124C1087.83 94.5503 1075.87 105.564 1071.75 108.369L1087.54 134.56L1092.28 139.908L1078.6 136.418L1077.95 155.641L1070.38 153.71Z" fill="url(#paint15_radial_1792_2755)"/>
</g>
<path d="M1041.18 142.257L1040.77 145.716C1040.8 145.654 1041.34 143.996 1041.69 142.7C1041.88 141.382 1043.62 141.558 1044 141.734L1045.5 141.875C1045.23 141.758 1043.98 141.583 1043.47 141.263C1042.31 141.051 1042.1 140.289 1042.2 139.777L1042.75 136.682C1042.7 136.837 1042.15 138.761 1041.94 139.657C1041.62 141.036 1040.17 140.322 1039.82 140.349L1038.2 140.038C1038.2 140.038 1039.04 140.369 1039.75 140.612C1040.99 141.036 1041.23 141.55 1041.18 142.257Z" fill="white"/>
<path d="M1069.67 108.552L1069.26 112.01C1069.28 111.949 1069.83 110.29 1070.18 108.995C1070.36 107.677 1072.1 107.852 1072.48 108.028L1073.98 108.169C1073.71 108.052 1072.47 107.878 1071.96 107.557C1070.8 107.345 1070.58 106.584 1070.69 106.071L1071.24 102.976C1071.18 103.131 1070.63 105.055 1070.42 105.951C1070.11 107.331 1068.66 106.617 1068.3 106.643L1066.69 106.332C1066.69 106.332 1067.52 106.664 1068.23 106.906C1069.47 107.33 1069.71 107.844 1069.67 108.552Z" fill="white"/>
<path d="M1021.46 122.299L1020.98 126.277C1021.01 126.206 1021.64 124.299 1022.04 122.809C1022.25 121.293 1024.25 121.495 1024.69 121.698L1026.42 121.86C1026.11 121.725 1024.67 121.525 1024.09 121.156C1022.75 120.912 1022.51 120.036 1022.62 119.447L1023.26 115.887C1023.19 116.066 1022.56 118.278 1022.32 119.309C1021.96 120.895 1020.29 120.074 1019.88 120.104L1018.02 119.747C1018.02 119.747 1018.98 120.128 1019.8 120.407C1021.23 120.895 1021.51 121.486 1021.46 122.299Z" fill="white"/>
<path d="M1063.35 120.393C1064.82 119.841 1072.81 118.014 1077.6 115.809C1081.34 114.086 1084.83 107.442 1081.65 102.547C1077.52 96.1872 1070.52 98.9909 1070.52 98.9909C1070.52 98.9909 1070.94 96.1986 1068.18 93.5288C1064.69 90.1656 1059.68 87.6443 1054.83 86.0548C1050.13 84.5112 1045.62 83.6039 1041.15 84.1745C1037.14 84.6867 1036.12 87.0152 1036.12 87.0152C1036.12 87.0152 1033.09 81.1799 1026.38 82.7867C1019.68 84.4005 1018.87 91.9414 1020.51 95.7864C1022.66 100.796 1026.14 104.165 1027.55 106.219C1028.94 108.271 1030.29 110.23 1029.87 111.44C1029.46 112.65 1028.83 112.734 1028.65 112.597C1028.47 112.462 1028.52 111.162 1027.42 111.351C1025.93 111.617 1025.36 114.548 1027.88 115.71C1030.33 116.84 1031.73 114.323 1031.73 114.323L1033.03 111.84L1036.21 116.151L1039.49 121.474L1038.25 124.65C1038.25 124.65 1037.2 127.068 1035.26 128.807C1033.31 130.545 1030.63 132.027 1030.63 132.027L1029.91 133.952L1046.98 139.334L1047.08 137.272C1047.08 137.272 1045.72 134.128 1045.29 131.105C1044.98 128.942 1045.46 127.033 1045.46 127.033L1047 122.396L1057.63 120.013C1057.63 120.013 1058.32 121.077 1058.09 121.299C1057.87 121.52 1056.9 124.254 1058.66 125.994C1060.4 127.715 1062.52 127.012 1062.91 125.193C1063.31 123.379 1062.03 123.614 1061.6 123.767C1061.17 123.921 1060.41 123.734 1060.55 122.657C1060.69 121.588 1061.89 120.945 1063.35 120.393ZM1023.34 96.1136L1023.42 89.3001L1026.94 86.9454L1029.94 87.0795C1029.94 87.0795 1032.54 90.8696 1032.59 91.1229C1032.64 91.3762 1033.27 96.4126 1033.27 96.4126L1032.61 107.387L1023.34 96.1136ZM1060.15 117.686C1060.27 117.489 1066.42 107.83 1066.42 107.83C1066.47 107.707 1068.55 107.483 1068.61 107.313C1068.67 107.143 1073.76 102.934 1073.76 102.934L1079.15 105.009L1078.43 110.806L1074.17 114.363C1074.18 114.37 1060.04 117.878 1060.15 117.686Z" fill="#FFEE00"/>
<path d="M1080.15 109.629C1081.39 104.694 1077.03 101.924 1074.85 101.953C1072.66 101.981 1070.95 102.851 1069.88 104.557C1069.02 105.935 1068.33 106.814 1067.87 106.832C1067.38 106.845 1066.99 106.639 1066.99 106.639C1066.99 106.639 1068.03 103.371 1068.49 102.071C1069.47 99.3911 1070.53 98.9826 1070.53 98.9826C1070.53 98.9826 1070.66 98.0117 1070.49 97.3876C1070.31 96.7687 1069.88 95.8985 1069.88 95.8985C1069.88 95.8985 1069.58 97.2467 1068.83 97.3289C1068.08 97.411 1067.53 96.7189 1067.53 96.7189L1067.26 99.6379C1067.26 99.6379 1061.62 112.725 1061.42 112.99C1061.22 113.256 1054.93 118.753 1054.93 118.753C1054.93 118.753 1051.9 120.119 1050.63 120.244C1049.36 120.367 1047.96 121.346 1043.7 119.941C1039.44 118.542 1036.93 113.944 1036.93 113.944L1034.48 109.197L1034.5 100.327L1036.86 92.0924L1038.04 89.2059L1038.57 88.016L1038.6 87.3281C1038.6 87.3281 1038.13 87.5585 1037.53 87.1877C1036.93 86.8168 1036.97 85.8813 1036.97 85.8813C1036.97 85.8813 1036.58 86.1966 1036.47 86.3816C1036.35 86.5647 1036.14 87.0105 1036.14 87.0105C1036.14 87.0105 1036.58 87.9858 1036.37 89.0869C1036.17 90.1881 1034.48 94.4694 1033.77 94.1114C1033.05 93.7569 1034.54 90.1915 1032.17 87.8188C1030.12 85.7616 1026.32 84.8698 1023.77 87.4038C1021.24 89.9396 1021.1 93.9125 1024.66 98.8692C1028.21 103.826 1032.25 108.351 1032.13 111.309C1031.98 114.829 1029.19 115.996 1029.19 115.996C1029.19 115.996 1030.82 116.312 1032.16 114.901C1032.59 114.445 1032.95 113.689 1033.15 113.233C1034.14 116.156 1035.83 118.925 1038.63 120.941C1039.68 121.752 1040.94 122.414 1042.8 123.047C1043.06 123.138 1043.33 123.217 1043.6 123.297C1045.79 123.96 1047.78 124.186 1049.88 123.909C1052.69 123.615 1055.15 122.543 1057.27 121.093C1057.07 121.542 1056.96 122.792 1057.19 123.888C1057.59 125.813 1059.16 126.457 1059.16 126.457C1059.16 126.457 1057.4 124.409 1058.91 121.463C1060.42 118.517 1062.84 118.115 1066.62 117.177C1070.42 116.236 1078.91 114.562 1080.15 109.629ZM1027.05 99.0813C1025.99 97.6216 1023.99 95.4736 1023.66 93.1264C1023.23 89.9957 1025.43 87.1409 1028.12 87.6167C1033.7 88.594 1031.55 95.2115 1031.63 96.1289C1031.71 97.0464 1032.69 97.4391 1032.69 97.4391C1032.69 97.4391 1032.57 97.8941 1032.43 98.7979C1032.42 98.8254 1032.42 98.8477 1032.41 98.8734L1032.4 98.9559C1032.3 99.5711 1032.19 100.344 1032.1 101.24L1032.1 101.307C1032.05 101.812 1032.01 102.294 1031.99 102.741C1031.93 103.676 1031.9 104.696 1031.94 105.765C1031.54 105.239 1029.29 102.188 1027.05 99.0813ZM1076.34 111.789C1074.63 113.202 1071.93 113.77 1069.89 114.328C1067.27 115.047 1063.36 116.136 1062.25 116.437C1062.65 115.962 1063.01 115.483 1063.36 115.009C1063.86 114.4 1064.44 113.642 1064.95 112.788C1066.29 110.544 1067.1 108.458 1067.1 108.458C1067.1 108.458 1068.05 109.116 1068.94 108.637C1069.82 108.159 1070.81 106.069 1071.77 105.252C1073.26 103.975 1075.72 102.976 1077.89 105.948C1079.14 107.669 1078.38 110.114 1076.34 111.789ZM1041.02 124.238L1043.94 125.195C1043.94 125.195 1042.93 128.398 1042.58 130.922C1042.22 133.452 1041.94 136.297 1041.94 136.297C1041.94 136.297 1035.33 136.26 1036.1 134.131C1036.87 132.001 1039.17 128.132 1039.17 128.132C1039.17 128.132 1041.41 123.348 1041.02 124.238Z" fill="#EDB000"/>
<path d="M1047.4 89.561C1047.4 89.561 1050.76 90.3016 1053.76 91.3766C1056.76 92.4517 1059.65 94.1023 1059.65 94.1023C1059.65 94.1023 1056.03 104.12 1053.55 109.589C1051.07 115.061 1047.48 118.566 1046.5 119.57C1045.55 120.545 1044.94 121.031 1044.94 121.031L1042.15 119.699L1040.57 107.905L1047.4 89.561Z" fill="#EDB000"/>
<path d="M1043.01 89.7447C1043.01 89.7447 1044.08 89.5978 1045.57 89.5504C1046.92 89.5072 1048.05 89.7375 1048.05 89.7375C1048.05 89.7375 1045.8 96.4299 1044.28 101.234C1042.99 105.327 1042.22 112.497 1042.34 114.527C1042.46 116.558 1042.85 119.726 1042.85 119.726C1042.85 119.726 1040.33 118.44 1039.4 115.813C1038.92 114.428 1037.78 104.612 1039.54 99C1041.3 93.3877 1043.19 89.6515 1043.01 89.7447Z" fill="black"/>
<path d="M1043.01 89.7447C1043.01 89.7447 1044.08 89.5978 1045.57 89.5504C1046.92 89.5072 1048.05 89.7375 1048.05 89.7375C1048.05 89.7375 1045.8 96.4299 1044.28 101.234C1042.99 105.327 1042.22 112.497 1042.34 114.527C1042.46 116.558 1042.85 119.726 1042.85 119.726C1042.85 119.726 1040.33 118.44 1039.4 115.813C1038.92 114.428 1037.78 104.612 1039.54 99C1041.3 93.3877 1043.19 89.6515 1043.01 89.7447Z" fill="#FFF7E5"/>
<path d="M1041.25 90.0063C1041.07 90.2475 1038.38 95.7496 1037.69 101.471C1037.01 107.193 1037.44 111.418 1038.06 113.244C1038.61 114.864 1039.05 115.691 1039.41 115.816C1039.78 115.941 1039.42 110.88 1039.74 107.114C1040.06 103.354 1041.02 99.0429 1041.62 96.9624C1042.23 94.8768 1043.95 89.555 1043.95 89.555C1043.95 89.555 1042.79 89.6702 1042.52 89.7267C1042.25 89.7883 1041.25 90.0063 1041.25 90.0063Z" fill="#FFFCFD"/>
<path d="M1033.83 133.109C1033.83 133.109 1036.88 130.587 1038.12 128.309C1039.36 126.03 1040.32 123.966 1040.32 123.966L1041.51 124.432C1041.51 124.432 1040.2 127.897 1039.25 130.223C1038.3 132.549 1037.1 134.737 1037.1 134.737L1033.83 133.109Z" fill="black"/>
<path d="M1033.83 133.109C1033.83 133.109 1036.88 130.587 1038.12 128.309C1039.36 126.03 1040.32 123.966 1040.32 123.966L1041.51 124.432C1041.51 124.432 1040.2 127.897 1039.25 130.223C1038.3 132.549 1037.1 134.737 1037.1 134.737L1033.83 133.109Z" fill="#FFF7E5"/>
<path d="M1039.51 121.481C1039.51 121.481 1040.72 120.902 1043.23 121.758C1045.74 122.615 1046.48 123.945 1046.48 123.945L1045.49 127.062C1045.49 127.062 1044 125.972 1041.98 125.253C1040.3 124.656 1038.27 124.663 1038.27 124.663L1039.51 121.481ZM1039.05 87.0136C1039.61 86.7666 1044.69 85.1116 1054.3 88.3018C1064.64 91.7296 1067.48 96.036 1067.67 96.2834C1067.88 96.5567 1067.92 97.4894 1067.66 97.8092C1067.4 98.1272 1067.08 98.1678 1066.41 97.5849C1065.75 97.0002 1062.87 92.8966 1053.56 90.0372C1044.62 87.2871 1039.94 88.6975 1039.47 88.7886C1039.09 88.8598 1038.48 88.7039 1038.33 88.2452C1038.18 87.7899 1038.69 87.1778 1039.05 87.0136ZM1067.24 99.0395C1066.02 98.7277 1063.59 108.541 1059.04 113.656C1054.17 119.127 1050.12 119.778 1050.13 120.191C1050.15 120.604 1053.85 120.736 1056.99 118.458C1059.9 116.348 1061.93 114.287 1063.6 111.19C1065.26 108.091 1068.59 99.3867 1067.24 99.0395ZM1037.69 90.1654C1037.4 90.048 1036.08 94.9083 1034.88 96.833C1034.42 97.5728 1033.91 97.5828 1033.81 97.7471C1033.7 97.9115 1032.65 104.387 1033.47 107.671C1034.27 110.847 1036.5 115.223 1037.23 114.864C1037.96 114.504 1035.62 111.664 1034.98 107.011C1034.6 104.342 1034.6 100.512 1035.89 96.5739C1036.75 93.9688 1038.32 90.4195 1037.69 90.1654Z" fill="#9E7402"/>
<path d="M1048.64 146.045C1048.64 146.045 1053.95 139.868 1051.15 138.687C1042.67 135.102 1036.98 133.029 1027.54 130.62C1024.66 129.886 1025.51 136.607 1025.02 138.004C1025.02 138.004 1022.11 135.547 1021.66 136.858C1020.98 138.872 1019.84 142.185 1019.84 142.185L1049.83 152.429C1049.83 152.429 1050.96 149.115 1051.65 147.101C1052.05 145.923 1048.64 146.045 1048.64 146.045Z" fill="#261032"/>
<path d="M635.98 109V90.9675H650.4V95.8395H642.756V97.4635H649.336V102.504H642.756V109H635.98ZM651.916 94.6355V89.9595H659.168V94.6355H651.916ZM652.392 109V100.6H650.544L651.104 95.7275H659.168V109H652.392ZM661.136 109V95.7275H667.772L667.912 96.4835C668.398 96.2222 669.032 95.9888 669.816 95.7835C670.619 95.5595 671.45 95.4475 672.308 95.4475V100.432C671.618 100.432 670.843 100.478 669.984 100.572C669.126 100.665 668.435 100.805 667.912 100.992V109H661.136ZM679.153 109.28C677.884 109.28 676.689 109.186 675.569 109C674.449 108.813 673.59 108.589 672.993 108.328V104.044C673.441 104.268 673.964 104.464 674.561 104.632C675.158 104.8 675.746 104.93 676.325 105.024C676.922 105.117 677.417 105.164 677.809 105.164C678.238 105.164 678.593 105.154 678.873 105.136C679.172 105.117 679.321 105.024 679.321 104.856C679.321 104.706 679.172 104.585 678.873 104.492C678.574 104.398 678.192 104.296 677.725 104.184C677.277 104.072 676.81 103.932 676.325 103.764C675.112 103.316 674.234 102.812 673.693 102.252C673.152 101.673 672.881 100.852 672.881 99.7875C672.881 98.3688 673.469 97.2955 674.645 96.5675C675.821 95.8208 677.622 95.4475 680.049 95.4475C680.646 95.4475 681.3 95.4848 682.009 95.5595C682.718 95.6155 683.381 95.6902 683.997 95.7835C684.632 95.8768 685.136 95.9888 685.509 96.1195V100.376C684.912 100.114 684.268 99.9182 683.577 99.7875C682.886 99.6382 682.28 99.5635 681.757 99.5635C681.496 99.5635 681.206 99.5728 680.889 99.5915C680.59 99.5915 680.329 99.6195 680.105 99.6755C679.9 99.7128 679.797 99.7968 679.797 99.9275C679.797 100.114 680.077 100.264 680.637 100.376C681.216 100.469 681.85 100.618 682.541 100.824C683.512 101.104 684.258 101.421 684.781 101.776C685.322 102.112 685.696 102.532 685.901 103.036C686.125 103.521 686.237 104.128 686.237 104.856C686.237 106.218 685.64 107.301 684.445 108.104C683.25 108.888 681.486 109.28 679.153 109.28ZM693.494 109.28C691.46 109.28 690.004 108.785 689.126 107.796C688.268 106.806 687.838 105.472 687.838 103.792V100.6H686.242V95.7275H687.838V93.1235L694.614 91.7515V95.7275H697.33L697.19 100.6H694.614V103.428C694.614 104.212 695.053 104.604 695.93 104.604C696.509 104.604 697.069 104.51 697.61 104.324V108.524C697.032 108.766 696.416 108.953 695.762 109.084C695.109 109.214 694.353 109.28 693.494 109.28ZM707.678 109V95.8395H703.086V90.9675H719.046V95.8395H714.454V109H707.678ZM720.44 94.6355V89.9595H727.692V94.6355H720.44ZM720.916 109V100.6H719.068L719.628 95.7275H727.692V109H720.916ZM729.66 109V95.7275H735.932L736.072 96.5395C736.594 96.2408 737.192 95.9888 737.864 95.7835C738.536 95.5595 739.301 95.4475 740.16 95.4475C740.944 95.4475 741.56 95.5502 742.008 95.7555C742.474 95.9608 742.857 96.2688 743.156 96.6795C743.753 96.3062 744.406 96.0075 745.116 95.7835C745.844 95.5595 746.693 95.4475 747.664 95.4475C749.25 95.4475 750.398 95.8675 751.108 96.7075C751.817 97.5288 752.172 98.7795 752.172 100.46V109H745.536V101.272C745.536 100.973 745.48 100.758 745.368 100.628C745.274 100.497 745.069 100.432 744.752 100.432C744.453 100.432 744.192 100.553 743.968 100.796V109H737.724V101.104C737.724 100.656 737.518 100.432 737.108 100.432C736.753 100.432 736.436 100.6 736.156 100.936V109H729.66ZM761.258 109.28C759.69 109.28 758.281 109.018 757.03 108.496C755.798 107.973 754.818 107.208 754.09 106.2C753.362 105.173 752.998 103.913 752.998 102.42C752.998 100.31 753.623 98.6208 754.874 97.3515C756.143 96.0822 758.029 95.4475 760.53 95.4475C762.807 95.4475 764.627 96.0075 765.99 97.1275C767.353 98.2475 768.034 99.8435 768.034 101.916V104.184H759.186C759.466 104.538 759.923 104.818 760.558 105.024C761.211 105.21 762.051 105.304 763.078 105.304C763.918 105.304 764.73 105.238 765.514 105.108C766.298 104.958 766.914 104.8 767.362 104.632V108.272C765.962 108.944 763.927 109.28 761.258 109.28ZM759.186 100.796H762.238V100.544C762.238 100.282 762.135 100.04 761.93 99.8155C761.725 99.5728 761.333 99.4515 760.754 99.4515C760.194 99.4515 759.793 99.5822 759.55 99.8435C759.307 100.105 759.186 100.422 759.186 100.796ZM774.914 109V90.9675H781.69V96.8475H786.198V90.9675H792.974V109H786.198V103.12H781.69V109H774.914ZM799.045 109.28C798.205 109.28 797.431 109.13 796.721 108.832C796.012 108.533 795.443 108.057 795.013 107.404C794.584 106.75 794.369 105.901 794.369 104.856C794.369 103.362 794.836 102.233 795.769 101.468C796.721 100.702 798.177 100.32 800.137 100.32H803.105V100.18C803.105 99.9742 802.909 99.7968 802.517 99.6475C802.125 99.4795 801.528 99.3955 800.725 99.3955C800.016 99.3955 799.241 99.4608 798.401 99.5915C797.58 99.7035 796.796 99.8715 796.049 100.096V96.4555C796.777 96.1382 797.701 95.8955 798.821 95.7275C799.96 95.5408 801.043 95.4475 802.069 95.4475C803.544 95.4475 804.841 95.6528 805.961 96.0635C807.081 96.4555 807.959 97.0715 808.593 97.9115C809.228 98.7328 809.545 99.7875 809.545 101.076V109H803.609L803.329 108.048C802.881 108.402 802.303 108.701 801.593 108.944C800.903 109.168 800.053 109.28 799.045 109.28ZM801.593 105.584C801.948 105.584 802.237 105.528 802.461 105.416C802.704 105.304 802.919 105.154 803.105 104.968V103.736H801.873C801.033 103.736 800.613 104.044 800.613 104.66C800.613 105.276 800.94 105.584 801.593 105.584ZM819.119 109.28C817.495 109.28 816.057 109.037 814.807 108.552C813.556 108.048 812.576 107.282 811.867 106.256C811.157 105.229 810.803 103.932 810.803 102.364C810.803 100.777 811.148 99.4795 811.839 98.4715C812.548 97.4448 813.519 96.6888 814.751 96.2035C816.001 95.6995 817.439 95.4475 819.063 95.4475C820.108 95.4475 821.069 95.5222 821.947 95.6715C822.824 95.8022 823.664 96.0542 824.467 96.4275V101.132C823.869 100.833 823.244 100.618 822.591 100.488C821.937 100.357 821.265 100.292 820.575 100.292C819.604 100.292 818.885 100.45 818.419 100.768C817.952 101.066 817.719 101.598 817.719 102.364C817.719 103.11 817.961 103.642 818.447 103.96C818.932 104.277 819.66 104.436 820.631 104.436C821.321 104.436 821.993 104.342 822.647 104.156C823.3 103.95 823.925 103.689 824.523 103.372V108.3C823.72 108.654 822.88 108.906 822.003 109.056C821.125 109.205 820.164 109.28 819.119 109.28ZM825.91 109V90.1275H832.686V98.3875L835.122 95.7275H842.738L837.502 101.468L843.018 109H835.85L833.302 104.996L832.686 105.696V109H825.91ZM850.153 109.28C848.585 109.28 847.175 109.018 845.925 108.496C844.693 107.973 843.713 107.208 842.985 106.2C842.257 105.173 841.893 103.913 841.893 102.42C841.893 100.31 842.518 98.6208 843.769 97.3515C845.038 96.0822 846.923 95.4475 849.425 95.4475C851.702 95.4475 853.522 96.0075 854.885 97.1275C856.247 98.2475 856.929 99.8435 856.929 101.916V104.184H848.081C848.361 104.538 848.818 104.818 849.453 105.024C850.106 105.21 850.946 105.304 851.973 105.304C852.813 105.304 853.625 105.238 854.409 105.108C855.193 104.958 855.809 104.8 856.257 104.632V108.272C854.857 108.944 852.822 109.28 850.153 109.28ZM848.081 100.796H851.133V100.544C851.133 100.282 851.03 100.04 850.825 99.8155C850.619 99.5728 850.227 99.4515 849.649 99.4515C849.089 99.4515 848.687 99.5822 848.445 99.8435C848.202 100.105 848.081 100.422 848.081 100.796ZM858.339 109V95.7275H864.975L865.115 96.4835C865.601 96.2222 866.235 95.9888 867.019 95.7835C867.822 95.5595 868.653 95.4475 869.511 95.4475V100.432C868.821 100.432 868.046 100.478 867.187 100.572C866.329 100.665 865.638 100.805 865.115 100.992V109H858.339ZM876.356 109.28C875.087 109.28 873.892 109.186 872.772 109C871.652 108.813 870.793 108.589 870.196 108.328V104.044C870.644 104.268 871.167 104.464 871.764 104.632C872.361 104.8 872.949 104.93 873.528 105.024C874.125 105.117 874.62 105.164 875.012 105.164C875.441 105.164 875.796 105.154 876.076 105.136C876.375 105.117 876.524 105.024 876.524 104.856C876.524 104.706 876.375 104.585 876.076 104.492C875.777 104.398 875.395 104.296 874.928 104.184C874.48 104.072 874.013 103.932 873.528 103.764C872.315 103.316 871.437 102.812 870.896 102.252C870.355 101.673 870.084 100.852 870.084 99.7875C870.084 98.3688 870.672 97.2955 871.848 96.5675C873.024 95.8208 874.825 95.4475 877.252 95.4475C877.849 95.4475 878.503 95.4848 879.212 95.5595C879.921 95.6155 880.584 95.6902 881.2 95.7835C881.835 95.8768 882.339 95.9888 882.712 96.1195V100.376C882.115 100.114 881.471 99.9182 880.78 99.7875C880.089 99.6382 879.483 99.5635 878.96 99.5635C878.699 99.5635 878.409 99.5728 878.092 99.5915C877.793 99.5915 877.532 99.6195 877.308 99.6755C877.103 99.7128 877 99.7968 877 99.9275C877 100.114 877.28 100.264 877.84 100.376C878.419 100.469 879.053 100.618 879.744 100.824C880.715 101.104 881.461 101.421 881.984 101.776C882.525 102.112 882.899 102.532 883.104 103.036C883.328 103.521 883.44 104.128 883.44 104.856C883.44 106.218 882.843 107.301 881.648 108.104C880.453 108.888 878.689 109.28 876.356 109.28Z" fill="white"/>
<path d="M644.68 127.1V128.96H638.78V133.06H643.38V134.92H638.78V141H636.5V127.1H644.68ZM651.373 141.18C650.333 141.18 649.393 140.946 648.553 140.48C647.713 140 647.053 139.333 646.573 138.48C646.093 137.613 645.853 136.613 645.853 135.48C645.853 134.36 646.1 133.366 646.593 132.5C647.086 131.633 647.76 130.966 648.613 130.5C649.466 130.033 650.42 129.8 651.473 129.8C652.526 129.8 653.48 130.033 654.333 130.5C655.186 130.966 655.86 131.633 656.353 132.5C656.846 133.366 657.093 134.36 657.093 135.48C657.093 136.6 656.84 137.593 656.333 138.46C655.826 139.326 655.133 140 654.253 140.48C653.386 140.946 652.426 141.18 651.373 141.18ZM651.373 139.2C651.96 139.2 652.506 139.06 653.013 138.78C653.533 138.5 653.953 138.08 654.273 137.52C654.593 136.96 654.753 136.28 654.753 135.48C654.753 134.68 654.6 134.006 654.293 133.46C653.986 132.9 653.58 132.48 653.073 132.2C652.566 131.92 652.02 131.78 651.433 131.78C650.846 131.78 650.3 131.92 649.793 132.2C649.3 132.48 648.906 132.9 648.613 133.46C648.32 134.006 648.173 134.68 648.173 135.48C648.173 136.666 648.473 137.586 649.073 138.24C649.686 138.88 650.453 139.2 651.373 139.2ZM661.427 131.58C661.76 131.02 662.2 130.586 662.747 130.28C663.307 129.96 663.967 129.8 664.727 129.8V132.16H664.147C663.254 132.16 662.574 132.386 662.107 132.84C661.654 133.293 661.427 134.08 661.427 135.2V141H659.147V129.98H661.427V131.58ZM679.798 127.1V128.96H673.898V133.06H678.498V134.92H673.898V141H671.618V127.1H679.798ZM683.991 131.58C684.324 131.02 684.764 130.586 685.311 130.28C685.871 129.96 686.531 129.8 687.291 129.8V132.16H686.711C685.818 132.16 685.138 132.386 684.671 132.84C684.218 133.293 683.991 134.08 683.991 135.2V141H681.711V129.98H683.991V131.58ZM699.287 135.22C699.287 135.633 699.26 136.006 699.207 136.34H690.787C690.853 137.22 691.18 137.926 691.767 138.46C692.353 138.993 693.073 139.26 693.927 139.26C695.153 139.26 696.02 138.746 696.527 137.72H698.987C698.653 138.733 698.047 139.566 697.167 140.22C696.3 140.86 695.22 141.18 693.927 141.18C692.873 141.18 691.927 140.946 691.087 140.48C690.26 140 689.607 139.333 689.127 138.48C688.66 137.613 688.427 136.613 688.427 135.48C688.427 134.346 688.653 133.353 689.107 132.5C689.573 131.633 690.22 130.966 691.047 130.5C691.887 130.033 692.847 129.8 693.927 129.8C694.967 129.8 695.893 130.026 696.707 130.48C697.52 130.933 698.153 131.573 698.607 132.4C699.06 133.213 699.287 134.153 699.287 135.22ZM696.907 134.5C696.893 133.66 696.593 132.986 696.007 132.48C695.42 131.973 694.693 131.72 693.827 131.72C693.04 131.72 692.367 131.973 691.807 132.48C691.247 132.973 690.913 133.646 690.807 134.5H696.907ZM705.33 141.18C704.464 141.18 703.684 141.026 702.99 140.72C702.31 140.4 701.77 139.973 701.37 139.44C700.97 138.893 700.757 138.286 700.73 137.62H703.09C703.13 138.086 703.35 138.48 703.75 138.8C704.164 139.106 704.677 139.26 705.29 139.26C705.93 139.26 706.424 139.14 706.77 138.9C707.13 138.646 707.31 138.326 707.31 137.94C707.31 137.526 707.11 137.22 706.71 137.02C706.324 136.82 705.704 136.6 704.85 136.36C704.024 136.133 703.35 135.913 702.83 135.7C702.31 135.486 701.857 135.16 701.47 134.72C701.097 134.28 700.91 133.7 700.91 132.98C700.91 132.393 701.084 131.86 701.43 131.38C701.777 130.886 702.27 130.5 702.91 130.22C703.564 129.94 704.31 129.8 705.15 129.8C706.404 129.8 707.41 130.12 708.17 130.76C708.944 131.386 709.357 132.246 709.41 133.34H707.13C707.09 132.846 706.89 132.453 706.53 132.16C706.17 131.866 705.684 131.72 705.07 131.72C704.47 131.72 704.01 131.833 703.69 132.06C703.37 132.286 703.21 132.586 703.21 132.96C703.21 133.253 703.317 133.5 703.53 133.7C703.744 133.9 704.004 134.06 704.31 134.18C704.617 134.286 705.07 134.426 705.67 134.6C706.47 134.813 707.124 135.033 707.63 135.26C708.15 135.473 708.597 135.793 708.97 136.22C709.344 136.646 709.537 137.213 709.55 137.92C709.55 138.546 709.377 139.106 709.03 139.6C708.684 140.093 708.19 140.48 707.55 140.76C706.924 141.04 706.184 141.18 705.33 141.18ZM717.514 129.8C718.354 129.8 719.101 129.98 719.754 130.34C720.421 130.7 720.941 131.233 721.314 131.94C721.701 132.646 721.894 133.5 721.894 134.5V141H719.634V134.84C719.634 133.853 719.387 133.1 718.894 132.58C718.401 132.046 717.727 131.78 716.874 131.78C716.021 131.78 715.341 132.046 714.834 132.58C714.341 133.1 714.094 133.853 714.094 134.84V141H711.814V126.2H714.094V131.26C714.481 130.793 714.967 130.433 715.554 130.18C716.154 129.926 716.807 129.8 717.514 129.8ZM737.942 129.8C738.809 129.8 739.582 129.98 740.262 130.34C740.956 130.7 741.496 131.233 741.882 131.94C742.282 132.646 742.482 133.5 742.482 134.5V141H740.222V134.84C740.222 133.853 739.976 133.1 739.482 132.58C738.989 132.046 738.316 131.78 737.462 131.78C736.609 131.78 735.929 132.046 735.422 132.58C734.929 133.1 734.682 133.853 734.682 134.84V141H732.422V134.84C732.422 133.853 732.176 133.1 731.682 132.58C731.189 132.046 730.516 131.78 729.662 131.78C728.809 131.78 728.129 132.046 727.622 132.58C727.129 133.1 726.882 133.853 726.882 134.84V141H724.602V129.98H726.882V131.24C727.256 130.786 727.729 130.433 728.302 130.18C728.876 129.926 729.489 129.8 730.142 129.8C731.022 129.8 731.809 129.986 732.502 130.36C733.196 130.733 733.729 131.273 734.102 131.98C734.436 131.313 734.956 130.786 735.662 130.4C736.369 130 737.129 129.8 737.942 129.8ZM755.284 135.22C755.284 135.633 755.257 136.006 755.204 136.34H746.784C746.85 137.22 747.177 137.926 747.764 138.46C748.35 138.993 749.07 139.26 749.924 139.26C751.15 139.26 752.017 138.746 752.524 137.72H754.984C754.65 138.733 754.044 139.566 753.164 140.22C752.297 140.86 751.217 141.18 749.924 141.18C748.87 141.18 747.924 140.946 747.084 140.48C746.257 140 745.604 139.333 745.124 138.48C744.657 137.613 744.424 136.613 744.424 135.48C744.424 134.346 744.65 133.353 745.104 132.5C745.57 131.633 746.217 130.966 747.044 130.5C747.884 130.033 748.844 129.8 749.924 129.8C750.964 129.8 751.89 130.026 752.704 130.48C753.517 130.933 754.15 131.573 754.604 132.4C755.057 133.213 755.284 134.153 755.284 135.22ZM752.904 134.5C752.89 133.66 752.59 132.986 752.004 132.48C751.417 131.973 750.69 131.72 749.824 131.72C749.037 131.72 748.364 131.973 747.804 132.48C747.244 132.973 746.91 133.646 746.804 134.5H752.904ZM762.887 129.8C763.754 129.8 764.527 129.98 765.207 130.34C765.901 130.7 766.441 131.233 766.827 131.94C767.214 132.646 767.407 133.5 767.407 134.5V141H765.147V134.84C765.147 133.853 764.901 133.1 764.407 132.58C763.914 132.046 763.241 131.78 762.387 131.78C761.534 131.78 760.854 132.046 760.347 132.58C759.854 133.1 759.607 133.853 759.607 134.84V141H757.327V129.98H759.607V131.24C759.981 130.786 760.454 130.433 761.027 130.18C761.614 129.926 762.234 129.8 762.887 129.8ZM774.351 135.44C774.351 134.333 774.578 133.353 775.031 132.5C775.498 131.646 776.124 130.986 776.911 130.52C777.711 130.04 778.591 129.8 779.551 129.8C780.418 129.8 781.171 129.973 781.811 130.32C782.464 130.653 782.984 131.073 783.371 131.58V129.98H785.671V141H783.371V139.36C782.984 139.88 782.458 140.313 781.791 140.66C781.124 141.006 780.364 141.18 779.511 141.18C778.564 141.18 777.698 140.94 776.911 140.46C776.124 139.966 775.498 139.286 775.031 138.42C774.578 137.54 774.351 136.546 774.351 135.44ZM783.371 135.48C783.371 134.72 783.211 134.06 782.891 133.5C782.584 132.94 782.178 132.513 781.671 132.22C781.164 131.926 780.618 131.78 780.031 131.78C779.444 131.78 778.898 131.926 778.391 132.22C777.884 132.5 777.471 132.92 777.151 133.48C776.844 134.026 776.691 134.68 776.691 135.44C776.691 136.2 776.844 136.866 777.151 137.44C777.471 138.013 777.884 138.453 778.391 138.76C778.911 139.053 779.458 139.2 780.031 139.2C780.618 139.2 781.164 139.053 781.671 138.76C782.178 138.466 782.584 138.04 782.891 137.48C783.211 136.906 783.371 136.24 783.371 135.48ZM794.026 129.8C794.892 129.8 795.666 129.98 796.346 130.34C797.039 130.7 797.579 131.233 797.966 131.94C798.352 132.646 798.546 133.5 798.546 134.5V141H796.286V134.84C796.286 133.853 796.039 133.1 795.546 132.58C795.052 132.046 794.379 131.78 793.526 131.78C792.672 131.78 791.992 132.046 791.486 132.58C790.992 133.1 790.746 133.853 790.746 134.84V141H788.466V129.98H790.746V131.24C791.119 130.786 791.592 130.433 792.166 130.18C792.752 129.926 793.372 129.8 794.026 129.8ZM800.494 135.44C800.494 134.333 800.721 133.353 801.174 132.5C801.641 131.646 802.267 130.986 803.054 130.52C803.854 130.04 804.741 129.8 805.714 129.8C806.434 129.8 807.141 129.96 807.834 130.28C808.541 130.586 809.101 131 809.514 131.52V126.2H811.814V141H809.514V139.34C809.141 139.873 808.621 140.313 807.954 140.66C807.301 141.006 806.547 141.18 805.694 141.18C804.734 141.18 803.854 140.94 803.054 140.46C802.267 139.966 801.641 139.286 801.174 138.42C800.721 137.54 800.494 136.546 800.494 135.44ZM809.514 135.48C809.514 134.72 809.354 134.06 809.034 133.5C808.727 132.94 808.321 132.513 807.814 132.22C807.307 131.926 806.761 131.78 806.174 131.78C805.587 131.78 805.041 131.926 804.534 132.22C804.027 132.5 803.614 132.92 803.294 133.48C802.987 134.026 802.834 134.68 802.834 135.44C802.834 136.2 802.987 136.866 803.294 137.44C803.614 138.013 804.027 138.453 804.534 138.76C805.054 139.053 805.601 139.2 806.174 139.2C806.761 139.2 807.307 139.053 807.814 138.76C808.321 138.466 808.727 138.04 809.034 137.48C809.354 136.906 809.514 136.24 809.514 135.48ZM831.024 141H828.744L821.884 130.62V141H819.604V127.08H821.884L828.744 137.44V127.08H831.024V141ZM838.598 141.18C837.558 141.18 836.618 140.946 835.778 140.48C834.938 140 834.278 139.333 833.798 138.48C833.318 137.613 833.078 136.613 833.078 135.48C833.078 134.36 833.325 133.366 833.818 132.5C834.311 131.633 834.985 130.966 835.838 130.5C836.691 130.033 837.645 129.8 838.698 129.8C839.751 129.8 840.705 130.033 841.558 130.5C842.411 130.966 843.085 131.633 843.578 132.5C844.071 133.366 844.318 134.36 844.318 135.48C844.318 136.6 844.065 137.593 843.558 138.46C843.051 139.326 842.358 140 841.478 140.48C840.611 140.946 839.651 141.18 838.598 141.18ZM838.598 139.2C839.185 139.2 839.731 139.06 840.238 138.78C840.758 138.5 841.178 138.08 841.498 137.52C841.818 136.96 841.978 136.28 841.978 135.48C841.978 134.68 841.825 134.006 841.518 133.46C841.211 132.9 840.805 132.48 840.298 132.2C839.791 131.92 839.245 131.78 838.658 131.78C838.071 131.78 837.525 131.92 837.018 132.2C836.525 132.48 836.131 132.9 835.838 133.46C835.545 134.006 835.398 134.68 835.398 135.48C835.398 136.666 835.698 137.586 836.298 138.24C836.911 138.88 837.678 139.2 838.598 139.2ZM850.632 138.96L853.752 129.98H856.172L851.972 141H849.252L845.072 129.98H847.512L850.632 138.96ZM858.855 128.52C858.442 128.52 858.095 128.38 857.815 128.1C857.535 127.82 857.395 127.473 857.395 127.06C857.395 126.646 857.535 126.3 857.815 126.02C858.095 125.74 858.442 125.6 858.855 125.6C859.255 125.6 859.595 125.74 859.875 126.02C860.155 126.3 860.295 126.646 860.295 127.06C860.295 127.473 860.155 127.82 859.875 128.1C859.595 128.38 859.255 128.52 858.855 128.52ZM859.975 129.98V141H857.695V129.98H859.975ZM862.009 135.48C862.009 134.346 862.235 133.353 862.689 132.5C863.155 131.633 863.795 130.966 864.609 130.5C865.422 130.033 866.355 129.8 867.409 129.8C868.742 129.8 869.842 130.12 870.709 130.76C871.589 131.386 872.182 132.286 872.489 133.46H870.029C869.829 132.913 869.509 132.486 869.069 132.18C868.629 131.873 868.075 131.72 867.409 131.72C866.475 131.72 865.729 132.053 865.169 132.72C864.622 133.373 864.349 134.293 864.349 135.48C864.349 136.666 864.622 137.593 865.169 138.26C865.729 138.926 866.475 139.26 867.409 139.26C868.729 139.26 869.602 138.68 870.029 137.52H872.489C872.169 138.64 871.569 139.533 870.689 140.2C869.809 140.853 868.715 141.18 867.409 141.18C866.355 141.18 865.422 140.946 864.609 140.48C863.795 140 863.155 139.333 862.689 138.48C862.235 137.613 862.009 136.613 862.009 135.48ZM884.661 135.22C884.661 135.633 884.634 136.006 884.581 136.34H876.161C876.228 137.22 876.554 137.926 877.141 138.46C877.728 138.993 878.448 139.26 879.301 139.26C880.528 139.26 881.394 138.746 881.901 137.72H884.361C884.028 138.733 883.421 139.566 882.541 140.22C881.674 140.86 880.594 141.18 879.301 141.18C878.248 141.18 877.301 140.946 876.461 140.48C875.634 140 874.981 139.333 874.501 138.48C874.034 137.613 873.801 136.613 873.801 135.48C873.801 134.346 874.028 133.353 874.481 132.5C874.948 131.633 875.594 130.966 876.421 130.5C877.261 130.033 878.221 129.8 879.301 129.8C880.341 129.8 881.268 130.026 882.081 130.48C882.894 130.933 883.528 131.573 883.981 132.4C884.434 133.213 884.661 134.153 884.661 135.22ZM882.281 134.5C882.268 133.66 881.968 132.986 881.381 132.48C880.794 131.973 880.068 131.72 879.201 131.72C878.414 131.72 877.741 131.973 877.181 132.48C876.621 132.973 876.288 133.646 876.181 134.5H882.281ZM887.625 141.14C887.211 141.14 886.865 141 886.585 140.72C886.305 140.44 886.165 140.093 886.165 139.68C886.165 139.266 886.305 138.92 886.585 138.64C886.865 138.36 887.211 138.22 887.625 138.22C888.025 138.22 888.365 138.36 888.645 138.64C888.925 138.92 889.065 139.266 889.065 139.68C889.065 140.093 888.925 140.44 888.645 140.72C888.365 141 888.025 141.14 887.625 141.14Z" fill="white"/>
<defs>
<filter id="filter0_d_1792_2755" x="0" y="52.9995" width="512" height="130.204" filterUnits="userSpaceOnUse" color-interpolation-filters="sRGB">
<feFlood flood-opacity="0" result="BackgroundImageFix"/>
<feColorMatrix in="SourceAlpha" type="matrix" values="0 0 0 0 0 0 0 0 0 0 0 0 0 0 0 0 0 0 127 0" result="hardAlpha"/>
<feOffset dx="5" dy="4"/>
<feComposite in2="hardAlpha" operator="out"/>
<feColorMatrix type="matrix" values="0 0 0 0 0 0 0 0 0 0 0 0 0 0 0 0 0 0 0.25 0"/>
<feBlend mode="normal" in2="BackgroundImageFix" result="effect1_dropShadow_1792_2755"/>
<feBlend mode="normal" in="SourceGraphic" in2="effect1_dropShadow_1792_2755" result="shape"/>
</filter>
<filter id="filter1_d_1792_2755" x="414.961" y="96" width="30.2109" height="27.8934" filterUnits="userSpaceOnUse" color-interpolation-filters="sRGB">
<feFlood flood-opacity="0" result="BackgroundImageFix"/>
<feColorMatrix in="SourceAlpha" type="matrix" values="0 0 0 0 0 0 0 0 0 0 0 0 0 0 0 0 0 0 127 0" result="hardAlpha"/>
<feOffset dy="4.97734"/>
<feComposite in2="hardAlpha" operator="out"/>
<feColorMatrix type="matrix" values="0 0 0 0 0 0 0 0 0 0 0 0 0 0 0 0 0 0 0.25 0"/>
<feBlend mode="normal" in2="BackgroundImageFix" result="effect1_dropShadow_1792_2755"/>
<feBlend mode="normal" in="SourceGraphic" in2="effect1_dropShadow_1792_2755" result="shape"/>
</filter>
<filter id="filter2_d_1792_2755" x="597" y="53.9995" width="512" height="130.204" filterUnits="userSpaceOnUse" color-interpolation-filters="sRGB">
<feFlood flood-opacity="0" result="BackgroundImageFix"/>
<feColorMatrix in="SourceAlpha" type="matrix" values="0 0 0 0 0 0 0 0 0 0 0 0 0 0 0 0 0 0 127 0" result="hardAlpha"/>
<feOffset dx="5" dy="4"/>
<feComposite in2="hardAlpha" operator="out"/>
<feColorMatrix type="matrix" values="0 0 0 0 0 0 0 0 0 0 0 0 0 0 0 0 0 0 0.25 0"/>
<feBlend mode="normal" in2="BackgroundImageFix" result="effect1_dropShadow_1792_2755"/>
<feBlend mode="normal" in="SourceGraphic" in2="effect1_dropShadow_1792_2755" result="shape"/>
</filter>
<filter id="filter3_d_1792_2755" x="1027.95" y="95" width="30.2109" height="27.8934" filterUnits="userSpaceOnUse" color-interpolation-filters="sRGB">
<feFlood flood-opacity="0" result="BackgroundImageFix"/>
<feColorMatrix in="SourceAlpha" type="matrix" values="0 0 0 0 0 0 0 0 0 0 0 0 0 0 0 0 0 0 127 0" result="hardAlpha"/>
<feOffset dy="4.97734"/>
<feComposite in2="hardAlpha" operator="out"/>
<feColorMatrix type="matrix" values="0 0 0 0 0 0 0 0 0 0 0 0 0 0 0 0 0 0 0.25 0"/>
<feBlend mode="normal" in2="BackgroundImageFix" result="effect1_dropShadow_1792_2755"/>
<feBlend mode="normal" in="SourceGraphic" in2="effect1_dropShadow_1792_2755" result="shape"/>
</filter>
<linearGradient id="paint0_linear_1792_2755" x1="478.198" y1="208.081" x2="454.817" y2="144.011" gradientUnits="userSpaceOnUse">
<stop stop-color="#787878"/>
<stop offset="1" stop-color="#FF00FF"/>
</linearGradient>
<linearGradient id="paint1_linear_1792_2755" x1="478.198" y1="208.081" x2="454.817" y2="144.011" gradientUnits="userSpaceOnUse">
<stop stop-color="#787878"/>
<stop offset="1" stop-color="#FF00FF"/>
</linearGradient>
<radialGradient id="paint2_radial_1792_2755" cx="0" cy="0" r="1" gradientTransform="matrix(21.8797 94.4915 -100.526 23.3345 438.876 124.423)" gradientUnits="userSpaceOnUse">
<stop stop-color="white"/>
<stop offset="1" stop-color="#999999" stop-opacity="0"/>
</radialGradient>
<linearGradient id="paint3_linear_1792_2755" x1="411.968" y1="27.6411" x2="416.154" y2="86.1566" gradientUnits="userSpaceOnUse">
<stop stop-color="#FF00FF"/>
<stop offset="1" stop-color="#787878"/>
</linearGradient>
<linearGradient id="paint4_linear_1792_2755" x1="411.968" y1="27.6411" x2="416.154" y2="86.1566" gradientUnits="userSpaceOnUse">
<stop stop-color="#FF00FF"/>
<stop offset="1" stop-color="#787878"/>
</linearGradient>
<radialGradient id="paint5_radial_1792_2755" cx="0" cy="0" r="1" gradientUnits="userSpaceOnUse" gradientTransform="translate(412.931 115.553) rotate(-80.192) scale(94.1237 100.236)">
<stop stop-color="white"/>
<stop offset="1" stop-color="#999999" stop-opacity="0"/>
</radialGradient>
<linearGradient id="paint6_linear_1792_2755" x1="419.785" y1="103.793" x2="439.199" y2="115.069" gradientUnits="userSpaceOnUse">
<stop stop-color="#997012"/>
<stop offset="0.483963" stop-color="#F6B51D"/>
<stop offset="1" stop-color="#997012"/>
</linearGradient>
<radialGradient id="paint7_radial_1792_2755" cx="0" cy="0" r="1" gradientUnits="userSpaceOnUse" gradientTransform="translate(424.621 114.714) rotate(-158.955) scale(63.0224 45.2262)">
<stop stop-color="#FFEE00"/>
<stop offset="1" stop-color="#A200FF"/>
</radialGradient>
<linearGradient id="paint8_linear_1792_2755" x1="1091.19" y1="207.081" x2="1067.81" y2="143.011" gradientUnits="userSpaceOnUse">
<stop stop-color="#787878"/>
<stop offset="1" stop-color="#FF00FF"/>
</linearGradient>
<linearGradient id="paint9_linear_1792_2755" x1="1091.19" y1="207.081" x2="1067.81" y2="143.011" gradientUnits="userSpaceOnUse">
<stop stop-color="#787878"/>
<stop offset="1" stop-color="#FF00FF"/>
</linearGradient>
<radialGradient id="paint10_radial_1792_2755" cx="0" cy="0" r="1" gradientTransform="matrix(21.8797 94.4915 -100.526 23.3345 1051.87 123.423)" gradientUnits="userSpaceOnUse">
<stop stop-color="white"/>
<stop offset="1" stop-color="#999999" stop-opacity="0"/>
</radialGradient>
<linearGradient id="paint11_linear_1792_2755" x1="1024.96" y1="26.6406" x2="1029.15" y2="85.1561" gradientUnits="userSpaceOnUse">
<stop stop-color="#FF00FF"/>
<stop offset="1" stop-color="#787878"/>
</linearGradient>
<linearGradient id="paint12_linear_1792_2755" x1="1024.96" y1="26.6406" x2="1029.15" y2="85.1561" gradientUnits="userSpaceOnUse">
<stop stop-color="#FF00FF"/>
<stop offset="1" stop-color="#787878"/>
</linearGradient>
<radialGradient id="paint13_radial_1792_2755" cx="0" cy="0" r="1" gradientUnits="userSpaceOnUse" gradientTransform="translate(1025.92 114.553) rotate(-80.192) scale(94.1237 100.236)">
<stop stop-color="white"/>
<stop offset="1" stop-color="#999999" stop-opacity="0"/>
</radialGradient>
<linearGradient id="paint14_linear_1792_2755" x1="1032.77" y1="102.793" x2="1052.18" y2="114.069" gradientUnits="userSpaceOnUse">
<stop stop-color="#997012"/>
<stop offset="0.483963" stop-color="#F6B51D"/>
<stop offset="1" stop-color="#997012"/>
</linearGradient>
<radialGradient id="paint15_radial_1792_2755" cx="0" cy="0" r="1" gradientUnits="userSpaceOnUse" gradientTransform="translate(1037.61 113.714) rotate(-158.955) scale(63.0224 45.2262)">
<stop stop-color="#FFEE00"/>
<stop offset="1" stop-color="#A200FF"/>
</radialGradient>
</defs>
</svg>
