<svg width="68" height="49" viewBox="0 0 68 49" fill="none" xmlns="http://www.w3.org/2000/svg">
<g filter="url(#filter0_d_1704_2604)">
<g filter="url(#filter1_d_1704_2604)">
<path d="M55.7762 5.46294C59.0143 6.12264 62.1388 7.56924 64.2501 10.3758C66.4312 13.2753 66.8428 16.6941 66.1726 19.9824C65.8796 21.4193 65.3708 22.8551 64.5483 24.165C65.4215 26.3209 65.2888 28.5664 64.9184 30.3835C64.2103 33.8573 62.3728 36.9186 59.1132 38.7834C56.6826 40.1736 54.0083 40.5811 51.3414 40.3774L50.7831 41.8622L50.447 42.7538L49.7242 43.3755L47.2949 40.549L49.7217 43.378C49.7211 43.3785 49.719 43.3804 49.718 43.3812C49.7163 43.3827 49.7148 43.3846 49.713 43.3862C49.7089 43.3897 49.7041 43.3936 49.6997 43.3973C49.691 43.4047 49.6809 43.412 49.671 43.4203C49.6507 43.4372 49.6276 43.4566 49.6024 43.4768C49.5518 43.5174 49.491 43.5651 49.4205 43.6176C49.279 43.7228 49.0956 43.8507 48.8733 43.9895C48.4299 44.2664 47.818 44.5933 47.0492 44.8798C45.4898 45.4608 43.3249 45.854 40.7047 45.3573L26.46 42.6572C21.4494 41.7071 17.7259 37.8497 16.704 33.1625L13.1455 32.9299C10.5896 32.7626 8.40159 31.0245 7.66579 28.565L1.48087 7.89354C0.274178 3.86016 3.39238 -0.147582 7.58289 0.00417818L13.8815 0.231298C16.2313 0.316448 18.3216 1.73622 19.2703 3.87797L19.3595 4.08704L21.2014 8.69654L23.7147 9.00494L24.084 6.52024C24.5512 3.36973 27.3477 1.10775 30.5165 1.29511L36.5399 1.65149C37.8187 1.72716 38.9757 2.18936 39.9137 2.91096C40.7211 2.68759 41.5849 2.62496 42.4593 2.75728L42.7708 2.81312L55.7762 5.46294ZM22.5152 32.5012C21.9272 32.8439 21.2755 33.0908 20.5798 33.2217C21.5263 36.0999 23.9665 38.3908 27.154 38.9952L41.3987 41.6953C45.121 42.401 47.2768 40.5645 47.2949 40.549L47.6236 39.6738L35.5603 36.1876C34.7937 35.966 34.1013 35.6061 33.5035 35.1423C32.9315 35.2201 32.3386 35.2206 31.7398 35.1285L25.9253 34.233C24.5816 34.0262 23.4072 33.3963 22.5152 32.5012ZM36.346 30.2006C36.34 30.259 36.3398 30.317 36.3448 30.374C36.3473 30.4026 36.3509 30.4311 36.356 30.4591L36.357 30.4593C36.3364 30.3477 36.3368 30.2303 36.3602 30.1128C36.3543 30.1421 36.3489 30.1715 36.346 30.2006ZM59.9524 28.4207C59.9565 28.3817 59.9612 28.343 59.9646 28.3045C59.979 28.1413 59.9876 27.9828 59.9906 27.8292C59.9912 27.7984 59.9907 27.7678 59.9908 27.7374C59.9897 27.9553 59.9769 28.1831 59.9524 28.4207ZM59.384 22.3545C59.2599 22.4867 59.1316 22.6114 58.999 22.7283C58.9481 22.7733 58.9013 22.8226 58.8587 22.8756L58.9265 22.799C58.9499 22.7744 58.9745 22.751 59 22.7285C59.1322 22.6118 59.26 22.4874 59.3838 22.3555L59.384 22.3545ZM61.1879 18.1714C61.157 18.4225 61.1161 18.6789 61.0628 18.9403L61.1334 18.563C61.1552 18.4312 61.172 18.3004 61.1879 18.1714Z" fill="#6C00AB"/>
</g>
<path d="M18.4702 28.5908C19.5471 22.9105 25.0248 19.1785 30.7052 20.2553L44.9496 22.9558C46.6702 23.282 48.3201 24.1506 49.6787 25.2114C51.0379 26.2727 52.2297 27.6225 52.9608 29.0504L53.3361 29.7843L53.0454 30.5564L49.037 41.2056L48.8691 41.6514L48.5084 41.9625L47.2933 40.5491L48.5064 41.9635L48.5055 41.9645L48.5017 41.9676C48.4995 41.9694 48.4975 41.9716 48.495 41.9737C48.49 41.9779 48.484 41.9828 48.4779 41.9879C48.4656 41.998 48.4508 42.01 48.434 42.0234C48.4004 42.0504 48.3578 42.0837 48.3062 42.1221C48.2023 42.1994 48.0614 42.2986 47.8851 42.4087C47.533 42.6286 47.0342 42.8976 46.398 43.1346C45.1149 43.6127 43.2949 43.9519 41.0501 43.5263L26.8057 40.8258C21.1254 39.749 17.3934 34.2712 18.4702 28.5908Z" stroke="#6C00AB" stroke-width="3.72683"/>
<path d="M37.0103 31.1782C36.5499 31.0451 36.2681 30.5822 36.3617 30.1129L40.643 8.64479C40.7428 8.14429 41.2309 7.82039 41.7316 7.92249L54.7375 10.5724C57.2076 11.0757 58.99 12.055 60.0847 13.5102C61.1794 14.9655 61.5063 16.7755 61.065 18.9403C60.8136 20.1737 60.3738 21.1722 59.7456 21.9356C59.5145 22.2301 59.2665 22.4943 59.0015 22.7281C58.4565 23.2087 58.3688 24.177 58.8448 24.7263C59.1551 25.0843 59.4105 25.4689 59.611 25.88C60.0419 26.7281 60.1086 27.8822 59.811 29.3422C59.3441 31.6328 58.2488 33.2711 56.5252 34.257C54.8016 35.2429 52.629 35.4688 50.0077 34.9346L37.0103 31.1782ZM46.7813 17.9213C46.6797 18.4199 47.002 18.9065 47.5012 19.0082L50.605 19.6406C52.0669 19.9384 52.9313 19.4329 53.1981 18.124C53.3264 17.4947 53.2349 16.9779 52.9235 16.5736C52.6424 16.1493 52.0986 15.855 51.292 15.6906L48.3016 15.0813C47.8024 14.9796 47.3154 15.3013 47.2138 15.7998L46.7813 17.9213ZM44.8956 27.172C44.794 27.6705 45.1163 28.1571 45.6155 28.2588L48.8705 28.922C50.4081 29.2353 51.3205 28.6871 51.6079 27.2775C51.8747 25.9686 51.2141 25.1523 49.6262 24.8288L46.4467 24.181C45.9475 24.0793 45.4605 24.4009 45.3589 24.8995L44.8956 27.172Z" fill="black"/>
<path d="M37.0103 31.1782C36.5499 31.0451 36.2681 30.5822 36.3617 30.1129L40.643 8.64479C40.7428 8.14429 41.2309 7.82039 41.7316 7.92249L54.7375 10.5724C57.2076 11.0757 58.99 12.055 60.0847 13.5102C61.1794 14.9655 61.5063 16.7755 61.065 18.9403C60.8136 20.1737 60.3738 21.1722 59.7456 21.9356C59.5145 22.2301 59.2665 22.4943 59.0015 22.7281C58.4565 23.2087 58.3688 24.177 58.8448 24.7263C59.1551 25.0843 59.4105 25.4689 59.611 25.88C60.0419 26.7281 60.1086 27.8822 59.811 29.3422C59.3441 31.6328 58.2488 33.2711 56.5252 34.257C54.8016 35.2429 52.629 35.4688 50.0077 34.9346L37.0103 31.1782ZM46.7813 17.9213C46.6797 18.4199 47.002 18.9065 47.5012 19.0082L50.605 19.6406C52.0669 19.9384 52.9313 19.4329 53.1981 18.124C53.3264 17.4947 53.2349 16.9779 52.9235 16.5736C52.6424 16.1493 52.0986 15.855 51.292 15.6906L48.3016 15.0813C47.8024 14.9796 47.3154 15.3013 47.2138 15.7998L46.7813 17.9213ZM44.8956 27.172C44.794 27.6705 45.1163 28.1571 45.6155 28.2588L48.8705 28.922C50.4081 29.2353 51.3205 28.6871 51.6079 27.2775C51.8747 25.9686 51.2141 25.1523 49.6262 24.8288L46.4467 24.181C45.9475 24.0793 45.4605 24.4009 45.3589 24.8995L44.8956 27.172Z" fill="#FFF7E5"/>
<path d="M47.5003 19.0082L50.6041 19.6406C52.066 19.9384 52.9304 19.4329 53.1972 18.124C53.3255 17.4947 53.234 16.9779 52.9226 16.5736C52.6415 16.1493 52.0977 15.855 51.2911 15.6906L48.3007 15.0813C47.8015 14.9796 47.3145 15.3013 47.2129 15.7998L46.7804 17.9213C46.6788 18.4199 47.0011 18.9065 47.5003 19.0082Z" fill="black"/>
<path d="M47.5003 19.0082L50.6041 19.6406C52.066 19.9384 52.9304 19.4329 53.1972 18.124C53.3255 17.4947 53.234 16.9779 52.9226 16.5736C52.6415 16.1493 52.0977 15.855 51.2911 15.6906L48.3007 15.0813C47.8015 14.9796 47.3145 15.3013 47.2129 15.7998L46.7804 17.9213C46.6788 18.4199 47.0011 18.9065 47.5003 19.0082Z" fill="#6C00AB"/>
<path d="M45.6175 28.2587L48.8725 28.9219C50.4101 29.2352 51.3225 28.687 51.6099 27.2774C51.8767 25.9685 51.2161 25.1522 49.6282 24.8287L46.4487 24.1809C45.9495 24.0792 45.4625 24.4008 45.3609 24.8994L44.8976 27.1719C44.796 27.6704 45.1183 28.157 45.6175 28.2587Z" fill="black"/>
<path d="M45.6175 28.2587L48.8725 28.9219C50.4101 29.2352 51.3225 28.687 51.6099 27.2774C51.8767 25.9685 51.2161 25.1522 49.6282 24.8287L46.4487 24.1809C45.9495 24.0792 45.4625 24.4008 45.3609 24.8994L44.8976 27.1719C44.796 27.6704 45.1183 28.157 45.6175 28.2587Z" fill="#6C00AB"/>
<path d="M32.5375 29.9738C33.0373 30.0507 33.5058 29.7115 33.5878 29.2132L37.0923 7.92648C37.1811 7.38708 36.7827 6.88938 36.2362 6.85708L30.2126 6.50058C29.7355 6.47238 29.316 6.81278 29.246 7.28498L28.2639 13.9115C28.1906 14.4058 27.736 14.7515 27.2393 14.6906L18.0494 13.5631C17.7151 13.5221 17.4297 13.3024 17.3048 12.9899L14.5205 6.02198C14.385 5.68298 14.062 5.45568 13.6968 5.44248L7.39757 5.21438C6.76657 5.19148 6.29997 5.79418 6.48067 6.39838L12.6656 27.0706C12.776 27.4396 13.1046 27.7013 13.4894 27.7264L19.3795 28.112C20.0124 28.1534 20.4971 27.5593 20.3288 26.9485L18.9848 22.0735C18.8164 21.4627 19.3011 20.8686 19.934 20.91L26.0364 21.3094C26.5807 21.345 26.9755 21.842 26.8865 22.3795L25.9524 28.0177C25.8686 28.5237 26.2148 29.0008 26.7224 29.079L32.5375 29.9738Z" fill="black"/>
<path d="M32.5375 29.9738C33.0373 30.0507 33.5058 29.7115 33.5878 29.2132L37.0923 7.92648C37.1811 7.38708 36.7827 6.88938 36.2362 6.85708L30.2126 6.50058C29.7355 6.47238 29.316 6.81278 29.246 7.28498L28.2639 13.9115C28.1906 14.4058 27.736 14.7515 27.2393 14.6906L18.0494 13.5631C17.7151 13.5221 17.4297 13.3024 17.3048 12.9899L14.5205 6.02198C14.385 5.68298 14.062 5.45568 13.6968 5.44248L7.39757 5.21438C6.76657 5.19148 6.29997 5.79418 6.48067 6.39838L12.6656 27.0706C12.776 27.4396 13.1046 27.7013 13.4894 27.7264L19.3795 28.112C20.0124 28.1534 20.4971 27.5593 20.3288 26.9485L18.9848 22.0735C18.8164 21.4627 19.3011 20.8686 19.934 20.91L26.0364 21.3094C26.5807 21.345 26.9755 21.842 26.8865 22.3795L25.9524 28.0177C25.8686 28.5237 26.2148 29.0008 26.7224 29.079L32.5375 29.9738Z" fill="#FFF7E5"/>
<path d="M46.7913 27.9614L23.9609 23.7588L21.7842 35.5837L44.6145 39.7863L46.7913 27.9614Z" fill="#6C00AB"/>
<g filter="url(#filter2_d_1704_2604)">
<path d="M21.0799 28.8835C22.0357 24.4308 26.4198 21.5956 30.8725 22.5513L44.4572 25.4676C47.0473 26.0238 49.6892 28.3053 50.7567 30.5201L46.8248 40.7573C46.3115 40.7607 44.5603 42.3575 40.9958 41.5925L27.4111 38.6762C22.9586 37.7203 20.1242 33.3362 21.0799 28.8835ZM42.2814 28.3562C41.2152 28.1008 40.2896 28.068 39.5052 28.2591C38.723 28.441 38.0485 28.8243 37.4812 29.4076C36.9139 29.9908 36.4066 30.7487 35.9597 31.6814C35.7217 32.1881 35.5489 32.6667 35.4411 33.117C35.2011 34.1188 35.3019 34.9547 35.744 35.6243C36.1954 36.2959 36.9908 36.7681 38.1303 37.0411C39.2056 37.2988 40.1298 37.3351 40.9028 37.151C41.6872 36.9599 42.3632 36.573 42.9305 35.9898C43.507 35.4087 44.0142 34.6508 44.452 33.7159C44.5688 33.4718 44.6641 33.2369 44.7375 33.0116C44.8223 32.7792 44.8908 32.5524 44.9437 32.3319C45.177 31.3577 45.0854 30.5243 44.6683 29.8316C44.2625 29.1319 43.4669 28.6403 42.2814 28.3562ZM32.1621 33.4977C32.1012 33.4831 32.0384 33.5135 32.0117 33.5702L31.2943 35.0943C31.2588 35.1701 31.3019 35.2599 31.3834 35.2794L33.1612 35.7046C33.2222 35.7191 33.285 35.6888 33.3117 35.6322L34.0281 34.1081C34.0637 34.0324 34.0213 33.9427 33.94 33.923L32.1621 33.4977ZM39.7637 30.712C40.1799 30.3941 40.6864 30.3067 41.2835 30.4497C41.743 30.5598 42.041 30.7378 42.1763 30.9841C42.3139 31.2211 42.335 31.5377 42.2404 31.9329C42.2007 32.0982 42.1439 32.274 42.0701 32.4602C41.9963 32.6465 41.908 32.854 41.8048 33.0819C41.4522 33.8234 41.0665 34.3581 40.6479 34.6854C40.2316 35.0034 39.7245 35.0908 39.1272 34.9477C38.6586 34.8354 38.3542 34.6651 38.2145 34.4373C38.077 34.2003 38.0529 33.8982 38.1409 33.5308C38.2223 33.1907 38.3777 32.7853 38.6069 32.3154C38.9617 31.5647 39.3474 31.0301 39.7637 30.712ZM31.7232 26.0118L24.9263 30.1462C24.9043 30.1596 24.8862 30.179 24.8751 30.2023L24.197 31.6295C24.1613 31.7054 24.2045 31.7951 24.2861 31.8147L28.0091 32.7065C28.0905 32.7261 28.1338 32.8158 28.0982 32.8916L27.4916 34.1831C27.456 34.259 27.4992 34.3487 27.5807 34.3682L29.9093 34.926C29.9702 34.9406 30.033 34.9101 30.0597 34.8535L30.7134 33.463C30.7401 33.4063 30.8028 33.3759 30.8638 33.3905L31.4548 33.5317C31.5152 33.5461 31.5772 33.517 31.6043 33.4612L32.4437 31.7179C32.4802 31.6419 32.4376 31.5514 32.3556 31.5317L31.8738 31.4169C31.7924 31.3971 31.7499 31.3075 31.7857 31.2317L33.9471 26.6691C33.983 26.5932 33.9397 26.5035 33.858 26.4839L31.8224 25.9964C31.7885 25.9883 31.753 25.9937 31.7232 26.0118ZM30.7648 28.5868C30.8806 28.5289 31.0017 28.6549 30.9398 28.7686L29.8923 30.6915C29.8652 30.7411 29.8092 30.7683 29.7534 30.7587L27.6823 30.3982C27.5567 30.3763 27.5314 30.2063 27.6452 30.1491L30.7648 28.5868Z" fill="url(#paint0_linear_1704_2604)"/>
<path d="M21.0799 28.8835C22.0357 24.4308 26.4198 21.5956 30.8725 22.5513L44.4572 25.4676C47.0473 26.0238 49.6892 28.3053 50.7567 30.5201L46.8248 40.7573C46.3115 40.7607 44.5603 42.3575 40.9958 41.5925L27.4111 38.6762C22.9586 37.7203 20.1242 33.3362 21.0799 28.8835ZM42.2814 28.3562C41.2152 28.1008 40.2896 28.068 39.5052 28.2591C38.723 28.441 38.0485 28.8243 37.4812 29.4076C36.9139 29.9908 36.4066 30.7487 35.9597 31.6814C35.7217 32.1881 35.5489 32.6667 35.4411 33.117C35.2011 34.1188 35.3019 34.9547 35.744 35.6243C36.1954 36.2959 36.9908 36.7681 38.1303 37.0411C39.2056 37.2988 40.1298 37.3351 40.9028 37.151C41.6872 36.9599 42.3632 36.573 42.9305 35.9898C43.507 35.4087 44.0142 34.6508 44.452 33.7159C44.5688 33.4718 44.6641 33.2369 44.7375 33.0116C44.8223 32.7792 44.8908 32.5524 44.9437 32.3319C45.177 31.3577 45.0854 30.5243 44.6683 29.8316C44.2625 29.1319 43.4669 28.6403 42.2814 28.3562ZM32.1621 33.4977C32.1012 33.4831 32.0384 33.5135 32.0117 33.5702L31.2943 35.0943C31.2588 35.1701 31.3019 35.2599 31.3834 35.2794L33.1612 35.7046C33.2222 35.7191 33.285 35.6888 33.3117 35.6322L34.0281 34.1081C34.0637 34.0324 34.0213 33.9427 33.94 33.923L32.1621 33.4977ZM39.7637 30.712C40.1799 30.3941 40.6864 30.3067 41.2835 30.4497C41.743 30.5598 42.041 30.7378 42.1763 30.9841C42.3139 31.2211 42.335 31.5377 42.2404 31.9329C42.2007 32.0982 42.1439 32.274 42.0701 32.4602C41.9963 32.6465 41.908 32.854 41.8048 33.0819C41.4522 33.8234 41.0665 34.3581 40.6479 34.6854C40.2316 35.0034 39.7245 35.0908 39.1272 34.9477C38.6586 34.8354 38.3542 34.6651 38.2145 34.4373C38.077 34.2003 38.0529 33.8982 38.1409 33.5308C38.2223 33.1907 38.3777 32.7853 38.6069 32.3154C38.9617 31.5647 39.3474 31.0301 39.7637 30.712ZM31.7232 26.0118L24.9263 30.1462C24.9043 30.1596 24.8862 30.179 24.8751 30.2023L24.197 31.6295C24.1613 31.7054 24.2045 31.7951 24.2861 31.8147L28.0091 32.7065C28.0905 32.7261 28.1338 32.8158 28.0982 32.8916L27.4916 34.1831C27.456 34.259 27.4992 34.3487 27.5807 34.3682L29.9093 34.926C29.9702 34.9406 30.033 34.9101 30.0597 34.8535L30.7134 33.463C30.7401 33.4063 30.8028 33.3759 30.8638 33.3905L31.4548 33.5317C31.5152 33.5461 31.5772 33.517 31.6043 33.4612L32.4437 31.7179C32.4802 31.6419 32.4376 31.5514 32.3556 31.5317L31.8738 31.4169C31.7924 31.3971 31.7499 31.3075 31.7857 31.2317L33.9471 26.6691C33.983 26.5932 33.9397 26.5035 33.858 26.4839L31.8224 25.9964C31.7885 25.9883 31.753 25.9937 31.7232 26.0118ZM30.7648 28.5868C30.8806 28.5289 31.0017 28.6549 30.9398 28.7686L29.8923 30.6915C29.8652 30.7411 29.8092 30.7683 29.7534 30.7587L27.6823 30.3982C27.5567 30.3763 27.5314 30.2063 27.6452 30.1491L30.7648 28.5868Z" fill="#FFEE00"/>
</g>
<path d="M42.3107 28.2362C43.5125 28.5242 44.3479 29.029 44.7797 29.7717C45.2187 30.5008 45.3101 31.3717 45.0708 32.371C45.017 32.5953 44.9471 32.8251 44.8615 33.06L44.8622 33.0611C44.7868 33.2927 44.6891 33.5328 44.5702 33.7815C44.1276 34.7264 43.6119 35.4978 43.0225 36.0919C42.4382 36.6921 41.7405 37.0913 40.9323 37.2882C40.1328 37.4786 39.1857 37.4391 38.0976 37.1784C36.9402 36.9011 36.1092 36.4156 35.6326 35.7062L35.6319 35.705C35.1644 34.9968 35.0644 34.121 35.3104 33.0944C35.4208 32.6337 35.5971 32.1464 35.8382 31.6332L35.8384 31.6322C36.29 30.6899 36.8051 29.9194 37.3847 29.3235C37.8964 28.7975 38.4944 28.4291 39.1766 28.2194L39.474 28.139C40.2845 27.9419 41.2317 27.9777 42.3107 28.2362ZM33.8872 26.3637C34.0505 26.4028 34.1364 26.5818 34.0647 26.7336L31.9039 31.2971L32.3854 31.4125C32.5493 31.4519 32.6347 31.6321 32.5615 31.7841L31.7221 33.5271C31.668 33.639 31.5429 33.698 31.422 33.6691L30.8313 33.5276L30.1787 34.9187C30.1253 35.032 29.9988 35.0925 29.8769 35.0633L27.5483 34.5054C27.3853 34.4663 27.2996 34.2872 27.3708 34.1355L27.9765 32.8436L24.2538 31.9517C24.0903 31.9125 24.0044 31.7327 24.0765 31.5808L24.7546 30.1547C24.7767 30.1081 24.812 30.0682 24.856 30.0414L31.6529 25.9067C31.7125 25.8706 31.7843 25.8599 31.8521 25.8761L33.8872 26.3637ZM33.9686 33.8032C34.1317 33.8423 34.2185 34.0216 34.1471 34.1733L33.4294 35.6975C33.376 35.8108 33.2505 35.8715 33.1286 35.8423L31.3508 35.4164C31.188 35.3773 31.1022 35.1982 31.1733 35.0465L31.89 33.5221C31.9434 33.4087 32.0698 33.3483 32.1918 33.3775L33.9686 33.8032ZM41.2516 30.5864C40.6858 30.4508 40.2217 30.5359 39.8427 30.8252C39.4502 31.1251 39.0755 31.6386 38.7251 32.3801L38.7237 32.3817C38.4968 32.8468 38.3457 33.2425 38.2673 33.5698C38.1847 33.9149 38.2121 34.1784 38.3252 34.376L38.3262 34.3762C38.4375 34.5578 38.6974 34.7172 39.157 34.8274C39.7232 34.963 40.1877 34.8784 40.5668 34.5887C40.962 34.2792 41.3356 33.7658 41.6831 33.0355C41.7856 32.8091 41.8732 32.6037 41.9461 32.4197C42.018 32.2382 42.0725 32.0681 42.1104 31.9098C42.2009 31.532 42.1739 31.2554 42.0601 31.0592L42.0589 31.0559C41.9505 30.8589 41.6983 30.6934 41.2516 30.5864ZM27.6521 30.2745L29.7744 30.6373L30.8247 28.7098L27.6521 30.2745Z" fill="#7709B8" stroke="#FFD000" stroke-width="0.264547"/>
<g filter="url(#filter3_dn_1704_2604)">
<path d="M21.3586 28.9399C22.2813 24.6421 26.5137 21.9056 30.8116 22.828L44.3961 25.7439C45.6358 26.01 46.9035 26.6938 47.9956 27.5897C49.05 28.4547 49.9222 29.5041 50.4423 30.5322L46.6122 40.5047C46.5602 40.5204 46.5099 40.5387 46.4642 40.5574C46.3512 40.6036 46.2177 40.6676 46.0757 40.7349C45.7857 40.8721 45.4214 41.0418 44.9664 41.1877C44.0616 41.4779 42.7835 41.6799 41.0551 41.3089L27.4706 38.3929C23.1727 37.4701 20.436 33.2379 21.3586 28.9399Z" stroke="url(#paint1_linear_1704_2604)" stroke-width="0.572816"/>
</g>
<mask id="mask0_1704_2604" style="mask-type:alpha" maskUnits="userSpaceOnUse" x="20" y="22" width="31" height="20">
<path d="M21.0603 28.8859C22.0162 24.4333 26.4012 21.5988 30.8539 22.5546L44.4376 25.47C47.0278 26.026 49.6695 28.3085 50.7371 30.5235L46.8052 40.7606C46.2913 40.765 44.5399 42.3598 40.9762 41.5949L27.3925 38.6796C22.9397 37.7238 20.1045 33.3387 21.0603 28.8859ZM42.2676 28.3584C41.2016 28.103 40.2758 28.0712 39.4915 28.2623C38.7095 28.4442 38.0347 28.8267 37.4674 29.4098C36.9 29.993 36.393 30.7518 35.9459 31.6846C35.7081 32.1909 35.5352 32.6691 35.4273 33.1192C35.1873 34.1209 35.2883 34.957 35.7303 35.6265C36.1815 36.2983 36.977 36.7713 38.1165 37.0443C39.1918 37.3019 40.1162 37.3382 40.8891 37.1542C41.6734 36.9631 42.3494 36.5761 42.9168 35.9929C43.4932 35.412 44.0005 34.6539 44.4383 33.7191C44.555 33.4751 44.6504 33.2401 44.7238 33.0148C44.8086 32.7824 44.8781 32.5556 44.9309 32.335C45.1643 31.3608 45.0717 30.5275 44.6545 29.8348C44.2488 29.135 43.4533 28.6425 42.2676 28.3584ZM32.1484 33.5009C32.0875 33.4863 32.0247 33.5158 31.998 33.5724L31.2815 35.0974C31.2461 35.1731 31.2884 35.2619 31.3696 35.2816L33.1475 35.7078C33.2085 35.7224 33.2713 35.6921 33.2979 35.6353L34.0154 34.1113C34.051 34.0354 34.0078 33.9457 33.9263 33.9261L32.1484 33.5009ZM39.75 30.7151C40.1664 30.397 40.6733 30.3097 41.2707 30.4528C41.7302 30.5629 42.0273 30.7411 42.1626 30.9873C42.3001 31.2242 42.3222 31.54 42.2276 31.9351C42.1879 32.1005 42.1312 32.2769 42.0574 32.4633C41.9836 32.6497 41.8952 32.8572 41.792 33.0851C41.4396 33.8263 41.0535 34.3602 40.6352 34.6876C40.2189 35.0057 39.7117 35.0939 39.1144 34.9509C38.6459 34.8386 38.3416 34.6682 38.2017 34.4404C38.0641 34.2034 38.039 33.9006 38.1271 33.533C38.2086 33.193 38.3641 32.7883 38.5931 32.3186C38.9479 31.5679 39.3336 31.0333 39.75 30.7151ZM31.7094 26.014L24.9126 30.1494C24.8906 30.1628 24.8724 30.1822 24.8614 30.2055L24.1843 31.6317C24.1482 31.7076 24.1908 31.7982 24.2724 31.8179L27.9954 32.7097C28.0769 32.7292 28.1201 32.819 28.0845 32.8948L27.4779 34.1863C27.4426 34.262 27.4857 34.3509 27.5669 34.3705L29.8965 34.9291C29.9574 34.9435 30.0203 34.9132 30.047 34.8566L30.6997 33.4662C30.7263 33.4094 30.7891 33.3791 30.8501 33.3937L31.4411 33.5349C31.5016 33.5494 31.5645 33.5194 31.5915 33.4633L32.431 31.721C32.4674 31.6452 32.4246 31.5547 32.3429 31.5349L31.861 31.4201C31.7795 31.4005 31.7364 31.3107 31.772 31.2349L33.9333 26.6723C33.9693 26.5963 33.9259 26.5057 33.8442 26.4861L31.8087 25.9986C31.7749 25.9906 31.7391 25.996 31.7094 26.014ZM30.7206 28.6162C30.838 28.554 30.9641 28.6849 30.8975 28.7999L29.7985 30.6949C29.7702 30.7436 29.7139 30.769 29.6585 30.7583L27.8445 30.4063C27.7223 30.3825 27.6978 30.2187 27.8075 30.1602L30.7206 28.6162Z" fill="url(#paint2_linear_1704_2604)"/>
</mask>
<g mask="url(#mask0_1704_2604)">
<path d="M38.1578 21.4735L31.6602 18.9822L23.0834 41.3512L29.581 43.8425L38.1578 21.4735Z" fill="#FFFCC7" fill-opacity="0.45"/>
<path d="M43.944 20.9413L41.6758 20.0958L33.3078 42.5438L35.576 43.3893L43.944 20.9413Z" fill="#FFFCC7" fill-opacity="0.45"/>
<path d="M47.4462 21.9051L46.4805 21.545L38.1125 43.993L39.0783 44.353L47.4462 21.9051Z" fill="#FFFCC7" fill-opacity="0.45"/>
</g>
<g filter="url(#filter4_d_1704_2604)">
<path d="M46.8371 40.756C44.9323 39.3923 44.5264 31.7335 50.7043 30.5768C49.8487 32.995 48.3738 37.2183 46.8371 40.756Z" fill="url(#paint3_linear_1704_2604)"/>
<path d="M46.8371 40.756C44.9323 39.3923 44.5264 31.7335 50.7043 30.5768C49.8487 32.995 48.3738 37.2183 46.8371 40.756Z" fill="black" fill-opacity="0.24"/>
<path d="M46.8371 40.756C44.9323 39.3923 44.5264 31.7335 50.7043 30.5768C49.8487 32.995 48.3738 37.2183 46.8371 40.756Z" stroke="url(#paint4_linear_1704_2604)" stroke-width="0.0661368"/>
</g>
</g>
<defs>
<filter id="filter0_d_1704_2604" x="0.00171196" y="0" width="67.6802" height="48.0179" filterUnits="userSpaceOnUse" color-interpolation-filters="sRGB">
<feFlood flood-opacity="0" result="BackgroundImageFix"/>
<feColorMatrix in="SourceAlpha" type="matrix" values="0 0 0 0 0 0 0 0 0 0 0 0 0 0 0 0 0 0 127 0" result="hardAlpha"/>
<feOffset dy="1.21704"/>
<feGaussianBlur stdDeviation="0.608519"/>
<feComposite in2="hardAlpha" operator="out"/>
<feColorMatrix type="matrix" values="0 0 0 0 0 0 0 0 0 0 0 0 0 0 0 0 0 0 0.25 0"/>
<feBlend mode="normal" in2="BackgroundImageFix" result="effect1_dropShadow_1704_2604"/>
<feBlend mode="normal" in="SourceGraphic" in2="effect1_dropShadow_1704_2604" result="shape"/>
</filter>
<filter id="filter1_d_1704_2604" x="1.21875" y="0" width="65.2461" height="47.2252" filterUnits="userSpaceOnUse" color-interpolation-filters="sRGB">
<feFlood flood-opacity="0" result="BackgroundImageFix"/>
<feColorMatrix in="SourceAlpha" type="matrix" values="0 0 0 0 0 0 0 0 0 0 0 0 0 0 0 0 0 0 127 0" result="hardAlpha"/>
<feOffset dy="1.64148"/>
<feComposite in2="hardAlpha" operator="out"/>
<feColorMatrix type="matrix" values="0 0 0 0 0 0 0 0 0 0 0 0 0 0 0 0 0 0 0.25 0"/>
<feBlend mode="normal" in2="BackgroundImageFix" result="effect1_dropShadow_1704_2604"/>
<feBlend mode="normal" in="SourceGraphic" in2="effect1_dropShadow_1704_2604" result="shape"/>
</filter>
<filter id="filter2_d_1704_2604" x="20.8945" y="22.366" width="29.8633" height="20.5796" filterUnits="userSpaceOnUse" color-interpolation-filters="sRGB">
<feFlood flood-opacity="0" result="BackgroundImageFix"/>
<feColorMatrix in="SourceAlpha" type="matrix" values="0 0 0 0 0 0 0 0 0 0 0 0 0 0 0 0 0 0 127 0" result="hardAlpha"/>
<feOffset dy="1.14563"/>
<feComposite in2="hardAlpha" operator="out"/>
<feColorMatrix type="matrix" values="0 0 0 0 0 0 0 0 0 0 0 0 0 0 0 0 0 0 0.27 0"/>
<feBlend mode="normal" in2="BackgroundImageFix" result="effect1_dropShadow_1704_2604"/>
<feBlend mode="normal" in="SourceGraphic" in2="effect1_dropShadow_1704_2604" result="shape"/>
</filter>
<filter id="filter3_dn_1704_2604" x="20.3654" y="22.3627" width="30.9176" height="20.4923" filterUnits="userSpaceOnUse" color-interpolation-filters="sRGB">
<feFlood flood-opacity="0" result="BackgroundImageFix"/>
<feColorMatrix in="SourceAlpha" type="matrix" values="0 0 0 0 0 0 0 0 0 0 0 0 0 0 0 0 0 0 127 0" result="hardAlpha"/>
<feOffset dy="0.529094"/>
<feGaussianBlur stdDeviation="0.264547"/>
<feComposite in2="hardAlpha" operator="out"/>
<feColorMatrix type="matrix" values="0 0 0 0 0 0 0 0 0 0 0 0 0 0 0 0 0 0 0.25 0"/>
<feBlend mode="normal" in2="BackgroundImageFix" result="effect1_dropShadow_1704_2604"/>
<feBlend mode="normal" in="SourceGraphic" in2="BackgroundImageFix" result="shape"/>
<feTurbulence type="fractalNoise" baseFrequency="0.64616149663925171 0.64616149663925171" stitchTiles="stitch" numOctaves="3" result="noise" seed="6754" />
<feColorMatrix in="noise" type="luminanceToAlpha" result="alphaNoise" />
<feComponentTransfer in="alphaNoise" result="coloredNoise1">
<feFuncA type="discrete" tableValues="0 0 0 0 0 0 0 0 0 0 0 0 0 0 0 0 0 1 1 1 1 1 1 1 1 1 1 1 1 1 1 1 1 1 0 0 0 0 0 0 0 0 0 0 0 0 0 0 0 0 0 0 0 0 0 0 0 0 0 0 0 0 0 0 0 0 0 0 0 0 0 0 0 0 0 0 0 0 0 0 0 0 0 0 0 0 0 0 0 0 0 0 0 0 0 0 0 0 0 0 "/>
</feComponentTransfer>
<feComposite operator="in" in2="shape" in="coloredNoise1" result="noise1Clipped" />
<feComponentTransfer in="alphaNoise" result="coloredNoise2">
<feFuncA type="discrete" tableValues="0 0 0 0 0 0 0 0 0 0 0 0 0 0 0 0 0 0 0 0 0 0 0 0 0 0 0 0 0 0 0 0 0 0 0 0 0 0 0 0 0 0 0 0 0 0 0 0 0 0 0 0 0 0 0 0 0 0 0 0 0 0 0 0 0 0 1 1 1 1 1 1 1 1 1 1 1 1 1 1 1 1 1 0 0 0 0 0 0 0 0 0 0 0 0 0 0 0 0 0 "/>
</feComponentTransfer>
<feComposite operator="in" in2="shape" in="coloredNoise2" result="noise2Clipped" />
<feFlood flood-color="rgba(255, 196, 0, 0.72)" result="color1Flood" />
<feComposite operator="in" in2="noise1Clipped" in="color1Flood" result="color1" />
<feFlood flood-color="rgba(255, 255, 255, 0.44)" result="color2Flood" />
<feComposite operator="in" in2="noise2Clipped" in="color2Flood" result="color2" />
<feMerge result="effect2_noise_1704_2604">
<feMergeNode in="shape" />
<feMergeNode in="color1" />
<feMergeNode in="color2" />
</feMerge>
<feBlend mode="normal" in="effect2_noise_1704_2604" in2="effect1_dropShadow_1704_2604" result="effect2_noise_1704_2604"/>
</filter>
<filter id="filter4_d_1704_2604" x="45.3376" y="30.4411" width="6.17023" height="11.2518" filterUnits="userSpaceOnUse" color-interpolation-filters="sRGB">
<feFlood flood-opacity="0" result="BackgroundImageFix"/>
<feColorMatrix in="SourceAlpha" type="matrix" values="0 0 0 0 0 0 0 0 0 0 0 0 0 0 0 0 0 0 127 0" result="hardAlpha"/>
<feOffset dx="0.264547" dy="0.396821"/>
<feGaussianBlur stdDeviation="0.244706"/>
<feComposite in2="hardAlpha" operator="out"/>
<feColorMatrix type="matrix" values="0 0 0 0 0 0 0 0 0 0 0 0 0 0 0 0 0 0 0.48 0"/>
<feBlend mode="normal" in2="BackgroundImageFix" result="effect1_dropShadow_1704_2604"/>
<feBlend mode="normal" in="SourceGraphic" in2="effect1_dropShadow_1704_2604" result="shape"/>
</filter>
<linearGradient id="paint0_linear_1704_2604" x1="24.3469" y1="29.1604" x2="55.1475" y2="40.0744" gradientUnits="userSpaceOnUse">
<stop stop-color="#FFE030"/>
<stop offset="0.261174" stop-color="#FFFDEB"/>
<stop offset="0.360249" stop-color="#FFE610"/>
<stop offset="0.439479" stop-color="#FFF9C4"/>
<stop offset="0.614238" stop-color="#FFE514"/>
<stop offset="1" stop-color="#FFE41A"/>
</linearGradient>
<linearGradient id="paint1_linear_1704_2604" x1="24.8867" y1="24.6477" x2="36.1247" y2="41.8424" gradientUnits="userSpaceOnUse">
<stop stop-color="#FFF459"/>
<stop offset="1" stop-color="#E9B334"/>
</linearGradient>
<linearGradient id="paint2_linear_1704_2604" x1="27.4513" y1="29.7684" x2="55.1291" y2="40.0767" gradientUnits="userSpaceOnUse">
<stop stop-color="#FFEC1A"/>
<stop offset="0.380812" stop-color="#FFE60B"/>
<stop offset="1" stop-color="#FFE41A"/>
</linearGradient>
<linearGradient id="paint3_linear_1704_2604" x1="45.7652" y1="34.2025" x2="48.926" y2="35.4913" gradientUnits="userSpaceOnUse">
<stop stop-color="#D1D1D1"/>
<stop offset="0.3423" stop-color="#FAFAFA"/>
<stop offset="0.573639" stop-color="white"/>
<stop offset="1" stop-color="#666666"/>
</linearGradient>
<linearGradient id="paint4_linear_1704_2604" x1="46.2535" y1="33.172" x2="50.7306" y2="34.7551" gradientUnits="userSpaceOnUse">
<stop stop-color="white"/>
<stop offset="1" stop-color="#0B0B0B"/>
</linearGradient>
</defs>
</svg>
