<svg width="505" height="114" viewBox="0 0 505 114" fill="none" xmlns="http://www.w3.org/2000/svg">
<g filter="url(#filter0_d_1785_5922)">
<path d="M4.01076 22.435C5.11072 10.0445 16.0469 0.891696 28.4374 1.99166L478.218 41.9208C490.608 43.0207 499.761 53.9569 498.661 66.3474L497.1 83.9306C496.295 93.0001 490.108 100.693 481.423 103.424L468.525 107.481C465.7 108.37 462.726 108.692 459.776 108.431L22.435 69.6057C10.0445 68.5058 0.891696 57.5696 1.99166 45.1791L4.01076 22.435Z" fill="#8A00DA"/>
<path d="M28.227 4.36418L478.007 44.2933C489.087 45.2769 497.272 55.0568 496.289 66.137L494.728 83.7202C494.008 91.8304 488.475 98.7093 480.708 101.152L467.811 105.209C465.284 106.004 462.625 106.292 459.986 106.058L22.6458 67.2331C11.5656 66.2495 3.38055 56.4696 4.36419 45.3894L6.38324 22.6458C7.36689 11.5656 17.1468 3.38054 28.227 4.36418Z" stroke="#5100B8" stroke-width="4.76351"/>
</g>
<path d="M494.43 87.8634C495.766 87.8288 496.516 89.2322 495.893 90.3423C492.988 95.5157 489.453 99.1161 484.58 101.891C479.728 104.654 473.568 106.587 465.441 108.468C464.163 108.763 463.014 107.623 463.309 106.34C464.012 103.289 465.424 97.2462 465.956 95.623C466.276 94.6461 466.664 92.4147 468.25 90.6344C469.887 88.7963 472.71 87.4872 477.741 87.9338C485.893 88.6575 491.024 87.9518 494.43 87.8634Z" fill="#E5B8FF" stroke="#8A00DA" stroke-width="1.19088"/>
<path d="M52.4395 29.5288L46.1044 46.5899L40.9479 46.1321L39.3271 34.3898L35.2683 45.6279L30.1119 45.1701L27.4543 27.3107L32.0129 27.7154L33.2357 40.6525L37.6427 28.2152L42.3258 28.6309L44.0219 41.61L47.8559 29.1219L52.4395 29.5288ZM56.5004 32.0483C55.7531 31.9819 55.1605 31.7118 54.7228 31.2377C54.3034 30.7486 54.1265 30.1806 54.1923 29.5337C54.2598 28.8703 54.548 28.3436 55.0569 27.9536C55.584 27.5485 56.2212 27.3791 56.9685 27.4455C57.6993 27.5103 58.2743 27.7873 58.6938 28.2764C59.1315 28.7505 59.3166 29.3192 59.2492 29.9827C59.1834 30.6295 58.8869 31.1555 58.3597 31.5606C57.8509 31.9506 57.2311 32.1131 56.5004 32.0483ZM58.471 33.6793L57.0589 47.5624L52.7992 47.1842L54.2113 33.3011L58.471 33.6793ZM70.0427 34.5559C71.6702 34.7004 72.9115 35.3462 73.7668 36.4932C74.6403 37.6252 74.9834 39.1117 74.7961 40.9528L73.9712 49.0637L69.7364 48.6878L70.5032 41.1491C70.5976 40.2203 70.4302 39.4774 70.0009 38.9204C69.5716 38.3635 68.9501 38.0489 68.1364 37.9767C67.3226 37.9044 66.6488 38.104 66.1149 38.5755C65.581 39.0469 65.2668 39.747 65.1723 40.6759L64.4056 48.2145L60.1459 47.8364L61.5579 33.9533L65.8176 34.3315L65.6304 36.1726C66.1246 35.5972 66.7547 35.1678 67.5209 34.8844C68.2887 34.5843 69.1293 34.4748 70.0427 34.5559ZM86.828 36.046C88.4555 36.1905 89.6969 36.8363 90.5521 37.9834C91.4256 39.1153 91.7688 40.6018 91.5815 42.443L90.7565 50.5538L86.5218 50.1779L87.2885 42.6393C87.383 41.7104 87.2156 40.9675 86.7863 40.4106C86.357 39.8536 85.7355 39.539 84.9217 39.4668C84.108 39.3945 83.4342 39.5941 82.9003 40.0656C82.3664 40.537 82.0522 41.2372 81.9577 42.166L81.1909 49.7047L76.9312 49.3265L78.3433 35.4434L82.603 35.8216L82.4157 37.6627C82.9099 37.0873 83.5401 36.6579 84.3062 36.3745C85.0741 36.0744 85.9147 35.965 86.828 36.046ZM107.548 44.8144C107.508 45.2125 107.441 45.6249 107.347 46.0517L97.7067 45.1959C97.6854 46.0643 97.8919 46.7521 98.3263 47.2593C98.7789 47.7514 99.3623 48.0291 100.076 48.0925C101.139 48.1869 101.924 47.8046 102.43 46.9458L106.964 47.3483C106.639 48.2399 106.132 49.0234 105.443 49.6986C104.771 50.3754 103.957 50.8805 103.001 51.2141C102.046 51.5477 101.003 51.6643 99.8741 51.5641C98.5124 51.4432 97.3296 51.0453 96.3258 50.3704C95.322 49.6955 94.576 48.7925 94.0878 47.6613C93.5996 46.5301 93.4289 45.2429 93.5757 43.7999C93.7224 42.3569 94.1413 41.1221 94.8322 40.0955C95.5397 39.0705 96.4544 38.3149 97.5763 37.8287C98.6982 37.3425 99.9483 37.1606 101.327 37.2829C102.672 37.4024 103.839 37.7905 104.828 38.4473C105.817 39.1041 106.549 39.9808 107.024 41.0774C107.515 42.1754 107.69 43.4211 107.548 44.8144ZM103.303 43.3078C103.377 42.578 103.187 41.9753 102.733 41.4998C102.278 41.0243 101.677 40.7534 100.93 40.6871C100.216 40.6237 99.5888 40.7772 99.0485 41.1477C98.5247 41.5196 98.1659 42.0819 97.972 42.8345L103.303 43.3078ZM114.503 40.9883C115.079 40.2695 115.762 39.7277 116.554 39.3627C117.346 38.9813 118.2 38.831 119.113 38.9121L118.655 43.4154L117.484 43.3115C116.421 43.2171 115.601 43.3786 115.022 43.7958C114.445 44.1965 114.098 44.9691 113.982 46.1135L113.326 52.5575L109.067 52.1793L110.479 38.2963L114.738 38.6744L114.503 40.9883ZM125.356 53.8263C124.144 53.7186 123.085 53.4155 122.181 52.9168C121.277 52.4181 120.587 51.7878 120.111 51.0259C119.637 50.2474 119.413 49.4074 119.438 48.5058L123.647 48.8796C123.648 49.365 123.833 49.7747 124.201 50.1086C124.569 50.4426 125.044 50.6353 125.625 50.6869C126.157 50.7341 126.574 50.6707 126.876 50.4967C127.197 50.3077 127.374 50.0472 127.408 49.7155C127.449 49.3174 127.27 49.0087 126.874 48.7894C126.479 48.5535 125.828 48.2782 124.922 47.9634C123.949 47.6427 123.143 47.3285 122.504 47.0208C121.867 46.6964 121.335 46.2392 120.909 45.649C120.485 45.0423 120.321 44.2663 120.417 43.3208C120.498 42.5247 120.788 41.8223 121.285 41.2138C121.801 40.5901 122.502 40.1251 123.388 39.8188C124.29 39.514 125.331 39.4139 126.51 39.5186C128.254 39.6734 129.58 40.2263 130.488 41.1772C131.414 42.1297 131.879 43.3257 131.883 44.7655L127.947 44.4161C127.93 43.9291 127.752 43.5285 127.416 43.2141C127.096 42.9011 126.645 42.7189 126.064 42.6673C125.566 42.6231 125.174 42.6887 124.888 42.8641C124.603 43.023 124.444 43.2683 124.411 43.6C124.37 43.9981 124.547 44.3151 124.942 44.551C125.354 44.7884 125.998 45.0464 126.874 45.325C127.877 45.6818 128.689 46.0216 129.309 46.3445C129.932 46.6508 130.454 47.1156 130.877 47.7389C131.318 48.3471 131.497 49.1329 131.416 50.0964C131.333 50.9092 131.027 51.6184 130.496 52.224C129.983 52.8144 129.277 53.2538 128.376 53.5421C127.492 53.8318 126.485 53.9265 125.356 53.8263ZM138.753 47.7854C138.898 46.3589 139.291 45.1302 139.932 44.0993C140.59 43.0698 141.413 42.306 142.402 41.8081C143.391 41.3101 144.459 41.112 145.604 41.2137C146.584 41.3007 147.419 41.5756 148.109 42.0386C148.816 42.503 149.336 43.0764 149.669 43.7586L149.869 41.7931L154.128 42.1712L152.716 56.0543L148.457 55.6762L148.657 53.7106C148.176 54.3207 147.541 54.7915 146.753 55.1233C145.982 55.4565 145.107 55.5796 144.127 55.4926C142.998 55.3924 141.998 55.0107 141.127 54.3476C140.257 53.6679 139.604 52.7647 139.165 51.6379C138.745 50.496 138.608 49.2118 138.753 47.7854ZM149.163 48.7346C149.271 47.6731 149.057 46.8089 148.522 46.1421C148.003 45.4768 147.32 45.1066 146.473 45.0314C145.626 44.9562 144.872 45.1989 144.212 45.7596C143.57 46.3051 143.195 47.1086 143.087 48.1702C142.979 49.2317 143.184 50.1034 143.701 50.7853C144.236 51.4521 144.927 51.8231 145.774 51.8983C146.621 51.9735 147.367 51.73 148.01 51.1679C148.671 50.6073 149.055 49.7962 149.163 48.7346ZM161.93 38.2948L160.058 56.706L155.798 56.3279L157.671 37.9167L161.93 38.2948ZM168.779 57.6811C167.567 57.5735 166.508 57.2703 165.604 56.7716C164.7 56.2729 164.01 55.6426 163.534 54.8808C163.06 54.1023 162.836 53.2623 162.861 52.3607L167.07 52.7344C167.071 53.2199 167.256 53.6296 167.624 53.9635C167.992 54.2974 168.467 54.4902 169.048 54.5418C169.58 54.589 169.997 54.5256 170.299 54.3516C170.62 54.1625 170.797 53.9021 170.831 53.5704C170.872 53.1723 170.693 52.8636 170.297 52.6443C169.902 52.4084 169.251 52.1331 168.345 51.8183C167.372 51.4976 166.566 51.1834 165.927 50.8756C165.29 50.5513 164.758 50.094 164.332 49.5039C163.908 48.8972 163.744 48.1211 163.84 47.1757C163.921 46.3795 164.211 45.6772 164.708 45.0686C165.224 44.445 165.925 43.98 166.811 43.6737C167.713 43.3688 168.754 43.2688 169.933 43.3734C171.677 43.5282 173.003 44.0811 173.911 45.0321C174.837 45.9845 175.302 47.1806 175.306 48.6203L171.37 48.2709C171.353 47.784 171.175 47.3834 170.839 47.0689C170.519 46.756 170.068 46.5737 169.487 46.5221C168.989 46.4779 168.597 46.5435 168.311 46.719C168.026 46.8778 167.867 47.1231 167.834 47.4549C167.793 47.853 167.97 48.1699 168.365 48.4058C168.777 48.6432 169.421 48.9012 170.297 49.1799C171.3 49.5367 172.112 49.8765 172.732 50.1994C173.355 50.5057 173.877 50.9705 174.3 51.5938C174.741 52.2019 174.92 52.9878 174.839 53.9513C174.756 54.764 174.45 55.4732 173.919 56.0788C173.406 56.6693 172.7 57.1087 171.799 57.3969C170.915 57.6866 169.908 57.7814 168.779 57.6811ZM183.342 58.974C181.98 58.8531 180.781 58.4537 179.744 57.7759C178.724 57.0995 177.953 56.1942 177.431 55.0601C176.927 53.9274 176.748 52.6395 176.894 51.1965C177.039 49.77 177.482 48.5458 178.223 47.5236C178.965 46.4849 179.914 45.724 181.069 45.2407C182.224 44.7575 183.483 44.5763 184.845 44.6972C186.206 44.8181 187.406 45.2175 188.443 45.8953C189.48 46.5732 190.258 47.4874 190.778 48.6382C191.299 49.7723 191.487 51.0527 191.342 52.4791C191.197 53.9056 190.745 55.1374 189.986 56.1746C189.245 57.1967 188.289 57.9487 187.118 58.4304C185.962 58.9137 184.704 59.0948 183.342 58.974ZM183.717 55.2917C184.53 55.3639 185.25 55.1266 185.875 54.5796C186.517 54.0341 186.895 53.2056 187.008 52.0943C187.121 50.983 186.926 50.1037 186.422 49.4565C185.934 48.8107 185.284 48.4517 184.47 48.3795C183.64 48.3058 182.92 48.5431 182.311 49.0916C181.704 49.6235 181.343 50.4534 181.229 51.5813C181.116 52.6926 181.295 53.5704 181.765 54.2147C182.252 54.8605 182.903 55.2195 183.717 55.2917ZM204.888 46.4766C205.868 46.5636 206.703 46.8386 207.393 47.3015C208.1 47.7659 208.62 48.3393 208.953 49.0215L209.153 47.056L213.412 47.4342L212.003 61.2924C211.873 62.5695 211.498 63.6995 210.879 64.6821C210.274 65.6829 209.418 66.4436 208.309 66.9645C207.217 67.4868 205.899 67.6794 204.354 67.5423C202.295 67.3594 200.676 66.722 199.497 65.6298C198.316 64.5543 197.718 63.1791 197.704 61.5042L201.914 61.8779C201.993 62.4205 202.267 62.8632 202.734 63.206C203.201 63.5653 203.799 63.7775 204.53 63.8423C205.41 63.9205 206.133 63.7253 206.701 63.2568C207.283 62.8064 207.63 62.0255 207.743 60.9142L207.943 58.9487C207.462 59.5587 206.835 60.0386 206.062 60.3884C205.291 60.7216 204.416 60.8447 203.436 60.7578C202.29 60.656 201.282 60.2736 200.411 59.6105C199.541 58.9308 198.888 58.0276 198.449 56.9008C198.029 55.7589 197.892 54.4747 198.037 53.0483C198.182 51.6218 198.575 50.3931 199.216 49.3622C199.874 48.3327 200.697 47.569 201.686 47.071C202.675 46.573 203.742 46.3749 204.888 46.4766ZM208.447 53.9975C208.555 52.936 208.341 52.0718 207.806 51.405C207.287 50.7397 206.604 50.3695 205.757 50.2943C204.91 50.2191 204.156 50.4618 203.496 51.0225C202.854 51.568 202.479 52.3715 202.371 53.4331C202.263 54.4946 202.468 55.3663 202.985 56.0482C203.52 56.715 204.211 57.086 205.058 57.1612C205.905 57.2364 206.651 56.9929 207.294 56.4308C207.955 55.8702 208.339 55.0591 208.447 53.9975ZM228.914 55.5886C228.873 55.9866 228.806 56.3991 228.712 56.8259L219.072 55.9701C219.051 56.8385 219.257 57.5263 219.692 58.0335C220.144 58.5256 220.728 58.8033 221.442 58.8667C222.505 58.961 223.289 58.5788 223.796 57.72L228.329 58.1225C228.004 59.0141 227.497 59.7975 226.808 60.4728C226.136 61.1495 225.322 61.6547 224.367 61.9883C223.411 62.3219 222.369 62.4385 221.24 62.3383C219.878 62.2174 218.695 61.8195 217.691 61.1446C216.687 60.4697 215.941 59.5667 215.453 58.4355C214.965 57.3043 214.794 56.0171 214.941 54.5741C215.088 53.131 215.507 51.8963 216.198 50.8697C216.905 49.8447 217.82 49.089 218.942 48.6029C220.064 48.1167 221.314 47.9348 222.692 48.0571C224.037 48.1765 225.204 48.5647 226.193 49.2215C227.182 49.8783 227.914 50.755 228.389 51.8516C228.881 52.9496 229.055 54.1953 228.914 55.5886ZM224.668 54.082C224.743 53.3521 224.552 52.7495 224.098 52.274C223.644 51.7985 223.043 51.5276 222.296 51.4613C221.582 51.3979 220.954 51.5514 220.414 51.9218C219.89 52.2938 219.531 52.856 219.337 53.6087L224.668 54.082ZM238.546 60.0337L238.179 63.6413L236.012 63.4489C234.468 63.3118 233.302 62.8317 232.514 62.0086C231.728 61.169 231.422 59.8949 231.596 58.1865L232.157 52.6631L230.464 52.5127L230.823 48.9798L232.517 49.1301L232.861 45.7465L237.121 46.1246L236.776 49.5083L239.566 49.756L239.207 53.2889L236.417 53.0413L235.85 58.6144C235.808 59.0291 235.877 59.3365 236.058 59.5366C236.239 59.7368 236.562 59.8575 237.027 59.8988L238.546 60.0337ZM267.411 48.6128L265.635 66.0786L261.375 65.7004L262.44 55.2259L257.464 65.3533L254.026 65.0481L251.158 54.1993L250.091 64.6987L245.831 64.3205L247.607 46.8547L252.639 47.3014L256.317 59.8288L262.404 48.1683L267.411 48.6128ZM273.292 63.4445L278.872 63.9399L278.537 67.224L268.698 66.3505L270.474 48.8847L274.734 49.2629L273.292 63.4445ZM297.491 51.2832L295.715 68.749L291.455 68.3708L292.186 61.1805L285.56 60.5922L284.829 67.7826L280.569 67.4044L282.346 49.9386L286.605 50.3168L285.909 57.1588L292.536 57.747L293.232 50.905L297.491 51.2832ZM329.909 54.161L323.574 71.2221L318.417 70.7644L316.796 59.0221L312.738 70.2602L307.581 69.8024L304.924 51.943L309.482 52.3477L310.705 65.2847L315.112 52.8474L319.795 53.2632L321.491 66.2423L325.325 53.7541L329.909 54.161ZM333.97 56.6805C333.222 56.6142 332.63 56.344 332.192 55.87C331.773 55.3809 331.596 54.8129 331.662 54.166C331.729 53.5025 332.017 52.9758 332.526 52.5858C333.053 52.1807 333.691 52.0114 334.438 52.0777C335.169 52.1426 335.744 52.4196 336.163 52.9087C336.601 53.3827 336.786 53.9514 336.718 54.6149C336.653 55.2618 336.356 55.7878 335.829 56.1929C335.32 56.5828 334.7 56.7454 333.97 56.6805ZM335.94 58.3115L334.528 72.1946L330.269 71.8165L331.681 57.9334L335.94 58.3115ZM347.512 59.1882C349.139 59.3327 350.381 59.9784 351.236 61.1255C352.11 62.2574 352.453 63.744 352.265 65.5851L351.44 73.696L347.206 73.32L347.972 65.7814C348.067 64.8525 347.899 64.1096 347.47 63.5527C347.041 62.9957 346.419 62.6812 345.606 62.6089C344.792 62.5367 344.118 62.7363 343.584 63.2077C343.05 63.6791 342.736 64.3793 342.642 65.3081L341.875 72.8468L337.615 72.4686L339.027 58.5856L343.287 58.9637L343.1 60.8049C343.594 60.2295 344.224 59.8001 344.99 59.5166C345.758 59.2166 346.599 59.1071 347.512 59.1882ZM364.297 60.6783C365.925 60.8228 367.166 61.4685 368.021 62.6156C368.895 63.7475 369.238 65.2341 369.051 67.0752L368.226 75.1861L363.991 74.8102L364.758 67.2715C364.852 66.3426 364.685 65.5997 364.256 65.0428C363.826 64.4859 363.205 64.1713 362.391 64.099C361.577 64.0268 360.903 64.2264 360.37 64.6978C359.836 65.1693 359.521 65.8694 359.427 66.7983L358.66 74.3369L354.4 73.9588L355.813 60.0757L360.072 60.4538L359.885 62.295C360.379 61.7196 361.009 61.2902 361.775 61.0067C362.543 60.7067 363.384 60.5972 364.297 60.6783ZM385.018 69.4466C384.977 69.8447 384.91 70.2572 384.816 70.684L375.176 69.8282C375.155 70.6966 375.361 71.3844 375.796 71.8916C376.248 72.3836 376.832 72.6614 377.546 72.7248C378.609 72.8191 379.393 72.4369 379.899 71.578L384.433 71.9805C384.108 72.8722 383.601 73.6556 382.912 74.3309C382.24 75.0076 381.426 75.5128 380.471 75.8464C379.515 76.1799 378.473 76.2966 377.343 76.1963C375.982 76.0755 374.799 75.6776 373.795 75.0027C372.791 74.3278 372.045 73.4247 371.557 72.2935C371.069 71.1623 370.898 69.8752 371.045 68.4322C371.192 66.9891 371.611 65.7543 372.301 64.7278C373.009 63.7027 373.924 62.9471 375.046 62.4609C376.167 61.9747 377.418 61.7928 378.796 61.9152C380.141 62.0346 381.308 62.4227 382.297 63.0796C383.286 63.7364 384.018 64.6131 384.493 65.7096C384.984 66.8077 385.159 68.0533 385.018 69.4466ZM380.772 67.94C380.846 67.2102 380.656 66.6076 380.202 66.1321C379.748 65.6566 379.147 65.3857 378.399 65.3193C377.685 65.2559 377.058 65.4095 376.518 65.7799C375.994 66.1518 375.635 66.7141 375.441 67.4668L380.772 67.94ZM391.972 65.6205C392.548 64.9017 393.232 64.3599 394.023 63.995C394.816 63.6135 395.669 63.4633 396.582 63.5444L396.124 68.0477L394.953 67.9437C393.891 67.8494 393.07 68.0108 392.491 68.4281C391.914 68.8287 391.567 69.6013 391.451 70.7458L390.796 77.1897L386.536 76.8116L387.948 62.9285L392.208 63.3067L391.972 65.6205ZM417.002 67.5663C416.899 68.5781 416.572 69.4863 416.021 70.291C415.471 71.079 414.689 71.6874 413.673 72.1161C412.658 72.5447 411.436 72.6957 410.008 72.5689L407.367 72.3345L406.73 78.6043L402.47 78.2261L404.246 60.7603L411.147 61.3729C412.542 61.4967 413.696 61.8419 414.61 62.4084C415.525 62.9749 416.18 63.7025 416.575 64.5912C416.971 65.4799 417.113 66.4716 417.002 67.5663ZM410.028 69.1565C410.842 69.2287 411.467 69.0918 411.905 68.7457C412.342 68.3995 412.596 67.8782 412.667 67.1815C412.738 66.4849 412.593 65.9281 412.234 65.5112C411.874 65.0944 411.287 64.8498 410.473 64.7776L408.157 64.5719L407.711 68.9508L410.028 69.1565ZM421.716 64.4702C420.968 64.4038 420.376 64.1336 419.938 63.6596C419.519 63.1705 419.342 62.6025 419.408 61.9556C419.475 61.2922 419.763 60.7654 420.272 60.3755C420.799 59.9704 421.437 59.801 422.184 59.8673C422.915 59.9322 423.49 60.2092 423.909 60.6983C424.347 61.1723 424.532 61.7411 424.464 62.4045C424.399 63.0514 424.102 63.5774 423.575 63.9825C423.066 64.3725 422.446 64.535 421.716 64.4702ZM423.686 66.1012L422.274 79.9842L418.015 79.6061L419.427 65.723L423.686 66.1012ZM435.258 66.9778C436.886 67.1223 438.127 67.7681 438.982 68.9151C439.856 70.0471 440.199 71.5336 440.011 73.3747L439.187 81.4856L434.952 81.1097L435.719 73.571C435.813 72.6422 435.646 71.8993 435.216 71.3423C434.787 70.7854 434.165 70.4708 433.352 70.3986C432.538 70.3263 431.864 70.5259 431.33 70.9973C430.796 71.4688 430.482 72.1689 430.388 73.0978L429.621 80.6364L425.361 80.2583L426.773 66.3752L431.033 66.7534L430.846 68.5945C431.34 68.0191 431.97 67.5897 432.736 67.3062C433.504 67.0062 434.345 66.8967 435.258 66.9778ZM447.781 82.4494C446.569 82.3418 445.51 82.0386 444.606 81.5399C443.701 81.0412 443.012 80.4109 442.536 79.6491C442.062 78.8706 441.838 78.0306 441.862 77.129L446.072 77.5027C446.073 77.9882 446.258 78.3979 446.626 78.7318C446.994 79.0657 447.469 79.2585 448.05 79.3101C448.581 79.3573 448.998 79.2939 449.301 79.1199C449.622 78.9308 449.799 78.6704 449.833 78.3387C449.873 77.9406 449.695 77.6319 449.299 77.4126C448.904 77.1767 448.253 76.9014 447.347 76.5866C446.374 76.2659 445.568 75.9517 444.929 75.6439C444.292 75.3196 443.76 74.8623 443.334 74.2722C442.91 73.6655 442.746 72.8894 442.842 71.944C442.923 71.1478 443.212 70.4455 443.71 69.8369C444.226 69.2133 444.927 68.7483 445.812 68.442C446.715 68.1371 447.756 68.0371 448.935 68.1417C450.678 68.2965 452.005 68.8494 452.913 69.8004C453.839 70.7528 454.303 71.9489 454.308 73.3886L450.372 73.0392C450.354 72.5523 450.177 72.1517 449.841 71.8372C449.521 71.5243 449.07 71.342 448.489 71.2904C447.99 71.2462 447.598 71.3118 447.312 71.4873C447.028 71.6462 446.869 71.8914 446.835 72.2232C446.795 72.6213 446.972 72.9383 447.367 73.1742C447.779 73.4115 448.423 73.6695 449.299 73.9482C450.302 74.305 451.113 74.6448 451.734 74.9677C452.357 75.274 452.879 75.7388 453.302 76.3621C453.742 76.9703 453.922 77.7561 453.841 78.7196C453.758 79.5323 453.452 80.2415 452.921 80.8471C452.408 81.4376 451.702 81.877 450.801 82.1652C449.917 82.4549 448.91 82.5497 447.781 82.4494ZM463.482 65.3913L461.771 77.2646L458.159 76.9439L458.873 64.9822L463.482 65.3913ZM459.38 83.4791C458.632 83.4128 458.04 83.1426 457.602 82.6686C457.183 82.1794 457.006 81.6114 457.072 80.9646C457.139 80.3011 457.428 79.7661 457.939 79.3595C458.466 78.9544 459.103 78.7851 459.85 78.8514C460.581 78.9163 461.156 79.1933 461.576 79.6824C462.012 80.173 462.196 80.75 462.128 81.4135C462.063 82.0604 461.766 82.5863 461.239 82.9914C460.73 83.3814 460.11 83.544 459.38 83.4791Z" fill="white"/>
<defs>
<filter id="filter0_d_1785_5922" x="1.90086" y="1.9021" width="502.806" height="111.38" filterUnits="userSpaceOnUse" color-interpolation-filters="sRGB">
<feFlood flood-opacity="0" result="BackgroundImageFix"/>
<feColorMatrix in="SourceAlpha" type="matrix" values="0 0 0 0 0 0 0 0 0 0 0 0 0 0 0 0 0 0 127 0" result="hardAlpha"/>
<feOffset dx="5.95438" dy="4.76351"/>
<feComposite in2="hardAlpha" operator="out"/>
<feColorMatrix type="matrix" values="0 0 0 0 0 0 0 0 0 0 0 0 0 0 0 0 0 0 0.25 0"/>
<feBlend mode="normal" in2="BackgroundImageFix" result="effect1_dropShadow_1785_5922"/>
<feBlend mode="normal" in="SourceGraphic" in2="effect1_dropShadow_1785_5922" result="shape"/>
</filter>
</defs>
</svg>
