<svg width="242" height="179" viewBox="0 0 242 179" fill="none" xmlns="http://www.w3.org/2000/svg">
<mask id="path-1-outside-1_1067_31647" maskUnits="userSpaceOnUse" x="51.0464" y="15.1592" width="139.167" height="54.4323" fill="black">
<rect fill="white" x="51.0464" y="15.1592" width="139.167" height="54.4323"/>
<path d="M65.3029 61.5476L65.2233 35.9733L59.0054 36.9143L58.9733 26.604L77.5696 23.8389L77.6868 61.5091L65.3029 61.5476ZM99.3353 62.0177C92.8458 62.0379 88.175 60.4012 85.3232 57.1077C82.5097 53.814 81.0934 49.0952 81.0743 42.9513C81.0551 36.7689 82.442 32.0414 85.235 28.7686C88.0663 25.4574 92.7268 23.7917 99.2163 23.7715C105.744 23.7512 110.415 25.3879 113.228 28.6815C116.08 31.9367 117.516 36.6554 117.535 42.8378C117.554 48.9818 116.148 53.7094 113.317 57.0206C110.524 60.3317 105.863 61.9974 99.3353 62.0177ZM99.3025 51.477C101.376 51.4705 102.814 50.7557 103.616 49.3323C104.456 47.9089 104.872 45.7572 104.863 42.8772C104.854 40.0357 104.425 37.9058 103.576 36.4876C102.765 35.0309 101.323 34.3058 99.2491 34.3123C97.1755 34.3187 95.7186 35.0529 94.8784 36.5147C94.0764 37.938 93.6798 40.0704 93.6887 42.912C93.6976 45.792 94.1075 47.9411 94.9183 49.3594C95.7675 50.7776 97.2289 51.4834 99.3025 51.477ZM138.091 61.8971C131.602 61.9173 126.931 60.2807 124.079 56.9871C121.266 53.6935 119.849 48.9746 119.83 42.8307C119.811 36.6483 121.198 31.9208 123.991 28.6481C126.822 25.3368 131.483 23.6711 137.972 23.6509C144.5 23.6306 149.171 25.2673 151.985 28.5609C154.836 31.8161 156.272 36.5348 156.291 42.7172C156.31 48.8612 154.904 53.5888 152.073 56.9C149.28 60.2111 144.619 61.8768 138.091 61.8971ZM138.059 51.3564C140.132 51.3499 141.57 50.6351 142.372 49.2118C143.212 47.7883 143.628 45.6366 143.619 42.7566C143.61 39.9151 143.181 37.7852 142.332 36.367C141.521 34.9103 140.079 34.1852 138.005 34.1917C135.932 34.1981 134.475 34.9323 133.634 36.3941C132.832 37.8174 132.436 39.9498 132.445 42.7914C132.454 45.6714 132.864 47.8205 133.674 49.2388C134.524 50.657 135.985 51.3628 138.059 51.3564ZM166.404 55.9338L166.382 49.0218L158.894 49.0451L158.868 40.7508L166.356 40.7275L166.335 33.7579L174.687 33.7319L174.708 40.7015L182.196 40.6782L182.222 48.9726L174.734 48.9959L174.756 55.9078L166.404 55.9338Z"/>
</mask>
<path d="M65.3029 61.5476L65.2233 35.9733L59.0054 36.9143L58.9733 26.604L77.5696 23.8389L77.6868 61.5091L65.3029 61.5476ZM99.3353 62.0177C92.8458 62.0379 88.175 60.4012 85.3232 57.1077C82.5097 53.814 81.0934 49.0952 81.0743 42.9513C81.0551 36.7689 82.442 32.0414 85.235 28.7686C88.0663 25.4574 92.7268 23.7917 99.2163 23.7715C105.744 23.7512 110.415 25.3879 113.228 28.6815C116.08 31.9367 117.516 36.6554 117.535 42.8378C117.554 48.9818 116.148 53.7094 113.317 57.0206C110.524 60.3317 105.863 61.9974 99.3353 62.0177ZM99.3025 51.477C101.376 51.4705 102.814 50.7557 103.616 49.3323C104.456 47.9089 104.872 45.7572 104.863 42.8772C104.854 40.0357 104.425 37.9058 103.576 36.4876C102.765 35.0309 101.323 34.3058 99.2491 34.3123C97.1755 34.3187 95.7186 35.0529 94.8784 36.5147C94.0764 37.938 93.6798 40.0704 93.6887 42.912C93.6976 45.792 94.1075 47.9411 94.9183 49.3594C95.7675 50.7776 97.2289 51.4834 99.3025 51.477ZM138.091 61.8971C131.602 61.9173 126.931 60.2807 124.079 56.9871C121.266 53.6935 119.849 48.9746 119.83 42.8307C119.811 36.6483 121.198 31.9208 123.991 28.6481C126.822 25.3368 131.483 23.6711 137.972 23.6509C144.5 23.6306 149.171 25.2673 151.985 28.5609C154.836 31.8161 156.272 36.5348 156.291 42.7172C156.31 48.8612 154.904 53.5888 152.073 56.9C149.28 60.2111 144.619 61.8768 138.091 61.8971ZM138.059 51.3564C140.132 51.3499 141.57 50.6351 142.372 49.2118C143.212 47.7883 143.628 45.6366 143.619 42.7566C143.61 39.9151 143.181 37.7852 142.332 36.367C141.521 34.9103 140.079 34.1852 138.005 34.1917C135.932 34.1981 134.475 34.9323 133.634 36.3941C132.832 37.8174 132.436 39.9498 132.445 42.7914C132.454 45.6714 132.864 47.8205 133.674 49.2388C134.524 50.657 135.985 51.3628 138.059 51.3564ZM166.404 55.9338L166.382 49.0218L158.894 49.0451L158.868 40.7508L166.356 40.7275L166.335 33.7579L174.687 33.7319L174.708 40.7015L182.196 40.6782L182.222 48.9726L174.734 48.9959L174.756 55.9078L166.404 55.9338Z" fill="white"/>
<path d="M65.3029 61.5476L58.3029 61.5694L58.3247 68.5694L65.3247 68.5476L65.3029 61.5476ZM65.2233 35.9733L72.2233 35.9516L72.198 27.8382L64.1759 29.0521L65.2233 35.9733ZM59.0054 36.9143L52.0055 36.9361L52.0307 45.0495L60.0528 43.8355L59.0054 36.9143ZM58.9733 26.604L57.9438 19.6801L51.9545 20.5706L51.9734 26.6257L58.9733 26.604ZM77.5696 23.8389L84.5696 23.8171L84.5444 15.7248L76.5401 16.915L77.5696 23.8389ZM77.6868 61.5091L77.7086 68.5091L84.7086 68.4873L84.6868 61.4873L77.6868 61.5091ZM65.3029 61.5476L72.3029 61.5258L72.2233 35.9516L65.2233 35.9733L58.2234 35.9951L58.3029 61.5694L65.3029 61.5476ZM65.2233 35.9733L64.1759 29.0521L57.958 29.9931L59.0054 36.9143L60.0528 43.8355L66.2707 42.8945L65.2233 35.9733ZM59.0054 36.9143L66.0054 36.8925L65.9733 26.5822L58.9733 26.604L51.9734 26.6257L52.0055 36.9361L59.0054 36.9143ZM58.9733 26.604L60.0029 33.5278L78.5991 30.7628L77.5696 23.8389L76.5401 16.915L57.9438 19.6801L58.9733 26.604ZM77.5696 23.8389L70.5697 23.8607L70.6869 61.5309L77.6868 61.5091L84.6868 61.4873L84.5696 23.8171L77.5696 23.8389ZM77.6868 61.5091L77.6651 54.5091L65.2811 54.5477L65.3029 61.5476L65.3247 68.5476L77.7086 68.5091L77.6868 61.5091ZM85.3232 57.1077L80.0007 61.6542L80.0159 61.6721L80.0313 61.6899L85.3232 57.1077ZM85.235 28.7686L79.9147 24.2195L79.9105 24.2245L85.235 28.7686ZM113.228 28.6815L107.906 33.2281L107.934 33.2613L107.963 33.2943L113.228 28.6815ZM113.317 57.0206L107.996 52.4714L107.981 52.4893L107.966 52.5073L113.317 57.0206ZM103.616 49.3324L97.588 45.7736L97.5521 45.8345L97.5174 45.8961L103.616 49.3324ZM103.576 36.4876L97.4598 39.8925L97.5135 39.989L97.5703 40.0838L103.576 36.4876ZM94.8784 36.5147L88.8095 33.0263L88.7945 33.0523L88.7798 33.0784L94.8784 36.5147ZM94.9183 49.3594L88.8413 52.8336L88.8764 52.895L88.9127 52.9556L94.9183 49.3594ZM99.3353 62.0177L99.3135 55.0178C93.8495 55.0348 91.5876 53.6487 90.615 52.5255L85.3232 57.1077L80.0313 61.6899C84.7625 67.1538 91.842 69.0411 99.3571 69.0177L99.3353 62.0177ZM85.3232 57.1077L90.6457 52.5612C89.284 50.9671 88.0904 48.0988 88.0743 42.9295L81.0743 42.9513L74.0743 42.973C74.0965 50.0916 75.7354 56.661 80.0007 61.6542L85.3232 57.1077ZM81.0743 42.9513L88.0743 42.9295C88.058 37.7017 89.2427 34.8558 90.5596 33.3128L85.235 28.7686L79.9105 24.2245C75.6413 29.2269 74.0521 35.8361 74.0743 42.973L81.0743 42.9513ZM85.235 28.7686L90.5553 33.3178C91.5208 32.1886 93.7741 30.7885 99.2381 30.7715L99.2163 23.7715L99.1945 16.7716C91.6794 16.7949 84.6118 18.7262 79.9147 24.2195L85.235 28.7686ZM99.2163 23.7715L99.2381 30.7715C104.766 30.7543 106.987 32.1524 107.906 33.2281L113.228 28.6815L118.551 24.135C113.843 18.6234 106.722 16.7481 99.1945 16.7716L99.2163 23.7715ZM113.228 28.6815L107.963 33.2943C109.307 34.8281 110.519 37.652 110.535 42.8596L117.535 42.8378L124.535 42.816C124.513 35.6589 122.853 29.0453 118.494 24.0688L113.228 28.6815ZM117.535 42.8378L110.535 42.8596C110.551 48.0087 109.366 50.87 107.996 52.4714L113.317 57.0206L118.637 61.5698C122.93 56.5487 124.557 49.9548 124.535 42.816L117.535 42.8378ZM113.317 57.0206L107.966 52.5073C107.054 53.5886 104.842 55.0006 99.3135 55.0178L99.3353 62.0177L99.3571 69.0177C106.885 68.9943 113.994 67.0748 118.667 61.5339L113.317 57.0206ZM99.3025 51.477L99.3243 58.4769C103.129 58.4651 107.332 56.9969 109.714 52.7686L103.616 49.3324L97.5174 45.8961C97.6372 45.6834 97.815 45.4391 98.0616 45.2038C98.3089 44.9677 98.5729 44.7906 98.8196 44.668C99.3007 44.4288 99.5457 44.4762 99.2808 44.477L99.3025 51.477ZM103.616 49.3324L109.644 52.8911C111.44 49.8486 111.873 46.1795 111.863 42.8555L104.863 42.8772L97.863 42.899C97.8665 44.0183 97.7851 44.8054 97.685 45.3232C97.5826 45.8535 97.4925 45.9354 97.588 45.7736L103.616 49.3324ZM104.863 42.8772L111.863 42.8555C111.853 39.549 111.391 35.9124 109.581 32.8914L103.576 36.4876L97.5703 40.0838C97.4795 39.9321 97.5686 40.0157 97.6724 40.5309C97.7741 41.0356 97.8596 41.8042 97.863 42.899L104.863 42.8772ZM103.576 36.4876L109.692 33.0828C107.323 28.8273 103.118 27.3002 99.2273 27.3123L99.2491 34.3123L99.2709 41.3122C99.5115 41.3115 99.2418 41.3568 98.7417 41.1053C98.4873 40.9774 98.2228 40.7962 97.9799 40.5611C97.7385 40.3273 97.5697 40.0899 97.4598 39.8925L103.576 36.4876ZM99.2491 34.3123L99.2273 27.3123C95.3279 27.3244 91.1966 28.8733 88.8095 33.0263L94.8784 36.5147L100.947 40.0031C100.844 40.1822 100.686 40.3995 100.461 40.6147C100.235 40.8313 99.9884 40.9994 99.7512 41.1189C99.2824 41.3552 99.0346 41.313 99.2709 41.3122L99.2491 34.3123ZM94.8784 36.5147L88.7798 33.0784C87.0918 36.0742 86.6785 39.6595 86.6887 42.9338L93.6886 42.912L100.689 42.8902C100.685 41.7801 100.763 40.9901 100.861 40.4613C100.962 39.9193 101.055 39.8126 100.977 39.951L94.8784 36.5147ZM93.6886 42.912L86.6887 42.9338C86.6989 46.2265 87.129 49.8385 88.8413 52.8336L94.9183 49.3594L100.995 45.8852C101.079 46.0323 100.985 45.9282 100.879 45.3724C100.776 44.8319 100.692 44.0245 100.689 42.8902L93.6886 42.912ZM94.9183 49.3594L88.9127 52.9556C91.3638 57.0488 95.5087 58.4888 99.3243 58.4769L99.3025 51.477L99.2808 44.477C99.0202 44.4778 99.2429 44.4304 99.6958 44.6492C99.9267 44.7607 100.174 44.9217 100.407 45.136C100.64 45.3497 100.809 45.5712 100.924 45.7632L94.9183 49.3594ZM124.079 56.9871L118.757 61.5336L118.772 61.5515L118.787 61.5693L124.079 56.9871ZM123.991 28.6481L118.671 24.0989L118.667 24.1039L123.991 28.6481ZM151.985 28.5609L146.662 33.1075L146.69 33.1408L146.719 33.1737L151.985 28.5609ZM152.073 56.9L146.752 52.3508L146.737 52.3687L146.722 52.3867L152.073 56.9ZM142.372 49.2118L136.344 45.653L136.308 45.7139L136.273 45.7755L142.372 49.2118ZM142.332 36.367L136.216 39.7719L136.27 39.8684L136.326 39.9633L142.332 36.367ZM133.634 36.3941L127.566 32.9057L127.551 32.9317L127.536 32.9578L133.634 36.3941ZM133.674 49.2388L127.597 52.713L127.632 52.7744L127.669 52.8351L133.674 49.2388ZM138.091 61.8971L138.07 54.8972C132.606 54.9142 130.344 53.5281 129.371 52.4049L124.079 56.9871L118.787 61.5693C123.519 67.0332 130.598 68.9205 138.113 68.8971L138.091 61.8971ZM124.079 56.9871L129.402 52.4406C128.04 50.8465 126.846 47.9782 126.83 42.8089L119.83 42.8307L112.83 42.8524C112.853 49.971 114.491 56.5404 118.757 61.5336L124.079 56.9871ZM119.83 42.8307L126.83 42.8089C126.814 37.5811 127.999 34.7352 129.316 33.1922L123.991 28.6481L118.667 24.1039C114.397 29.1063 112.808 35.7155 112.83 42.8524L119.83 42.8307ZM123.991 28.6481L129.311 33.1972C130.277 32.068 132.53 30.6679 137.994 30.6509L137.972 23.6509L137.951 16.651C130.435 16.6743 123.368 18.6056 118.671 24.0989L123.991 28.6481ZM137.972 23.6509L137.994 30.6509C143.522 30.6337 145.743 32.0318 146.662 33.1075L151.985 28.5609L157.307 24.0144C152.599 18.5028 145.479 16.6275 137.951 16.651L137.972 23.6509ZM151.985 28.5609L146.719 33.1737C148.063 34.7075 149.275 37.5314 149.291 42.739L156.291 42.7172L163.291 42.6954C163.269 35.5383 161.61 28.9247 157.25 23.9482L151.985 28.5609ZM156.291 42.7172L149.291 42.739C149.307 47.8881 148.122 50.7494 146.752 52.3508L152.073 56.9L157.393 61.4492C161.686 56.4281 163.313 49.8342 163.291 42.6954L156.291 42.7172ZM152.073 56.9L146.722 52.3867C145.81 53.4681 143.598 54.88 138.07 54.8972L138.091 61.8971L138.113 68.8971C145.641 68.8737 152.75 66.9542 157.423 61.4133L152.073 56.9ZM138.059 51.3564L138.08 58.3564C141.885 58.3445 146.088 56.8763 148.47 52.648L142.372 49.2118L136.273 45.7755C136.393 45.5628 136.571 45.3185 136.818 45.0832C137.065 44.8471 137.329 44.67 137.576 44.5474C138.057 44.3082 138.302 44.3556 138.037 44.3564L138.059 51.3564ZM142.372 49.2118L148.4 52.7705C150.196 49.728 150.629 46.0589 150.619 42.7349L143.619 42.7566L136.619 42.7784C136.623 43.8977 136.541 44.6848 136.441 45.2026C136.339 45.7329 136.249 45.8148 136.344 45.653L142.372 49.2118ZM143.619 42.7566L150.619 42.7349C150.609 39.4284 150.147 35.7918 148.338 32.7708L142.332 36.367L136.326 39.9633C136.236 39.8115 136.325 39.8951 136.428 40.4103C136.53 40.915 136.616 41.6836 136.619 42.7784L143.619 42.7566ZM142.332 36.367L148.448 32.9622C146.079 28.7067 141.874 27.1796 137.983 27.1917L138.005 34.1917L138.027 41.1916C138.268 41.1909 137.998 41.2362 137.498 40.9847C137.243 40.8568 136.979 40.6757 136.736 40.4405C136.495 40.2067 136.326 39.9693 136.216 39.7719L142.332 36.367ZM138.005 34.1917L137.983 27.1917C134.084 27.2038 129.953 28.7527 127.566 32.9057L133.634 36.3941L139.703 39.8825C139.6 40.0616 139.442 40.2789 139.217 40.4941C138.991 40.7107 138.744 40.8788 138.507 40.9983C138.038 41.2346 137.791 41.1924 138.027 41.1916L138.005 34.1917ZM133.634 36.3941L127.536 32.9578C125.848 35.9536 125.435 39.5389 125.445 42.8132L132.445 42.7914L139.445 42.7696C139.441 41.6595 139.519 40.8695 139.618 40.3407C139.718 39.7987 139.811 39.692 139.733 39.8304L133.634 36.3941ZM132.445 42.7914L125.445 42.8132C125.455 46.1059 125.885 49.7179 127.597 52.713L133.674 49.2388L139.751 45.7647C139.835 45.9117 139.741 45.8076 139.635 45.2518C139.532 44.7113 139.448 43.9039 139.445 42.7696L132.445 42.7914ZM133.674 49.2388L127.669 52.8351C130.12 56.9282 134.265 58.3682 138.08 58.3564L138.059 51.3564L138.037 44.3564C137.776 44.3572 137.999 44.3099 138.452 44.5286C138.683 44.6401 138.93 44.8011 139.163 45.0154C139.396 45.2291 139.565 45.4507 139.68 45.6426L133.674 49.2388ZM166.404 55.9338L159.404 55.9556L159.425 62.9556L166.425 62.9338L166.404 55.9338ZM166.382 49.0218L173.382 49.0001L173.36 42.0001L166.36 42.0219L166.382 49.0218ZM158.894 49.0451L151.894 49.0669L151.916 56.0669L158.916 56.0451L158.894 49.0451ZM158.868 40.7508L158.847 33.7508L151.847 33.7726L151.868 40.7726L158.868 40.7508ZM166.356 40.7275L166.378 47.7275L173.378 47.7057L173.356 40.7057L166.356 40.7275ZM166.335 33.7579L166.313 26.758L159.313 26.7797L159.335 33.7797L166.335 33.7579ZM174.687 33.7319L181.687 33.7101L181.665 26.7102L174.665 26.732L174.687 33.7319ZM174.708 40.7015L167.708 40.7233L167.73 47.7232L174.73 47.7015L174.708 40.7015ZM182.196 40.6782L189.196 40.6564L189.174 33.6564L182.174 33.6782L182.196 40.6782ZM182.222 48.9726L182.244 55.9725L189.244 55.9507L189.222 48.9508L182.222 48.9726ZM174.734 48.9959L174.712 41.9959L167.712 42.0177L167.734 49.0176L174.734 48.9959ZM174.756 55.9078L174.777 62.9078L181.777 62.886L181.756 55.886L174.756 55.9078ZM166.404 55.9338L173.404 55.912L173.382 49.0001L166.382 49.0218L159.382 49.0436L159.404 55.9556L166.404 55.9338ZM166.382 49.0218L166.36 42.0219L158.872 42.0452L158.894 49.0451L158.916 56.0451L166.404 56.0218L166.382 49.0218ZM158.894 49.0451L165.894 49.0234L165.868 40.729L158.868 40.7508L151.868 40.7726L151.894 49.0669L158.894 49.0451ZM158.868 40.7508L158.89 47.7508L166.378 47.7275L166.356 40.7275L166.335 33.7275L158.847 33.7508L158.868 40.7508ZM166.356 40.7275L173.356 40.7057L173.335 33.7361L166.335 33.7579L159.335 33.7797L159.356 40.7493L166.356 40.7275ZM166.335 33.7579L166.356 40.7579L174.708 40.7319L174.687 33.7319L174.665 26.732L166.313 26.758L166.335 33.7579ZM174.687 33.7319L167.687 33.7537L167.708 40.7233L174.708 40.7015L181.708 40.6797L181.687 33.7101L174.687 33.7319ZM174.708 40.7015L174.73 47.7015L182.218 47.6782L182.196 40.6782L182.174 33.6782L174.686 33.7015L174.708 40.7015ZM182.196 40.6782L175.196 40.7L175.222 48.9943L182.222 48.9726L189.222 48.9508L189.196 40.6564L182.196 40.6782ZM182.222 48.9726L182.2 41.9726L174.712 41.9959L174.734 48.9959L174.756 55.9958L182.244 55.9725L182.222 48.9726ZM174.734 48.9959L167.734 49.0176L167.756 55.9296L174.756 55.9078L181.756 55.886L181.734 48.9741L174.734 48.9959ZM174.756 55.9078L174.734 48.9079L166.382 48.9338L166.404 55.9338L166.425 62.9338L174.777 62.9078L174.756 55.9078Z" fill="#62009B" mask="url(#path-1-outside-1_1067_31647)"/>
<path d="M60.1365 105.091L52.9497 87.347L57.2337 87.3336L61.8839 99.7428L66.4568 87.3049L70.64 87.2919L63.5637 105.08L60.1365 105.091ZM77.8699 105.212C73.7119 105.225 70.5776 102.16 70.5654 98.2542L70.5653 98.2038C70.5532 94.323 73.6682 91.1633 77.8766 91.1502C82.0346 91.1373 85.1689 94.2019 85.1811 98.1079L85.1812 98.1583C85.1933 102.039 82.0783 105.199 77.8699 105.212ZM77.9101 101.911C80.1024 101.904 81.4077 100.236 81.4014 98.2205L81.4012 98.1701C81.395 96.1793 79.9532 94.445 77.8364 94.4515C75.6441 94.4584 74.3388 96.1256 74.3451 98.1416L74.3453 98.192C74.3515 100.183 75.7933 101.917 77.9101 101.911ZM88.1521 104.877L88.0949 86.4816L91.9252 86.4697L91.9825 104.866L88.1521 104.877ZM100.066 105.092C97.1431 105.102 95.4741 103.217 95.4643 100.092L95.4371 91.3476L99.2675 91.3356L99.291 98.8704C99.2966 100.685 100.131 101.615 101.618 101.61C103.105 101.605 104.009 100.67 104.003 98.8557L103.98 91.321L107.81 91.3091L107.852 104.816L104.022 104.828L104.016 102.913C103.137 104.05 101.982 105.086 100.066 105.092ZM111.281 104.806L111.239 91.2984L115.069 91.2865L115.075 93.2017C115.953 92.0649 117.109 91.0281 119.025 91.0222C121.948 91.0131 123.617 92.8979 123.627 96.0227L123.654 104.767L119.823 104.779L119.8 97.2442C119.794 95.4298 118.96 94.5 117.473 94.5046C115.986 94.5092 115.082 95.4445 115.088 97.2588L115.111 104.794L111.281 104.806ZM131.543 104.969C129.225 104.976 127.609 104.049 127.599 100.924L127.58 94.5236L125.967 94.5286L125.957 91.2526L127.569 91.2476L127.559 87.7952L131.389 87.7833L131.4 91.2357L134.575 91.2258L134.585 94.5018L131.41 94.5116L131.428 100.282C131.431 101.164 131.835 101.592 132.667 101.589C133.347 101.587 133.977 101.434 134.555 101.104L134.565 104.179C133.76 104.66 132.828 104.965 131.543 104.969ZM143.473 105.008C139.416 105.02 136.408 102.182 136.395 98.0494L136.395 97.999C136.383 94.1434 139.12 90.9596 143.051 90.9474C147.562 90.9334 149.639 94.4297 149.651 98.2601C149.652 98.5625 149.628 98.8902 149.604 99.2683L140.204 99.2975C140.588 101.035 141.8 101.939 143.514 101.933C144.799 101.929 145.705 101.523 146.785 100.537L148.984 102.471C147.704 104.062 145.917 105 143.473 105.008ZM140.146 96.9037L145.917 96.8857C145.685 95.1728 144.673 94.0168 143.061 94.0218C141.448 94.0268 140.443 95.1639 140.146 96.9037ZM158.927 104.96C154.87 104.972 151.863 102.134 151.85 98.0013L151.85 97.9509C151.838 94.0953 154.575 90.9116 158.506 90.8993C163.017 90.8853 165.094 94.3816 165.106 98.212C165.107 98.5144 165.082 98.8421 165.058 99.2202L155.659 99.2494C156.042 100.987 157.255 101.89 158.968 101.885C160.254 101.881 161.159 101.475 162.24 100.489L164.438 102.423C163.158 104.014 161.372 104.952 158.927 104.96ZM155.601 96.8556L161.372 96.8376C161.14 95.1247 160.128 93.9687 158.515 93.9737C156.903 93.9787 155.898 95.1159 155.601 96.8556ZM167.98 104.629L167.938 91.122L171.769 91.1101L171.777 93.8316C172.553 91.9896 173.784 90.751 176.077 90.8446L176.09 94.8514L175.888 94.8521C173.343 94.86 171.785 96.3768 171.795 99.6276L171.811 104.617L167.98 104.629ZM183.252 104.834C181.336 104.84 179.268 104.216 177.449 102.81L179.079 100.285C180.57 101.364 182.058 101.889 183.343 101.885C184.452 101.881 184.955 101.477 184.953 100.872L184.953 100.821C184.95 99.9899 183.639 99.742 182.151 99.2678C180.259 98.7445 178.114 97.8439 178.106 95.2232L178.106 95.1728C178.097 92.426 180.31 90.8819 183.032 90.8734C184.745 90.8681 186.587 91.4419 188.077 92.4201L186.623 95.0706C185.285 94.2936 183.948 93.819 182.965 93.822C182.033 93.8249 181.555 94.2296 181.557 94.7588L181.557 94.8092C181.559 95.5148 182.846 95.9644 184.309 96.4135C186.201 97.0124 188.396 97.9379 188.404 100.408L188.404 100.458C188.413 103.457 186.175 104.824 183.252 104.834Z" fill="#C259FF"/>
<path d="M11.998 146.615L11.9668 136.571L8.13279 136.583L8.12484 134.027L18.5648 133.994L18.5727 136.55L14.7388 136.562L14.77 146.606L11.998 146.615ZM23.2841 146.796C20.3141 146.805 18.0753 144.616 18.0666 141.826L18.0665 141.79C18.0578 139.018 20.2828 136.761 23.2888 136.752C26.2588 136.742 28.4976 138.932 28.5063 141.722L28.5064 141.758C28.515 144.529 26.2901 146.786 23.2841 146.796ZM23.3127 144.438C24.8787 144.433 25.811 143.242 25.8065 141.802L25.8064 141.766C25.802 140.344 24.7722 139.105 23.2602 139.11C21.6942 139.115 20.7619 140.306 20.7663 141.746L20.7665 141.782C20.7709 143.204 21.8007 144.442 23.3127 144.438ZM35.8989 146.541L35.8581 133.401L38.594 133.392L38.6092 138.252C39.2366 137.44 40.0623 136.7 41.4303 136.695C43.5183 136.689 44.7105 138.035 44.7175 140.267L44.7369 146.513L42.0009 146.522L41.9842 141.14C41.9801 139.844 41.3841 139.179 40.3221 139.183C39.2601 139.186 38.6142 139.854 38.6182 141.15L38.6349 146.532L35.8989 146.541ZM51.6864 146.707C48.7884 146.716 46.6401 144.689 46.6309 141.737L46.6308 141.701C46.6222 138.947 48.5771 136.673 51.3851 136.664C54.6071 136.654 56.0909 139.152 56.0994 141.888C56.1001 142.104 56.0828 142.338 56.0656 142.608L49.3517 142.629C49.6255 143.87 50.4916 144.515 51.7156 144.511C52.6335 144.508 53.2806 144.218 54.0525 143.514L55.6228 144.895C54.7083 146.032 53.4324 146.702 51.6864 146.707ZM49.3104 140.919L53.4323 140.906C53.2665 139.682 52.544 138.857 51.392 138.86C50.24 138.864 49.5225 139.676 49.3104 140.919ZM58.2787 146.471L58.2379 133.331L60.9738 133.322L61.0147 146.462L58.2787 146.471ZM63.5933 149.334L63.5543 136.806L66.2903 136.798L66.2946 138.184C66.9578 137.264 67.8557 136.613 69.2957 136.609C71.5457 136.602 73.6932 138.359 73.7032 141.581L73.7033 141.617C73.7134 144.839 71.6129 146.609 69.3269 146.617C67.8689 146.621 66.9668 145.958 66.3164 145.186L66.3293 149.326L63.5933 149.334ZM68.6177 144.297C69.8957 144.293 70.9724 143.245 70.9674 141.625L70.9672 141.589C70.9623 139.987 69.879 138.929 68.601 138.933C67.323 138.937 66.2643 140.002 66.2693 141.604L66.2694 141.64C66.2744 143.242 67.3397 144.301 68.6177 144.297ZM85.3476 143.309L87.4332 136.732L90.2772 136.723L86.5999 146.617C85.886 148.581 85.0603 149.322 83.4404 149.327C82.4324 149.33 81.7116 149.08 81.0083 148.668L81.9201 146.685C82.2808 146.9 82.7313 147.061 83.0913 147.06C83.5773 147.058 83.8108 146.913 84.0433 146.427L80.2332 136.755L83.1312 136.746L85.3476 143.309ZM96.1099 146.569C93.1399 146.578 90.9011 144.389 90.8924 141.599L90.8923 141.563C90.8836 138.791 93.1086 136.534 96.1146 136.525C99.0846 136.516 101.323 138.705 101.332 141.495L101.332 141.531C101.341 144.303 99.1159 146.56 96.1099 146.569ZM96.1385 144.211C97.7045 144.206 98.6368 143.015 98.6323 141.575L98.6322 141.539C98.6278 140.117 97.5979 138.879 96.086 138.883C94.52 138.888 93.5877 140.079 93.5921 141.519L93.5923 141.555C93.5967 142.977 94.6265 144.216 96.1385 144.211ZM106.533 146.501C104.445 146.507 103.253 145.161 103.246 142.929L103.226 136.683L105.962 136.674L105.979 142.056C105.983 143.352 106.579 144.017 107.641 144.013C108.703 144.01 109.349 143.342 109.345 142.046L109.328 136.664L112.064 136.655L112.094 146.303L109.358 146.312L109.354 144.944C108.727 145.756 107.901 146.496 106.533 146.501ZM114.03 149.213L113.793 148.08C115.07 147.95 115.644 147.354 115.551 146.293L114.435 146.296L114.426 143.416L117.342 143.407L117.35 145.837C117.357 148.213 116.172 149.189 114.03 149.213ZM129.419 149.166C127.835 149.17 126.376 148.815 125.15 148.171L126.079 146.116C127.089 146.671 128.044 146.992 129.34 146.988C131.212 146.982 132.091 146.079 132.086 144.351L132.085 143.883C131.278 144.876 130.397 145.454 128.939 145.459C126.689 145.466 124.65 143.852 124.641 140.972L124.641 140.936C124.632 138.056 126.697 136.43 128.911 136.423C130.405 136.418 131.289 137.046 132.03 137.853L132.026 136.593L134.762 136.585L134.785 144.055C134.79 145.765 134.38 147.044 133.573 147.857C132.658 148.777 131.291 149.16 129.419 149.166ZM129.724 143.189C131.074 143.184 132.079 142.263 132.075 140.949L132.075 140.913C132.071 139.599 131.06 138.684 129.71 138.689C128.378 138.693 127.373 139.614 127.377 140.928L127.377 140.964C127.382 142.314 128.374 143.193 129.724 143.189ZM141.809 146.427C138.911 146.436 136.763 144.409 136.753 141.457L136.753 141.421C136.745 138.667 138.7 136.393 141.508 136.384C144.73 136.374 146.213 138.871 146.222 141.607C146.223 141.823 146.205 142.057 146.188 142.327L139.474 142.348C139.748 143.589 140.614 144.235 141.838 144.231C142.756 144.228 143.403 143.938 144.175 143.234L145.745 144.615C144.831 145.752 143.555 146.422 141.809 146.427ZM139.433 140.638L143.555 140.626C143.389 139.402 142.667 138.576 141.515 138.58C140.363 138.583 139.645 139.396 139.433 140.638ZM151.534 146.343C149.878 146.348 148.724 145.685 148.717 143.453L148.703 138.881L147.551 138.885L147.543 136.545L148.695 136.542L148.688 134.076L151.424 134.067L151.431 136.533L153.699 136.526L153.707 138.866L151.439 138.873L151.451 142.995C151.453 143.625 151.742 143.93 152.336 143.928C152.822 143.927 153.272 143.817 153.685 143.582L153.692 145.778C153.117 146.122 152.452 146.34 151.534 146.343ZM164.401 146.303C162.745 146.308 161.591 145.645 161.584 143.413L161.57 138.841L160.418 138.845L160.41 136.505L161.562 136.501L161.555 134.035L164.291 134.027L164.298 136.493L166.566 136.486L166.574 138.826L164.306 138.833L164.319 142.955C164.32 143.585 164.609 143.89 165.203 143.888C165.689 143.887 166.139 143.777 166.552 143.542L166.559 145.738C165.984 146.082 165.319 146.3 164.401 146.303ZM168.613 146.128L168.572 132.988L171.308 132.979L171.323 137.839C171.951 137.027 172.777 136.287 174.145 136.282C176.233 136.276 177.425 137.622 177.432 139.854L177.451 146.1L174.715 146.109L174.698 140.727C174.694 139.431 174.098 138.766 173.036 138.77C171.974 138.773 171.328 139.441 171.332 140.737L171.349 146.119L168.613 146.128ZM184.401 146.294C181.503 146.303 179.354 144.276 179.345 141.324L179.345 141.288C179.336 138.534 181.291 136.26 184.099 136.251C187.321 136.241 188.805 138.739 188.814 141.475C188.814 141.691 188.797 141.925 188.78 142.195L182.066 142.216C182.34 143.457 183.206 144.102 184.43 144.098C185.348 144.095 185.995 143.805 186.767 143.101L188.337 144.482C187.422 145.619 186.147 146.289 184.401 146.294ZM182.025 140.506L186.146 140.493C185.981 139.269 185.258 138.444 184.106 138.447C182.954 138.451 182.237 139.263 182.025 140.506ZM202.006 146.204C200.548 146.208 199.646 145.545 198.995 144.773L198.999 146.033L196.263 146.042L196.222 132.902L198.958 132.893L198.974 137.771C199.637 136.851 200.535 136.2 201.975 136.196C204.225 136.189 206.372 137.946 206.382 141.168L206.382 141.204C206.392 144.426 204.292 146.197 202.006 146.204ZM201.297 143.884C202.575 143.88 203.651 142.833 203.646 141.213L203.646 141.177C203.641 139.575 202.558 138.516 201.28 138.52C200.002 138.524 198.943 139.589 198.948 141.191L198.948 141.227C198.953 142.829 200.019 143.888 201.297 143.884ZM212.982 146.206C210.084 146.215 207.936 144.187 207.927 141.235L207.927 141.199C207.918 138.445 209.873 136.171 212.681 136.162C215.903 136.152 217.387 138.65 217.395 141.386C217.396 141.602 217.379 141.836 217.362 142.106L210.648 142.127C210.922 143.368 211.788 144.013 213.012 144.009C213.93 144.007 214.577 143.717 215.349 143.012L216.919 144.393C216.004 145.53 214.728 146.2 212.982 146.206ZM210.606 140.417L214.728 140.404C214.563 139.181 213.84 138.355 212.688 138.358C211.536 138.362 210.819 139.174 210.606 140.417ZM222.833 146.139C221.465 146.143 219.988 145.698 218.689 144.694L219.853 142.89C220.918 143.661 221.981 144.036 222.899 144.033C223.691 144.03 224.05 143.741 224.049 143.309L224.048 143.273C224.047 142.679 223.11 142.502 222.047 142.163C220.696 141.789 219.164 141.146 219.158 139.274L219.158 139.238C219.152 137.276 220.732 136.173 222.676 136.167C223.9 136.163 225.216 136.573 226.28 137.272L225.242 139.165C224.286 138.61 223.331 138.271 222.629 138.273C221.963 138.276 221.622 138.565 221.623 138.943L221.623 138.979C221.625 139.483 222.544 139.804 223.589 140.124C224.94 140.552 226.508 141.213 226.514 142.977L226.514 143.013C226.52 145.155 224.921 146.132 222.833 146.139ZM231.567 146.094C229.911 146.099 228.757 145.436 228.75 143.204L228.735 138.632L227.583 138.636L227.576 136.296L228.728 136.292L228.72 133.826L231.456 133.818L231.464 136.284L233.732 136.277L233.739 138.617L231.471 138.624L231.484 142.746C231.486 143.376 231.775 143.681 232.369 143.679C232.855 143.678 233.305 143.568 233.718 143.333L233.725 145.529C233.15 145.873 232.485 146.091 231.567 146.094ZM50.9154 171.71C47.9454 171.719 45.7066 169.53 45.6979 166.74L45.6978 166.704C45.6892 163.932 47.9142 161.675 50.9202 161.666C53.8902 161.657 56.129 163.846 56.1377 166.636L56.1378 166.672C56.1464 169.444 53.9214 171.701 50.9154 171.71ZM50.9441 169.352C52.5101 169.347 53.4424 168.156 53.4379 166.716L53.4378 166.68C53.4334 165.258 52.4035 164.019 50.8915 164.024C49.3255 164.029 48.3932 165.22 48.3977 166.66L48.3978 166.696C48.4022 168.118 49.4321 169.357 50.9441 169.352ZM61.3384 171.641C59.2504 171.648 58.0582 170.302 58.0513 168.07L58.0318 161.824L60.7678 161.815L60.7846 167.197C60.7886 168.493 61.3847 169.157 62.4467 169.154C63.5087 169.151 64.1546 168.483 64.1505 167.187L64.1338 161.805L66.8698 161.796L66.8998 171.444L64.1638 171.453L64.1596 170.085C63.5321 170.897 62.7064 171.637 61.3384 171.641ZM72.6071 171.588C70.9511 171.594 69.7971 170.931 69.7901 168.699L69.7759 164.127L68.6239 164.131L68.6166 161.791L69.7686 161.787L69.7609 159.321L72.4969 159.313L72.5046 161.779L74.7726 161.772L74.7799 164.112L72.5119 164.119L72.5247 168.241C72.5267 168.871 72.8156 169.176 73.4096 169.174C73.8956 169.172 74.3453 169.063 74.7585 168.828L74.7654 171.024C74.1904 171.368 73.5251 171.586 72.6071 171.588ZM86.9504 171.598C83.9804 171.607 81.7416 169.418 81.7329 166.628L81.7328 166.592C81.7242 163.82 83.9492 161.563 86.9552 161.554C89.9251 161.544 92.164 163.734 92.1726 166.524L92.1728 166.56C92.1814 169.332 89.9564 171.588 86.9504 171.598ZM86.9791 169.24C88.5451 169.235 89.4774 168.044 89.4729 166.604L89.4728 166.568C89.4683 165.146 88.4385 163.907 86.9265 163.912C85.3605 163.917 84.4282 165.108 84.4327 166.548L84.4328 166.584C84.4372 168.006 85.4671 169.244 86.9791 169.24ZM94.6368 171.358L94.6141 164.05L93.4801 164.053L93.4731 161.803L94.6071 161.8L94.6052 161.188C94.6019 160.144 94.8515 159.369 95.3719 158.846C95.8743 158.34 96.6115 158.086 97.5835 158.083C98.4475 158.08 99.0239 158.186 99.5284 158.347L99.5354 160.615C99.121 160.472 98.7787 160.383 98.2927 160.384C97.6267 160.387 97.3038 160.73 97.3059 161.432L97.3071 161.81L99.5211 161.803L99.5281 164.035L97.3501 164.041L97.3728 171.349L94.6368 171.358ZM106.726 171.32L106.687 158.72L109.459 158.712L109.475 163.698L114.587 163.682L114.571 158.696L117.343 158.687L117.382 171.287L114.61 171.296L114.595 166.238L109.483 166.254L109.498 171.312L106.726 171.32ZM122.851 171.45C121.033 171.456 119.535 170.434 119.529 168.508L119.529 168.472C119.523 166.384 121.122 165.389 123.408 165.382C124.398 165.379 125.064 165.539 125.767 165.771L125.766 165.609C125.763 164.457 125.059 163.847 123.691 163.851C122.629 163.855 121.909 164.037 121.029 164.382L120.338 162.296C121.399 161.843 122.442 161.515 124.08 161.51C125.592 161.506 126.637 161.88 127.341 162.58C128.063 163.298 128.391 164.359 128.395 165.655L128.412 171.253L125.766 171.261L125.763 170.217C125.099 170.957 124.201 171.446 122.851 171.45ZM123.673 169.558C124.969 169.553 125.813 168.867 125.809 167.859L125.808 167.373C125.321 167.158 124.727 167.016 124.061 167.018C122.891 167.022 122.172 167.492 122.175 168.356L122.175 168.392C122.177 169.13 122.791 169.56 123.673 169.558ZM135.321 171.447C132.423 171.456 130.292 169.213 130.283 166.477L130.283 166.441C130.275 163.687 132.374 161.412 135.326 161.403C137.144 161.398 138.262 162.006 139.183 163.011L137.514 164.816C136.882 164.17 136.305 163.758 135.315 163.761C133.947 163.766 132.979 164.957 132.983 166.397L132.983 166.433C132.988 167.927 133.946 169.094 135.44 169.089C136.358 169.086 136.986 168.688 137.65 168.056L139.257 169.671C138.325 170.7 137.247 171.441 135.321 171.447ZM141.049 171.213L141.009 158.074L143.745 158.065L143.766 165.067L146.959 161.547L150.235 161.537L146.575 165.346L150.391 171.184L147.223 171.194L144.745 167.242L143.776 168.271L143.785 171.205L141.049 171.213ZM151.99 171.179L151.951 158.579L157.8 158.561C159.258 158.557 160.358 158.931 161.098 159.667C161.676 160.241 161.966 160.96 161.969 161.806L161.969 161.842C161.973 163.246 161.22 164.095 160.321 164.565C161.781 165.119 162.684 165.98 162.689 167.654L162.689 167.69C162.696 169.994 160.828 171.152 157.984 171.161L151.99 171.179ZM159.216 162.319L159.216 162.283C159.213 161.437 158.564 160.989 157.394 160.993L154.658 161.001L154.666 163.665L157.222 163.657C158.446 163.653 159.219 163.255 159.216 162.319ZM159.934 167.357L159.934 167.321C159.931 166.475 159.318 165.955 157.878 165.959L154.674 165.969L154.682 168.741L157.976 168.731C159.2 168.727 159.937 168.293 159.934 167.357ZM168.737 168.049L170.822 161.473L173.666 161.464L169.989 171.357C169.275 173.322 168.449 174.062 166.829 174.067C165.821 174.07 165.1 173.821 164.397 173.409L165.309 171.426C165.67 171.641 166.12 171.801 166.48 171.8C166.966 171.799 167.2 171.654 167.432 171.167L163.622 161.495L166.52 161.486L168.737 168.049ZM178.568 171.259C176.912 171.264 175.757 170.601 175.751 168.369L175.736 163.797L174.584 163.801L174.577 161.461L175.729 161.458L175.721 158.992L178.457 158.983L178.465 161.449L180.733 161.442L180.74 163.782L178.472 163.789L178.485 167.911C178.487 168.541 178.776 168.846 179.37 168.844C179.856 168.843 180.306 168.733 180.719 168.498L180.726 170.694C180.151 171.038 179.486 171.256 178.568 171.259ZM187.089 171.286C184.191 171.295 182.042 169.268 182.033 166.316L182.033 166.28C182.024 163.526 183.979 161.252 186.787 161.243C190.009 161.233 191.493 163.73 191.502 166.466C191.502 166.682 191.485 166.917 191.468 167.187L184.754 167.207C185.028 168.449 185.894 169.094 187.118 169.09C188.036 169.087 188.683 168.797 189.455 168.093L191.025 169.474C190.111 170.611 188.835 171.281 187.089 171.286ZM184.713 165.498L188.835 165.485C188.669 164.261 187.946 163.436 186.794 163.439C185.642 163.443 184.925 164.255 184.713 165.498ZM193.271 171.051L193.262 168.171L196.178 168.162L196.187 171.042L193.271 171.051Z" fill="#9D00F7"/>
</svg>
