<svg width="242" height="179" viewBox="0 0 242 179" fill="none" xmlns="http://www.w3.org/2000/svg">
<mask id="path-1-outside-1_1067_31654" maskUnits="userSpaceOnUse" x="51.0464" y="15.1592" width="139.167" height="54.4323" fill="black">
<rect fill="white" x="51.0464" y="15.1592" width="139.167" height="54.4323"/>
<path d="M65.3029 61.5476L65.2233 35.9733L59.0054 36.9143L58.9733 26.604L77.5696 23.8389L77.6868 61.5091L65.3029 61.5476ZM99.3353 62.0177C92.8458 62.0379 88.175 60.4012 85.3232 57.1077C82.5097 53.814 81.0934 49.0952 81.0743 42.9513C81.0551 36.7689 82.442 32.0414 85.235 28.7686C88.0663 25.4574 92.7268 23.7917 99.2163 23.7715C105.744 23.7512 110.415 25.3879 113.228 28.6815C116.08 31.9367 117.516 36.6554 117.535 42.8378C117.554 48.9818 116.148 53.7094 113.317 57.0206C110.524 60.3317 105.863 61.9974 99.3353 62.0177ZM99.3025 51.477C101.376 51.4705 102.814 50.7557 103.616 49.3323C104.456 47.9089 104.872 45.7572 104.863 42.8772C104.854 40.0357 104.425 37.9058 103.576 36.4876C102.765 35.0309 101.323 34.3058 99.2491 34.3123C97.1755 34.3187 95.7186 35.0529 94.8784 36.5147C94.0764 37.938 93.6798 40.0704 93.6887 42.912C93.6976 45.792 94.1075 47.9411 94.9183 49.3594C95.7675 50.7776 97.2289 51.4834 99.3025 51.477ZM138.091 61.8971C131.602 61.9173 126.931 60.2807 124.079 56.9871C121.266 53.6935 119.849 48.9746 119.83 42.8307C119.811 36.6483 121.198 31.9208 123.991 28.6481C126.822 25.3368 131.483 23.6711 137.972 23.6509C144.5 23.6306 149.171 25.2673 151.985 28.5609C154.836 31.8161 156.272 36.5348 156.291 42.7172C156.31 48.8612 154.904 53.5888 152.073 56.9C149.28 60.2111 144.619 61.8768 138.091 61.8971ZM138.059 51.3564C140.132 51.3499 141.57 50.6351 142.372 49.2118C143.212 47.7883 143.628 45.6366 143.619 42.7566C143.61 39.9151 143.181 37.7852 142.332 36.367C141.521 34.9103 140.079 34.1852 138.005 34.1917C135.932 34.1981 134.475 34.9323 133.634 36.3941C132.832 37.8174 132.436 39.9498 132.445 42.7914C132.454 45.6714 132.864 47.8205 133.674 49.2388C134.524 50.657 135.985 51.3628 138.059 51.3564ZM166.404 55.9338L166.382 49.0218L158.894 49.0451L158.868 40.7508L166.356 40.7275L166.335 33.7579L174.687 33.7319L174.708 40.7015L182.196 40.6782L182.222 48.9726L174.734 48.9959L174.756 55.9078L166.404 55.9338Z"/>
</mask>
<path d="M65.3029 61.5476L65.2233 35.9733L59.0054 36.9143L58.9733 26.604L77.5696 23.8389L77.6868 61.5091L65.3029 61.5476ZM99.3353 62.0177C92.8458 62.0379 88.175 60.4012 85.3232 57.1077C82.5097 53.814 81.0934 49.0952 81.0743 42.9513C81.0551 36.7689 82.442 32.0414 85.235 28.7686C88.0663 25.4574 92.7268 23.7917 99.2163 23.7715C105.744 23.7512 110.415 25.3879 113.228 28.6815C116.08 31.9367 117.516 36.6554 117.535 42.8378C117.554 48.9818 116.148 53.7094 113.317 57.0206C110.524 60.3317 105.863 61.9974 99.3353 62.0177ZM99.3025 51.477C101.376 51.4705 102.814 50.7557 103.616 49.3323C104.456 47.9089 104.872 45.7572 104.863 42.8772C104.854 40.0357 104.425 37.9058 103.576 36.4876C102.765 35.0309 101.323 34.3058 99.2491 34.3123C97.1755 34.3187 95.7186 35.0529 94.8784 36.5147C94.0764 37.938 93.6798 40.0704 93.6887 42.912C93.6976 45.792 94.1075 47.9411 94.9183 49.3594C95.7675 50.7776 97.2289 51.4834 99.3025 51.477ZM138.091 61.8971C131.602 61.9173 126.931 60.2807 124.079 56.9871C121.266 53.6935 119.849 48.9746 119.83 42.8307C119.811 36.6483 121.198 31.9208 123.991 28.6481C126.822 25.3368 131.483 23.6711 137.972 23.6509C144.5 23.6306 149.171 25.2673 151.985 28.5609C154.836 31.8161 156.272 36.5348 156.291 42.7172C156.31 48.8612 154.904 53.5888 152.073 56.9C149.28 60.2111 144.619 61.8768 138.091 61.8971ZM138.059 51.3564C140.132 51.3499 141.57 50.6351 142.372 49.2118C143.212 47.7883 143.628 45.6366 143.619 42.7566C143.61 39.9151 143.181 37.7852 142.332 36.367C141.521 34.9103 140.079 34.1852 138.005 34.1917C135.932 34.1981 134.475 34.9323 133.634 36.3941C132.832 37.8174 132.436 39.9498 132.445 42.7914C132.454 45.6714 132.864 47.8205 133.674 49.2388C134.524 50.657 135.985 51.3628 138.059 51.3564ZM166.404 55.9338L166.382 49.0218L158.894 49.0451L158.868 40.7508L166.356 40.7275L166.335 33.7579L174.687 33.7319L174.708 40.7015L182.196 40.6782L182.222 48.9726L174.734 48.9959L174.756 55.9078L166.404 55.9338Z" fill="white"/>
<path d="M65.3029 61.5476L58.3029 61.5694L58.3247 68.5694L65.3247 68.5476L65.3029 61.5476ZM65.2233 35.9733L72.2233 35.9516L72.198 27.8382L64.1759 29.0521L65.2233 35.9733ZM59.0054 36.9143L52.0055 36.9361L52.0307 45.0495L60.0528 43.8355L59.0054 36.9143ZM58.9733 26.604L57.9438 19.6801L51.9545 20.5706L51.9734 26.6257L58.9733 26.604ZM77.5696 23.8389L84.5696 23.8171L84.5444 15.7248L76.5401 16.915L77.5696 23.8389ZM77.6868 61.5091L77.7086 68.5091L84.7086 68.4873L84.6868 61.4873L77.6868 61.5091ZM65.3029 61.5476L72.3029 61.5258L72.2233 35.9516L65.2233 35.9733L58.2234 35.9951L58.3029 61.5694L65.3029 61.5476ZM65.2233 35.9733L64.1759 29.0521L57.958 29.9931L59.0054 36.9143L60.0528 43.8355L66.2707 42.8945L65.2233 35.9733ZM59.0054 36.9143L66.0054 36.8925L65.9733 26.5822L58.9733 26.604L51.9734 26.6257L52.0055 36.9361L59.0054 36.9143ZM58.9733 26.604L60.0029 33.5278L78.5991 30.7628L77.5696 23.8389L76.5401 16.915L57.9438 19.6801L58.9733 26.604ZM77.5696 23.8389L70.5697 23.8607L70.6869 61.5309L77.6868 61.5091L84.6868 61.4873L84.5696 23.8171L77.5696 23.8389ZM77.6868 61.5091L77.6651 54.5091L65.2811 54.5477L65.3029 61.5476L65.3247 68.5476L77.7086 68.5091L77.6868 61.5091ZM85.3232 57.1077L80.0007 61.6542L80.0159 61.6721L80.0313 61.6899L85.3232 57.1077ZM85.235 28.7686L79.9147 24.2195L79.9105 24.2245L85.235 28.7686ZM113.228 28.6815L107.906 33.2281L107.934 33.2613L107.963 33.2943L113.228 28.6815ZM113.317 57.0206L107.996 52.4714L107.981 52.4893L107.966 52.5073L113.317 57.0206ZM103.616 49.3324L97.588 45.7736L97.5521 45.8345L97.5174 45.8961L103.616 49.3324ZM103.576 36.4876L97.4598 39.8925L97.5135 39.989L97.5703 40.0838L103.576 36.4876ZM94.8784 36.5147L88.8095 33.0263L88.7945 33.0523L88.7798 33.0784L94.8784 36.5147ZM94.9183 49.3594L88.8413 52.8336L88.8764 52.895L88.9127 52.9556L94.9183 49.3594ZM99.3353 62.0177L99.3135 55.0178C93.8495 55.0348 91.5876 53.6487 90.615 52.5255L85.3232 57.1077L80.0313 61.6899C84.7625 67.1538 91.842 69.0411 99.3571 69.0177L99.3353 62.0177ZM85.3232 57.1077L90.6457 52.5612C89.284 50.9671 88.0904 48.0988 88.0743 42.9295L81.0743 42.9513L74.0743 42.973C74.0965 50.0916 75.7354 56.661 80.0007 61.6542L85.3232 57.1077ZM81.0743 42.9513L88.0743 42.9295C88.058 37.7017 89.2427 34.8558 90.5596 33.3128L85.235 28.7686L79.9105 24.2245C75.6413 29.2269 74.0521 35.8361 74.0743 42.973L81.0743 42.9513ZM85.235 28.7686L90.5553 33.3178C91.5208 32.1886 93.7741 30.7885 99.2381 30.7715L99.2163 23.7715L99.1945 16.7716C91.6794 16.7949 84.6118 18.7262 79.9147 24.2195L85.235 28.7686ZM99.2163 23.7715L99.2381 30.7715C104.766 30.7543 106.987 32.1524 107.906 33.2281L113.228 28.6815L118.551 24.135C113.843 18.6234 106.722 16.7481 99.1945 16.7716L99.2163 23.7715ZM113.228 28.6815L107.963 33.2943C109.307 34.8281 110.519 37.652 110.535 42.8596L117.535 42.8378L124.535 42.816C124.513 35.6589 122.853 29.0453 118.494 24.0688L113.228 28.6815ZM117.535 42.8378L110.535 42.8596C110.551 48.0087 109.366 50.87 107.996 52.4714L113.317 57.0206L118.637 61.5698C122.93 56.5487 124.557 49.9548 124.535 42.816L117.535 42.8378ZM113.317 57.0206L107.966 52.5073C107.054 53.5886 104.842 55.0006 99.3135 55.0178L99.3353 62.0177L99.3571 69.0177C106.885 68.9943 113.994 67.0748 118.667 61.5339L113.317 57.0206ZM99.3025 51.477L99.3243 58.4769C103.129 58.4651 107.332 56.9969 109.714 52.7686L103.616 49.3324L97.5174 45.8961C97.6372 45.6834 97.815 45.4391 98.0616 45.2038C98.3089 44.9677 98.5729 44.7906 98.8196 44.668C99.3007 44.4288 99.5457 44.4762 99.2808 44.477L99.3025 51.477ZM103.616 49.3324L109.644 52.8911C111.44 49.8486 111.873 46.1795 111.863 42.8555L104.863 42.8772L97.863 42.899C97.8665 44.0183 97.7851 44.8054 97.685 45.3232C97.5826 45.8535 97.4925 45.9354 97.588 45.7736L103.616 49.3324ZM104.863 42.8772L111.863 42.8555C111.853 39.549 111.391 35.9124 109.581 32.8914L103.576 36.4876L97.5703 40.0838C97.4795 39.9321 97.5686 40.0157 97.6724 40.5309C97.7741 41.0356 97.8596 41.8042 97.863 42.899L104.863 42.8772ZM103.576 36.4876L109.692 33.0828C107.323 28.8273 103.118 27.3002 99.2273 27.3123L99.2491 34.3123L99.2709 41.3122C99.5115 41.3115 99.2418 41.3568 98.7417 41.1053C98.4873 40.9774 98.2228 40.7962 97.9799 40.5611C97.7385 40.3273 97.5697 40.0899 97.4598 39.8925L103.576 36.4876ZM99.2491 34.3123L99.2273 27.3123C95.3279 27.3244 91.1966 28.8733 88.8095 33.0263L94.8784 36.5147L100.947 40.0031C100.844 40.1822 100.686 40.3995 100.461 40.6147C100.235 40.8313 99.9884 40.9994 99.7512 41.1189C99.2824 41.3552 99.0346 41.313 99.2709 41.3122L99.2491 34.3123ZM94.8784 36.5147L88.7798 33.0784C87.0918 36.0742 86.6785 39.6595 86.6887 42.9338L93.6886 42.912L100.689 42.8902C100.685 41.7801 100.763 40.9901 100.861 40.4613C100.962 39.9193 101.055 39.8126 100.977 39.951L94.8784 36.5147ZM93.6886 42.912L86.6887 42.9338C86.6989 46.2265 87.129 49.8385 88.8413 52.8336L94.9183 49.3594L100.995 45.8852C101.079 46.0323 100.985 45.9282 100.879 45.3724C100.776 44.8319 100.692 44.0245 100.689 42.8902L93.6886 42.912ZM94.9183 49.3594L88.9127 52.9556C91.3638 57.0488 95.5087 58.4888 99.3243 58.4769L99.3025 51.477L99.2808 44.477C99.0202 44.4778 99.2429 44.4304 99.6958 44.6492C99.9267 44.7607 100.174 44.9217 100.407 45.136C100.64 45.3497 100.809 45.5712 100.924 45.7632L94.9183 49.3594ZM124.079 56.9871L118.757 61.5336L118.772 61.5515L118.787 61.5693L124.079 56.9871ZM123.991 28.6481L118.671 24.0989L118.667 24.1039L123.991 28.6481ZM151.985 28.5609L146.662 33.1075L146.69 33.1408L146.719 33.1737L151.985 28.5609ZM152.073 56.9L146.752 52.3508L146.737 52.3687L146.722 52.3867L152.073 56.9ZM142.372 49.2118L136.344 45.653L136.308 45.7139L136.273 45.7755L142.372 49.2118ZM142.332 36.367L136.216 39.7719L136.27 39.8684L136.326 39.9633L142.332 36.367ZM133.634 36.3941L127.566 32.9057L127.551 32.9317L127.536 32.9578L133.634 36.3941ZM133.674 49.2388L127.597 52.713L127.632 52.7744L127.669 52.8351L133.674 49.2388ZM138.091 61.8971L138.07 54.8972C132.606 54.9142 130.344 53.5281 129.371 52.4049L124.079 56.9871L118.787 61.5693C123.519 67.0332 130.598 68.9205 138.113 68.8971L138.091 61.8971ZM124.079 56.9871L129.402 52.4406C128.04 50.8465 126.846 47.9782 126.83 42.8089L119.83 42.8307L112.83 42.8524C112.853 49.971 114.491 56.5404 118.757 61.5336L124.079 56.9871ZM119.83 42.8307L126.83 42.8089C126.814 37.5811 127.999 34.7352 129.316 33.1922L123.991 28.6481L118.667 24.1039C114.397 29.1063 112.808 35.7155 112.83 42.8524L119.83 42.8307ZM123.991 28.6481L129.311 33.1972C130.277 32.068 132.53 30.6679 137.994 30.6509L137.972 23.6509L137.951 16.651C130.435 16.6743 123.368 18.6056 118.671 24.0989L123.991 28.6481ZM137.972 23.6509L137.994 30.6509C143.522 30.6337 145.743 32.0318 146.662 33.1075L151.985 28.5609L157.307 24.0144C152.599 18.5028 145.479 16.6275 137.951 16.651L137.972 23.6509ZM151.985 28.5609L146.719 33.1737C148.063 34.7075 149.275 37.5314 149.291 42.739L156.291 42.7172L163.291 42.6954C163.269 35.5383 161.61 28.9247 157.25 23.9482L151.985 28.5609ZM156.291 42.7172L149.291 42.739C149.307 47.8881 148.122 50.7494 146.752 52.3508L152.073 56.9L157.393 61.4492C161.686 56.4281 163.313 49.8342 163.291 42.6954L156.291 42.7172ZM152.073 56.9L146.722 52.3867C145.81 53.4681 143.598 54.88 138.07 54.8972L138.091 61.8971L138.113 68.8971C145.641 68.8737 152.75 66.9542 157.423 61.4133L152.073 56.9ZM138.059 51.3564L138.08 58.3564C141.885 58.3445 146.088 56.8763 148.47 52.648L142.372 49.2118L136.273 45.7755C136.393 45.5628 136.571 45.3185 136.818 45.0832C137.065 44.8471 137.329 44.67 137.576 44.5474C138.057 44.3082 138.302 44.3556 138.037 44.3564L138.059 51.3564ZM142.372 49.2118L148.4 52.7705C150.196 49.728 150.629 46.0589 150.619 42.7349L143.619 42.7566L136.619 42.7784C136.623 43.8977 136.541 44.6848 136.441 45.2026C136.339 45.7329 136.249 45.8148 136.344 45.653L142.372 49.2118ZM143.619 42.7566L150.619 42.7349C150.609 39.4284 150.147 35.7918 148.338 32.7708L142.332 36.367L136.326 39.9633C136.236 39.8115 136.325 39.8951 136.428 40.4103C136.53 40.915 136.616 41.6836 136.619 42.7784L143.619 42.7566ZM142.332 36.367L148.448 32.9622C146.079 28.7067 141.874 27.1796 137.983 27.1917L138.005 34.1917L138.027 41.1916C138.268 41.1909 137.998 41.2362 137.498 40.9847C137.243 40.8568 136.979 40.6757 136.736 40.4405C136.495 40.2067 136.326 39.9693 136.216 39.7719L142.332 36.367ZM138.005 34.1917L137.983 27.1917C134.084 27.2038 129.953 28.7527 127.566 32.9057L133.634 36.3941L139.703 39.8825C139.6 40.0616 139.442 40.2789 139.217 40.4941C138.991 40.7107 138.744 40.8788 138.507 40.9983C138.038 41.2346 137.791 41.1924 138.027 41.1916L138.005 34.1917ZM133.634 36.3941L127.536 32.9578C125.848 35.9536 125.435 39.5389 125.445 42.8132L132.445 42.7914L139.445 42.7696C139.441 41.6595 139.519 40.8695 139.618 40.3407C139.718 39.7987 139.811 39.692 139.733 39.8304L133.634 36.3941ZM132.445 42.7914L125.445 42.8132C125.455 46.1059 125.885 49.7179 127.597 52.713L133.674 49.2388L139.751 45.7647C139.835 45.9117 139.741 45.8076 139.635 45.2518C139.532 44.7113 139.448 43.9039 139.445 42.7696L132.445 42.7914ZM133.674 49.2388L127.669 52.8351C130.12 56.9282 134.265 58.3682 138.08 58.3564L138.059 51.3564L138.037 44.3564C137.776 44.3572 137.999 44.3099 138.452 44.5286C138.683 44.6401 138.93 44.8011 139.163 45.0154C139.396 45.2291 139.565 45.4507 139.68 45.6426L133.674 49.2388ZM166.404 55.9338L159.404 55.9556L159.425 62.9556L166.425 62.9338L166.404 55.9338ZM166.382 49.0218L173.382 49.0001L173.36 42.0001L166.36 42.0219L166.382 49.0218ZM158.894 49.0451L151.894 49.0669L151.916 56.0669L158.916 56.0451L158.894 49.0451ZM158.868 40.7508L158.847 33.7508L151.847 33.7726L151.868 40.7726L158.868 40.7508ZM166.356 40.7275L166.378 47.7275L173.378 47.7057L173.356 40.7057L166.356 40.7275ZM166.335 33.7579L166.313 26.758L159.313 26.7797L159.335 33.7797L166.335 33.7579ZM174.687 33.7319L181.687 33.7101L181.665 26.7102L174.665 26.732L174.687 33.7319ZM174.708 40.7015L167.708 40.7233L167.73 47.7232L174.73 47.7015L174.708 40.7015ZM182.196 40.6782L189.196 40.6564L189.174 33.6564L182.174 33.6782L182.196 40.6782ZM182.222 48.9726L182.244 55.9725L189.244 55.9507L189.222 48.9508L182.222 48.9726ZM174.734 48.9959L174.712 41.9959L167.712 42.0177L167.734 49.0176L174.734 48.9959ZM174.756 55.9078L174.777 62.9078L181.777 62.886L181.756 55.886L174.756 55.9078ZM166.404 55.9338L173.404 55.912L173.382 49.0001L166.382 49.0218L159.382 49.0436L159.404 55.9556L166.404 55.9338ZM166.382 49.0218L166.36 42.0219L158.872 42.0452L158.894 49.0451L158.916 56.0451L166.404 56.0218L166.382 49.0218ZM158.894 49.0451L165.894 49.0234L165.868 40.729L158.868 40.7508L151.868 40.7726L151.894 49.0669L158.894 49.0451ZM158.868 40.7508L158.89 47.7508L166.378 47.7275L166.356 40.7275L166.335 33.7275L158.847 33.7508L158.868 40.7508ZM166.356 40.7275L173.356 40.7057L173.335 33.7361L166.335 33.7579L159.335 33.7797L159.356 40.7493L166.356 40.7275ZM166.335 33.7579L166.356 40.7579L174.708 40.7319L174.687 33.7319L174.665 26.732L166.313 26.758L166.335 33.7579ZM174.687 33.7319L167.687 33.7537L167.708 40.7233L174.708 40.7015L181.708 40.6797L181.687 33.7101L174.687 33.7319ZM174.708 40.7015L174.73 47.7015L182.218 47.6782L182.196 40.6782L182.174 33.6782L174.686 33.7015L174.708 40.7015ZM182.196 40.6782L175.196 40.7L175.222 48.9943L182.222 48.9726L189.222 48.9508L189.196 40.6564L182.196 40.6782ZM182.222 48.9726L182.2 41.9726L174.712 41.9959L174.734 48.9959L174.756 55.9958L182.244 55.9725L182.222 48.9726ZM174.734 48.9959L167.734 49.0176L167.756 55.9296L174.756 55.9078L181.756 55.886L181.734 48.9741L174.734 48.9959ZM174.756 55.9078L174.734 48.9079L166.382 48.9338L166.404 55.9338L166.425 62.9338L174.777 62.9078L174.756 55.9078Z" fill="#62009B" mask="url(#path-1-outside-1_1067_31654)"/>
<path d="M73.4394 103.923L73.3889 87.6946L81.7553 87.6685C83.0825 87.6644 84.1753 87.9298 85.0338 88.4647C85.909 88.9828 86.558 89.6948 86.9808 90.6007C87.4037 91.5066 87.6168 92.5139 87.6203 93.6227C87.6238 94.7651 87.3834 95.7822 86.8989 96.6742C86.4145 97.5661 85.7279 98.2654 84.8391 98.7722C83.9502 99.2789 82.901 99.5342 81.6914 99.538L78.1634 99.549L78.177 103.909L73.4394 103.923ZM78.1522 95.9202L80.5965 95.9126C81.3357 95.9103 81.8811 95.6986 82.2326 95.2775C82.6009 94.8563 82.784 94.3098 82.7819 93.6378C82.7796 92.9154 82.6099 92.3447 82.2725 91.9257C81.9352 91.5068 81.4138 91.2984 80.7082 91.3006L78.1378 91.3086L78.1522 95.9202ZM88.9187 103.875L88.8815 91.9304L93.4427 91.9162L93.5716 92.8734C94.058 92.5863 94.6787 92.3239 95.434 92.0864C96.1893 91.8488 96.9532 91.7036 97.7259 91.6508L97.7368 95.1788C97.3001 95.2138 96.8215 95.2741 96.301 95.3597C95.7973 95.4453 95.302 95.556 94.8152 95.6919C94.3452 95.811 93.9508 95.9466 93.6321 96.0988L93.6562 103.86L88.9187 103.875ZM105.092 104.077C102.706 104.084 100.941 103.56 99.7949 102.506C98.6661 101.451 98.0984 99.9069 98.0921 97.8741C98.0858 95.8581 98.6523 94.3192 99.7914 93.2572C100.93 92.1785 102.684 91.6354 105.053 91.628C107.439 91.6206 109.204 92.1527 110.35 93.2244C111.513 94.2792 112.097 95.8145 112.103 97.8305C112.11 99.8633 111.543 101.411 110.404 102.473C109.265 103.535 107.494 104.069 105.092 104.077ZM105.081 100.624C105.854 100.622 106.408 100.402 106.742 99.964C107.094 99.5261 107.268 98.82 107.265 97.8456C107.262 96.888 107.083 96.1913 106.729 95.7556C106.392 95.3031 105.837 95.078 105.064 95.0804C104.308 95.0828 103.763 95.3113 103.428 95.7659C103.093 96.2038 102.928 96.9015 102.93 97.8591C102.934 98.8335 103.104 99.5385 103.441 99.9743C103.778 100.41 104.325 100.627 105.081 100.624ZM114.752 90.2623L114.742 86.8351L119.857 86.8192L119.868 90.2463L114.752 90.2623ZM115.317 109.69C114.057 109.694 112.981 109.512 112.089 109.145L112.08 105.995C112.584 106.162 113.088 106.244 113.592 106.243C114.651 106.239 115.179 105.809 115.176 104.953L115.146 95.3011L113.407 95.3065L113.8 91.8528L119.873 91.8339L119.915 105.291C119.919 106.567 119.552 107.619 118.816 108.444C118.079 109.27 116.913 109.685 115.317 109.69ZM128.744 104.003C127.349 104.008 126.114 103.785 125.037 103.334C123.977 102.867 123.144 102.173 122.536 101.25C121.945 100.328 121.647 99.1868 121.643 97.8261C121.637 95.9277 122.17 94.414 123.242 93.2851C124.314 92.1393 125.916 91.5631 128.05 91.5565C129.999 91.5504 131.52 92.0413 132.616 93.0291C133.727 94.0168 134.286 95.3675 134.291 97.0811L134.298 99.1727L126.007 99.1985C126.228 99.8362 126.657 100.288 127.297 100.555C127.936 100.822 128.801 100.954 129.893 100.95C130.582 100.948 131.271 100.887 131.959 100.768C132.664 100.631 133.227 100.478 133.646 100.309L133.655 103.156C132.481 103.714 130.844 103.997 128.744 104.003ZM125.999 96.6281L130.208 96.615L130.206 96.1866C130.205 95.7162 130.052 95.3303 129.749 95.0288C129.462 94.7273 128.95 94.5777 128.21 94.58C127.387 94.5826 126.808 94.7608 126.473 95.1146C126.155 95.4516 125.997 95.9561 125.999 96.6281ZM142.598 103.96C140.43 103.967 138.715 103.46 137.452 102.439C136.189 101.401 135.554 99.8408 135.547 97.7576C135.543 96.3464 135.833 95.1779 136.418 94.2521C137.004 93.3262 137.825 92.6433 138.882 92.2032C139.939 91.7463 141.173 91.5157 142.584 91.5113C143.474 91.5085 144.273 91.5732 144.979 91.7054C145.685 91.8208 146.357 92.0287 146.997 92.3291L147.007 95.6555C146.014 95.1882 144.888 94.9565 143.628 94.9604C142.553 94.9638 141.739 95.1679 141.185 95.5728C140.649 95.9777 140.383 96.7009 140.386 97.7425C140.389 98.7169 140.651 99.4217 141.174 99.8569C141.696 100.292 142.52 100.508 143.645 100.504C144.25 100.503 144.838 100.433 145.409 100.297C145.979 100.144 146.525 99.9326 147.045 99.6622L147.055 103.14C146.418 103.427 145.73 103.631 144.991 103.751C144.269 103.888 143.471 103.957 142.598 103.96ZM153.934 103.925C152.338 103.93 151.177 103.53 150.453 102.726C149.728 101.922 149.363 100.831 149.359 99.4534L149.346 95.245L147.783 95.2499L147.772 91.7471L149.335 91.7423L149.327 89.2979L154.061 88.1491L154.072 91.7275L156.819 91.719L156.654 95.2223L154.083 95.2303L154.095 99.0859C154.097 99.5899 154.224 99.9507 154.477 100.168C154.729 100.369 155.116 100.469 155.637 100.467C156.124 100.466 156.619 100.38 157.123 100.21L157.133 103.36C156.243 103.733 155.177 103.921 153.934 103.925ZM163.053 103.896C162.029 103.9 161.062 103.827 160.155 103.679C159.264 103.547 158.558 103.373 158.036 103.156L158.026 99.7541C158.614 100.021 159.312 100.229 160.119 100.378C160.943 100.526 161.64 100.6 162.211 100.598C162.816 100.596 163.27 100.578 163.572 100.543C163.891 100.509 164.05 100.365 164.05 100.113C164.049 99.8277 163.771 99.6102 163.216 99.4607C162.661 99.3112 161.963 99.095 161.122 98.812C160.029 98.429 159.213 97.978 158.674 97.4588C158.134 96.9397 157.863 96.1845 157.86 95.1933C157.857 94.0006 158.324 93.0835 159.263 92.4422C160.202 91.784 161.679 91.4518 163.695 91.4456C164.468 91.4432 165.266 91.4995 166.09 91.6145C166.913 91.7296 167.56 91.8619 168.031 92.0117L168.042 95.3381C167.537 95.1212 166.982 94.9634 166.377 94.8644C165.789 94.7655 165.251 94.7167 164.764 94.7183C164.226 94.7199 163.747 94.7466 163.327 94.7983C162.908 94.85 162.698 94.9935 162.699 95.2287C162.7 95.4975 162.935 95.69 163.406 95.8061C163.894 95.9222 164.541 96.105 165.348 96.3545C166.256 96.6204 166.963 96.9122 167.468 97.2299C167.99 97.5474 168.352 97.9327 168.555 98.3857C168.775 98.8386 168.886 99.4011 168.888 100.073C168.892 101.283 168.399 102.225 167.41 102.9C166.437 103.558 164.985 103.89 163.053 103.896Z" fill="#C259FF"/>
<path d="M22.4507 146.582L22.4146 134.99L25.7986 134.98L25.8347 146.572L22.4507 146.582ZM27.4605 146.567L27.4339 138.035L30.6019 138.025L30.6939 138.673C31.0172 138.456 31.4426 138.262 31.9701 138.093C32.5096 137.923 33.0853 137.837 33.6973 137.835C34.7653 137.832 35.5461 138.094 36.0398 138.62C36.5334 139.147 36.7819 139.962 36.7854 141.066L36.8024 146.538L33.4184 146.548L33.4025 141.418C33.4013 141.034 33.3164 140.759 33.1479 140.591C32.9794 140.424 32.6851 140.341 32.2651 140.342C32.0131 140.343 31.7493 140.403 31.4737 140.524C31.21 140.645 30.9945 140.79 30.827 140.958L30.8444 146.556L27.4605 146.567ZM38.3237 146.533L38.2971 138.001L41.4651 137.991L41.5571 138.639C41.8805 138.422 42.3059 138.229 42.8333 138.059C43.3728 137.889 43.9485 137.803 44.5605 137.802C45.6285 137.798 46.4093 138.06 46.903 138.586C47.3966 139.113 47.6452 139.928 47.6486 141.032L47.6656 146.504L44.2816 146.514L44.2657 141.384C44.2645 141 44.1796 140.725 44.0111 140.557C43.8426 140.39 43.5483 140.307 43.1283 140.308C42.8763 140.309 42.6125 140.37 42.3369 140.49C42.0733 140.611 41.8577 140.756 41.6902 140.924L41.7077 146.522L38.3237 146.533ZM53.708 146.665C52.004 146.67 50.7428 146.296 49.9245 145.543C49.1181 144.789 48.7127 143.687 48.7082 142.235C48.7037 140.795 49.1083 139.695 49.9219 138.937C50.7355 138.166 51.9883 137.778 53.6803 137.773C55.3843 137.768 56.6455 138.148 57.4639 138.913C58.2942 139.667 58.7116 140.764 58.7161 142.204C58.7206 143.656 58.3161 144.761 57.5024 145.519C56.6888 146.278 55.424 146.66 53.708 146.665ZM53.7003 144.199C54.2523 144.197 54.6478 144.04 54.8868 143.727C55.1379 143.415 55.2623 142.91 55.2601 142.214C55.258 141.53 55.1305 141.033 54.8775 140.721C54.6365 140.398 54.24 140.237 53.688 140.239C53.148 140.241 52.7585 140.404 52.5195 140.729C52.2805 141.042 52.162 141.54 52.1641 142.224C52.1663 142.92 52.2879 143.424 52.5288 143.735C52.7698 144.046 53.1603 144.201 53.7003 144.199ZM62.019 146.459L58.6265 137.938L62.1545 137.927L63.79 142.926L65.3944 137.917L68.9224 137.906L65.583 146.448L62.019 146.459ZM72.0662 146.608C71.5262 146.61 71.0219 146.515 70.5533 146.325C70.0967 146.134 69.7298 145.835 69.4525 145.428C69.1752 145.021 69.0356 144.505 69.0337 143.881C69.0309 142.981 69.3287 142.284 69.9272 141.791C70.5256 141.285 71.4308 141.03 72.6428 141.026L74.8568 141.019L74.8563 140.857C74.8553 140.521 74.7165 140.276 74.44 140.121C74.1635 139.965 73.6773 139.889 72.9813 139.891C71.9973 139.894 71.0258 140.047 70.0667 140.35L70.0604 138.316C70.4919 138.147 71.0314 138.007 71.6791 137.897C72.3267 137.775 72.9865 137.713 73.6585 137.711C75.0145 137.707 76.0894 137.979 76.8831 138.529C77.6768 139.078 78.0755 139.953 78.0792 141.153L78.0956 146.409L75.1436 146.418L74.9795 145.735C74.6803 146 74.291 146.211 73.8115 146.369C73.3439 146.526 72.7622 146.606 72.0662 146.608ZM73.212 144.624C73.596 144.623 73.9198 144.556 74.1834 144.423C74.459 144.291 74.6865 144.128 74.8659 143.935L74.8626 142.873L73.2246 142.878C72.4806 142.881 72.1095 143.176 72.1113 143.764C72.1131 144.34 72.48 144.627 73.212 144.624ZM83.2866 146.573C82.1466 146.577 81.3177 146.291 80.7999 145.717C80.2821 145.142 80.0217 144.363 80.0187 143.379L80.0093 140.373L78.8933 140.377L78.8855 137.875L80.0015 137.871L79.9961 136.125L83.3775 135.305L83.3855 137.861L85.3475 137.855L85.2293 140.357L83.3933 140.363L83.4019 143.117C83.403 143.477 83.4938 143.734 83.6743 143.89C83.8547 144.033 84.1309 144.104 84.5029 144.103C84.8509 144.102 85.2047 144.041 85.5644 143.92L85.5714 146.17C84.9362 146.436 84.1746 146.57 83.2866 146.573ZM87.0338 136.715L87.0262 134.267L90.6802 134.256L90.6878 136.704L87.0338 136.715ZM87.3339 146.38L87.315 140.315L86.073 140.318L86.3534 137.851L90.6913 137.838L90.7179 146.37L87.3339 146.38ZM94.9954 146.357L91.6029 137.835L95.1309 137.824L96.7664 142.823L98.3708 137.814L101.899 137.803L98.5594 146.346L94.9954 146.357ZM106.901 146.5C105.905 146.503 105.022 146.343 104.253 146.022C103.496 145.688 102.901 145.192 102.467 144.533C102.045 143.875 101.832 143.059 101.829 142.087C101.825 140.731 102.205 139.65 102.971 138.844C103.736 138.025 104.881 137.614 106.405 137.609C107.797 137.605 108.884 137.955 109.666 138.661C110.461 139.366 110.86 140.331 110.863 141.555L110.868 143.049L104.946 143.068C105.104 143.523 105.411 143.846 105.867 144.037C106.324 144.227 106.942 144.321 107.722 144.319C108.214 144.318 108.706 144.274 109.198 144.188C109.701 144.091 110.103 143.982 110.403 143.861L110.409 145.895C109.57 146.293 108.401 146.495 106.901 146.5ZM104.94 141.232L107.946 141.222L107.945 140.916C107.944 140.58 107.836 140.305 107.619 140.089C107.414 139.874 107.048 139.767 106.52 139.769C105.932 139.771 105.518 139.898 105.279 140.151C105.052 140.391 104.939 140.752 104.94 141.232ZM119.156 146.461C118.424 146.464 117.734 146.412 117.085 146.306C116.449 146.212 115.945 146.087 115.572 145.933L115.565 143.503C115.985 143.693 116.484 143.842 117.06 143.948C117.648 144.054 118.146 144.107 118.554 144.105C118.986 144.104 119.31 144.091 119.526 144.066C119.754 144.042 119.868 143.939 119.867 143.759C119.867 143.555 119.668 143.4 119.272 143.293C118.876 143.186 118.377 143.032 117.776 142.83C116.996 142.556 116.413 142.234 116.027 141.863C115.642 141.492 115.449 140.953 115.446 140.245C115.444 139.393 115.778 138.738 116.448 138.28C117.119 137.81 118.174 137.572 119.614 137.568C120.166 137.566 120.736 137.607 121.324 137.689C121.913 137.771 122.375 137.865 122.711 137.972L122.719 140.348C122.358 140.193 121.962 140.081 121.53 140.01C121.109 139.939 120.725 139.905 120.377 139.906C119.993 139.907 119.651 139.926 119.352 139.963C119.052 140 118.902 140.102 118.903 140.27C118.903 140.462 119.072 140.6 119.408 140.683C119.756 140.766 120.218 140.896 120.795 141.074C121.444 141.264 121.948 141.473 122.309 141.7C122.682 141.926 122.941 142.202 123.086 142.525C123.243 142.849 123.322 143.25 123.323 143.73C123.326 144.594 122.974 145.268 122.268 145.75C121.573 146.22 120.536 146.457 119.156 146.461ZM127.693 146.435C126.697 146.438 125.916 146.158 125.351 145.596C124.785 145.034 124.5 144.207 124.497 143.115L124.48 137.733L127.864 137.722L127.88 142.834C127.882 143.578 128.261 143.949 129.017 143.947C129.293 143.946 129.563 143.885 129.827 143.764C130.091 143.643 130.3 143.493 130.456 143.312L130.438 137.714L133.822 137.704L133.849 146.236L130.681 146.246L130.589 145.598C130.253 145.839 129.84 146.038 129.348 146.196C128.869 146.353 128.317 146.433 127.693 146.435ZM141.148 146.393C140.596 146.395 140.11 146.324 139.69 146.182C139.281 146.027 138.903 145.818 138.554 145.555L138.394 146.222L135.46 146.231L135.422 134.099L138.806 134.088L138.818 137.994C139.106 137.837 139.441 137.716 139.825 137.631C140.221 137.546 140.617 137.503 141.013 137.501C142.285 137.497 143.282 137.836 144.004 138.518C144.738 139.188 145.108 140.303 145.112 141.863C145.117 143.387 144.761 144.522 144.043 145.268C143.325 146.014 142.36 146.389 141.148 146.393ZM140.169 143.948C140.697 143.946 141.074 143.789 141.301 143.477C141.54 143.152 141.659 142.629 141.656 141.909C141.654 141.177 141.527 140.668 141.274 140.381C141.033 140.093 140.66 139.951 140.156 139.952C139.604 139.954 139.161 140.105 138.826 140.406L138.835 143.43C139.208 143.777 139.653 143.95 140.169 143.948ZM146.393 146.197L146.367 137.665L149.499 137.655L149.591 138.339C149.962 138.086 150.376 137.88 150.831 137.723C151.299 137.553 151.808 137.468 152.36 137.466C152.912 137.464 153.345 137.541 153.657 137.696C153.97 137.851 154.222 138.078 154.415 138.378C154.798 138.101 155.23 137.877 155.709 137.708C156.201 137.538 156.776 137.452 157.436 137.45C158.432 137.447 159.165 137.709 159.635 138.235C160.104 138.75 160.341 139.541 160.344 140.609L160.361 146.153L157.031 146.164L157.015 141.016C157.014 140.632 156.935 140.362 156.779 140.206C156.622 140.039 156.364 139.956 156.004 139.957C155.536 139.958 155.153 140.127 154.854 140.464C154.878 140.62 154.891 140.77 154.891 140.914C154.891 141.046 154.892 141.196 154.892 141.364L154.907 146.17L151.775 146.18L151.759 140.978C151.758 140.63 151.697 140.378 151.577 140.223C151.456 140.055 151.228 139.972 150.892 139.973C150.664 139.973 150.442 140.034 150.227 140.155C150.011 140.275 149.819 140.42 149.652 140.589L149.669 146.187L146.393 146.197ZM162.461 136.481L162.454 134.033L166.108 134.021L166.115 136.469L162.461 136.481ZM162.761 146.146L162.742 140.08L161.5 140.084L161.781 137.617L166.119 137.603L166.145 146.135L162.761 146.146ZM171.099 146.3C170.367 146.302 169.677 146.25 169.028 146.144C168.392 146.05 167.888 145.926 167.515 145.771L167.508 143.341C167.928 143.532 168.427 143.68 169.003 143.786C169.591 143.893 170.09 143.945 170.498 143.944C170.93 143.942 171.253 143.929 171.469 143.905C171.697 143.88 171.811 143.778 171.81 143.598C171.81 143.394 171.611 143.238 171.215 143.131C170.819 143.025 170.32 142.87 169.72 142.668C168.939 142.395 168.356 142.072 167.971 141.702C167.585 141.331 167.392 140.791 167.39 140.083C167.387 139.231 167.721 138.576 168.391 138.118C169.062 137.648 170.117 137.411 171.557 137.406C172.109 137.405 172.679 137.445 173.268 137.527C173.856 137.609 174.318 137.704 174.654 137.811L174.662 140.187C174.301 140.032 173.905 139.919 173.473 139.848C173.053 139.778 172.668 139.743 172.32 139.744C171.936 139.745 171.595 139.764 171.295 139.801C170.995 139.838 170.845 139.941 170.846 140.109C170.846 140.301 171.015 140.438 171.351 140.521C171.699 140.604 172.162 140.735 172.738 140.913C173.387 141.103 173.891 141.311 174.252 141.538C174.625 141.765 174.884 142.04 175.029 142.364C175.186 142.687 175.265 143.089 175.266 143.569C175.269 144.433 174.917 145.106 174.211 145.588C173.516 146.058 172.479 146.296 171.099 146.3ZM179.413 146.274C178.681 146.276 177.991 146.224 177.343 146.118C176.706 146.024 176.202 145.9 175.83 145.745L175.822 143.315C176.243 143.506 176.741 143.654 177.317 143.76C177.906 143.867 178.404 143.919 178.812 143.918C179.244 143.916 179.568 143.903 179.784 143.879C180.012 143.854 180.125 143.752 180.125 143.572C180.124 143.368 179.926 143.212 179.529 143.106C179.133 142.999 178.635 142.844 178.034 142.642C177.253 142.369 176.67 142.046 176.285 141.676C175.9 141.305 175.706 140.765 175.704 140.057C175.701 139.205 176.035 138.55 176.706 138.092C177.376 137.622 178.432 137.385 179.872 137.38C180.424 137.379 180.994 137.419 181.582 137.501C182.17 137.583 182.633 137.678 182.969 137.785L182.976 140.161C182.616 140.006 182.219 139.893 181.787 139.823C181.367 139.752 180.983 139.717 180.635 139.718C180.251 139.719 179.909 139.738 179.609 139.775C179.309 139.812 179.159 139.915 179.16 140.083C179.161 140.275 179.329 140.412 179.665 140.495C180.014 140.578 180.476 140.709 181.053 140.887C181.701 141.077 182.206 141.285 182.566 141.512C182.939 141.739 183.198 142.014 183.343 142.338C183.5 142.661 183.579 143.063 183.581 143.543C183.583 144.407 183.232 145.08 182.525 145.562C181.831 146.032 180.793 146.27 179.413 146.274ZM185.418 136.409L185.41 133.961L189.064 133.95L189.072 136.398L185.418 136.409ZM185.718 146.074L185.699 140.008L184.457 140.012L184.738 137.545L189.076 137.532L189.102 146.064L185.718 146.074ZM195.352 146.224C193.648 146.23 192.387 145.856 191.568 145.102C190.762 144.349 190.356 143.246 190.352 141.794C190.347 140.354 190.752 139.255 191.566 138.496C192.379 137.726 193.632 137.338 195.324 137.332C197.028 137.327 198.289 137.707 199.108 138.473C199.938 139.226 200.355 140.323 200.36 141.763C200.364 143.215 199.96 144.32 199.146 145.079C198.333 145.837 197.068 146.219 195.352 146.224ZM195.344 143.758C195.896 143.757 196.292 143.599 196.531 143.287C196.782 142.974 196.906 142.47 196.904 141.774C196.902 141.09 196.774 140.592 196.521 140.281C196.28 139.957 195.884 139.797 195.332 139.798C194.792 139.8 194.402 139.963 194.163 140.288C193.924 140.601 193.806 141.099 193.808 141.783C193.81 142.479 193.932 142.983 194.173 143.294C194.414 143.605 194.804 143.76 195.344 143.758ZM201.641 146.025L201.615 137.493L204.783 137.483L204.875 138.131C205.198 137.914 205.623 137.72 206.151 137.551C206.69 137.381 207.266 137.295 207.878 137.293C208.946 137.29 209.727 137.552 210.221 138.078C210.714 138.605 210.963 139.42 210.966 140.524L210.983 145.996L207.599 146.006L207.583 140.876C207.582 140.492 207.497 140.217 207.329 140.049C207.16 139.882 206.866 139.799 206.446 139.8C206.194 139.801 205.93 139.861 205.654 139.982C205.391 140.103 205.175 140.248 205.008 140.416L205.025 146.014L201.641 146.025ZM215.835 146.161C215.103 146.163 214.413 146.111 213.764 146.005C213.128 145.911 212.624 145.787 212.251 145.632L212.244 143.202C212.664 143.392 213.163 143.541 213.739 143.647C214.327 143.753 214.826 143.806 215.234 143.804C215.666 143.803 215.99 143.79 216.206 143.765C216.433 143.741 216.547 143.638 216.547 143.458C216.546 143.254 216.347 143.099 215.951 142.992C215.555 142.885 215.056 142.731 214.456 142.529C213.675 142.255 213.092 141.933 212.707 141.562C212.321 141.192 212.128 140.652 212.126 139.944C212.123 139.092 212.457 138.437 213.128 137.979C213.798 137.509 214.853 137.272 216.293 137.267C216.845 137.265 217.415 137.306 218.004 137.388C218.592 137.47 219.054 137.565 219.391 137.672L219.398 140.048C219.037 139.893 218.641 139.78 218.209 139.709C217.789 139.639 217.405 139.604 217.057 139.605C216.673 139.606 216.331 139.625 216.031 139.662C215.731 139.699 215.581 139.801 215.582 139.969C215.582 140.161 215.751 140.299 216.087 140.382C216.435 140.465 216.898 140.595 217.474 140.774C218.123 140.963 218.627 141.172 218.988 141.399C219.361 141.626 219.62 141.901 219.765 142.224C219.922 142.548 220.001 142.95 220.002 143.43C220.005 144.294 219.653 144.967 218.947 145.449C218.252 145.919 217.215 146.156 215.835 146.161ZM28.4984 171.564L28.4797 165.534L27.3817 165.537L27.3739 163.035L28.4719 163.032L28.4701 162.474C28.4672 161.514 28.7407 160.721 29.2907 160.095C29.8408 159.457 30.6678 159.137 31.7718 159.133C32.2398 159.132 32.6539 159.167 33.0141 159.238C33.3863 159.308 33.7346 159.409 34.059 159.54L34.0659 161.736C33.8857 161.677 33.7055 161.629 33.5254 161.594C33.3573 161.559 33.1773 161.541 32.9853 161.542C32.5533 161.543 32.2535 161.622 32.086 161.778C31.9305 161.935 31.8533 162.187 31.8543 162.535L31.8559 163.021L33.8719 163.015L33.7356 165.517L31.8636 165.523L31.8824 171.553L28.4984 171.564ZM34.587 171.545L34.5605 163.013L37.8185 163.003L37.9106 163.686C38.258 163.481 38.7014 163.294 39.2409 163.124C39.7803 162.955 40.326 162.851 40.8779 162.813L40.8857 165.333C40.5738 165.358 40.2319 165.401 39.8601 165.462C39.5003 165.523 39.1466 165.603 38.7989 165.7C38.4631 165.785 38.1814 165.882 37.9538 165.99L37.971 171.534L34.587 171.545ZM46.1393 171.689C44.4353 171.694 43.1742 171.32 42.3558 170.567C41.5495 169.813 41.144 168.71 41.1395 167.258C41.135 165.818 41.5396 164.719 42.3533 163.961C43.1669 163.19 44.4197 162.802 46.1117 162.797C47.8156 162.792 49.0768 163.172 49.8952 163.937C50.7256 164.69 51.143 165.787 51.1475 167.227C51.152 168.679 50.7474 169.784 49.9338 170.543C49.1201 171.302 47.8553 171.683 46.1393 171.689ZM46.1316 169.223C46.6836 169.221 47.0792 169.064 47.3182 168.751C47.5692 168.438 47.6936 167.934 47.6915 167.238C47.6893 166.554 47.5618 166.056 47.3088 165.745C47.0678 165.422 46.6713 165.261 46.1193 165.263C45.5793 165.265 45.1898 165.428 44.9508 165.752C44.7118 166.065 44.5934 166.564 44.5955 167.248C44.5977 167.944 44.7192 168.447 44.9602 168.758C45.2012 169.07 45.5916 169.224 46.1316 169.223ZM52.4287 171.489L52.4022 162.957L55.5342 162.948L55.6263 163.631C55.9975 163.378 56.4109 163.173 56.8664 163.015C57.3339 162.846 57.8436 162.76 58.3956 162.759C58.9476 162.757 59.3798 162.834 59.6923 162.989C60.0048 163.144 60.2575 163.371 60.4504 163.67C60.8336 163.393 61.2649 163.17 61.7444 163C62.2358 162.831 62.8116 162.745 63.4716 162.743C64.4676 162.74 65.2004 163.001 65.67 163.528C66.1396 164.043 66.3761 164.834 66.3794 165.902L66.3967 171.446L63.0667 171.456L63.0507 166.308C63.0495 165.924 62.9706 165.654 62.8142 165.499C62.6576 165.331 62.3994 165.248 62.0394 165.249C61.5714 165.251 61.1879 165.42 60.8889 165.757C60.9134 165.913 60.9259 166.063 60.9263 166.207C60.9268 166.339 60.9272 166.489 60.9277 166.657L60.9427 171.463L57.8107 171.472L57.7945 166.27C57.7934 165.922 57.7327 165.671 57.6122 165.515C57.4917 165.347 57.2634 165.264 56.9274 165.265C56.6994 165.266 56.4776 165.327 56.262 165.447C56.0463 165.568 55.8548 165.713 55.6873 165.881L55.7047 171.479L52.4287 171.489ZM74.6299 171.42L71.2374 162.899L74.7654 162.888L76.401 167.887L78.0054 162.878L81.5334 162.867L78.1939 171.409L74.6299 171.42ZM84.6771 171.569C84.1371 171.571 83.6328 171.476 83.1642 171.286C82.7076 171.095 82.3407 170.796 82.0634 170.389C81.7862 169.982 81.6466 169.466 81.6446 168.842C81.6418 167.942 81.9397 167.245 82.5381 166.752C83.1366 166.246 84.0418 165.991 85.2538 165.987L87.4677 165.98L87.4672 165.818C87.4662 165.482 87.3274 165.237 87.0509 165.081C86.7745 164.926 86.2882 164.85 85.5922 164.852C84.6082 164.855 83.6367 165.008 82.6776 165.311L82.6713 163.277C83.1028 163.108 83.6424 162.968 84.29 162.858C84.9376 162.736 85.5975 162.674 86.2694 162.672C87.6254 162.668 88.7003 162.94 89.494 163.49C90.2877 164.039 90.6864 164.914 90.6902 166.114L90.7065 171.37L87.7545 171.379L87.5904 170.696C87.2912 170.961 86.9019 171.172 86.4224 171.329C85.9549 171.487 85.3731 171.567 84.6771 171.569ZM85.823 169.585C86.207 169.584 86.5307 169.517 86.7943 169.384C87.0699 169.251 87.2974 169.089 87.4768 168.896L87.4735 167.834L85.8355 167.839C85.0915 167.842 84.7204 168.137 84.7223 168.725C84.7241 169.301 85.091 169.588 85.823 169.585ZM92.243 171.365L92.2164 162.833L95.4744 162.823L95.5666 163.507C95.9139 163.302 96.3573 163.114 96.8968 162.945C97.4363 162.775 97.982 162.671 98.5338 162.634L98.5417 165.154C98.2298 165.179 97.8879 165.222 97.5161 165.283C97.1563 165.344 96.8025 165.423 96.4548 165.52C96.1191 165.605 95.8374 165.702 95.6097 165.811L95.627 171.355L92.243 171.365ZM100.084 161.675L100.077 159.227L103.731 159.216L103.738 161.664L100.084 161.675ZM100.384 171.34L100.365 165.274L99.1234 165.278L99.4038 162.811L103.742 162.798L103.768 171.329L100.384 171.34ZM110.018 171.49C108.314 171.495 107.053 171.121 106.234 170.368C105.428 169.614 105.023 168.512 105.018 167.06C105.014 165.62 105.418 164.52 106.232 163.762C107.045 162.991 108.298 162.603 109.99 162.598C111.694 162.593 112.955 162.973 113.774 163.738C114.604 164.492 115.022 165.588 115.026 167.028C115.031 168.48 114.626 169.586 113.812 170.344C112.999 171.103 111.734 171.485 110.018 171.49ZM110.01 169.024C110.562 169.022 110.958 168.865 111.197 168.552C111.448 168.24 111.572 167.735 111.57 167.039C111.568 166.355 111.44 165.858 111.187 165.546C110.946 165.223 110.55 165.062 109.998 165.064C109.458 165.066 109.068 165.229 108.829 165.554C108.59 165.866 108.472 166.365 108.474 167.049C108.476 167.745 108.598 168.248 108.839 168.56C109.08 168.871 109.47 169.026 110.01 169.024ZM119.404 171.461C118.408 171.464 117.627 171.184 117.061 170.622C116.495 170.06 116.211 169.233 116.208 168.141L116.191 162.759L119.575 162.748L119.591 167.86C119.593 168.604 119.972 168.975 120.728 168.973C121.004 168.972 121.274 168.911 121.538 168.79C121.801 168.669 122.011 168.519 122.166 168.338L122.149 162.74L125.533 162.73L125.559 171.262L122.391 171.272L122.299 170.624C121.964 170.865 121.551 171.064 121.059 171.222C120.58 171.379 120.028 171.459 119.404 171.461ZM130.501 171.426C129.769 171.429 129.079 171.377 128.431 171.271C127.794 171.177 127.29 171.052 126.917 170.897L126.91 168.467C127.33 168.658 127.829 168.807 128.405 168.913C128.994 169.019 129.492 169.071 129.9 169.07C130.332 169.069 130.656 169.056 130.872 169.031C131.1 169.006 131.213 168.904 131.213 168.724C131.212 168.52 131.014 168.365 130.617 168.258C130.221 168.151 129.722 167.997 129.122 167.795C128.341 167.521 127.758 167.199 127.373 166.828C126.988 166.457 126.794 165.918 126.792 165.21C126.789 164.358 127.123 163.703 127.794 163.245C128.464 162.775 129.519 162.537 130.959 162.533C131.511 162.531 132.082 162.571 132.67 162.653C133.258 162.736 133.72 162.83 134.057 162.937L134.064 165.313C133.704 165.158 133.307 165.046 132.875 164.975C132.455 164.904 132.071 164.869 131.723 164.87C131.339 164.872 130.997 164.891 130.697 164.928C130.397 164.965 130.247 165.067 130.248 165.235C130.248 165.427 130.417 165.565 130.753 165.647C131.101 165.73 131.564 165.861 132.14 166.039C132.789 166.229 133.294 166.438 133.654 166.664C134.027 166.891 134.286 167.166 134.431 167.49C134.588 167.814 134.667 168.215 134.669 168.695C134.671 169.559 134.319 170.232 133.613 170.715C132.918 171.185 131.881 171.422 130.501 171.426ZM143.252 171.387C142.448 171.389 141.746 171.259 141.145 170.997C140.556 170.723 140.092 170.28 139.755 169.669C139.429 169.058 139.264 168.243 139.261 167.223C139.258 166.179 139.441 165.308 139.811 164.611C140.181 163.914 140.677 163.391 141.3 163.041C141.923 162.679 142.6 162.497 143.332 162.494C143.728 162.493 144.118 162.534 144.503 162.617C144.899 162.699 145.241 162.818 145.53 162.973L145.518 159.068L148.902 159.057L148.939 171.189L146.005 171.198L145.841 170.533C145.506 170.798 145.129 171.009 144.709 171.166C144.302 171.311 143.816 171.385 143.252 171.387ZM144.216 168.936C144.732 168.934 145.176 168.759 145.547 168.409L145.537 165.385C145.2 165.087 144.756 164.938 144.204 164.94C143.76 164.941 143.4 165.14 143.126 165.537C142.851 165.934 142.715 166.498 142.717 167.23C142.719 167.95 142.841 168.418 143.081 168.633C143.322 168.836 143.7 168.937 144.216 168.936ZM155.018 171.35C153.314 171.355 152.053 170.981 151.234 170.228C150.428 169.474 150.022 168.372 150.018 166.92C150.013 165.48 150.418 164.38 151.232 163.622C152.045 162.851 153.298 162.463 154.99 162.458C156.694 162.453 157.955 162.833 158.774 163.598C159.604 164.352 160.021 165.448 160.026 166.888C160.03 168.34 159.626 169.446 158.812 170.204C157.998 170.963 156.734 171.345 155.018 171.35ZM155.01 168.884C155.562 168.882 155.958 168.725 156.197 168.412C156.448 168.1 156.572 167.595 156.57 166.899C156.568 166.215 156.44 165.718 156.187 165.406C155.946 165.083 155.55 164.922 154.998 164.924C154.458 164.926 154.068 165.089 153.829 165.414C153.59 165.726 153.472 166.225 153.474 166.909C153.476 167.605 153.598 168.108 153.839 168.42C154.08 168.731 154.47 168.886 155.01 168.884ZM161.307 171.15L161.281 162.618L164.413 162.609L164.505 163.292C164.876 163.039 165.289 162.834 165.745 162.677C166.212 162.507 166.722 162.422 167.274 162.42C167.826 162.418 168.258 162.495 168.571 162.65C168.883 162.805 169.136 163.032 169.329 163.331C169.712 163.054 170.143 162.831 170.623 162.661C171.114 162.492 171.69 162.406 172.35 162.404C173.346 162.401 174.079 162.663 174.548 163.189C175.018 163.704 175.254 164.495 175.258 165.563L175.275 171.107L171.945 171.117L171.929 165.969C171.928 165.585 171.849 165.316 171.692 165.16C171.536 164.993 171.278 164.909 170.918 164.91C170.45 164.912 170.066 165.081 169.767 165.418C169.792 165.574 169.804 165.724 169.805 165.868C169.805 166 169.806 166.15 169.806 166.318L169.821 171.124L166.689 171.134L166.673 165.932C166.672 165.584 166.611 165.332 166.491 165.176C166.37 165.009 166.142 164.925 165.806 164.926C165.578 164.927 165.356 164.988 165.14 165.108C164.925 165.229 164.733 165.374 164.566 165.542L164.583 171.14L161.307 171.15ZM179.212 171.275C178.672 171.276 178.168 171.182 177.699 170.991C177.242 170.801 176.875 170.502 176.598 170.095C176.321 169.688 176.181 169.172 176.179 168.548C176.177 167.648 176.474 166.951 177.073 166.457C177.671 165.951 178.576 165.697 179.788 165.693L182.002 165.686L182.002 165.524C182.001 165.188 181.862 164.942 181.586 164.787C181.309 164.632 180.823 164.556 180.127 164.558C179.143 164.561 178.171 164.714 177.212 165.017L177.206 162.983C177.637 162.814 178.177 162.674 178.825 162.564C179.472 162.442 180.132 162.38 180.804 162.378C182.16 162.374 183.235 162.646 184.029 163.196C184.822 163.745 185.221 164.62 185.225 165.82L185.241 171.076L182.289 171.085L182.125 170.402C181.826 170.667 181.437 170.878 180.957 171.035C180.49 171.193 179.908 171.273 179.212 171.275ZM180.358 169.291C180.742 169.29 181.065 169.223 181.329 169.09C181.605 168.957 181.832 168.795 182.011 168.602L182.008 167.54L180.37 167.545C179.626 167.547 179.255 167.843 179.257 168.431C179.259 169.007 179.626 169.293 180.358 169.291ZM187.342 161.403L187.334 158.955L190.988 158.944L190.996 161.392L187.342 161.403ZM187.642 171.068L187.623 165.003L186.381 165.006L186.661 162.539L190.999 162.526L191.026 171.058L187.642 171.068ZM192.649 171.053L192.622 162.521L195.79 162.511L195.882 163.159C196.206 162.942 196.631 162.748 197.158 162.579C197.698 162.409 198.274 162.323 198.886 162.321C199.954 162.318 200.734 162.58 201.228 163.106C201.722 163.633 201.97 164.448 201.974 165.552L201.991 171.024L198.607 171.034L198.591 165.904C198.59 165.52 198.505 165.245 198.336 165.077C198.168 164.91 197.873 164.827 197.453 164.828C197.201 164.829 196.938 164.89 196.662 165.01C196.398 165.131 196.183 165.276 196.015 165.444L196.033 171.042L192.649 171.053ZM206.842 171.189C206.11 171.191 205.42 171.139 204.772 171.033C204.136 170.939 203.631 170.815 203.259 170.66L203.251 168.23C203.672 168.421 204.17 168.569 204.747 168.675C205.335 168.781 205.833 168.834 206.241 168.833C206.673 168.831 206.997 168.818 207.213 168.794C207.441 168.769 207.555 168.667 207.554 168.487C207.553 168.283 207.355 168.127 206.959 168.02C206.562 167.914 206.064 167.759 205.463 167.557C204.682 167.283 204.099 166.961 203.714 166.59C203.329 166.22 203.135 165.68 203.133 164.972C203.13 164.12 203.464 163.465 204.135 163.007C204.806 162.537 205.861 162.3 207.301 162.295C207.853 162.294 208.423 162.334 209.011 162.416C209.599 162.498 210.062 162.593 210.398 162.7L210.405 165.076C210.045 164.921 209.649 164.808 209.216 164.737C208.796 164.667 208.412 164.632 208.064 164.633C207.68 164.634 207.338 164.653 207.038 164.69C206.738 164.727 206.589 164.83 206.589 164.997C206.59 165.189 206.758 165.327 207.095 165.41C207.443 165.493 207.905 165.623 208.482 165.802C209.13 165.992 209.635 166.2 209.996 166.427C210.368 166.654 210.627 166.929 210.772 167.252C210.929 167.576 211.009 167.978 211.01 168.458C211.013 169.322 210.661 169.995 209.954 170.477C209.26 170.947 208.222 171.184 206.842 171.189ZM211.923 170.993L211.916 168.563L214.58 168.555L214.587 170.985L211.923 170.993Z" fill="#9D00F7"/>
</svg>
