<svg width="1294" height="443" viewBox="0 0 1294 443" fill="none" xmlns="http://www.w3.org/2000/svg">
<g clip-path="url(#clip0_2_1129)">
<path d="M83.4983 442.538L-4.00171 376.538V304.538H1294V419.538L1237 357.038L1111 411.538L1060.5 357.038L990.498 396.538L976.498 442.538L827.498 387.538L740.998 419.538V376.538L649.998 357.038L597.498 404.038L478.998 344.038L449.498 387.538L441.998 437.038L330.498 411.538L299.498 357.038L254.998 376.538L221.998 411.538L153.498 376.538L83.4983 442.538Z" fill="url(#paint0_linear_2_1129)"/>
<mask id="mask0_2_1129" style="mask-type:alpha" maskUnits="userSpaceOnUse" x="-5" y="276" width="1299" height="167">
<path d="M83.4983 442.538L-4.00171 376.538V276.538H1294V419.538L1237 357.038L1111 411.538L1060.5 357.038L990.498 396.538L976.498 442.538L827.498 387.538L740.998 419.538V376.538L649.998 357.038L597.498 404.038L478.998 344.038L449.498 387.538L441.998 437.038L330.498 411.538L299.498 357.038L254.998 376.538L221.998 411.538L153.498 376.538L83.4983 442.538Z" fill="url(#paint1_linear_2_1129)"/>
</mask>
<g mask="url(#mask0_2_1129)">
<g style="mix-blend-mode:multiply">
<path d="M-9.05589 -696.145L260.423 -306.637L1381.5 7.03795L1307.55 443.538L1.49805 443.538L-298.34 135.63L-9.05589 -696.145Z" fill="url(#paint2_linear_2_1129)"/>
</g>
</g>
<path opacity="0.72" d="M1294 304.538V419.538L1237 357.038L1111 411.538L1060.5 357.038L990.498 396.538L976.498 442.538L827.498 387.538L740.998 419.538V376.538L649.998 357.038L597.498 404.038L478.998 344.038L449.498 387.538L441.998 437.038L330.498 411.538L299.498 357.038L254.998 376.538L221.998 411.538L153.498 376.538L83.4983 442.538L-4.00171 376.538V304.538" stroke="url(#paint3_radial_2_1129)" stroke-width="3.42"/>
<g opacity="0.41">
<path d="M169.305 236.862L78.6953 240.286L78.6953 320.021L6.5425 293.361C30.5934 335.756 78.6953 423.97 78.6953 437.667L78.6953 320.021L156.002 377.038L220.502 408.538L255.777 377.038L465.002 285.038L484.463 249.091L333.002 285.038L172.827 162.508L169.305 236.862Z" fill="url(#paint4_linear_2_1129)" fill-opacity="0.11"/>
<path d="M220.502 408.538L156.002 377.038M220.502 408.538L255.777 377.038M220.502 408.538L199.502 342.538M186.802 60.0263L172.827 162.508M169.305 236.862L78.6953 240.286M169.305 236.862L156.002 377.038M169.305 236.862L333.002 285.038M169.305 236.862L172.827 162.508M78.6953 240.286L6.54248 60.0263M78.6953 240.286L78.6953 320.021M78.6953 437.667L-86.4001 304.857L-240 240.286M78.6953 437.667L-173.717 181.585M78.6953 437.667C78.6953 423.97 30.5934 335.756 6.5425 293.361L78.6953 320.021M78.6953 437.667L78.6953 320.021M78.6953 320.021L156.002 377.038M156.002 377.038L199.502 342.538M255.777 377.038L199.502 342.538M255.777 377.038L465.002 285.038M199.502 342.538L333.002 285.038M333.002 285.038L172.827 162.508M333.002 285.038L298.002 136.038M333.002 285.038L484.463 249.091L465.002 285.038M329.502 408.538L465.002 285.038M465.002 285.038L449.998 385.038M465.002 285.038L480.498 345.538" stroke="url(#paint5_radial_2_1129)" stroke-width="3.4242"/>
</g>
<g opacity="0.41">
<path d="M829.497 386.538L977.497 443.538L1005.33 319.038L1062.5 357.538L1027.05 216.463L863.911 172.848L861.863 262.673L731.993 166.385L720.904 222.409L762.755 258.362L801 340.861L829.497 386.538Z" fill="url(#paint6_linear_2_1129)" fill-opacity="0.11"/>
<path d="M698.932 265.186L801 340.861M977.497 443.538L829.497 386.538L801 340.861M977.497 443.538L861.863 262.673M977.497 443.538L762.755 258.362M977.497 443.538L1005.33 319.038M861.863 262.673L731.993 166.385L720.904 222.409L762.755 258.362M861.863 262.673L762.755 258.362M861.863 262.673L863.911 172.848M801 340.861L762.755 258.362M863.911 172.848L1027.05 216.463M863.911 172.848L832.577 114.907M1027.05 216.463L1006 316.038L1005.33 319.038M1027.05 216.463L1062.5 357.538L1005.33 319.038" stroke="url(#paint7_radial_2_1129)" stroke-width="3.4242"/>
</g>
<g opacity="0.41">
<path d="M524.999 341.038L600.244 398.538L628.744 271.038L649.795 357.538L703.999 264.538L628.744 271.038L484.61 217.673L501.999 282.538L465.999 288.538L524.999 341.038Z" fill="url(#paint8_linear_2_1129)" fill-opacity="0.11"/>
<path d="M600.244 398.538L524.999 341.038L465.999 288.538L501.999 282.538M600.244 398.538L484.61 217.673M600.244 398.538L501.999 282.538M600.244 398.538L628.744 271.038M484.61 217.673L501.999 282.538M484.61 217.673L628.744 271.038M628.744 271.038L703.999 264.538L649.795 357.538L628.744 271.038ZM628.744 271.038L621.498 148.538" stroke="url(#paint9_radial_2_1129)" stroke-width="3.4242"/>
</g>
<path opacity="0.41" d="M1119.26 329.906L1027.5 215.038L1038.5 134.538M1119.26 329.906L1239.5 356.038M1119.26 329.906L1228.62 290.223M1119.26 329.906L1112.5 413.038L1065 359.038M1119.26 329.906L1161.06 232.222M1239.5 356.038L1202.87 134.538M1239.5 356.038L1284 290.223L1260 162.538M1202.87 134.538L1161.06 232.222M1202.87 134.538L1260 162.538M1260 162.538L1284 144.538M1260 162.538L1228.62 37.038M1161.06 232.222L1038.5 134.538M1038.5 134.538L1007.5 13.038" stroke="url(#paint10_radial_2_1129)" stroke-width="3.4242"/>
</g>
<defs>
<linearGradient id="paint0_linear_2_1129" x1="-4.00171" y1="373.538" x2="1294" y2="373.538" gradientUnits="userSpaceOnUse">
<stop stop-color="#35005C"/>
<stop offset="1" stop-color="#490080"/>
</linearGradient>
<linearGradient id="paint1_linear_2_1129" x1="-4.00171" y1="373.538" x2="1294" y2="373.538" gradientUnits="userSpaceOnUse">
<stop stop-color="#35005C"/>
<stop offset="1" stop-color="#490080"/>
</linearGradient>
<linearGradient id="paint2_linear_2_1129" x1="615.499" y1="339.038" x2="722.043" y2="-135.911" gradientUnits="userSpaceOnUse">
<stop stop-color="#25005A"/>
<stop offset="1" stop-color="#7A00C0" stop-opacity="0"/>
</linearGradient>
<radialGradient id="paint3_radial_2_1129" cx="0" cy="0" r="1" gradientUnits="userSpaceOnUse" gradientTransform="translate(445.498 442.538) scale(817 410.014)">
<stop stop-color="#825096"/>
<stop offset="1" stop-color="#969696" stop-opacity="0"/>
</radialGradient>
<linearGradient id="paint4_linear_2_1129" x1="332.083" y1="111.145" x2="210.768" y2="400.245" gradientUnits="userSpaceOnUse">
<stop stop-color="#787878"/>
<stop offset="1" stop-color="#FF00FF"/>
</linearGradient>
<radialGradient id="paint5_radial_2_1129" cx="0" cy="0" r="1" gradientUnits="userSpaceOnUse" gradientTransform="translate(199.998 485.038) rotate(-82.7597) scale(430.893 458.873)">
<stop stop-color="white"/>
<stop offset="1" stop-color="#999999" stop-opacity="0"/>
</radialGradient>
<linearGradient id="paint6_linear_2_1129" x1="600.648" y1="653.598" x2="870.281" y2="493.616" gradientUnits="userSpaceOnUse">
<stop stop-color="#787878"/>
<stop offset="1" stop-color="#FF00FF"/>
</linearGradient>
<radialGradient id="paint7_radial_2_1129" cx="0" cy="0" r="1" gradientUnits="userSpaceOnUse" gradientTransform="translate(984.181 470.583) rotate(142.344) scale(445.826 474.776)">
<stop stop-color="white"/>
<stop offset="1" stop-color="#999999" stop-opacity="0"/>
</radialGradient>
<linearGradient id="paint8_linear_2_1129" x1="223.394" y1="608.598" x2="493.027" y2="448.616" gradientUnits="userSpaceOnUse">
<stop stop-color="#787878"/>
<stop offset="1" stop-color="#FF00FF"/>
</linearGradient>
<radialGradient id="paint9_radial_2_1129" cx="0" cy="0" r="1" gradientUnits="userSpaceOnUse" gradientTransform="translate(570.998 421.038) rotate(-113.692) scale(236.426 251.778)">
<stop stop-color="white"/>
<stop offset="1" stop-color="#999999" stop-opacity="0"/>
</radialGradient>
<radialGradient id="paint10_radial_2_1129" cx="0" cy="0" r="1" gradientUnits="userSpaceOnUse" gradientTransform="translate(906.516 456.889) rotate(115.393) scale(445.826 474.776)">
<stop stop-color="white"/>
<stop offset="1" stop-color="#999999" stop-opacity="0"/>
</radialGradient>
<clipPath id="clip0_2_1129">
<rect width="1294" height="443" fill="white"/>
</clipPath>
</defs>
</svg>
