<svg width="242" height="179" viewBox="0 0 242 179" fill="none" xmlns="http://www.w3.org/2000/svg">
<mask id="path-1-outside-1_1067_31642" maskUnits="userSpaceOnUse" x="71.0463" y="15.2246" width="98.1644" height="53.3047" fill="black">
<rect fill="white" x="71.0463" y="15.2246" width="98.1644" height="53.3047"/>
<path d="M94.9026 61.4555L94.8822 54.8892L78.5815 54.9399L78.5567 46.9911L96.5152 24.3559L107.171 24.3228L107.235 44.8859L110.461 44.8758L110.492 54.8406L107.266 54.8506L107.287 61.417L94.9026 61.4555ZM90.4752 45.4564L97.0992 45.4358L97.0752 37.7174L90.4752 45.4564ZM117.868 61.3841L117.789 35.8098L111.571 36.7507L111.539 26.4404L130.135 23.6753L130.252 61.3455L117.868 61.3841ZM133.697 61.3348L133.68 55.8052C134.788 53.8818 136.05 52.1498 137.466 50.6094C138.92 49.0305 140.566 47.4126 142.404 45.7556C143.898 44.4454 145.104 43.3472 146.023 42.4612C146.98 41.575 147.669 40.7664 148.089 40.0355C148.547 39.2661 148.775 38.4398 148.772 37.5566C148.765 35.291 147.207 34.163 144.096 34.1727C142.445 34.1779 140.814 34.3749 139.202 34.764C137.629 35.1528 136.152 35.6566 134.771 36.2753L134.739 25.8498C136.35 25.192 138.249 24.6677 140.437 24.2769C142.662 23.8475 144.947 23.6292 147.289 23.6219C152.05 23.6071 155.587 24.7097 157.898 26.9297C160.247 29.1112 161.427 32.0068 161.438 35.6164C161.443 37.2676 161.256 38.7081 160.876 39.9381C160.495 41.1297 159.904 42.2452 159.101 43.2845C158.297 44.2854 157.225 45.3831 155.885 46.5777C154.928 47.4255 153.913 48.3118 152.841 49.2368C151.807 50.1616 151.022 51.028 150.487 51.8361L161.777 51.801L161.806 61.2473L133.697 61.3348Z"/>
</mask>
<path d="M94.9026 61.4555L94.8822 54.8892L78.5815 54.9399L78.5567 46.9911L96.5152 24.3559L107.171 24.3228L107.235 44.8859L110.461 44.8758L110.492 54.8406L107.266 54.8506L107.287 61.417L94.9026 61.4555ZM90.4752 45.4564L97.0992 45.4358L97.0752 37.7174L90.4752 45.4564ZM117.868 61.3841L117.789 35.8098L111.571 36.7507L111.539 26.4404L130.135 23.6753L130.252 61.3455L117.868 61.3841ZM133.697 61.3348L133.68 55.8052C134.788 53.8818 136.05 52.1498 137.466 50.6094C138.92 49.0305 140.566 47.4126 142.404 45.7556C143.898 44.4454 145.104 43.3472 146.023 42.4612C146.98 41.575 147.669 40.7664 148.089 40.0355C148.547 39.2661 148.775 38.4398 148.772 37.5566C148.765 35.291 147.207 34.163 144.096 34.1727C142.445 34.1779 140.814 34.3749 139.202 34.764C137.629 35.1528 136.152 35.6566 134.771 36.2753L134.739 25.8498C136.35 25.192 138.249 24.6677 140.437 24.2769C142.662 23.8475 144.947 23.6292 147.289 23.6219C152.05 23.6071 155.587 24.7097 157.898 26.9297C160.247 29.1112 161.427 32.0068 161.438 35.6164C161.443 37.2676 161.256 38.7081 160.876 39.9381C160.495 41.1297 159.904 42.2452 159.101 43.2845C158.297 44.2854 157.225 45.3831 155.885 46.5777C154.928 47.4255 153.913 48.3118 152.841 49.2368C151.807 50.1616 151.022 51.028 150.487 51.8361L161.777 51.801L161.806 61.2473L133.697 61.3348Z" fill="white"/>
<path d="M94.9026 61.4555L87.9027 61.4773L87.9244 68.4773L94.9244 68.4555L94.9026 61.4555ZM94.8822 54.8892L101.882 54.8674L101.86 47.8674L94.8604 47.8892L94.8822 54.8892ZM78.5815 54.9399L71.5815 54.9617L71.6033 61.9616L78.6033 61.9398L78.5815 54.9399ZM78.5567 46.9911L73.073 42.6404L71.5491 44.5611L71.5568 47.0129L78.5567 46.9911ZM96.5152 24.3559L96.4934 17.356L93.125 17.3664L91.0315 20.0052L96.5152 24.3559ZM107.171 24.3228L114.171 24.301L114.149 17.301L107.149 17.3228L107.171 24.3228ZM107.235 44.8859L100.235 44.9076L100.257 51.9076L107.257 51.8858L107.235 44.8859ZM110.461 44.8758L117.461 44.854L117.439 37.8541L110.439 37.8759L110.461 44.8758ZM110.492 54.8406L110.514 61.8405L117.513 61.8188L117.492 54.8188L110.492 54.8406ZM107.266 54.8506L107.244 47.8507L100.244 47.8724L100.266 54.8724L107.266 54.8506ZM107.287 61.417L107.308 68.417L114.308 68.3952L114.287 61.3952L107.287 61.417ZM90.4752 45.4564L85.1491 40.9142L75.2652 52.5038L90.497 52.4564L90.4752 45.4564ZM97.0992 45.4358L97.121 52.4358L104.121 52.414L104.099 45.414L97.0992 45.4358ZM97.0752 37.7174L104.075 37.6957L104.016 18.7908L91.749 33.1752L97.0752 37.7174ZM94.9026 61.4555L101.903 61.4337L101.882 54.8674L94.8822 54.8892L87.8822 54.9109L87.9027 61.4773L94.9026 61.4555ZM94.8822 54.8892L94.8604 47.8892L78.5597 47.9399L78.5815 54.9399L78.6033 61.9398L94.904 61.8891L94.8822 54.8892ZM78.5815 54.9399L85.5814 54.9181L85.5567 46.9693L78.5567 46.9911L71.5568 47.0129L71.5815 54.9617L78.5815 54.9399ZM78.5567 46.9911L84.0405 51.3418L101.999 28.7066L96.5152 24.3559L91.0315 20.0052L73.073 42.6404L78.5567 46.9911ZM96.5152 24.3559L96.537 31.3559L107.193 31.3227L107.171 24.3228L107.149 17.3228L96.4934 17.356L96.5152 24.3559ZM107.171 24.3228L100.171 24.3445L100.235 44.9076L107.235 44.8859L114.235 44.8641L114.171 24.301L107.171 24.3228ZM107.235 44.8859L107.257 51.8858L110.482 51.8758L110.461 44.8758L110.439 37.8759L107.213 37.8859L107.235 44.8859ZM110.461 44.8758L103.461 44.8976L103.492 54.8624L110.492 54.8406L117.492 54.8188L117.461 44.854L110.461 44.8758ZM110.492 54.8406L110.47 47.8406L107.244 47.8507L107.266 54.8506L107.288 61.8506L110.514 61.8405L110.492 54.8406ZM107.266 54.8506L100.266 54.8724L100.287 61.4388L107.287 61.417L114.287 61.3952L114.266 54.8288L107.266 54.8506ZM107.287 61.417L107.265 54.417L94.8808 54.4556L94.9026 61.4555L94.9244 68.4555L107.308 68.417L107.287 61.417ZM90.4752 45.4564L90.497 52.4564L97.121 52.4358L97.0992 45.4358L97.0774 38.4358L90.4534 38.4565L90.4752 45.4564ZM97.0992 45.4358L104.099 45.414L104.075 37.6957L97.0752 37.7174L90.0752 37.7392L90.0992 45.4576L97.0992 45.4358ZM97.0752 37.7174L91.749 33.1752L85.1491 40.9142L90.4752 45.4564L95.8014 49.9987L102.401 42.2597L97.0752 37.7174ZM117.868 61.3841L110.868 61.4058L110.89 68.4058L117.89 68.384L117.868 61.3841ZM117.789 35.8098L124.789 35.788L124.763 27.6746L116.741 28.8886L117.789 35.8098ZM111.571 36.7507L104.571 36.7725L104.596 44.8859L112.618 43.6719L111.571 36.7507ZM111.539 26.4404L110.509 19.5165L104.52 20.4071L104.539 26.4622L111.539 26.4404ZM130.135 23.6753L137.135 23.6535L137.11 15.5613L129.105 16.7514L130.135 23.6753ZM130.252 61.3455L130.274 68.3455L137.274 68.3237L137.252 61.3237L130.252 61.3455ZM117.868 61.3841L124.868 61.3623L124.789 35.788L117.789 35.8098L110.789 35.8316L110.868 61.4058L117.868 61.3841ZM117.789 35.8098L116.741 28.8886L110.523 29.8295L111.571 36.7507L112.618 43.6719L118.836 42.731L117.789 35.8098ZM111.571 36.7507L118.571 36.729L118.539 26.4186L111.539 26.4404L104.539 26.4622L104.571 36.7725L111.571 36.7507ZM111.539 26.4404L112.568 33.3643L131.165 30.5992L130.135 23.6753L129.105 16.7514L110.509 19.5165L111.539 26.4404ZM130.135 23.6753L123.135 23.6971L123.252 61.3673L130.252 61.3455L137.252 61.3237L137.135 23.6535L130.135 23.6753ZM130.252 61.3455L130.23 54.3456L117.846 54.3841L117.868 61.3841L117.89 68.384L130.274 68.3455L130.252 61.3455ZM133.697 61.3348L126.697 61.3566L126.719 68.3566L133.719 68.3348L133.697 61.3348ZM133.68 55.8052L127.614 52.3121L126.674 53.9439L126.68 55.827L133.68 55.8052ZM137.466 50.6094L132.317 45.8671L132.312 45.8721L137.466 50.6094ZM142.404 45.7556L137.788 40.4936L137.752 40.5247L137.717 40.5563L142.404 45.7556ZM146.023 42.4612L141.267 37.3244L141.215 37.3729L141.164 37.4223L146.023 42.4612ZM148.089 40.0355L142.075 36.4527L142.047 36.4997L142.02 36.5471L148.089 40.0355ZM139.202 34.7639L137.559 27.9594L137.541 27.9639L137.522 27.9685L139.202 34.7639ZM134.771 36.2753L127.771 36.2971L127.805 47.0684L137.634 42.6631L134.771 36.2753ZM134.739 25.8498L132.092 19.3694L127.724 21.1533L127.739 25.8716L134.739 25.8498ZM140.437 24.2769L141.668 31.1678L141.715 31.1593L141.762 31.1502L140.437 24.2769ZM157.898 26.9297L153.048 31.9778L153.091 32.0188L153.134 32.0592L157.898 26.9297ZM160.876 39.9381L167.544 42.0664L167.554 42.0359L167.564 42.0053L160.876 39.9381ZM159.101 43.2845L164.56 47.6659L164.6 47.6157L164.639 47.5648L159.101 43.2845ZM155.885 46.5777L160.526 51.8183L160.534 51.8108L160.543 51.8033L155.885 46.5777ZM152.841 49.2368L148.269 43.9362L148.221 43.9774L148.174 44.0194L152.841 49.2368ZM150.487 51.8361L144.651 47.9714L137.429 58.8768L150.509 58.8361L150.487 51.8361ZM161.777 51.801L168.777 51.7792L168.755 44.7792L161.755 44.801L161.777 51.801ZM161.806 61.2473L161.828 68.2473L168.828 68.2255L168.806 61.2256L161.806 61.2473ZM133.697 61.3348L140.697 61.313L140.68 55.7835L133.68 55.8052L126.68 55.827L126.697 61.3566L133.697 61.3348ZM133.68 55.8052L139.746 59.2984C140.612 57.795 141.573 56.485 142.619 55.3467L137.466 50.6094L132.312 45.8721C130.527 47.8146 128.964 49.9686 127.614 52.3121L133.68 55.8052ZM137.466 50.6094L142.614 55.3518C143.902 53.9541 145.39 52.4881 147.091 50.9549L142.404 45.7556L137.717 40.5563C135.742 42.337 133.938 44.1069 132.317 45.8671L137.466 50.6094ZM142.404 45.7556L147.02 51.0177C148.557 49.67 149.853 48.492 150.882 47.5L146.023 42.4612L141.164 37.4223C140.355 38.2025 139.239 39.2208 137.788 40.4936L142.404 45.7556ZM146.023 42.4612L150.778 47.5979C152.003 46.464 153.248 45.1063 154.158 43.5239L148.089 40.0355L142.02 36.5471C142.07 36.4593 142.062 36.4937 141.928 36.6511C141.798 36.804 141.587 37.0286 141.267 37.3244L146.023 42.4612ZM148.089 40.0355L154.102 43.6183C155.201 41.7751 155.779 39.7054 155.772 37.5348L148.772 37.5566L141.772 37.5784C141.772 37.4034 141.795 37.1965 141.855 36.9781C141.915 36.7603 141.998 36.5824 142.075 36.4527L148.089 40.0355ZM148.772 37.5566L155.772 37.5348C155.763 34.6159 154.631 31.4604 151.702 29.3405C149.186 27.5198 146.271 27.1659 144.074 27.1728L144.096 34.1727L144.118 41.1727C145.031 41.1698 144.452 41.3751 143.494 40.6824C142.941 40.2818 142.443 39.7033 142.12 39.0034C141.815 38.342 141.773 37.8078 141.772 37.5784L148.772 37.5566ZM144.096 34.1727L144.074 27.1728C141.875 27.1796 139.7 27.4428 137.559 27.9594L139.202 34.7639L140.844 41.5685C141.927 41.3071 143.015 41.1761 144.118 41.1727L144.096 34.1727ZM139.202 34.7639L137.522 27.9685C135.572 28.4506 133.696 29.0863 131.909 29.8875L134.771 36.2753L137.634 42.6631C138.607 42.227 139.686 41.8551 140.882 41.5594L139.202 34.7639ZM134.771 36.2753L141.771 36.2536L141.739 25.828L134.739 25.8498L127.739 25.8716L127.771 36.2971L134.771 36.2753ZM134.739 25.8498L137.385 32.3302C138.435 31.9016 139.839 31.4945 141.668 31.1678L140.437 24.2769L139.205 17.386C136.659 17.8408 134.264 18.4824 132.092 19.3694L134.739 25.8498ZM140.437 24.2769L141.762 31.1502C143.544 30.8064 145.391 30.6279 147.311 30.6219L147.289 23.6219L147.267 16.622C144.502 16.6306 141.78 16.8886 139.111 17.4035L140.437 24.2769ZM147.289 23.6219L147.311 30.6219C151.127 30.61 152.563 31.5113 153.048 31.9778L157.898 26.9297L162.747 21.8817C158.611 17.9081 152.974 16.6042 147.267 16.622L147.289 23.6219ZM157.898 26.9297L153.134 32.0592C153.877 32.7486 154.432 33.698 154.438 35.6381L161.438 35.6164L168.438 35.5946C168.422 30.3155 166.617 25.4739 162.661 21.8003L157.898 26.9297ZM161.438 35.6164L154.438 35.6381C154.442 36.7706 154.31 37.4774 154.188 37.871L160.876 39.9381L167.564 42.0053C168.202 39.9389 168.445 37.7645 168.438 35.5946L161.438 35.6164ZM160.876 39.9381L154.207 37.8098C154.087 38.1853 153.891 38.5781 153.562 39.0041L159.101 43.2845L164.639 47.5648C165.916 45.9123 166.904 44.0742 167.544 42.0664L160.876 39.9381ZM159.101 43.2845L153.641 38.9031C153.156 39.5079 152.383 40.3225 151.228 41.352L155.885 46.5777L160.543 51.8033C162.068 50.4438 163.439 49.0629 164.56 47.6659L159.101 43.2845ZM155.885 46.5777L151.244 41.3371C150.312 42.1627 149.32 43.029 148.269 43.9362L152.841 49.2368L157.413 54.5374C158.506 53.5947 159.544 52.6882 160.526 51.8183L155.885 46.5777ZM152.841 49.2368L148.174 44.0194C146.868 45.1872 145.624 46.501 144.651 47.9714L150.487 51.8361L156.324 55.7009C156.42 55.5551 156.745 55.136 157.507 54.4541L152.841 49.2368ZM150.487 51.8361L150.509 58.8361L161.798 58.801L161.777 51.801L161.755 44.801L150.465 44.8361L150.487 51.8361ZM161.777 51.801L154.777 51.8228L154.806 61.2691L161.806 61.2473L168.806 61.2256L168.777 51.7792L161.777 51.801ZM161.806 61.2473L161.784 54.2474L133.676 54.3348L133.697 61.3348L133.719 68.3348L161.828 68.2473L161.806 61.2473Z" fill="#62009B" mask="url(#path-1-outside-1_1067_31642)"/>
<path d="M49.5809 103.998L49.5304 87.7688L57.8968 87.7428C59.2239 87.7386 60.3168 88.004 61.1752 88.539C62.0505 89.057 62.6995 89.769 63.1223 90.6749C63.5451 91.5808 63.7583 92.5881 63.7617 93.6969C63.7653 94.8393 63.5248 95.8565 63.0404 96.7484C62.556 97.6403 61.8693 98.3396 60.9805 98.8464C60.0917 99.3532 59.0425 99.6085 57.8329 99.6122L54.3049 99.6232L54.3185 103.983L49.5809 103.998ZM54.2936 95.9944L56.738 95.9868C57.4772 95.9845 58.0225 95.7728 58.374 95.3517C58.7423 94.9306 58.9254 94.384 58.9233 93.712C58.9211 92.9896 58.7513 92.4189 58.414 92C58.0767 91.581 57.5552 91.3726 56.8497 91.3748L54.2793 91.3828L54.2936 95.9944ZM68.2983 104.191C67.5423 104.194 66.8363 104.061 66.1802 103.795C65.541 103.528 65.0273 103.109 64.6391 102.539C64.251 101.969 64.0555 101.248 64.0528 100.374C64.0489 99.1141 64.4658 98.1384 65.3037 97.447C66.1415 96.7387 67.4088 96.382 69.1056 96.3767L72.2052 96.3671L72.2045 96.1403C72.203 95.6699 72.0087 95.3261 71.6216 95.1089C71.2346 94.8917 70.5538 94.7846 69.5794 94.7876C68.2018 94.7919 66.8417 95.0062 65.499 95.4303L65.4902 92.5828C66.0942 92.3457 66.8496 92.1501 67.7563 91.9961C68.663 91.8253 69.5868 91.7384 70.5275 91.7355C72.4259 91.7296 73.9307 92.1113 75.0419 92.8806C76.1531 93.65 76.7113 94.8746 76.7166 96.5546L76.7395 103.913L72.6067 103.926L72.3769 102.969C71.9581 103.34 71.413 103.636 70.7417 103.856C70.0871 104.077 69.2727 104.188 68.2983 104.191ZM69.9025 101.414C70.4401 101.413 70.8934 101.319 71.2624 101.133C71.6482 100.947 71.9667 100.719 72.2179 100.449L72.2132 98.9627L69.9201 98.9698C68.8785 98.973 68.3589 99.3863 68.3615 100.209C68.364 101.016 68.8777 101.417 69.9025 101.414ZM78.8905 103.906L78.8533 91.9616L83.4145 91.9474L83.5435 92.9046C84.0298 92.6175 84.6506 92.3551 85.4059 92.1176C86.1611 91.88 86.9251 91.7349 87.6977 91.682L87.7087 95.21C87.272 95.245 86.7934 95.3053 86.2728 95.3909C85.7691 95.4765 85.2739 95.5872 84.7871 95.7231C84.317 95.8422 83.9227 95.9778 83.6039 96.13L83.6281 103.892L78.8905 103.906ZM94.1951 104.111C92.5991 104.116 91.4387 103.716 90.7137 102.912C89.9888 102.108 89.6242 101.017 89.62 99.6393L89.6069 95.4309L88.0445 95.4358L88.0336 91.933L89.596 91.9281L89.5884 89.4838L94.3224 88.335L94.3335 91.9134L97.0803 91.9049L96.9148 95.4082L94.3444 95.4162L94.3564 99.2718C94.358 99.7758 94.4851 100.137 94.7378 100.354C94.9904 100.555 95.3771 100.655 95.8979 100.653C96.3851 100.651 96.8805 100.566 97.384 100.396L97.3938 103.546C96.5045 103.919 95.4383 104.107 94.1951 104.111ZM99.4412 90.3099L99.4306 86.8827L104.546 86.8668L104.557 90.294L99.4412 90.3099ZM99.8613 103.841L99.8349 95.3487L98.0961 95.3541L98.4886 91.9005L104.562 91.8816L104.599 103.826L99.8613 103.841ZM113.399 104.051C111.232 104.058 109.516 103.551 108.253 102.53C106.99 101.492 106.355 99.9316 106.349 97.8484C106.344 96.4373 106.635 95.2687 107.22 94.3429C107.805 93.4171 108.626 92.7341 109.683 92.294C110.74 91.8372 111.974 91.6065 113.385 91.6021C114.276 91.5993 115.074 91.6641 115.78 91.7963C116.486 91.9117 117.158 92.1196 117.798 92.42L117.808 95.7464C116.816 95.2791 115.689 95.0474 114.429 95.0513C113.354 95.0546 112.54 95.2588 111.987 95.6637C111.45 96.0686 111.184 96.7918 111.187 97.8334C111.19 98.8078 111.453 99.5126 111.975 99.9477C112.497 100.383 113.321 100.599 114.446 100.595C115.051 100.593 115.639 100.524 116.21 100.388C116.781 100.235 117.326 100.023 117.846 99.7531L117.857 103.231C117.219 103.518 116.531 103.722 115.792 103.842C115.07 103.979 114.272 104.048 113.399 104.051ZM120.408 90.2447L120.398 86.8175L125.513 86.8016L125.524 90.2287L120.408 90.2447ZM120.828 103.776L120.802 95.2835L119.063 95.2889L119.456 91.8352L125.529 91.8163L125.566 103.761L120.828 103.776ZM127.855 109.197L127.801 91.8093L131.909 91.7965L132.138 92.7534C132.624 92.3655 133.153 92.0698 133.723 91.8664C134.311 91.6462 134.991 91.5349 135.764 91.5325C137.544 91.5269 138.915 91.9763 139.875 92.8805C140.852 93.7679 141.344 95.2867 141.351 97.4371C141.358 99.5707 140.85 101.194 139.829 102.305C138.808 103.417 137.398 103.976 135.601 103.982C134.408 103.986 133.399 103.762 132.575 103.311L132.593 109.182L127.855 109.197ZM134.38 100.533C135.069 100.531 135.598 100.286 135.966 99.7975C136.334 99.3091 136.516 98.5526 136.513 97.5278C136.51 96.5366 136.331 95.8651 135.978 95.5134C135.64 95.1617 135.119 94.9869 134.413 94.9891C133.708 94.9913 133.087 95.2284 132.551 95.7005L132.564 99.9341C132.833 100.135 133.103 100.285 133.372 100.385C133.641 100.485 133.977 100.534 134.38 100.533ZM146.876 103.947C146.12 103.949 145.414 103.817 144.758 103.55C144.118 103.283 143.605 102.865 143.216 102.295C142.828 101.725 142.633 101.003 142.63 100.13C142.626 98.8696 143.043 97.8939 143.881 97.2025C144.719 96.4942 145.986 96.1375 147.683 96.1322L150.783 96.1226L150.782 95.8958C150.78 95.4254 150.586 95.0816 150.199 94.8644C149.812 94.6472 149.131 94.5401 148.157 94.5431C146.779 94.5474 145.419 94.7617 144.076 95.1858L144.067 92.3383C144.672 92.1012 145.427 91.9056 146.334 91.7516C147.24 91.5808 148.164 91.4939 149.105 91.491C151.003 91.4851 152.508 91.8668 153.619 92.6361C154.73 93.4055 155.289 94.6301 155.294 96.3101L155.317 103.669L151.184 103.681L150.954 102.724C150.535 103.095 149.99 103.391 149.319 103.612C148.664 103.832 147.85 103.944 146.876 103.947ZM148.48 101.17C149.017 101.168 149.471 101.074 149.84 100.888C150.226 100.702 150.544 100.475 150.795 100.205L150.791 98.7182L148.497 98.7253C147.456 98.7285 146.936 99.1418 146.939 99.965C146.941 100.771 147.455 101.173 148.48 101.17ZM157.468 103.662L157.431 91.7171L161.866 91.7033L161.995 92.6101C162.447 92.3063 163.043 92.0356 163.781 91.7981C164.537 91.5606 165.343 91.4404 166.199 91.4378C167.695 91.4331 168.788 91.7993 169.479 92.5364C170.17 93.2734 170.518 94.4148 170.523 95.9603L170.547 103.621L165.809 103.636L165.787 96.4539C165.785 95.9163 165.666 95.5303 165.43 95.2958C165.194 95.0613 164.782 94.945 164.194 94.9468C163.842 94.9479 163.472 95.0331 163.086 95.2023C162.717 95.3714 162.416 95.574 162.181 95.8099L162.205 103.647L157.468 103.662ZM177.793 103.851C176.197 103.856 175.036 103.456 174.311 102.652C173.586 101.848 173.222 100.757 173.218 99.3792L173.204 95.1708L171.642 95.1757L171.631 91.6729L173.194 91.668L173.186 89.2236L177.92 88.0749L177.931 91.6533L180.678 91.6447L180.512 95.1481L177.942 95.1561L177.954 99.0116C177.956 99.5156 178.083 99.8764 178.335 100.094C178.588 100.295 178.975 100.394 179.496 100.393C179.983 100.391 180.478 100.306 180.982 100.136L180.991 103.286C180.102 103.659 179.036 103.847 177.793 103.851ZM186.912 103.822C185.887 103.825 184.921 103.753 184.013 103.604C183.123 103.473 182.416 103.299 181.895 103.082L181.884 99.6798C182.473 99.9468 183.171 100.155 183.978 100.303C184.802 100.452 185.499 100.525 186.07 100.524C186.675 100.522 187.129 100.503 187.431 100.469C187.75 100.434 187.909 100.291 187.908 100.039C187.907 99.7535 187.63 99.5359 187.075 99.3865C186.52 99.237 185.822 99.0208 184.981 98.7378C183.888 98.3548 183.072 97.9037 182.532 97.3846C181.993 96.8655 181.722 96.1103 181.719 95.1191C181.715 93.9263 182.183 93.0093 183.122 92.3679C184.06 91.7098 185.538 91.3776 187.554 91.3713C188.327 91.3689 189.125 91.4252 189.948 91.5403C190.772 91.6553 191.419 91.7877 191.89 91.9374L191.9 95.2638C191.396 95.047 190.841 94.8891 190.236 94.7902C189.647 94.6912 189.11 94.6425 188.622 94.644C188.085 94.6457 187.606 94.6724 187.186 94.7241C186.766 94.7758 186.557 94.9193 186.558 95.1545C186.558 95.4233 186.794 95.6157 187.265 95.7319C187.753 95.8479 188.4 96.0307 189.207 96.2802C190.115 96.5462 190.822 96.838 191.327 97.1556C191.848 97.4732 192.211 97.8585 192.414 98.3114C192.634 98.7644 192.745 99.3268 192.747 99.9988C192.75 101.208 192.258 102.151 191.269 102.826C190.296 103.484 188.844 103.816 186.912 103.822Z" fill="#C259FF"/>
<path d="M7.00101 146.63L6.99423 144.452L1.72026 144.469L1.71337 142.255L7.41493 135.037L10.3489 135.028L10.3697 141.706L11.4137 141.703L11.4222 144.439L10.3782 144.442L10.385 146.62L7.00101 146.63ZM4.97017 141.867L7.58016 141.859L7.57036 138.709L4.97017 141.867ZM17.5104 146.778C16.1784 146.782 15.1037 146.557 14.2863 146.104C13.4809 145.638 12.8907 144.962 12.516 144.075C12.1412 143.188 11.9518 142.103 11.9479 140.819C11.9439 139.535 12.1265 138.448 12.4957 137.559C12.8649 136.67 13.4509 135.996 14.2534 135.538C15.068 135.067 16.1412 134.83 17.4732 134.826C19.4652 134.82 20.8888 135.331 21.744 136.361C22.5992 137.378 23.0298 138.853 23.0358 140.785C23.0418 142.705 22.6204 144.182 21.7716 145.216C20.9228 146.251 19.5024 146.772 17.5104 146.778ZM17.5015 143.898C18.2815 143.895 18.8206 143.636 19.119 143.119C19.4294 142.59 19.583 141.815 19.5798 140.795C19.5766 139.763 19.4182 138.99 19.1046 138.475C18.803 137.96 18.2622 137.703 17.4822 137.706C16.7022 137.708 16.157 137.968 15.8466 138.485C15.5482 139.002 15.4006 139.776 15.4038 140.808C15.407 141.828 15.5594 142.602 15.8611 143.129C16.1747 143.644 16.7215 143.9 17.5015 143.898ZM29.4986 146.74C28.1666 146.745 27.0919 146.52 26.2745 146.066C25.4691 145.601 24.879 144.925 24.5042 144.038C24.1294 143.151 23.9401 142.066 23.9361 140.782C23.9321 139.498 24.1147 138.411 24.4839 137.522C24.8532 136.633 25.4391 135.959 26.2417 135.501C27.0562 135.03 28.1295 134.793 29.4614 134.789C31.4534 134.782 32.877 135.294 33.7322 136.323C34.5874 137.341 35.018 138.815 35.024 140.747C35.03 142.667 34.6086 144.145 33.7598 145.179C32.911 146.214 31.4906 146.734 29.4986 146.74ZM29.4897 143.86C30.2697 143.858 30.8089 143.598 31.1073 143.081C31.4176 142.552 31.5712 141.778 31.568 140.758C31.5648 139.726 31.4064 138.952 31.0928 138.437C30.7912 137.922 30.2504 137.666 29.4704 137.668C28.6904 137.671 28.1452 137.931 27.8348 138.448C27.5364 138.965 27.3888 139.739 27.3921 140.771C27.3952 141.791 27.5476 142.564 27.8493 143.092C28.1629 143.607 28.7097 143.863 29.4897 143.86ZM38.2772 144.877L38.2704 142.717L35.9305 142.724L35.9224 140.132L38.2624 140.125L38.2556 137.947L40.8656 137.939L40.8724 140.117L43.2124 140.11L43.2204 142.702L40.8804 142.709L40.8871 144.869L38.2772 144.877ZM48.1972 150.39L48.1585 137.97L51.0925 137.961L51.2566 138.645C51.6038 138.368 51.9811 138.156 52.3887 138.011C52.8082 137.854 53.2939 137.774 53.8459 137.773C55.1179 137.769 56.0969 138.09 56.783 138.736C57.4809 139.369 57.8323 140.454 57.8371 141.99C57.8418 143.514 57.4794 144.673 56.7499 145.468C56.0204 146.262 55.0136 146.661 53.7296 146.665C52.8776 146.668 52.1571 146.508 51.5681 146.186L51.5812 150.38L48.1972 150.39ZM52.8579 144.202C53.3499 144.2 53.7274 144.025 53.9903 143.676C54.2532 143.327 54.3835 142.787 54.3813 142.055C54.3791 141.347 54.2516 140.867 53.9988 140.616C53.758 140.365 53.3856 140.24 52.8816 140.242C52.3776 140.243 51.9341 140.413 51.5512 140.75L51.5606 143.774C51.7531 143.917 51.9454 144.025 52.1376 144.096C52.3298 144.167 52.5699 144.203 52.8579 144.202ZM61.7832 146.64C61.2432 146.642 60.7389 146.547 60.2703 146.357C59.8137 146.166 59.4467 145.867 59.1695 145.46C58.8922 145.053 58.7526 144.537 58.7507 143.913C58.7479 143.013 59.0457 142.316 59.6442 141.823C60.2426 141.317 61.1478 141.062 62.3598 141.058L64.5738 141.051L64.5733 140.889C64.5722 140.553 64.4335 140.308 64.157 140.153C63.8805 139.997 63.3943 139.921 62.6983 139.923C61.7143 139.926 60.7427 140.079 59.7837 140.382L59.7774 138.348C60.2088 138.179 60.7484 138.039 61.3961 137.929C62.0437 137.807 62.7035 137.745 63.3755 137.743C64.7315 137.739 65.8063 138.011 66.6 138.561C67.3938 139.11 67.7925 139.985 67.7962 141.185L67.8126 146.441L64.8606 146.45L64.6965 145.767C64.3973 146.032 64.0079 146.243 63.5284 146.401C63.0609 146.558 62.4792 146.638 61.7832 146.64ZM62.929 144.656C63.313 144.655 63.6368 144.588 63.9004 144.455C64.176 144.323 64.4035 144.16 64.5829 143.967L64.5796 142.905L62.9416 142.91C62.1976 142.913 61.8265 143.208 61.8283 143.796C61.8301 144.372 62.197 144.659 62.929 144.656ZM69.349 146.436L69.3225 137.904L72.5805 137.894L72.6726 138.578C73.02 138.373 73.4634 138.186 74.0029 138.016C74.5423 137.846 75.088 137.743 75.6399 137.705L75.6477 140.225C75.3358 140.25 74.9939 140.293 74.6221 140.354C74.2623 140.415 73.9086 140.494 73.5609 140.591C73.2251 140.676 72.9434 140.773 72.7158 140.882L72.733 146.426L69.349 146.436ZM80.2809 146.582C79.1409 146.586 78.312 146.301 77.7942 145.726C77.2764 145.152 77.016 144.373 77.0129 143.389L77.0036 140.383L75.8876 140.386L75.8798 137.884L76.9958 137.881L76.9904 136.135L80.3718 135.314L80.3798 137.87L82.3418 137.864L82.2235 140.366L80.3876 140.372L80.3961 143.126C80.3972 143.486 80.4881 143.744 80.6685 143.899C80.849 144.043 81.1252 144.114 81.4972 144.113C81.8452 144.112 82.199 144.05 82.5586 143.929L82.5656 146.179C81.9305 146.445 81.1689 146.58 80.2809 146.582ZM84.0281 136.725L84.0205 134.277L87.6745 134.265L87.6821 136.713L84.0281 136.725ZM84.3282 146.39L84.3093 140.324L83.0673 140.328L83.3477 137.861L87.6856 137.847L87.7122 146.379L84.3282 146.39ZM93.9978 146.54C92.4498 146.545 91.2247 146.182 90.3224 145.453C89.4201 144.712 88.9666 143.597 88.962 142.109C88.9588 141.101 89.1663 140.267 89.5842 139.605C90.0021 138.944 90.5886 138.456 91.3437 138.142C92.0986 137.816 92.9801 137.651 93.9881 137.648C94.6241 137.646 95.1943 137.692 95.6986 137.786C96.2028 137.869 96.6833 138.017 97.14 138.232L97.1474 140.608C96.4383 140.274 95.6338 140.109 94.7338 140.111C93.9658 140.114 93.3842 140.26 92.9891 140.549C92.606 140.838 92.4157 141.355 92.418 142.099C92.4201 142.795 92.6077 143.298 92.9807 143.609C93.3536 143.92 93.9421 144.074 94.7461 144.071C95.1781 144.07 95.598 144.021 96.0057 143.923C96.4133 143.814 96.8029 143.663 97.1743 143.47L97.182 145.954C96.7266 146.159 96.2351 146.305 95.7073 146.39C95.1916 146.488 94.6218 146.538 93.9978 146.54ZM99.0046 136.678L98.997 134.23L102.651 134.219L102.659 136.667L99.0046 136.678ZM99.3047 146.343L99.2858 140.277L98.0438 140.281L98.3241 137.814L102.662 137.801L102.689 146.333L99.3047 146.343ZM104.324 150.216L104.285 137.796L107.219 137.787L107.383 138.47C107.73 138.193 108.108 137.982 108.515 137.837C108.935 137.679 109.421 137.6 109.973 137.598C111.245 137.594 112.224 137.915 112.91 138.561C113.608 139.195 113.959 140.28 113.964 141.816C113.968 143.34 113.606 144.499 112.877 145.293C112.147 146.087 111.14 146.486 109.856 146.49C109.004 146.493 108.284 146.333 107.695 146.011L107.708 150.205L104.324 150.216ZM108.985 144.027C109.477 144.026 109.854 143.85 110.117 143.502C110.38 143.153 110.51 142.612 110.508 141.88C110.506 141.172 110.378 140.693 110.125 140.442C109.885 140.19 109.512 140.065 109.008 140.067C108.504 140.069 108.061 140.238 107.678 140.575L107.687 143.599C107.88 143.743 108.072 143.85 108.264 143.921C108.457 143.993 108.697 144.028 108.985 144.027ZM117.91 146.465C117.37 146.467 116.866 146.373 116.397 146.182C115.94 145.991 115.573 145.693 115.296 145.285C115.019 144.878 114.879 144.363 114.877 143.739C114.875 142.839 115.172 142.142 115.771 141.648C116.369 141.142 117.274 140.887 118.486 140.884L120.7 140.877L120.7 140.715C120.699 140.379 120.56 140.133 120.284 139.978C120.007 139.823 119.521 139.746 118.825 139.748C117.841 139.752 116.869 139.905 115.91 140.208L115.904 138.174C116.335 138.004 116.875 137.865 117.523 137.755C118.17 137.632 118.83 137.57 119.502 137.568C120.858 137.564 121.933 137.837 122.727 138.386C123.52 138.936 123.919 139.811 123.923 141.011L123.939 146.267L120.987 146.276L120.823 145.592C120.524 145.857 120.135 146.068 119.655 146.226C119.188 146.383 118.606 146.463 117.91 146.465ZM119.056 144.482C119.44 144.481 119.763 144.414 120.027 144.281C120.303 144.148 120.53 143.985 120.71 143.793L120.706 142.731L119.068 142.736C118.324 142.738 117.953 143.033 117.955 143.621C117.957 144.197 118.324 144.484 119.056 144.482ZM125.476 146.262L125.449 137.73L128.617 137.72L128.709 138.368C129.032 138.151 129.458 137.957 129.985 137.788C130.525 137.618 131.101 137.532 131.713 137.53C132.781 137.527 133.561 137.789 134.055 138.315C134.549 138.842 134.797 139.657 134.801 140.761L134.818 146.233L131.434 146.243L131.418 141.113C131.417 140.729 131.332 140.454 131.163 140.286C130.995 140.119 130.7 140.036 130.28 140.037C130.028 140.038 129.765 140.098 129.489 140.219C129.225 140.34 129.01 140.485 128.842 140.653L128.86 146.251L125.476 146.262ZM139.993 146.397C138.853 146.4 138.025 146.115 137.507 145.54C136.989 144.966 136.729 144.187 136.726 143.203L136.716 140.197L135.6 140.2L135.592 137.698L136.708 137.695L136.703 135.949L140.084 135.128L140.092 137.684L142.054 137.678L141.936 140.181L140.1 140.186L140.109 142.94C140.11 143.3 140.201 143.558 140.381 143.713C140.562 143.857 140.838 143.928 141.21 143.927C141.558 143.926 141.912 143.865 142.271 143.744L142.278 145.994C141.643 146.259 140.881 146.394 139.993 146.397ZM146.507 146.376C145.775 146.379 145.085 146.327 144.437 146.221C143.801 146.127 143.296 146.002 142.924 145.848L142.916 143.418C143.337 143.608 143.835 143.757 144.412 143.863C145 143.969 145.498 144.021 145.906 144.02C146.338 144.019 146.662 144.006 146.878 143.981C147.106 143.956 147.219 143.854 147.219 143.674C147.218 143.47 147.02 143.315 146.623 143.208C146.227 143.101 145.729 142.947 145.128 142.745C144.347 142.471 143.764 142.149 143.379 141.778C142.994 141.407 142.8 140.868 142.798 140.16C142.795 139.308 143.129 138.653 143.8 138.195C144.47 137.725 145.526 137.487 146.966 137.483C147.518 137.481 148.088 137.521 148.676 137.604C149.264 137.686 149.727 137.78 150.063 137.887L150.07 140.263C149.71 140.108 149.313 139.996 148.881 139.925C148.461 139.854 148.077 139.819 147.729 139.821C147.345 139.822 147.003 139.841 146.703 139.878C146.403 139.915 146.254 140.017 146.254 140.185C146.255 140.377 146.423 140.515 146.759 140.598C147.108 140.68 147.57 140.811 148.147 140.989C148.795 141.179 149.3 141.388 149.661 141.615C150.033 141.841 150.292 142.117 150.437 142.44C150.594 142.764 150.673 143.165 150.675 143.645C150.678 144.509 150.326 145.182 149.619 145.665C148.925 146.135 147.887 146.372 146.507 146.376ZM156.708 136.499L156.7 134.051L160.354 134.039L160.362 136.487L156.708 136.499ZM157.111 150.375C156.211 150.378 155.442 150.249 154.805 149.987L154.798 147.737C155.159 147.855 155.519 147.914 155.879 147.913C156.635 147.911 157.012 147.604 157.01 146.992L156.989 140.098L155.747 140.102L156.027 137.635L160.365 137.621L160.395 147.233C160.398 148.145 160.136 148.896 159.61 149.486C159.084 150.075 158.251 150.372 157.111 150.375ZM166.629 146.314C164.925 146.319 163.664 145.945 162.846 145.192C162.04 144.438 161.634 143.335 161.63 141.883C161.625 140.443 162.03 139.344 162.843 138.585C163.657 137.815 164.91 137.427 166.602 137.422C168.306 137.416 169.567 137.797 170.385 138.562C171.216 139.315 171.633 140.412 171.638 141.852C171.642 143.304 171.238 144.409 170.424 145.168C169.61 145.926 168.345 146.308 166.629 146.314ZM166.622 143.848C167.174 143.846 167.569 143.689 167.808 143.376C168.059 143.063 168.184 142.559 168.182 141.863C168.179 141.179 168.052 140.681 167.799 140.37C167.558 140.047 167.161 139.886 166.609 139.888C166.069 139.889 165.68 140.053 165.441 140.377C165.202 140.69 165.083 141.189 165.086 141.873C165.088 142.569 165.209 143.072 165.45 143.383C165.691 143.695 166.082 143.849 166.622 143.848ZM173.131 136.447L173.124 133.999L176.778 133.988L176.785 136.436L173.131 136.447ZM173.431 146.113L173.412 140.047L172.17 140.05L172.451 137.584L176.789 137.57L176.815 146.102L173.431 146.113ZM178.438 146.097L178.412 137.565L181.58 137.555L181.672 138.203C181.995 137.986 182.42 137.793 182.948 137.623C183.487 137.453 184.063 137.367 184.675 137.366C185.743 137.362 186.524 137.624 187.018 138.15C187.511 138.677 187.76 139.492 187.763 140.596L187.78 146.068L184.396 146.078L184.38 140.948C184.379 140.564 184.294 140.289 184.126 140.121C183.957 139.954 183.663 139.871 183.243 139.872C182.991 139.873 182.727 139.934 182.452 140.054C182.188 140.175 181.972 140.32 181.805 140.488L181.822 146.086L178.438 146.097ZM193.895 146.229C192.899 146.232 192.016 146.073 191.247 145.751C190.49 145.417 189.895 144.921 189.46 144.263C189.038 143.604 188.826 142.789 188.823 141.817C188.819 140.461 189.199 139.379 189.965 138.573C190.73 137.755 191.875 137.343 193.399 137.338C194.791 137.334 195.878 137.685 196.66 138.39C197.454 139.096 197.853 140.061 197.857 141.285L197.862 142.779L191.94 142.797C192.097 143.252 192.404 143.576 192.861 143.766C193.318 143.957 193.936 144.051 194.716 144.048C195.208 144.047 195.7 144.003 196.191 143.918C196.695 143.82 197.097 143.711 197.396 143.59L197.403 145.624C196.564 146.023 195.395 146.224 193.895 146.229ZM191.934 140.961L194.94 140.952L194.939 140.646C194.938 140.31 194.829 140.034 194.613 139.819C194.408 139.603 194.042 139.496 193.514 139.498C192.926 139.5 192.512 139.627 192.273 139.88C192.046 140.121 191.933 140.481 191.934 140.961ZM202.746 146.201C201.942 146.204 201.24 146.074 200.639 145.812C200.05 145.538 199.587 145.095 199.249 144.484C198.923 143.873 198.758 143.058 198.755 142.038C198.752 140.994 198.935 140.123 199.305 139.426C199.675 138.729 200.171 138.205 200.794 137.855C201.417 137.493 202.095 137.311 202.827 137.309C203.223 137.308 203.613 137.349 203.997 137.431C204.393 137.514 204.736 137.633 205.024 137.788L205.012 133.882L208.396 133.872L208.434 146.004L205.5 146.013L205.336 145.347C205 145.612 204.623 145.824 204.204 145.981C203.796 146.126 203.31 146.2 202.746 146.201ZM203.711 143.75C204.227 143.749 204.67 143.573 205.041 143.224L205.032 140.2C204.695 139.901 204.25 139.753 203.698 139.754C203.254 139.756 202.895 139.955 202.62 140.352C202.345 140.749 202.209 141.313 202.211 142.045C202.214 142.765 202.335 143.233 202.576 143.448C202.816 143.651 203.195 143.752 203.711 143.75ZM217.407 146.156C216.267 146.159 215.438 145.874 214.92 145.299C214.403 144.725 214.142 143.946 214.139 142.962L214.13 139.956L213.014 139.959L213.006 137.457L214.122 137.454L214.117 135.708L217.498 134.887L217.506 137.443L219.468 137.437L219.35 139.94L217.514 139.945L217.522 142.699C217.524 143.059 217.614 143.317 217.795 143.473C217.975 143.616 218.251 143.687 218.623 143.686C218.971 143.685 219.325 143.624 219.685 143.503L219.692 145.753C219.057 146.019 218.295 146.153 217.407 146.156ZM220.59 145.966L220.553 133.834L223.937 133.823L223.95 137.945C224.249 137.74 224.62 137.571 225.064 137.438C225.52 137.304 226.005 137.237 226.521 137.235C227.697 137.232 228.556 137.505 229.098 138.055C229.64 138.594 229.912 139.433 229.916 140.573L229.932 145.937L226.53 145.947L226.515 140.835C226.513 140.439 226.428 140.158 226.26 139.99C226.103 139.823 225.815 139.74 225.395 139.741C225.143 139.742 224.879 139.802 224.604 139.923C224.34 140.044 224.124 140.189 223.957 140.357L223.974 145.955L220.59 145.966ZM236.047 146.098C235.051 146.101 234.168 145.942 233.399 145.62C232.642 145.286 232.047 144.79 231.613 144.132C231.191 143.473 230.978 142.658 230.975 141.686C230.971 140.33 231.351 139.248 232.117 138.442C232.882 137.624 234.027 137.212 235.551 137.207C236.943 137.203 238.03 137.554 238.812 138.259C239.607 138.965 240.006 139.929 240.009 141.153L240.014 142.647L234.092 142.666C234.249 143.121 234.556 143.444 235.013 143.635C235.47 143.826 236.088 143.92 236.868 143.917C237.36 143.916 237.852 143.872 238.344 143.787C238.847 143.689 239.249 143.58 239.549 143.459L239.555 145.493C238.716 145.891 237.547 146.093 236.047 146.098ZM234.086 140.83L237.092 140.82L237.091 140.514C237.09 140.178 236.981 139.903 236.765 139.687C236.56 139.472 236.194 139.365 235.666 139.367C235.078 139.369 234.664 139.496 234.425 139.749C234.198 139.989 234.085 140.35 234.086 140.83ZM50.6306 171.675C48.9266 171.68 47.6655 171.306 46.8471 170.553C46.0408 169.799 45.6353 168.696 45.6308 167.244C45.6263 165.804 46.0309 164.705 46.8446 163.947C47.6582 163.176 48.911 162.788 50.603 162.783C52.3069 162.778 53.5681 163.158 54.3865 163.923C55.2169 164.677 55.6343 165.773 55.6388 167.213C55.6433 168.665 55.2387 169.77 54.4251 170.529C53.6114 171.288 52.3466 171.669 50.6306 171.675ZM50.623 169.209C51.175 169.207 51.5705 169.05 51.8095 168.737C52.0605 168.424 52.185 167.92 52.1828 167.224C52.1807 166.54 52.0531 166.042 51.8001 165.731C51.5591 165.408 51.1626 165.247 50.6106 165.249C50.0706 165.251 49.6811 165.414 49.4421 165.738C49.2031 166.051 49.0847 166.55 49.0868 167.234C49.089 167.93 49.2105 168.433 49.4515 168.744C49.6925 169.056 50.083 169.211 50.623 169.209ZM57.388 171.474L57.3693 165.444L56.2713 165.447L56.2635 162.945L57.3615 162.942L57.3598 162.384C57.3568 161.424 57.6303 160.631 58.1804 160.005C58.7304 159.368 59.5574 159.047 60.6614 159.044C61.1294 159.042 61.5435 159.077 61.9037 159.148C62.2759 159.219 62.6243 159.319 62.9487 159.45L62.9555 161.646C62.7753 161.587 62.5952 161.54 62.415 161.504C62.2469 161.469 62.0669 161.451 61.8749 161.452C61.4429 161.453 61.1431 161.532 60.9756 161.689C60.8201 161.845 60.7429 162.097 60.744 162.445L60.7455 162.931L62.7615 162.925L62.6253 165.427L60.7533 165.433L60.772 171.463L57.388 171.474ZM63.591 171.454L63.5722 165.425L62.4742 165.428L62.4664 162.926L63.5644 162.923L63.5629 162.419C63.5609 161.795 63.6972 161.23 63.9716 160.725C64.246 160.208 64.6467 159.799 65.1738 159.498C65.7128 159.184 66.3663 159.026 67.1343 159.023C68.0103 159.021 68.8087 159.132 69.5294 159.358L72.0134 159.35L72.0509 171.428L68.667 171.439L68.6482 165.409L66.9562 165.414L66.975 171.444L63.591 171.454ZM66.9304 162.912L68.6764 162.907L68.6721 161.521C68.588 161.497 68.462 161.479 68.2939 161.468C68.1379 161.456 67.9999 161.457 67.8799 161.469C67.2441 161.519 66.9271 161.856 66.9291 162.48L66.9304 162.912ZM74.2358 161.755L74.2282 159.307L77.8822 159.296L77.8898 161.744L74.2358 161.755ZM74.5359 171.42L74.517 165.354L73.275 165.358L73.5554 162.891L77.8933 162.878L77.9199 171.41L74.5359 171.42ZM79.543 171.405L79.5164 162.873L82.6844 162.863L82.7764 163.511C83.0998 163.294 83.5252 163.1 84.0526 162.931C84.5921 162.761 85.1678 162.675 85.7798 162.673C86.8478 162.67 87.6287 162.932 88.1223 163.458C88.6159 163.985 88.8645 164.8 88.8679 165.904L88.8849 171.376L85.501 171.386L85.485 166.256C85.4838 165.872 85.3989 165.597 85.2304 165.429C85.0619 165.262 84.7676 165.179 84.3476 165.18C84.0956 165.181 83.8318 165.241 83.5562 165.362C83.2926 165.483 83.077 165.628 82.9095 165.796L82.927 171.394L79.543 171.405ZM94.9993 171.537C94.0033 171.54 93.1208 171.381 92.3518 171.059C91.5947 170.725 90.9992 170.229 90.5651 169.571C90.1431 168.912 89.9305 168.097 89.9275 167.125C89.9233 165.769 90.3039 164.687 91.0694 163.881C91.8349 163.063 92.9796 162.651 94.5036 162.646C95.8956 162.642 96.9827 162.993 97.7649 163.698C98.5591 164.404 98.9581 165.368 98.9619 166.592L98.9666 168.086L93.0446 168.105C93.202 168.56 93.509 168.883 93.9656 169.074C94.4222 169.265 95.0405 169.359 95.8205 169.356C96.3125 169.355 96.8044 169.311 97.2961 169.226C97.7998 169.128 98.2015 169.019 98.5011 168.898L98.5074 170.932C97.6686 171.33 96.4993 171.532 94.9993 171.537ZM93.0389 166.269L96.0449 166.259L96.0439 165.953C96.0429 165.617 95.934 165.342 95.7173 165.126C95.5127 164.911 95.1463 164.804 94.6183 164.806C94.0303 164.808 93.6167 164.935 93.3775 165.188C93.1503 165.428 93.0374 165.789 93.0389 166.269ZM103.924 171.329L103.886 159.197L107.27 159.187L107.283 163.308C107.582 163.104 107.954 162.934 108.397 162.801C108.853 162.668 109.339 162.6 109.855 162.598C111.031 162.595 111.889 162.868 112.431 163.418C112.973 163.957 113.245 164.796 113.249 165.936L113.266 171.3L109.864 171.311L109.848 166.199C109.847 165.803 109.762 165.521 109.593 165.353C109.437 165.186 109.148 165.103 108.728 165.104C108.476 165.105 108.213 165.166 107.937 165.286C107.673 165.407 107.458 165.552 107.29 165.72L107.308 171.318L103.924 171.329ZM117.188 171.468C116.648 171.469 116.144 171.375 115.675 171.184C115.218 170.994 114.851 170.695 114.574 170.288C114.297 169.881 114.157 169.365 114.155 168.741C114.153 167.841 114.45 167.144 115.049 166.65C115.647 166.144 116.552 165.89 117.764 165.886L119.978 165.879L119.978 165.717C119.977 165.381 119.838 165.135 119.562 164.98C119.285 164.825 118.799 164.749 118.103 164.751C117.119 164.754 116.147 164.907 115.188 165.21L115.182 163.176C115.613 163.007 116.153 162.867 116.801 162.757C117.448 162.635 118.108 162.573 118.78 162.571C120.136 162.566 121.211 162.839 122.005 163.389C122.798 163.938 123.197 164.813 123.201 166.013L123.217 171.269L120.265 171.278L120.101 170.595C119.802 170.86 119.413 171.071 118.933 171.228C118.466 171.386 117.884 171.466 117.188 171.468ZM118.334 169.484C118.718 169.483 119.041 169.416 119.305 169.283C119.581 169.15 119.808 168.988 119.988 168.795L119.984 167.733L118.346 167.738C117.602 167.74 117.231 168.036 117.233 168.624C117.235 169.2 117.602 169.486 118.334 169.484ZM129.416 171.43C127.868 171.434 126.643 171.072 125.741 170.343C124.839 169.602 124.385 168.487 124.38 166.999C124.377 165.991 124.585 165.157 125.003 164.495C125.421 163.834 126.007 163.346 126.762 163.032C127.517 162.706 128.399 162.541 129.407 162.538C130.043 162.536 130.613 162.582 131.117 162.676C131.621 162.759 132.102 162.907 132.558 163.122L132.566 165.498C131.857 165.164 131.052 164.999 130.152 165.001C129.384 165.004 128.803 165.15 128.408 165.439C128.024 165.728 127.834 166.245 127.836 166.989C127.839 167.685 128.026 168.188 128.399 168.499C128.772 168.81 129.361 168.964 130.165 168.961C130.597 168.96 131.016 168.911 131.424 168.813C131.832 168.704 132.221 168.553 132.593 168.36L132.6 170.844C132.145 171.049 131.654 171.195 131.126 171.28C130.61 171.378 130.04 171.428 129.416 171.43ZM133.859 171.236L133.821 159.104L137.205 159.093L137.224 165.087L139.593 162.686L143.427 162.674L140.036 166.285L143.651 171.205L140.051 171.217L137.935 168.055L137.235 168.759L137.243 171.225L133.859 171.236ZM146.508 171.376C145.968 171.378 145.464 171.284 144.995 171.093C144.539 170.903 144.172 170.604 143.894 170.197C143.617 169.789 143.477 169.274 143.475 168.65C143.473 167.75 143.771 167.053 144.369 166.559C144.967 166.053 145.873 165.798 147.085 165.795L149.299 165.788L149.298 165.626C149.297 165.29 149.158 165.044 148.882 164.889C148.605 164.734 148.119 164.657 147.423 164.66C146.439 164.663 145.468 164.816 144.509 165.119L144.502 163.085C144.934 162.915 145.473 162.776 146.121 162.666C146.769 162.544 147.428 162.482 148.1 162.479C149.456 162.475 150.531 162.748 151.325 163.297C152.119 163.847 152.517 164.722 152.521 165.922L152.537 171.178L149.585 171.187L149.421 170.503C149.122 170.768 148.733 170.98 148.253 171.137C147.786 171.295 147.204 171.374 146.508 171.376ZM147.654 169.393C148.038 169.392 148.362 169.325 148.625 169.192C148.901 169.059 149.128 168.896 149.308 168.704L149.304 167.642L147.666 167.647C146.922 167.649 146.551 167.944 146.553 168.532C146.555 169.108 146.922 169.395 147.654 169.393ZM157.728 171.342C156.588 171.345 155.76 171.06 155.242 170.485C154.724 169.911 154.464 169.132 154.46 168.148L154.451 165.142L153.335 165.145L153.327 162.643L154.443 162.64L154.438 160.894L157.819 160.073L157.827 162.629L159.789 162.623L159.671 165.125L157.835 165.131L157.844 167.885C157.845 168.245 157.936 168.503 158.116 168.658C158.297 168.802 158.573 168.873 158.945 168.872C159.293 168.871 159.647 168.81 160.006 168.688L160.013 170.938C159.378 171.204 158.616 171.339 157.728 171.342ZM160.912 171.152L160.874 159.02L164.258 159.009L164.271 163.131C164.57 162.926 164.942 162.757 165.385 162.624C165.841 162.49 166.327 162.423 166.843 162.421C168.019 162.418 168.877 162.691 169.419 163.241C169.961 163.779 170.233 164.619 170.237 165.759L170.254 171.123L166.852 171.133L166.836 166.021C166.835 165.625 166.75 165.343 166.581 165.176C166.425 165.008 166.136 164.925 165.716 164.927C165.464 164.927 165.201 164.988 164.925 165.109C164.661 165.23 164.446 165.375 164.278 165.543L164.296 171.141L160.912 171.152ZM176.296 171.284C174.592 171.289 173.331 170.915 172.512 170.162C171.706 169.408 171.301 168.305 171.296 166.853C171.292 165.413 171.696 164.314 172.51 163.556C173.324 162.785 174.576 162.397 176.268 162.392C177.972 162.387 179.234 162.767 180.052 163.532C180.882 164.285 181.3 165.382 181.304 166.822C181.309 168.274 180.904 169.379 180.09 170.138C179.277 170.897 178.012 171.278 176.296 171.284ZM176.288 168.818C176.84 168.816 177.236 168.659 177.475 168.346C177.726 168.033 177.85 167.529 177.848 166.833C177.846 166.149 177.718 165.651 177.466 165.34C177.225 165.017 176.828 164.856 176.276 164.858C175.736 164.86 175.347 165.023 175.108 165.347C174.868 165.66 174.75 166.159 174.752 166.843C174.754 167.539 174.876 168.042 175.117 168.353C175.358 168.665 175.748 168.819 176.288 168.818ZM182.585 171.084L182.559 162.552L185.727 162.542L185.819 163.19C186.142 162.973 186.568 162.78 187.095 162.61C187.635 162.44 188.21 162.355 188.822 162.353C189.89 162.349 190.671 162.611 191.165 163.137C191.658 163.664 191.907 164.479 191.91 165.583L191.927 171.055L188.543 171.066L188.527 165.936C188.526 165.552 188.441 165.276 188.273 165.108C188.104 164.941 187.81 164.858 187.39 164.859C187.138 164.86 186.874 164.921 186.599 165.042C186.335 165.163 186.119 165.307 185.952 165.476L185.969 171.074L182.585 171.084ZM193.258 167.739L193.134 162.573L193.125 159.459L196.509 159.449L196.518 162.563L196.426 167.729L193.258 167.739ZM193.089 171.052L193.081 168.658L196.609 168.647L196.617 171.041L193.089 171.052Z" fill="#9D00F7"/>
</svg>
