<svg width="242" height="179" viewBox="0 0 242 179" fill="none" xmlns="http://www.w3.org/2000/svg">
<mask id="path-1-outside-1_1067_31637" maskUnits="userSpaceOnUse" x="53.0495" y="16.1623" width="136.164" height="53.4229" fill="black">
<rect fill="white" x="53.0495" y="16.1623" width="136.164" height="53.4229"/>
<path d="M60.7415 61.5618L60.7243 56.0322C61.8319 54.1088 63.0937 52.3769 64.5097 50.8364C65.964 49.2575 67.6102 47.6396 69.4483 45.9827C70.9418 44.6724 72.148 43.5742 73.0668 42.6882C74.0241 41.802 74.7128 40.9934 75.1329 40.2625C75.5913 39.4931 75.8191 38.6668 75.8164 37.7836C75.8093 35.518 74.2506 34.3901 71.1402 34.3997C69.489 34.4049 67.8576 34.6019 66.246 34.991C64.6729 35.3799 63.196 35.8837 61.8155 36.5024L61.7831 26.0768C63.3939 25.419 65.293 24.8947 67.4806 24.5039C69.7065 24.0745 71.9906 23.8562 74.333 23.8489C79.0946 23.8341 82.6308 24.9367 84.9418 27.1568C87.291 29.3383 88.4712 32.2338 88.4824 35.8434C88.4875 37.4946 88.3 38.9352 87.9199 40.1651C87.5396 41.3567 86.9478 42.4722 86.1447 43.5115C85.3414 44.5124 84.2696 45.6101 82.9293 46.8047C81.9719 47.6525 80.9571 48.5389 79.8847 49.4638C78.8508 50.3886 78.0663 51.2551 77.5312 52.0631L88.8208 52.028L88.8502 61.4744L60.7415 61.5618ZM106.321 61.42L106.301 54.8536L90.0002 54.9043L89.9754 46.9556L107.934 24.3204L118.59 24.2872L118.654 44.8503L121.879 44.8403L121.91 54.8051L118.685 54.8151L118.705 61.3815L106.321 61.42ZM101.894 45.4209L108.518 45.4003L108.494 37.6819L101.894 45.4209ZM135.74 61.9045C134.665 61.9078 133.32 61.816 131.707 61.629C130.132 61.4803 128.557 61.2548 126.982 60.9525C125.406 60.6118 124.099 60.2319 123.061 59.8127L123.032 50.2511C124.724 51.0139 126.53 51.5651 128.451 51.9047C130.411 52.2442 132.158 52.4116 133.694 52.4068C135.576 52.4009 136.977 52.1854 137.897 51.7601C138.817 51.2964 139.276 50.4694 139.272 49.279C139.266 47.551 137.862 46.6914 135.059 46.7001L128.55 46.7204L129.274 38.7117L134.689 38.6948C136.109 38.6904 137.107 38.4761 137.682 38.0519C138.295 37.5892 138.6 36.8778 138.597 35.9178C138.594 35.0346 138.169 34.364 137.323 33.9058C136.477 33.4476 135.132 33.2214 133.289 33.2271C131.523 33.2326 129.757 33.4493 127.992 33.8772C126.227 34.2667 124.731 34.7898 123.504 35.4464L123.474 25.8848C125.008 25.2657 126.869 24.7415 129.057 24.3123C131.244 23.8831 133.451 23.665 135.679 23.6581C138.943 23.6479 141.728 24.1192 144.035 25.0721C146.342 26.0249 148.112 27.325 149.346 28.9724C150.58 30.5813 151.2 32.4418 151.207 34.5538C151.218 38.0866 150.074 40.7973 147.776 42.6861C149.084 43.2964 150.104 44.2341 150.838 45.499C151.571 46.7255 151.941 48.2988 151.947 50.2188C151.955 52.9068 151.252 55.117 149.836 56.8494C148.421 58.5818 146.486 59.855 144.031 60.669C141.614 61.483 138.85 61.8948 135.74 61.9045ZM155.725 61.2663L167.331 33.582L153.623 33.6247L153.593 24.1783L181.299 24.0921L181.321 31.0617L168.627 61.2261L155.725 61.2663Z"/>
</mask>
<path d="M60.7415 61.5618L60.7243 56.0322C61.8319 54.1088 63.0937 52.3769 64.5097 50.8364C65.964 49.2575 67.6102 47.6396 69.4483 45.9827C70.9418 44.6724 72.148 43.5742 73.0668 42.6882C74.0241 41.802 74.7128 40.9934 75.1329 40.2625C75.5913 39.4931 75.8191 38.6668 75.8164 37.7836C75.8093 35.518 74.2506 34.3901 71.1402 34.3997C69.489 34.4049 67.8576 34.6019 66.246 34.991C64.6729 35.3799 63.196 35.8837 61.8155 36.5024L61.7831 26.0768C63.3939 25.419 65.293 24.8947 67.4806 24.5039C69.7065 24.0745 71.9906 23.8562 74.333 23.8489C79.0946 23.8341 82.6308 24.9367 84.9418 27.1568C87.291 29.3383 88.4712 32.2338 88.4824 35.8434C88.4875 37.4946 88.3 38.9352 87.9199 40.1651C87.5396 41.3567 86.9478 42.4722 86.1447 43.5115C85.3414 44.5124 84.2696 45.6101 82.9293 46.8047C81.9719 47.6525 80.9571 48.5389 79.8847 49.4638C78.8508 50.3886 78.0663 51.2551 77.5312 52.0631L88.8208 52.028L88.8502 61.4744L60.7415 61.5618ZM106.321 61.42L106.301 54.8536L90.0002 54.9043L89.9754 46.9556L107.934 24.3204L118.59 24.2872L118.654 44.8503L121.879 44.8403L121.91 54.8051L118.685 54.8151L118.705 61.3815L106.321 61.42ZM101.894 45.4209L108.518 45.4003L108.494 37.6819L101.894 45.4209ZM135.74 61.9045C134.665 61.9078 133.32 61.816 131.707 61.629C130.132 61.4803 128.557 61.2548 126.982 60.9525C125.406 60.6118 124.099 60.2319 123.061 59.8127L123.032 50.2511C124.724 51.0139 126.53 51.5651 128.451 51.9047C130.411 52.2442 132.158 52.4116 133.694 52.4068C135.576 52.4009 136.977 52.1854 137.897 51.7601C138.817 51.2964 139.276 50.4694 139.272 49.279C139.266 47.551 137.862 46.6914 135.059 46.7001L128.55 46.7204L129.274 38.7117L134.689 38.6948C136.109 38.6904 137.107 38.4761 137.682 38.0519C138.295 37.5892 138.6 36.8778 138.597 35.9178C138.594 35.0346 138.169 34.364 137.323 33.9058C136.477 33.4476 135.132 33.2214 133.289 33.2271C131.523 33.2326 129.757 33.4493 127.992 33.8772C126.227 34.2667 124.731 34.7898 123.504 35.4464L123.474 25.8848C125.008 25.2657 126.869 24.7415 129.057 24.3123C131.244 23.8831 133.451 23.665 135.679 23.6581C138.943 23.6479 141.728 24.1192 144.035 25.0721C146.342 26.0249 148.112 27.325 149.346 28.9724C150.58 30.5813 151.2 32.4418 151.207 34.5538C151.218 38.0866 150.074 40.7973 147.776 42.6861C149.084 43.2964 150.104 44.2341 150.838 45.499C151.571 46.7255 151.941 48.2988 151.947 50.2188C151.955 52.9068 151.252 55.117 149.836 56.8494C148.421 58.5818 146.486 59.855 144.031 60.669C141.614 61.483 138.85 61.8948 135.74 61.9045ZM155.725 61.2663L167.331 33.582L153.623 33.6247L153.593 24.1783L181.299 24.0921L181.321 31.0617L168.627 61.2261L155.725 61.2663Z" fill="white"/>
<path d="M60.7415 61.5618L53.7415 61.5836L53.7633 68.5836L60.7633 68.5618L60.7415 61.5618ZM60.7243 56.0322L54.6582 52.5391L53.7185 54.1709L53.7243 56.054L60.7243 56.0322ZM64.5097 50.8364L59.3609 46.0941L59.3563 46.0992L64.5097 50.8364ZM69.4483 45.9826L64.8319 40.7206L64.7964 40.7517L64.7613 40.7834L69.4483 45.9826ZM73.0668 42.6882L68.3114 37.5514L68.2591 37.5999L68.2078 37.6494L73.0668 42.6882ZM75.1329 40.2625L69.1193 36.6798L69.0913 36.7267L69.064 36.7741L75.1329 40.2625ZM66.2461 34.991L64.6035 28.1864L64.5849 28.1909L64.5662 28.1955L66.2461 34.991ZM61.8155 36.5024L54.8156 36.5241L54.8491 47.2954L64.6784 42.8902L61.8155 36.5024ZM61.7831 26.0768L59.1366 19.5964L54.7684 21.3803L54.7831 26.0986L61.7831 26.0768ZM67.4806 24.5039L68.7117 31.3948L68.7591 31.3863L68.8064 31.3772L67.4806 24.5039ZM84.9418 27.1568L80.0923 32.2048L80.135 32.2459L80.1785 32.2862L84.9418 27.1568ZM87.9199 40.1651L94.5885 42.2934L94.5982 42.2629L94.6077 42.2323L87.9199 40.1651ZM86.1447 43.5115L91.6039 47.8929L91.6442 47.8427L91.6835 47.7919L86.1447 43.5115ZM82.9293 46.8047L87.57 52.0453L87.5784 52.0378L87.5868 52.0304L82.9293 46.8047ZM79.8847 49.4638L75.3127 44.1632L75.2649 44.2044L75.2179 44.2464L79.8847 49.4638ZM77.5312 52.0631L71.6948 48.1984L64.4734 59.1038L77.553 59.0631L77.5312 52.0631ZM88.8208 52.028L95.8207 52.0062L95.799 45.0062L88.799 45.028L88.8208 52.028ZM88.8502 61.4744L88.8719 68.4743L95.8719 68.4525L95.8501 61.4526L88.8502 61.4744ZM60.7415 61.5618L67.7415 61.54L67.7243 56.0105L60.7243 56.0322L53.7243 56.054L53.7415 61.5836L60.7415 61.5618ZM60.7243 56.0322L66.7904 59.5254C67.6561 58.022 68.6168 56.712 69.6632 55.5737L64.5097 50.8364L59.3563 46.0992C57.5707 48.0417 56.0077 50.1956 54.6582 52.5391L60.7243 56.0322ZM64.5097 50.8364L69.6585 55.5788C70.9459 54.1811 72.4344 52.7151 74.1352 51.1819L69.4483 45.9826L64.7613 40.7834C62.786 42.564 60.9822 44.3339 59.361 46.0941L64.5097 50.8364ZM69.4483 45.9826L74.0646 51.2447C75.6009 49.897 76.8972 48.719 77.9259 47.727L73.0668 42.6882L68.2078 37.6494C67.3988 38.4295 66.2827 39.4478 64.8319 40.7206L69.4483 45.9826ZM73.0668 42.6882L77.8222 47.8249C79.0471 46.691 80.2922 45.3334 81.2018 43.7509L75.1329 40.2625L69.064 36.7741C69.1145 36.6863 69.1065 36.7207 68.9723 36.8781C68.8421 37.031 68.631 37.2556 68.3114 37.5514L73.0668 42.6882ZM75.1329 40.2625L81.1465 43.8453C82.2447 42.0021 82.8231 39.9324 82.8164 37.7618L75.8164 37.7836L68.8164 37.8054C68.8159 37.6304 68.8392 37.4236 68.8994 37.2051C68.9594 36.9873 69.042 36.8094 69.1193 36.6798L75.1329 40.2625ZM75.8164 37.7836L82.8164 37.7618C82.8073 34.8429 81.6753 31.6874 78.7458 29.5675C76.2297 27.7468 73.3155 27.3929 71.1185 27.3998L71.1402 34.3997L71.162 41.3997C72.0753 41.3969 71.4957 41.6021 70.5383 40.9094C69.9848 40.5088 69.4871 39.9303 69.1641 39.2304C68.859 38.569 68.8171 38.0348 68.8164 37.8054L75.8164 37.7836ZM71.1402 34.3997L71.1185 27.3998C68.919 27.4066 66.7437 27.6698 64.6035 28.1864L66.2461 34.991L67.8886 41.7955C68.9716 41.5341 70.0591 41.4031 71.162 41.3997L71.1402 34.3997ZM66.2461 34.991L64.5662 28.1955C62.6159 28.6776 60.7405 29.3133 58.9527 30.1146L61.8155 36.5024L64.6784 42.8902C65.6516 42.454 66.7299 42.0821 67.9259 41.7864L66.2461 34.991ZM61.8155 36.5024L68.8155 36.4806L68.7831 26.055L61.7831 26.0768L54.7831 26.0986L54.8156 36.5241L61.8155 36.5024ZM61.7831 26.0768L64.4296 32.5572C65.4792 32.1286 66.8827 31.7215 68.7117 31.3948L67.4806 24.5039L66.2496 17.613C63.7033 18.0679 61.3085 18.7094 59.1366 19.5964L61.7831 26.0768ZM67.4806 24.5039L68.8064 31.3772C70.5884 31.0335 72.4355 30.8549 74.3548 30.8489L74.333 23.8489L74.3112 16.849C71.5457 16.8576 68.8246 17.1156 66.1549 17.6306L67.4806 24.5039ZM74.333 23.8489L74.3548 30.8489C78.1715 30.837 79.6067 31.7383 80.0923 32.2048L84.9418 27.1568L89.7912 22.1087C85.6549 18.1351 80.0177 16.8312 74.3112 16.849L74.333 23.8489ZM84.9418 27.1568L80.1785 32.2862C80.9209 32.9756 81.4764 33.925 81.4824 35.8652L88.4824 35.8434L95.4824 35.8216C95.466 30.5425 93.661 25.7009 89.705 22.0273L84.9418 27.1568ZM88.4824 35.8434L81.4824 35.8652C81.486 36.9977 81.3537 37.7044 81.232 38.098L87.9199 40.1651L94.6077 42.2323C95.2464 40.1659 95.4891 37.9915 95.4824 35.8216L88.4824 35.8434ZM87.9199 40.1651L81.2512 38.0369C81.1314 38.4123 80.9351 38.8051 80.6058 39.2311L86.1447 43.5115L91.6835 47.7919C92.9606 46.1393 93.9477 44.3012 94.5885 42.2934L87.9199 40.1651ZM86.1447 43.5115L80.6854 39.1301C80.2 39.7349 79.4269 40.5495 78.2718 41.5791L82.9293 46.8047L87.5868 52.0304C89.1122 50.6708 90.4827 49.2899 91.6039 47.8929L86.1447 43.5115ZM82.9293 46.8047L78.2886 41.5641C77.3562 42.3898 76.3644 43.256 75.3127 44.1632L79.8847 49.4638L84.4568 54.7644C85.5497 53.8217 86.5876 52.9152 87.57 52.0453L82.9293 46.8047ZM79.8847 49.4638L75.2179 44.2464C73.9123 45.4143 72.6685 46.728 71.6948 48.1984L77.5312 52.0631L83.3676 55.9279C83.4641 55.7821 83.7893 55.363 84.5516 54.6812L79.8847 49.4638ZM77.5312 52.0631L77.553 59.0631L88.8425 59.028L88.8208 52.028L88.799 45.028L77.5094 45.0632L77.5312 52.0631ZM88.8208 52.028L81.8208 52.0498L81.8502 61.4961L88.8502 61.4744L95.8501 61.4526L95.8207 52.0062L88.8208 52.028ZM88.8502 61.4744L88.8284 54.4744L60.7197 54.5618L60.7415 61.5618L60.7633 68.5618L88.8719 68.4743L88.8502 61.4744ZM106.321 61.42L99.3214 61.4418L99.3431 68.4417L106.343 68.42L106.321 61.42ZM106.301 54.8536L113.301 54.8318L113.279 47.8319L106.279 47.8537L106.301 54.8536ZM90.0002 54.9043L83.0002 54.9261L83.022 61.9261L90.022 61.9043L90.0002 54.9043ZM89.9754 46.9556L84.4917 42.6049L82.9678 44.5256L82.9755 46.9774L89.9754 46.9556ZM107.934 24.3204L107.912 17.3204L104.544 17.3309L102.45 19.9697L107.934 24.3204ZM118.59 24.2872L125.59 24.2655L125.568 17.2655L118.568 17.2873L118.59 24.2872ZM118.654 44.8503L111.654 44.8721L111.676 51.8721L118.676 51.8503L118.654 44.8503ZM121.879 44.8403L128.879 44.8185L128.858 37.8186L121.858 37.8403L121.879 44.8403ZM121.91 54.8051L121.932 61.805L128.932 61.7832L128.91 54.7833L121.91 54.8051ZM118.685 54.8151L118.663 47.8151L111.663 47.8369L111.685 54.8369L118.685 54.8151ZM118.705 61.3815L118.727 68.3814L125.727 68.3596L125.705 61.3597L118.705 61.3815ZM101.894 45.4209L96.5678 40.8786L86.6839 52.4683L101.916 52.4209L101.894 45.4209ZM108.518 45.4003L108.54 52.4002L115.54 52.3785L115.518 45.3785L108.518 45.4003ZM108.494 37.6819L115.494 37.6601L115.435 18.7553L103.168 33.1397L108.494 37.6819ZM106.321 61.42L113.321 61.3982L113.301 54.8318L106.301 54.8536L99.3009 54.8754L99.3214 61.4418L106.321 61.42ZM106.301 54.8536L106.279 47.8537L89.9784 47.9044L90.0002 54.9043L90.022 61.9043L106.323 61.8536L106.301 54.8536ZM90.0002 54.9043L97.0001 54.8826L96.9754 46.9338L89.9754 46.9556L82.9755 46.9774L83.0002 54.9261L90.0002 54.9043ZM89.9754 46.9556L95.4592 51.3063L113.418 28.6711L107.934 24.3204L102.45 19.9697L84.4917 42.6049L89.9754 46.9556ZM107.934 24.3204L107.956 31.3204L118.612 31.2872L118.59 24.2872L118.568 17.2873L107.912 17.3204L107.934 24.3204ZM118.59 24.2872L111.59 24.309L111.654 44.8721L118.654 44.8503L125.654 44.8286L125.59 24.2655L118.59 24.2872ZM118.654 44.8503L118.676 51.8503L121.901 51.8403L121.879 44.8403L121.858 37.8403L118.632 37.8504L118.654 44.8503ZM121.879 44.8403L114.879 44.8621L114.91 54.8268L121.91 54.8051L128.91 54.7833L128.879 44.8185L121.879 44.8403ZM121.91 54.8051L121.889 47.8051L118.663 47.8151L118.685 54.8151L118.707 61.8151L121.932 61.805L121.91 54.8051ZM118.685 54.8151L111.685 54.8369L111.705 61.4032L118.705 61.3815L125.705 61.3597L125.685 54.7933L118.685 54.8151ZM118.705 61.3815L118.683 54.3815L106.3 54.42L106.321 61.42L106.343 68.42L118.727 68.3814L118.705 61.3815ZM101.894 45.4209L101.916 52.4209L108.54 52.4002L108.518 45.4003L108.496 38.4003L101.872 38.4209L101.894 45.4209ZM108.518 45.4003L115.518 45.3785L115.494 37.6601L108.494 37.6819L101.494 37.7037L101.518 45.4221L108.518 45.4003ZM108.494 37.6819L103.168 33.1397L96.5678 40.8786L101.894 45.4209L107.22 49.9631L113.82 42.2242L108.494 37.6819ZM131.707 61.629L132.513 54.6755L132.439 54.667L132.365 54.66L131.707 61.629ZM126.982 60.9525L125.502 67.7944L125.582 67.8116L125.663 67.8271L126.982 60.9525ZM123.061 59.8127L116.061 59.8345L116.076 64.5412L120.44 66.3035L123.061 59.8127ZM123.032 50.2511L125.908 43.8696L115.998 39.4019L116.032 50.2729L123.032 50.2511ZM128.451 51.9047L127.233 58.7978L127.244 58.7999L127.256 58.8019L128.451 51.9047ZM137.897 51.7601L140.834 58.1144L140.941 58.0647L141.047 58.0113L137.897 51.7601ZM128.55 46.7204L121.579 46.0902L120.887 53.7442L128.572 53.7203L128.55 46.7204ZM129.274 38.7117L129.252 31.7117L122.877 31.7315L122.303 38.0815L129.274 38.7117ZM137.682 38.0519L141.839 43.6838L141.869 43.6615L141.899 43.6388L137.682 38.0519ZM137.323 33.9058L133.99 40.0615L137.323 33.9058ZM127.992 33.8772L129.5 40.7128L129.571 40.6972L129.641 40.6802L127.992 33.8772ZM123.504 35.4464L116.504 35.4682L116.54 47.1134L126.807 41.618L123.504 35.4464ZM123.474 25.8848L120.854 19.3936L116.459 21.1674L116.474 25.9066L123.474 25.8848ZM129.057 24.3123L130.404 31.1813L129.057 24.3123ZM144.035 25.0721L141.363 31.542L141.363 31.542L144.035 25.0721ZM149.346 28.9724L143.744 33.1689L143.767 33.2006L143.792 33.232L149.346 28.9724ZM147.776 42.6861L143.332 37.2782L134.75 44.3308L144.815 49.0291L147.776 42.6861ZM150.838 45.499L144.782 49.0106L144.806 49.0512L144.83 49.0915L150.838 45.499ZM149.836 56.8494L144.415 52.4205L149.836 56.8494ZM144.031 60.6691L141.827 54.0248L141.812 54.0299L141.796 54.0352L144.031 60.6691ZM135.74 61.9045L135.718 54.9045C135.021 54.9067 133.975 54.845 132.513 54.6755L131.707 61.629L130.901 68.5825C132.666 68.787 134.309 68.9089 135.762 68.9044L135.74 61.9045ZM131.707 61.629L132.365 54.66C131.015 54.5325 129.661 54.3388 128.301 54.0779L126.982 60.9525L125.663 67.8271C127.454 68.1708 129.249 68.4281 131.049 68.598L131.707 61.629ZM126.982 60.9525L128.461 54.1107C127.122 53.8209 126.229 53.5425 125.682 53.3219L123.061 59.8127L120.44 66.3035C121.97 66.9212 123.691 67.4027 125.502 67.7944L126.982 60.9525ZM123.061 59.8127L130.061 59.7909L130.032 50.2294L123.032 50.2511L116.032 50.2729L116.061 59.8345L123.061 59.8127ZM123.032 50.2511L120.155 56.6327C122.403 57.6459 124.769 58.3622 127.233 58.7978L128.451 51.9047L129.67 45.0116C128.291 44.7679 127.045 44.3818 125.908 43.8696L123.032 50.2511ZM128.451 51.9047L127.256 58.8019C129.507 59.1919 131.674 59.4131 133.716 59.4067L133.694 52.4068L133.673 45.4068C132.643 45.41 131.314 45.2965 129.646 45.0074L128.451 51.9047ZM133.694 52.4068L133.716 59.4067C135.887 59.4 138.518 59.1844 140.834 58.1144L137.897 51.7601L134.961 45.4057C135.279 45.2588 135.381 45.2776 135.092 45.3221C134.827 45.3629 134.37 45.4046 133.673 45.4068L133.694 52.4068ZM137.897 51.7601L141.047 58.0113C142.645 57.2062 144.082 55.9387 145.054 54.1846C145.993 52.4893 146.276 50.7426 146.272 49.2572L139.272 49.279L132.272 49.3008C132.271 49.0058 132.327 48.2678 132.808 47.3995C133.322 46.4725 134.07 45.8503 134.747 45.5089L137.897 51.7601ZM139.272 49.279L146.272 49.2572C146.262 46.1102 144.764 43.1404 141.869 41.3681C139.532 39.9371 136.931 39.6942 135.037 39.7001L135.059 46.7001L135.081 53.7001C135.443 53.6989 135.565 53.7283 135.512 53.7175C135.466 53.7083 135.082 53.6284 134.56 53.3085C133.991 52.96 133.336 52.3706 132.858 51.4945C132.39 50.6337 132.274 49.8299 132.272 49.3008L139.272 49.279ZM135.059 46.7001L135.037 39.7001L128.528 39.7204L128.55 46.7204L128.572 53.7203L135.081 53.7001L135.059 46.7001ZM128.55 46.7204L135.522 47.3505L136.246 39.3418L129.274 38.7117L122.303 38.0815L121.579 46.0902L128.55 46.7204ZM129.274 38.7117L129.296 45.7116L134.71 45.6948L134.689 38.6948L134.667 31.6948L129.252 31.7117L129.274 38.7117ZM134.689 38.6948L134.71 45.6948C136.388 45.6896 139.356 45.5167 141.839 43.6838L137.682 38.0519L133.525 32.42C133.929 32.1212 134.291 31.9452 134.538 31.845C134.784 31.7448 134.961 31.7021 135.032 31.6869C135.154 31.6607 135.064 31.6936 134.667 31.6948L134.689 38.6948ZM137.682 38.0519L141.899 43.6388C144.707 41.5193 145.605 38.4484 145.597 35.8961L138.597 35.9178L131.597 35.9396C131.596 35.6869 131.634 35.1197 131.937 34.413C132.26 33.6582 132.791 32.9736 133.464 32.465L137.682 38.0519ZM138.597 35.9178L145.597 35.8961C145.592 34.2897 145.186 32.5807 144.191 31.0088C143.216 29.4677 141.909 28.4287 140.656 27.7501L137.323 33.9058L133.99 40.0615C133.583 39.841 132.912 39.3665 132.361 38.4961C131.791 37.5949 131.599 36.6627 131.597 35.9396L138.597 35.9178ZM137.323 33.9058L140.656 27.7501C138.21 26.4257 135.392 26.2206 133.267 26.2272L133.289 33.2271L133.311 40.2271C133.964 40.2251 134.346 40.2665 134.519 40.2955C134.598 40.3088 134.587 40.3121 134.508 40.2873C134.43 40.263 134.243 40.1984 133.99 40.0615L137.323 33.9058ZM133.289 33.2271L133.267 26.2272C130.937 26.2344 128.626 26.5209 126.343 27.0743L127.992 33.8772L129.641 40.6802C130.888 40.3778 132.108 40.2309 133.311 40.2271L133.289 33.2271ZM127.992 33.8772L126.484 27.0417C124.268 27.5304 122.132 28.2411 120.201 29.2748L123.504 35.4464L126.807 41.618C127.329 41.3384 128.185 41.003 129.5 40.7128L127.992 33.8772ZM123.504 35.4464L130.504 35.4246L130.474 25.8631L123.474 25.8848L116.474 25.9066L116.504 35.4682L123.504 35.4464ZM123.474 25.8848L126.094 32.3761C127.104 31.9686 128.513 31.5525 130.404 31.1813L129.057 24.3123L127.709 17.4432C125.225 17.9305 122.913 18.5627 120.854 19.3936L123.474 25.8848ZM129.057 24.3123L130.404 31.1813C132.155 30.8377 133.919 30.6636 135.7 30.658L135.679 23.6581L135.657 16.6581C132.984 16.6664 130.333 16.9284 127.709 17.4432L129.057 24.3123ZM135.679 23.6581L135.7 30.658C138.311 30.6499 140.129 31.0323 141.363 31.542L144.035 25.0721L146.707 18.6022C143.327 17.2062 139.574 16.6459 135.657 16.6581L135.679 23.6581ZM144.035 25.0721L141.363 31.542C142.754 32.1165 143.41 32.7237 143.744 33.1689L149.346 28.9724L154.949 24.7758C152.815 21.9263 149.93 19.9333 146.707 18.6022L144.035 25.0721ZM149.346 28.9724L143.792 33.232C144.052 33.5714 144.205 33.9278 144.207 34.5756L151.207 34.5538L158.207 34.532C158.196 30.9558 157.108 27.5913 154.901 24.7127L149.346 28.9724ZM151.207 34.5538L144.207 34.5756C144.213 36.4446 143.695 36.9792 143.332 37.2782L147.776 42.6861L152.221 48.094C156.453 44.6155 158.223 39.7286 158.207 34.532L151.207 34.5538ZM147.776 42.6861L144.815 49.0291C144.835 49.0383 144.837 49.0409 144.827 49.0343C144.823 49.0312 144.816 49.0268 144.809 49.0209C144.801 49.0151 144.794 49.0086 144.786 49.0017C144.779 48.9949 144.772 48.9885 144.767 48.983C144.762 48.9775 144.759 48.9738 144.758 48.9724C144.755 48.9692 144.764 48.9798 144.782 49.0106L150.838 45.499L156.893 41.9874C155.452 39.5022 153.36 37.5674 150.737 36.3431L147.776 42.6861ZM150.838 45.499L144.83 49.0915C144.733 48.929 144.944 49.1607 144.947 50.2405L151.947 50.2188L158.947 50.197C158.938 47.4369 158.41 44.522 156.846 41.9065L150.838 45.499ZM151.947 50.2188L144.947 50.2405C144.951 51.6468 144.609 52.1841 144.415 52.4205L149.836 56.8494L155.257 61.2783C157.895 58.0498 158.959 54.1667 158.947 50.197L151.947 50.2188ZM149.836 56.8494L144.415 52.4205C143.965 52.9714 143.223 53.5622 141.827 54.0248L144.031 60.6691L146.234 67.3133C149.749 66.1479 152.876 64.1922 155.257 61.2783L149.836 56.8494ZM144.031 60.6691L141.796 54.0352C140.229 54.5629 138.236 54.8967 135.718 54.9045L135.74 61.9045L135.762 68.9044C139.465 68.8929 142.998 68.4031 146.265 67.3029L144.031 60.6691ZM155.725 61.2663L149.269 58.5597L145.186 68.2991L155.747 68.2662L155.725 61.2663ZM167.331 33.582L173.787 36.2885L177.87 26.5492L167.31 26.5821L167.331 33.582ZM153.623 33.6247L146.623 33.6465L146.645 40.6464L153.645 40.6246L153.623 33.6247ZM153.593 24.1783L153.572 17.1784L146.572 17.2001L146.593 24.2001L153.593 24.1783ZM181.299 24.0921L188.299 24.0703L188.277 17.0704L181.277 17.0921L181.299 24.0921ZM181.321 31.0617L187.773 33.7767L188.325 32.4641L188.32 31.0399L181.321 31.0617ZM168.627 61.2261L168.649 68.2261L173.282 68.2117L175.079 63.9412L168.627 61.2261ZM155.725 61.2663L162.18 63.9728L173.787 36.2885L167.331 33.582L160.876 30.8755L149.269 58.5597L155.725 61.2663ZM167.331 33.582L167.31 26.5821L153.601 26.6247L153.623 33.6247L153.645 40.6246L167.353 40.582L167.331 33.582ZM153.623 33.6247L160.623 33.6029L160.593 24.1565L153.593 24.1783L146.593 24.2001L146.623 33.6465L153.623 33.6247ZM153.593 24.1783L153.615 31.1783L181.321 31.0921L181.299 24.0921L181.277 17.0921L153.572 17.1784L153.593 24.1783ZM181.299 24.0921L174.299 24.1139L174.321 31.0835L181.321 31.0617L188.32 31.0399L188.299 24.0703L181.299 24.0921ZM181.321 31.0617L174.868 28.3466L162.175 58.5111L168.627 61.2261L175.079 63.9412L187.773 33.7767L181.321 31.0617ZM168.627 61.2261L168.605 54.2261L155.703 54.2663L155.725 61.2663L155.747 68.2662L168.649 68.2261L168.627 61.2261Z" fill="#62009B" mask="url(#path-1-outside-1_1067_31637)"/>
<path d="M43.4287 104.017L43.3782 87.7879L51.8202 87.7617C53.1474 87.7575 54.2317 87.9978 55.0732 88.4824C55.9315 88.9669 56.572 89.6453 56.9948 90.5176C57.4174 91.3731 57.6305 92.372 57.6341 93.5144C57.6375 94.6064 57.3633 95.5733 56.8115 96.415C56.2765 97.2398 55.556 97.8721 54.6502 98.3117C54.8355 98.4623 54.9956 98.6466 55.1307 98.8646C55.2658 99.0658 55.4178 99.3509 55.587 99.72L57.465 103.973L52.5259 103.988L50.8001 100.088C50.6648 99.7857 50.4961 99.5762 50.2942 99.4593C50.1089 99.3254 49.8399 99.2591 49.4871 99.2602L48.1515 99.2643L48.1663 104.002L43.4287 104.017ZM48.1402 95.6356L50.635 95.6278C51.3238 95.6256 51.8525 95.4476 52.221 95.0937C52.6062 94.7229 52.7978 94.2015 52.7957 93.5295C52.7913 92.1015 52.1171 91.3896 50.7731 91.3937L48.1271 91.402L48.1402 95.6356ZM65.6335 104.2C64.2391 104.204 63.0036 103.981 61.927 103.531C60.8672 103.064 60.0334 102.369 59.4257 101.447C58.8349 100.525 58.5373 99.3832 58.5331 98.0224C58.5272 96.124 59.0601 94.6104 60.1318 93.4814C61.2034 92.3357 62.806 91.7595 64.9396 91.7529C66.8884 91.7468 68.4103 92.2377 69.5054 93.2255C70.6173 94.2132 71.1759 95.5639 71.1812 97.2775L71.1877 99.3691L62.897 99.3949C63.1173 100.033 63.5472 100.485 64.1864 100.752C64.8256 101.018 65.6912 101.15 66.7832 101.147C67.472 101.145 68.1606 101.084 68.8491 100.964C69.5543 100.827 70.1166 100.674 70.5361 100.505L70.5449 103.353C69.3706 103.911 67.7335 104.193 65.6335 104.2ZM62.889 96.8245L67.0973 96.8114L67.096 96.383C67.0945 95.9126 66.9421 95.5267 66.6388 95.2252C66.3523 94.9237 65.8394 94.7741 65.1002 94.7764C64.277 94.7789 63.698 94.9571 63.3631 95.311C63.0449 95.648 62.8869 96.1525 62.889 96.8245ZM78.2152 108.344C77.6272 108.345 76.9887 108.322 76.2998 108.274C75.6108 108.243 74.9554 108.177 74.3335 108.079C73.7284 107.98 73.2241 107.864 72.8204 107.73L72.811 104.706C73.2651 104.856 73.7863 104.981 74.3746 105.08C74.9797 105.178 75.5931 105.252 76.2149 105.301C76.8367 105.349 77.4079 105.373 77.9287 105.371C78.8191 105.368 79.5162 105.316 80.0198 105.213C80.5404 105.128 80.8003 104.967 80.7996 104.732C80.7989 104.53 80.7145 104.396 80.5463 104.33C80.3781 104.28 80.0589 104.255 79.5885 104.257L76.4385 104.267C75.2121 104.271 74.2623 104.08 73.5891 103.696C72.9326 103.295 72.6032 102.699 72.6007 101.91C72.5973 100.801 73.2081 100.026 74.4331 99.5858C73.7432 99.2351 73.2378 98.7915 72.917 98.2549C72.5961 97.7183 72.4344 97.0384 72.4318 96.2152C72.427 94.6696 72.9443 93.534 73.9836 92.8083C75.0398 92.0826 76.559 91.7167 78.5414 91.7105C78.9614 91.7092 79.4319 91.7414 79.9529 91.8069C80.4739 91.8557 80.852 91.905 81.0874 91.9546L85.7746 91.94L85.6827 94.8131L84.0951 94.8181C84.3987 95.2035 84.5514 95.6735 84.5531 96.2279C84.5569 97.4542 84.1988 98.4298 83.4786 99.1544C82.7752 99.8622 81.6591 100.218 80.1303 100.223C79.9119 100.224 79.6767 100.216 79.4246 100.2C79.1725 100.167 78.9373 100.143 78.7188 100.127C78.3493 100.162 78.0303 100.23 77.7618 100.331C77.4934 100.433 77.3595 100.601 77.3602 100.837C77.3607 101.005 77.4367 101.122 77.5881 101.189C77.7395 101.239 77.9495 101.263 78.2183 101.262L80.9651 101.254C82.1915 101.25 83.1584 101.533 83.8658 102.102C84.5732 102.671 84.9286 103.51 84.932 104.618C84.9357 105.794 84.3925 106.703 83.3025 107.345C82.2125 108.004 80.5168 108.336 78.2152 108.344ZM78.585 97.6324C79.3242 97.6301 79.8363 97.5025 80.1211 97.2497C80.4059 96.9968 80.5474 96.5763 80.5455 95.9883C80.5437 95.4003 80.3996 94.9724 80.1131 94.7045C79.8267 94.4366 79.3139 94.3037 78.5747 94.306C77.8859 94.3082 77.3823 94.4442 77.064 94.714C76.7623 94.9669 76.6125 95.3958 76.6144 96.0006C76.6161 96.5718 76.7602 96.9913 77.0467 97.2592C77.3499 97.5103 77.8627 97.6347 78.585 97.6324ZM87.4566 90.3472L87.446 86.92L92.5616 86.9041L92.5722 90.3313L87.4566 90.3472ZM87.8768 103.878L87.8503 95.386L86.1115 95.3914L86.504 91.9378L92.5772 91.9189L92.6143 103.864L87.8768 103.878ZM99.5494 104.094C98.5246 104.097 97.5584 104.025 96.6507 103.876C95.7599 103.745 95.0538 103.57 94.5323 103.354L94.5217 99.9517C95.1105 100.219 95.8084 100.426 96.6152 100.575C97.4389 100.724 98.1363 100.797 98.7075 100.795C99.3123 100.794 99.7659 100.775 100.068 100.741C100.387 100.706 100.546 100.563 100.546 100.311C100.545 100.025 100.267 99.8078 99.712 99.6583C99.1571 99.5088 98.4593 99.2926 97.6184 99.0096C96.5252 98.6266 95.709 98.1756 95.1698 97.6564C94.6305 97.1373 94.3594 96.3821 94.3563 95.3909C94.3526 94.1982 94.8201 93.2811 95.7589 92.6398C96.6977 91.9816 98.1751 91.6494 100.191 91.6432C100.964 91.6408 101.762 91.6971 102.586 91.8121C103.409 91.9272 104.056 92.0595 104.527 92.2093L104.538 95.5357C104.033 95.3188 103.478 95.161 102.873 95.062C102.285 94.9631 101.747 94.9143 101.26 94.9159C100.722 94.9175 100.243 94.9442 99.8235 94.9959C99.4037 95.0476 99.1941 95.1911 99.1948 95.4263C99.1957 95.6951 99.4315 95.8876 99.9022 96.0037C100.39 96.1198 101.037 96.3026 101.844 96.5521C102.752 96.818 103.459 97.1098 103.964 97.4275C104.486 97.745 104.848 98.1303 105.051 98.5833C105.271 99.0362 105.382 99.5987 105.384 100.271C105.388 101.48 104.895 102.423 103.906 103.098C102.934 103.756 101.481 104.088 99.5494 104.094ZM111.914 104.056C110.318 104.061 109.157 103.661 108.433 102.857C107.708 102.053 107.343 100.962 107.339 99.5842L107.326 95.3758L105.763 95.3807L105.752 91.8779L107.315 91.873L107.307 89.4286L112.041 88.2799L112.052 91.8583L114.799 91.8497L114.634 95.3531L112.063 95.3611L112.075 99.2166C112.077 99.7206 112.204 100.081 112.457 100.299C112.709 100.5 113.096 100.599 113.617 100.598C114.104 100.596 114.599 100.511 115.103 100.341L115.113 103.491C114.223 103.864 113.157 104.052 111.914 104.056ZM116.371 103.79L116.333 91.8449L120.895 91.8308L121.024 92.788C121.51 92.5008 122.131 92.2385 122.886 92.001C123.641 91.7634 124.405 91.6182 125.178 91.5654L125.189 95.0934C124.752 95.1284 124.273 95.1887 123.753 95.2743C123.249 95.3598 122.754 95.4706 122.267 95.6065C121.797 95.7256 121.403 95.8612 121.084 96.0134L121.108 103.775L116.371 103.79ZM129.526 104.001C128.77 104.003 128.064 103.871 127.408 103.604C126.769 103.337 126.255 102.919 125.867 102.349C125.479 101.779 125.283 101.057 125.281 100.184C125.277 98.9236 125.694 97.9479 126.532 97.2564C127.369 96.5482 128.637 96.1915 130.334 96.1862L133.433 96.1766L133.432 95.9498C133.431 95.4794 133.237 95.1356 132.85 94.9184C132.463 94.7012 131.782 94.5941 130.807 94.5971C129.43 94.6014 128.07 94.8156 126.727 95.2398L126.718 92.3922C127.322 92.1552 128.078 91.9596 128.984 91.8056C129.891 91.6348 130.815 91.5479 131.755 91.545C133.654 91.5391 135.159 91.9208 136.27 92.6901C137.381 93.4595 137.939 94.6841 137.945 96.3641L137.967 103.722L133.835 103.735L133.605 102.778C133.186 103.149 132.641 103.445 131.97 103.666C131.315 103.886 130.501 103.998 129.526 104.001ZM131.13 101.224C131.668 101.222 132.121 101.128 132.49 100.942C132.876 100.756 133.195 100.529 133.446 100.259L133.441 98.7721L131.148 98.7793C130.106 98.7825 129.587 99.1957 129.589 100.019C129.592 100.825 130.106 101.227 131.13 101.224ZM145.235 103.952C143.639 103.957 142.478 103.557 141.753 102.753C141.029 101.949 140.664 100.858 140.66 99.4805L140.647 95.2721L139.084 95.277L139.073 91.7742L140.636 91.7693L140.628 89.3249L145.362 88.1762L145.373 91.7546L148.12 91.746L147.955 95.2494L145.384 95.2574L145.396 99.1129C145.398 99.6169 145.525 99.9778 145.778 100.195C146.03 100.396 146.417 100.496 146.938 100.494C147.425 100.493 147.92 100.407 148.424 100.238L148.433 103.388C147.544 103.76 146.478 103.948 145.235 103.952ZM150.481 90.1511L150.47 86.7239L155.586 86.708L155.597 90.1352L150.481 90.1511ZM150.901 103.682L150.875 95.1899L149.136 95.1953L149.528 91.7417L155.601 91.7228L155.639 103.667L150.901 103.682ZM164.388 103.892C162.002 103.9 160.237 103.376 159.091 102.321C157.962 101.266 157.395 99.7224 157.388 97.6896C157.382 95.6736 157.948 94.1347 159.088 93.0727C160.227 91.994 161.981 91.4509 164.349 91.4435C166.735 91.4361 168.501 91.9682 169.646 93.0399C170.809 94.0947 171.393 95.63 171.399 97.646C171.406 99.6788 170.839 101.226 169.7 102.288C168.561 103.35 166.79 103.885 164.388 103.892ZM164.377 100.44C165.15 100.437 165.704 100.217 166.038 99.7795C166.39 99.3416 166.564 98.6355 166.561 97.6611C166.558 96.7035 166.38 96.0068 166.025 95.5711C165.688 95.1186 165.133 94.8935 164.36 94.8959C163.604 94.8983 163.059 95.1268 162.724 95.5814C162.39 96.0193 162.224 96.717 162.227 97.6746C162.23 98.649 162.4 99.354 162.737 99.7898C163.075 100.226 163.621 100.442 164.377 100.44ZM173.193 103.613L173.156 91.6681L177.591 91.6543L177.72 92.5611C178.173 92.2573 178.768 91.9867 179.507 91.7492C180.262 91.5116 181.068 91.3915 181.925 91.3888C183.42 91.3842 184.513 91.7504 185.204 92.4875C185.895 93.2245 186.243 94.3658 186.248 95.9114L186.272 103.572L181.534 103.587L181.512 96.405C181.51 95.8674 181.392 95.4813 181.156 95.2469C180.92 95.0124 180.508 94.8961 179.92 94.8979C179.567 94.899 179.198 94.9842 178.812 95.1534C178.443 95.3225 178.141 95.525 177.906 95.761L177.931 103.598L173.193 103.613ZM193.065 103.803C192.04 103.806 191.074 103.734 190.166 103.585C189.275 103.454 188.569 103.279 188.047 103.063L188.037 99.6607C188.626 99.9276 189.324 100.135 190.13 100.284C190.954 100.433 191.651 100.506 192.223 100.504C192.827 100.503 193.281 100.484 193.583 100.45C193.902 100.415 194.062 100.272 194.061 100.02C194.06 99.7343 193.782 99.5168 193.227 99.3673C192.672 99.2178 191.974 99.0016 191.134 98.7186C190.04 98.3356 189.224 97.8846 188.685 97.3654C188.146 96.8463 187.875 96.0912 187.871 95.1C187.868 93.9072 188.335 92.9901 189.274 92.3488C190.213 91.6907 191.69 91.3585 193.706 91.3522C194.479 91.3498 195.277 91.4061 196.101 91.5211C196.924 91.6362 197.572 91.7686 198.042 91.9183L198.053 95.2447C197.548 95.0279 196.993 94.87 196.388 94.7711C195.8 94.6721 195.262 94.6234 194.775 94.6249C194.237 94.6266 193.758 94.6532 193.339 94.705C192.919 94.7567 192.709 94.9001 192.71 95.1353C192.711 95.4041 192.947 95.5966 193.417 95.7127C193.905 95.8288 194.552 96.0116 195.359 96.2611C196.268 96.527 196.974 96.8188 197.479 97.1365C198.001 97.4541 198.363 97.8393 198.566 98.2923C198.786 98.7452 198.897 99.3077 198.899 99.9797C198.903 101.189 198.41 102.132 197.421 102.807C196.449 103.465 194.997 103.797 193.065 103.803Z" fill="#C259FF"/>
<path d="M18.092 146.596L18.0871 145.048C18.4212 144.411 18.8274 143.84 19.3058 143.334C19.7842 142.829 20.3166 142.311 20.903 141.781C21.3936 141.336 21.7885 140.968 22.0876 140.679C22.3987 140.391 22.6258 140.12 22.769 139.867C22.9242 139.603 23.0013 139.303 23.0002 138.967C22.9976 138.115 22.4383 137.69 21.3223 137.694C20.8063 137.695 20.3025 137.757 19.8108 137.879C19.3312 138 18.8757 138.151 18.4442 138.333L18.4353 135.453C18.9267 135.259 19.5022 135.107 20.1619 134.997C20.8215 134.875 21.4873 134.813 22.1593 134.811C23.5993 134.807 24.6744 135.145 25.3845 135.827C26.0946 136.497 26.4514 137.402 26.4549 138.542C26.4566 139.082 26.3921 139.55 26.2613 139.946C26.1425 140.331 25.9516 140.685 25.6886 141.01C25.4256 141.335 25.0847 141.684 24.6659 142.057C24.2949 142.383 23.9299 142.708 23.5709 143.033C23.2119 143.358 22.9249 143.677 22.7099 143.99L26.5798 143.978L26.5879 146.57L18.092 146.596ZM32.4102 146.551L32.4034 144.373L27.1294 144.39L27.1225 142.176L32.8241 134.958L35.7581 134.949L35.7789 141.627L36.8229 141.624L36.8314 144.36L35.7874 144.363L35.7942 146.541L32.4102 146.551ZM30.3793 141.788L32.9893 141.78L32.9795 138.63L30.3793 141.788ZM42.9196 146.699C41.5876 146.703 40.5129 146.478 39.6955 146.025C38.89 145.559 38.2999 144.883 37.9252 143.996C37.5504 143.109 37.361 142.024 37.357 140.74C37.353 139.456 37.5356 138.369 37.9049 137.48C38.2741 136.591 38.86 135.917 39.6626 135.459C40.4771 134.988 41.5504 134.751 42.8824 134.747C44.8744 134.741 46.298 135.252 47.1532 136.281C48.0084 137.299 48.439 138.773 48.445 140.705C48.4509 142.625 48.0295 144.103 47.1808 145.137C46.332 146.172 44.9116 146.692 42.9196 146.699ZM42.9106 143.819C43.6906 143.816 44.2298 143.557 44.5282 143.04C44.8386 142.511 44.9922 141.736 44.989 140.716C44.9858 139.684 44.8274 138.911 44.5138 138.396C44.2122 137.881 43.6714 137.624 42.8914 137.627C42.1114 137.629 41.5662 137.889 41.2558 138.406C40.9574 138.923 40.8098 139.697 40.813 140.729C40.8162 141.749 40.9686 142.523 41.2702 143.05C41.5838 143.565 42.1306 143.821 42.9106 143.819ZM54.9078 146.661C53.5758 146.666 52.5011 146.441 51.6837 145.987C50.8782 145.522 50.2881 144.846 49.9134 143.959C49.5386 143.072 49.3492 141.987 49.3452 140.703C49.3413 139.419 49.5239 138.332 49.8931 137.443C50.2623 136.554 50.8482 135.88 51.6508 135.421C52.4654 134.951 53.5386 134.714 54.8706 134.709C56.8626 134.703 58.2862 135.215 59.1414 136.244C59.9966 137.262 60.4272 138.736 60.4332 140.668C60.4392 142.588 60.0178 144.065 59.169 145.1C58.3202 146.135 56.8998 146.655 54.9078 146.661ZM54.8989 143.781C55.6788 143.779 56.218 143.519 56.5164 143.002C56.8268 142.473 56.9804 141.699 56.9772 140.679C56.974 139.647 56.8156 138.873 56.502 138.358C56.2004 137.843 55.6596 137.587 54.8796 137.589C54.0996 137.592 53.5544 137.852 53.244 138.369C52.9456 138.885 52.798 139.66 52.8012 140.692C52.8044 141.712 52.9568 142.485 53.2585 143.012C53.5721 143.528 54.1189 143.784 54.8989 143.781ZM63.6863 144.798L63.6796 142.638L61.3396 142.645L61.3316 140.053L63.6715 140.046L63.6648 137.868L66.2748 137.86L66.2815 140.038L68.6215 140.031L68.6296 142.623L66.2896 142.63L66.2963 144.79L63.6863 144.798ZM73.5943 146.423L73.5677 137.891L76.8257 137.881L76.9178 138.565C77.2652 138.36 77.7086 138.172 78.2481 138.003C78.7875 137.833 79.3332 137.729 79.8851 137.692L79.893 140.212C79.581 140.237 79.2392 140.28 78.8673 140.341C78.5075 140.402 78.1538 140.481 77.8061 140.578C77.4703 140.663 77.1886 140.76 76.961 140.869L76.9782 146.413L73.5943 146.423ZM85.2185 146.567C84.2225 146.57 83.34 146.411 82.571 146.089C81.814 145.756 81.2184 145.26 80.7844 144.601C80.3623 143.942 80.1498 143.127 80.1468 142.155C80.1426 140.799 80.5232 139.718 81.2887 138.911C82.0542 138.093 83.1989 137.681 84.7229 137.677C86.1149 137.672 87.202 138.023 87.9842 138.728C88.7784 139.434 89.1774 140.399 89.1812 141.623L89.1858 143.117L83.2638 143.135C83.4213 143.591 83.7283 143.914 84.1849 144.104C84.6415 144.295 85.2598 144.389 86.0398 144.387C86.5318 144.385 87.0236 144.341 87.5154 144.256C88.0191 144.158 88.4207 144.049 88.7203 143.928L88.7267 145.962C87.8879 146.361 86.7185 146.562 85.2185 146.567ZM83.2581 141.299L86.2641 141.29L86.2632 140.984C86.2621 140.648 86.1533 140.372 85.9366 140.157C85.7319 139.941 85.3656 139.835 84.8376 139.836C84.2496 139.838 83.836 139.965 83.5968 140.218C83.3695 140.459 83.2566 140.819 83.2581 141.299ZM94.2054 149.527C93.7854 149.528 93.3294 149.512 92.8373 149.477C92.3452 149.455 91.877 149.408 91.4328 149.338C91.0006 149.267 90.6403 149.184 90.352 149.089L90.3453 146.929C90.6697 147.036 91.0419 147.125 91.4622 147.196C91.8944 147.266 92.3325 147.319 92.7767 147.354C93.2208 147.388 93.6288 147.405 94.0008 147.404C94.6368 147.402 95.1347 147.364 95.4945 147.291C95.8663 147.23 96.0519 147.115 96.0514 146.947C96.051 146.803 95.9907 146.708 95.8705 146.66C95.7504 146.624 95.5223 146.607 95.1863 146.608L92.9364 146.615C92.0604 146.618 91.3819 146.482 90.9011 146.207C90.4322 145.921 90.1969 145.496 90.1951 144.932C90.1926 144.14 90.6289 143.586 91.5039 143.271C91.0112 143.021 90.6502 142.704 90.421 142.321C90.1918 141.938 90.0763 141.452 90.0744 140.864C90.071 139.76 90.4405 138.949 91.1829 138.43C91.9373 137.912 93.0225 137.651 94.4385 137.646C94.7385 137.645 95.0745 137.668 95.4467 137.715C95.8188 137.75 96.0889 137.785 96.257 137.821L99.605 137.81L99.5394 139.862L98.4054 139.866C98.6222 140.141 98.7313 140.477 98.7325 140.873C98.7352 141.749 98.4794 142.446 97.965 142.963C97.4626 143.469 96.6654 143.723 95.5734 143.727C95.4174 143.727 95.2494 143.722 95.0693 143.71C94.8893 143.687 94.7212 143.669 94.5652 143.658C94.3012 143.683 94.0734 143.732 93.8816 143.804C93.6898 143.877 93.5942 143.997 93.5947 144.165C93.5951 144.285 93.6494 144.369 93.7575 144.416C93.8656 144.452 94.0157 144.47 94.2077 144.469L96.1697 144.463C97.0457 144.46 97.7363 144.662 98.2416 145.069C98.7468 145.475 99.0007 146.074 99.0032 146.866C99.0058 147.706 98.6178 148.355 97.8392 148.814C97.0607 149.284 95.8494 149.522 94.2054 149.527ZM94.4696 141.876C94.9976 141.875 95.3633 141.783 95.5668 141.603C95.7702 141.422 95.8713 141.122 95.87 140.702C95.8687 140.282 95.7657 139.976 95.5611 139.785C95.3565 139.593 94.9902 139.499 94.4622 139.5C93.9702 139.502 93.6105 139.599 93.3831 139.792C93.1677 139.972 93.0606 140.279 93.062 140.711C93.0633 141.119 93.1662 141.418 93.3708 141.61C93.5873 141.789 93.9536 141.878 94.4696 141.876ZM100.806 136.673L100.799 134.225L104.453 134.213L104.46 136.661L100.806 136.673ZM101.107 146.338L101.088 140.272L99.8457 140.276L100.126 137.809L104.464 137.795L104.491 146.327L101.107 146.338ZM109.444 146.492C108.712 146.494 108.022 146.442 107.374 146.336C106.737 146.242 106.233 146.118 105.86 145.963L105.853 143.533C106.274 143.724 106.772 143.872 107.348 143.978C107.937 144.084 108.435 144.137 108.843 144.136C109.275 144.134 109.599 144.121 109.815 144.097C110.043 144.072 110.156 143.969 110.156 143.789C110.155 143.585 109.957 143.43 109.56 143.323C109.164 143.217 108.665 143.062 108.065 142.86C107.284 142.586 106.701 142.264 106.316 141.893C105.931 141.523 105.737 140.983 105.735 140.275C105.732 139.423 106.066 138.768 106.737 138.31C107.407 137.84 108.462 137.603 109.902 137.598C110.454 137.597 111.025 137.637 111.613 137.719C112.201 137.801 112.663 137.896 113 138.003L113.007 140.379C112.647 140.224 112.25 140.111 111.818 140.04C111.398 139.97 111.014 139.935 110.666 139.936C110.282 139.937 109.94 139.956 109.64 139.993C109.34 140.03 109.19 140.132 109.191 140.3C109.191 140.492 109.36 140.63 109.696 140.713C110.044 140.796 110.507 140.926 111.083 141.105C111.732 141.295 112.237 141.503 112.597 141.73C112.97 141.957 113.229 142.232 113.374 142.555C113.531 142.879 113.61 143.281 113.612 143.761C113.614 144.625 113.262 145.298 112.556 145.78C111.861 146.25 110.824 146.487 109.444 146.492ZM118.276 146.464C117.136 146.468 116.307 146.182 115.789 145.608C115.271 145.034 115.011 144.254 115.008 143.27L114.999 140.264L113.883 140.268L113.875 137.766L114.991 137.762L114.985 136.016L118.367 135.196L118.375 137.752L120.337 137.746L120.219 140.248L118.383 140.254L118.391 143.008C118.392 143.368 118.483 143.626 118.664 143.781C118.844 143.924 119.12 143.996 119.492 143.994C119.84 143.993 120.194 143.932 120.554 143.811L120.561 146.061C119.926 146.327 119.164 146.461 118.276 146.464ZM121.459 146.274L121.433 137.742L124.691 137.732L124.783 138.416C125.13 138.211 125.574 138.023 126.113 137.854C126.653 137.684 127.198 137.58 127.75 137.543L127.758 140.063C127.446 140.088 127.104 140.131 126.732 140.192C126.373 140.253 126.019 140.332 125.671 140.429C125.335 140.514 125.054 140.611 124.826 140.72L124.843 146.264L121.459 146.274ZM130.856 146.425C130.316 146.427 129.812 146.332 129.343 146.142C128.887 145.951 128.52 145.652 128.242 145.245C127.965 144.838 127.826 144.322 127.824 143.698C127.821 142.798 128.119 142.102 128.717 141.608C129.316 141.102 130.221 140.847 131.433 140.843L133.647 140.836L133.646 140.674C133.645 140.338 133.506 140.093 133.23 139.938C132.954 139.783 132.467 139.706 131.771 139.708C130.787 139.711 129.816 139.864 128.857 140.167L128.85 138.133C129.282 137.964 129.821 137.824 130.469 137.714C131.117 137.592 131.776 137.53 132.448 137.528C133.804 137.524 134.879 137.797 135.673 138.346C136.467 138.896 136.865 139.77 136.869 140.97L136.886 146.226L133.934 146.235L133.769 145.552C133.47 145.817 133.081 146.028 132.601 146.186C132.134 146.343 131.552 146.423 130.856 146.425ZM132.002 144.441C132.386 144.44 132.71 144.373 132.973 144.24C133.249 144.108 133.476 143.945 133.656 143.752L133.653 142.69L132.015 142.695C131.271 142.698 130.899 142.993 130.901 143.581C130.903 144.157 131.27 144.444 132.002 144.441ZM142.077 146.39C140.937 146.394 140.108 146.108 139.59 145.534C139.072 144.959 138.812 144.18 138.809 143.196L138.799 140.19L137.683 140.194L137.676 137.692L138.792 137.688L138.786 135.942L142.168 135.122L142.175 137.678L144.137 137.672L144.019 140.174L142.183 140.18L142.192 142.934C142.193 143.294 142.284 143.551 142.464 143.707C142.645 143.85 142.921 143.922 143.293 143.92C143.641 143.919 143.995 143.858 144.354 143.737L144.361 145.987C143.726 146.253 142.965 146.387 142.077 146.39ZM145.824 136.532L145.816 134.084L149.47 134.073L149.478 136.521L145.824 136.532ZM146.124 146.198L146.105 140.132L144.863 140.135L145.143 137.669L149.481 137.655L149.508 146.187L146.124 146.198ZM155.757 146.348C154.054 146.353 152.792 145.979 151.974 145.225C151.168 144.472 150.762 143.369 150.758 141.917C150.753 140.477 151.158 139.378 151.971 138.619C152.785 137.849 154.038 137.461 155.73 137.456C157.434 137.45 158.695 137.83 159.513 138.596C160.344 139.349 160.761 140.446 160.766 141.886C160.77 143.338 160.366 144.443 159.552 145.202C158.738 145.96 157.473 146.342 155.757 146.348ZM155.75 143.882C156.302 143.88 156.697 143.723 156.936 143.41C157.187 143.097 157.312 142.593 157.31 141.897C157.308 141.213 157.18 140.715 156.927 140.404C156.686 140.081 156.289 139.92 155.738 139.922C155.198 139.923 154.808 140.087 154.569 140.411C154.33 140.724 154.212 141.222 154.214 141.906C154.216 142.602 154.337 143.106 154.578 143.417C154.819 143.728 155.21 143.883 155.75 143.882ZM162.047 146.148L162.02 137.616L165.188 137.606L165.28 138.254C165.604 138.037 166.029 137.844 166.557 137.674C167.096 137.504 167.672 137.418 168.284 137.417C169.352 137.413 170.133 137.675 170.626 138.201C171.12 138.728 171.368 139.543 171.372 140.647L171.389 146.119L168.005 146.129L167.989 140.999C167.988 140.615 167.903 140.34 167.734 140.172C167.566 140.005 167.272 139.922 166.852 139.923C166.6 139.924 166.336 139.985 166.06 140.105C165.797 140.226 165.581 140.371 165.413 140.54L165.431 146.137L162.047 146.148ZM176.241 146.284C175.509 146.286 174.819 146.234 174.17 146.128C173.534 146.034 173.03 145.91 172.657 145.755L172.649 143.325C173.07 143.516 173.569 143.664 174.145 143.77C174.733 143.877 175.231 143.929 175.639 143.928C176.071 143.926 176.395 143.913 176.611 143.889C176.839 143.864 176.953 143.762 176.952 143.582C176.952 143.378 176.753 143.222 176.357 143.115C175.961 143.009 175.462 142.854 174.861 142.652C174.081 142.379 173.498 142.056 173.112 141.686C172.727 141.315 172.534 140.775 172.531 140.067C172.529 139.215 172.863 138.56 173.533 138.102C174.204 137.632 175.259 137.395 176.699 137.39C177.251 137.389 177.821 137.429 178.409 137.511C178.998 137.593 179.46 137.688 179.796 137.795L179.804 140.171C179.443 140.016 179.047 139.903 178.615 139.832C178.194 139.762 177.81 139.727 177.462 139.728C177.078 139.729 176.736 139.748 176.436 139.785C176.137 139.822 175.987 139.925 175.987 140.093C175.988 140.285 176.156 140.422 176.493 140.505C176.841 140.588 177.303 140.719 177.88 140.897C178.529 141.087 179.033 141.295 179.394 141.522C179.767 141.749 180.025 142.024 180.17 142.348C180.327 142.671 180.407 143.073 180.408 143.553C180.411 144.417 180.059 145.09 179.352 145.572C178.658 146.042 177.621 146.28 176.241 146.284ZM185.841 146.074L185.822 140.044L184.724 140.047L184.716 137.545L185.814 137.542L185.813 136.984C185.81 136.024 186.083 135.231 186.633 134.605C187.183 133.968 188.01 133.647 189.114 133.644C189.582 133.642 189.996 133.677 190.357 133.748C190.729 133.819 191.077 133.92 191.402 134.051L191.408 136.247C191.228 136.187 191.048 136.14 190.868 136.104C190.7 136.069 190.52 136.051 190.328 136.052C189.896 136.053 189.596 136.132 189.429 136.289C189.273 136.445 189.196 136.697 189.197 137.045L189.198 137.531L191.214 137.525L191.078 140.028L189.206 140.033L189.225 146.063L185.841 146.074ZM191.93 146.055L191.903 137.523L195.161 137.513L195.253 138.197C195.601 137.992 196.044 137.804 196.583 137.635C197.123 137.465 197.669 137.361 198.22 137.323L198.228 139.843C197.916 139.868 197.574 139.911 197.203 139.973C196.843 140.034 196.489 140.113 196.141 140.21C195.806 140.295 195.524 140.392 195.296 140.501L195.314 146.044L191.93 146.055ZM203.482 146.199C201.778 146.204 200.517 145.83 199.698 145.077C198.892 144.323 198.487 143.221 198.482 141.769C198.478 140.329 198.882 139.229 199.696 138.471C200.509 137.7 201.762 137.312 203.454 137.307C205.158 137.302 206.419 137.682 207.238 138.447C208.068 139.201 208.486 140.297 208.49 141.737C208.495 143.189 208.09 144.295 207.276 145.053C206.463 145.812 205.198 146.194 203.482 146.199ZM203.474 143.733C204.026 143.731 204.422 143.574 204.661 143.261C204.912 142.949 205.036 142.444 205.034 141.748C205.032 141.064 204.904 140.567 204.651 140.255C204.41 139.932 204.014 139.771 203.462 139.773C202.922 139.775 202.532 139.938 202.293 140.263C202.054 140.575 201.936 141.074 201.938 141.758C201.94 142.454 202.062 142.957 202.303 143.269C202.544 143.58 202.934 143.735 203.474 143.733ZM209.771 146L209.745 137.468L212.877 137.458L212.969 138.142C213.34 137.888 213.753 137.683 214.209 137.526C214.676 137.356 215.186 137.271 215.738 137.269C216.29 137.267 216.722 137.344 217.035 137.499C217.347 137.654 217.6 137.881 217.793 138.181C218.176 137.903 218.607 137.68 219.087 137.51C219.578 137.341 220.154 137.255 220.814 137.253C221.81 137.25 222.543 137.512 223.013 138.038C223.482 138.553 223.719 139.344 223.722 140.412L223.739 145.956L220.409 145.966L220.393 140.818C220.392 140.434 220.313 140.165 220.157 140.009C220 139.842 219.742 139.758 219.382 139.76C218.914 139.761 218.53 139.93 218.231 140.267C218.256 140.423 218.268 140.573 218.269 140.717C218.269 140.849 218.27 140.999 218.27 141.167L218.285 145.973L215.153 145.983L215.137 140.781C215.136 140.433 215.075 140.181 214.955 140.025C214.834 139.858 214.606 139.774 214.27 139.775C214.042 139.776 213.82 139.837 213.605 139.958C213.389 140.078 213.197 140.223 213.03 140.391L213.047 145.989L209.771 146ZM44.8895 171.693C44.3495 171.694 43.8452 171.6 43.3766 171.409C42.92 171.219 42.5531 170.92 42.2758 170.513C41.9985 170.106 41.8589 169.59 41.857 168.966C41.8542 168.066 42.152 167.369 42.7505 166.875C43.3489 166.369 44.2541 166.115 45.4661 166.111L47.6801 166.104L47.6796 165.942C47.6786 165.606 47.5398 165.36 47.2633 165.205C46.9868 165.05 46.5006 164.974 45.8046 164.976C44.8206 164.979 43.8491 165.132 42.89 165.435L42.8837 163.401C43.3151 163.232 43.8547 163.092 44.5024 162.982C45.15 162.86 45.8098 162.798 46.4818 162.796C47.8378 162.791 48.9126 163.064 49.7064 163.614C50.5001 164.163 50.8988 165.038 50.9025 166.238L50.9189 171.494L47.9669 171.503L47.8028 170.82C47.5036 171.085 47.1143 171.296 46.6347 171.453C46.1672 171.611 45.5855 171.691 44.8895 171.693ZM46.0353 169.709C46.4193 169.708 46.7431 169.641 47.0067 169.508C47.2823 169.375 47.5098 169.213 47.6892 169.02L47.6859 167.958L46.0479 167.963C45.3039 167.965 44.9328 168.261 44.9346 168.849C44.9364 169.425 45.3033 169.711 46.0353 169.709ZM57.1179 171.655C55.5699 171.659 54.3448 171.297 53.4425 170.568C52.5402 169.827 52.0867 168.712 52.0821 167.224C52.0789 166.216 52.2863 165.382 52.7043 164.72C53.1222 164.059 53.7087 163.571 54.4637 163.257C55.2187 162.93 56.1002 162.766 57.1082 162.763C57.7442 162.761 58.3144 162.807 58.8187 162.901C59.3229 162.984 59.8034 163.132 60.26 163.347L60.2674 165.723C59.5584 165.389 58.7539 165.224 57.8539 165.226C57.0859 165.229 56.5043 165.375 56.1092 165.664C55.7261 165.953 55.5357 166.47 55.5381 167.214C55.5402 167.91 55.7278 168.413 56.1008 168.724C56.4737 169.035 57.0622 169.189 57.8662 169.186C58.2982 169.185 58.7181 169.136 59.1258 169.038C59.5334 168.929 59.9229 168.778 60.2943 168.585L60.3021 171.069C59.8467 171.274 59.3552 171.42 58.8274 171.505C58.3117 171.603 57.7419 171.653 57.1179 171.655ZM61.5608 171.461L61.5342 162.929L64.7922 162.919L64.8843 163.602C65.2317 163.397 65.6751 163.21 66.2146 163.04C66.7541 162.871 67.2997 162.767 67.8516 162.729L67.8595 165.249C67.5475 165.274 67.2057 165.317 66.8339 165.378C66.4741 165.439 66.1203 165.519 65.7726 165.616C65.4369 165.701 65.1552 165.798 64.9275 165.906L64.9448 171.45L61.5608 171.461ZM73.1131 171.605C71.4091 171.61 70.1479 171.236 69.3295 170.483C68.5232 169.729 68.1178 168.626 68.1132 167.174C68.1088 165.734 68.5133 164.635 69.327 163.877C70.1406 163.106 71.3934 162.718 73.0854 162.713C74.7894 162.708 76.0506 163.088 76.869 163.853C77.6993 164.607 78.1167 165.703 78.1212 167.143C78.1257 168.595 77.7212 169.701 76.9075 170.459C76.0939 171.218 74.829 171.6 73.1131 171.605ZM73.1054 169.139C73.6574 169.137 74.0529 168.98 74.2919 168.667C74.5429 168.354 74.6674 167.85 74.6652 167.154C74.6631 166.47 74.5355 165.972 74.2826 165.661C74.0416 165.338 73.6451 165.177 73.0931 165.179C72.5531 165.181 72.1636 165.344 71.9246 165.669C71.6856 165.981 71.5671 166.48 71.5692 167.164C71.5714 167.86 71.693 168.363 71.9339 168.675C72.1749 168.986 72.5654 169.141 73.1054 169.139ZM82.6451 171.575C81.9131 171.577 81.223 171.526 80.5746 171.42C79.9383 171.326 79.434 171.201 79.0615 171.046L79.0539 168.616C79.4745 168.807 79.973 168.955 80.5493 169.062C81.1376 169.168 81.6358 169.22 82.0438 169.219C82.4758 169.218 82.7998 169.205 83.0157 169.18C83.2436 169.155 83.3573 169.053 83.3567 168.873C83.3561 168.669 83.1576 168.514 82.7613 168.407C82.3649 168.3 81.8665 168.146 81.2658 167.943C80.485 167.67 79.902 167.348 79.5168 166.977C79.1317 166.606 78.938 166.067 78.9358 165.359C78.9331 164.507 79.2671 163.852 79.9377 163.394C80.6082 162.923 81.6635 162.686 83.1035 162.682C83.6555 162.68 84.2256 162.72 84.8138 162.802C85.4021 162.885 85.8644 162.979 86.2007 163.086L86.2081 165.462C85.8476 165.307 85.4513 165.194 85.0191 165.124C84.5989 165.053 84.2147 165.018 83.8667 165.019C83.4827 165.021 83.1408 165.04 82.8409 165.077C82.541 165.113 82.3913 165.216 82.3919 165.384C82.3925 165.576 82.5609 165.713 82.8972 165.796C83.2454 165.879 83.7078 166.01 84.2844 166.188C84.933 166.378 85.4376 166.586 85.7983 166.813C86.171 167.04 86.4299 167.315 86.5749 167.639C86.7319 167.962 86.8112 168.364 86.8127 168.844C86.8153 169.708 86.4634 170.381 85.7569 170.864C85.0624 171.334 84.0251 171.571 82.6451 171.575ZM90.9595 171.549C90.2275 171.552 89.5374 171.5 88.889 171.394C88.2528 171.3 87.7484 171.175 87.3759 171.02L87.3683 168.59C87.7889 168.781 88.2874 168.93 88.8637 169.036C89.452 169.142 89.9502 169.194 90.3582 169.193C90.7902 169.192 91.1142 169.179 91.3301 169.154C91.558 169.129 91.6717 169.027 91.6711 168.847C91.6705 168.643 91.472 168.488 91.0757 168.381C90.6793 168.274 90.1809 168.12 89.5802 167.918C88.7994 167.644 88.2164 167.322 87.8312 166.951C87.4461 166.58 87.2524 166.041 87.2502 165.333C87.2475 164.481 87.5815 163.826 88.2521 163.368C88.9226 162.898 89.9779 162.66 91.4179 162.656C91.9699 162.654 92.54 162.694 93.1283 162.777C93.7165 162.859 94.1788 162.953 94.5151 163.06L94.5225 165.436C94.1621 165.281 93.7657 165.169 93.3335 165.098C92.9133 165.027 92.5291 164.992 92.1811 164.993C91.7972 164.995 91.4552 165.014 91.1553 165.051C90.8554 165.088 90.7058 165.19 90.7063 165.358C90.7069 165.55 90.8753 165.688 91.2116 165.771C91.5598 165.853 92.0222 165.984 92.5988 166.162C93.2474 166.352 93.752 166.561 94.1127 166.787C94.4854 167.014 94.7443 167.29 94.8893 167.613C95.0463 167.937 95.1256 168.338 95.1271 168.818C95.1298 169.682 94.7778 170.355 94.0713 170.838C93.3768 171.308 92.3395 171.545 90.9595 171.549ZM103.746 171.51C102.606 171.513 101.777 171.228 101.26 170.653C100.742 170.079 100.481 169.3 100.478 168.316L100.469 165.31L99.3531 165.313L99.3453 162.811L100.461 162.808L100.456 161.062L103.837 160.241L103.845 162.797L105.807 162.791L105.689 165.293L103.853 165.299L103.862 168.053C103.863 168.413 103.954 168.671 104.134 168.826C104.314 168.97 104.591 169.041 104.963 169.04C105.311 169.039 105.664 168.978 106.024 168.856L106.031 171.106C105.396 171.372 104.634 171.507 103.746 171.51ZM106.93 171.32L106.892 159.188L110.276 159.177L110.289 163.299C110.588 163.094 110.96 162.925 111.403 162.792C111.859 162.658 112.345 162.591 112.861 162.589C114.037 162.585 114.895 162.859 115.437 163.409C115.979 163.947 116.251 164.787 116.255 165.927L116.272 171.291L112.87 171.301L112.854 166.189C112.853 165.793 112.768 165.511 112.599 165.344C112.443 165.176 112.154 165.093 111.734 165.095C111.482 165.095 111.219 165.156 110.943 165.277C110.679 165.398 110.464 165.543 110.296 165.711L110.314 171.309L106.93 171.32ZM122.386 171.452C121.39 171.455 120.507 171.295 119.738 170.974C118.981 170.64 118.386 170.144 117.952 169.485C117.53 168.827 117.317 168.011 117.314 167.039C117.31 165.683 117.691 164.602 118.456 163.796C119.222 162.977 120.366 162.566 121.89 162.561C123.282 162.557 124.369 162.907 125.152 163.613C125.946 164.318 126.345 165.283 126.349 166.507L126.353 168.001L120.431 168.02C120.589 168.475 120.896 168.798 121.352 168.989C121.809 169.179 122.427 169.273 123.207 169.271C123.699 169.269 124.191 169.226 124.683 169.14C125.186 169.043 125.588 168.934 125.888 168.813L125.894 170.847C125.055 171.245 123.886 171.447 122.386 171.452ZM120.426 166.184L123.432 166.174L123.431 165.868C123.43 165.532 123.321 165.257 123.104 165.041C122.899 164.826 122.533 164.719 122.005 164.721C121.417 164.723 121.003 164.85 120.764 165.103C120.537 165.343 120.424 165.704 120.426 166.184ZM135.973 171.409C134.425 171.414 133.2 171.052 132.298 170.323C131.395 169.581 130.942 168.467 130.937 166.979C130.934 165.971 131.141 165.136 131.559 164.475C131.977 163.814 132.564 163.326 133.319 163.011C134.074 162.685 134.955 162.52 135.963 162.517C136.599 162.515 137.169 162.561 137.674 162.656C138.178 162.738 138.658 162.887 139.115 163.101L139.123 165.477C138.413 165.144 137.609 164.978 136.709 164.981C135.941 164.983 135.359 165.129 134.964 165.418C134.581 165.708 134.391 166.224 134.393 166.968C134.395 167.664 134.583 168.168 134.956 168.478C135.329 168.789 135.917 168.943 136.721 168.941C137.153 168.94 137.573 168.89 137.981 168.793C138.388 168.684 138.778 168.533 139.149 168.339L139.157 170.823C138.702 171.029 138.21 171.174 137.683 171.26C137.167 171.358 136.597 171.407 135.973 171.409ZM145.042 171.381C143.338 171.386 142.077 171.012 141.259 170.259C140.453 169.505 140.047 168.403 140.043 166.951C140.038 165.511 140.443 164.411 141.256 163.653C142.07 162.882 143.323 162.494 145.015 162.489C146.719 162.484 147.98 162.864 148.798 163.629C149.629 164.383 150.046 165.479 150.051 166.919C150.055 168.371 149.65 169.477 148.837 170.235C148.023 170.994 146.758 171.376 145.042 171.381ZM145.035 168.915C145.587 168.913 145.982 168.756 146.221 168.443C146.472 168.131 146.597 167.626 146.595 166.93C146.592 166.246 146.465 165.749 146.212 165.437C145.971 165.114 145.574 164.953 145.022 164.955C144.482 164.957 144.093 165.12 143.854 165.445C143.615 165.757 143.496 166.256 143.499 166.94C143.501 167.636 143.622 168.139 143.863 168.451C144.104 168.762 144.495 168.917 145.035 168.915ZM154.428 171.352C153.432 171.355 152.651 171.075 152.086 170.513C151.52 169.951 151.235 169.124 151.232 168.032L151.215 162.65L154.599 162.639L154.615 167.751C154.617 168.495 154.997 168.866 155.753 168.864C156.029 168.863 156.298 168.802 156.562 168.681C156.826 168.56 157.035 168.41 157.191 168.229L157.173 162.631L160.557 162.621L160.584 171.153L157.416 171.163L157.324 170.515C156.988 170.756 156.575 170.955 156.084 171.113C155.604 171.27 155.052 171.35 154.428 171.352ZM162.195 171.148L162.168 162.616L165.336 162.606L165.428 163.254C165.752 163.037 166.177 162.843 166.705 162.674C167.244 162.504 167.82 162.418 168.432 162.416C169.5 162.413 170.281 162.674 170.774 163.201C171.268 163.727 171.517 164.543 171.52 165.647L171.537 171.119L168.153 171.129L168.137 165.999C168.136 165.615 168.051 165.339 167.882 165.172C167.714 165.004 167.42 164.921 167 164.923C166.748 164.923 166.484 164.984 166.208 165.105C165.945 165.226 165.729 165.371 165.562 165.539L165.579 171.137L162.195 171.148ZM176.713 171.282C175.573 171.286 174.744 171.001 174.226 170.426C173.708 169.852 173.448 169.073 173.445 168.089L173.435 165.083L172.319 165.086L172.312 162.584L173.428 162.581L173.422 160.835L176.804 160.014L176.812 162.57L178.774 162.564L178.655 165.066L176.819 165.072L176.828 167.826C176.829 168.186 176.92 168.444 177.1 168.599C177.281 168.743 177.557 168.814 177.929 168.813C178.277 168.812 178.631 168.751 178.991 168.629L178.998 170.879C178.362 171.145 177.601 171.28 176.713 171.282ZM179.896 171.093L179.87 162.561L183.128 162.55L183.22 163.234C183.567 163.029 184.01 162.842 184.55 162.672C185.089 162.502 185.635 162.399 186.187 162.361L186.195 164.881C185.883 164.906 185.541 164.949 185.169 165.01C184.809 165.071 184.456 165.15 184.108 165.247C183.772 165.332 183.49 165.429 183.263 165.538L183.28 171.082L179.896 171.093ZM189.412 174.231C188.932 174.232 188.524 174.204 188.188 174.145C187.864 174.098 187.54 174.015 187.215 173.896L187.208 171.592C187.4 171.663 187.581 171.711 187.749 171.734C187.929 171.758 188.115 171.769 188.307 171.768C188.787 171.767 189.135 171.706 189.35 171.585C189.578 171.464 189.805 171.224 190.032 170.863L186.154 162.541L189.7 162.53L191.714 167.546L193.642 162.518L197.17 162.507L194.044 170.239C193.556 171.452 192.953 172.42 192.235 173.142C191.529 173.864 190.588 174.227 189.412 174.231ZM197.729 171.037L197.722 168.607L200.386 168.599L200.393 171.029L197.729 171.037Z" fill="#9D00F7"/>
</svg>
