<svg width="48" height="48" viewBox="0 0 48 48" fill="none" xmlns="http://www.w3.org/2000/svg">
  <!-- Gradient Background -->
  <defs>
    <linearGradient id="phoneGradient" x1="0%" y1="0%" x2="100%" y2="100%">
      <stop offset="0%" style="stop-color:#005CAA;stop-opacity:1" />
      <stop offset="100%" style="stop-color:#2563eb;stop-opacity:1" />
    </linearGradient>
  </defs>
  
  <!-- Rounded Rectangle Background -->
  <rect x="4" y="4" width="40" height="40" rx="12" fill="url(#phoneGradient)" />
  
  <!-- Phone Handset Icon (matching the image) -->
  <path d="M33.5 30.8L29.4 28.9C29 28.7 28.5 28.8 28.2 29.1L26.3 31.5C22.6 29.7 19.3 26.4 17.5 22.7L19.9 20.8C20.2 20.5 20.3 20 20.1 19.6L18.2 15.5C18 15.1 17.5 14.9 17.1 15L13.7 16.1C13.3 16.2 13 16.6 13 17C13 26.9 21.1 35 31 35C31.4 35 31.8 34.7 31.9 34.3L33 30.9C33.1 30.5 32.9 30 32.5 29.8Z" 
        fill="white"
        stroke="white" 
        stroke-width="0.5"/>
</svg>
